%TF.GenerationSoftware,KiCad,Pcbnew,9.99.0-4037-gdf8ecb877a*%
%TF.CreationDate,2025-11-08T20:25:16-05:00*%
%TF.ProjectId,horizon-mini,686f7269-7a6f-46e2-9d6d-696e692e6b69,rev?*%
%TF.SameCoordinates,Original*%
%TF.FileFunction,Soldermask,Bot*%
%TF.FilePolarity,Negative*%
%FSLAX46Y46*%
G04 Gerber Fmt 4.6, Leading zero omitted, Abs format (unit mm)*
G04 Created by KiCad (PCBNEW 9.99.0-4037-gdf8ecb877a) date 2025-11-08 20:25:16*
%MOMM*%
%LPD*%
G01*
G04 APERTURE LIST*
G04 Aperture macros list*
%AMRoundRect*
0 Rectangle with rounded corners*
0 $1 Rounding radius*
0 $2 $3 $4 $5 $6 $7 $8 $9 X,Y pos of 4 corners*
0 Add a 4 corners polygon primitive as box body*
4,1,4,$2,$3,$4,$5,$6,$7,$8,$9,$2,$3,0*
0 Add four circle primitives for the rounded corners*
1,1,$1+$1,$2,$3*
1,1,$1+$1,$4,$5*
1,1,$1+$1,$6,$7*
1,1,$1+$1,$8,$9*
0 Add four rect primitives between the rounded corners*
20,1,$1+$1,$2,$3,$4,$5,0*
20,1,$1+$1,$4,$5,$6,$7,0*
20,1,$1+$1,$6,$7,$8,$9,0*
20,1,$1+$1,$8,$9,$2,$3,0*%
G04 Aperture macros list end*
%ADD10C,1.400000*%
%ADD11R,1.700000X1.700000*%
%ADD12C,1.700000*%
%ADD13RoundRect,0.250001X-0.899999X-0.899999X0.899999X-0.899999X0.899999X0.899999X-0.899999X0.899999X0*%
%ADD14C,2.300000*%
%ADD15R,2.350000X0.850000*%
%ADD16RoundRect,0.200000X0.275000X-0.200000X0.275000X0.200000X-0.275000X0.200000X-0.275000X-0.200000X0*%
%ADD17RoundRect,0.200000X-0.200000X-0.275000X0.200000X-0.275000X0.200000X0.275000X-0.200000X0.275000X0*%
%ADD18RoundRect,0.249999X-0.850001X0.850001X-0.850001X-0.850001X0.850001X-0.850001X0.850001X0.850001X0*%
%ADD19C,2.200000*%
%ADD20RoundRect,0.200000X0.200000X0.275000X-0.200000X0.275000X-0.200000X-0.275000X0.200000X-0.275000X0*%
%ADD21RoundRect,0.175000X-0.175000X-0.325000X0.175000X-0.325000X0.175000X0.325000X-0.175000X0.325000X0*%
%ADD22RoundRect,0.150000X-0.200000X-0.150000X0.200000X-0.150000X0.200000X0.150000X-0.200000X0.150000X0*%
%ADD23C,0.650000*%
%ADD24RoundRect,0.150000X-0.150000X-0.425000X0.150000X-0.425000X0.150000X0.425000X-0.150000X0.425000X0*%
%ADD25RoundRect,0.075000X-0.075000X-0.500000X0.075000X-0.500000X0.075000X0.500000X-0.075000X0.500000X0*%
%ADD26O,1.000000X1.800000*%
%ADD27O,1.000000X2.100000*%
%ADD28R,2.311400X2.311400*%
%ADD29RoundRect,0.218750X-0.256250X0.218750X-0.256250X-0.218750X0.256250X-0.218750X0.256250X0.218750X0*%
%ADD30RoundRect,0.150000X-0.587500X-0.150000X0.587500X-0.150000X0.587500X0.150000X-0.587500X0.150000X0*%
%ADD31RoundRect,0.200000X-0.275000X0.200000X-0.275000X-0.200000X0.275000X-0.200000X0.275000X0.200000X0*%
%ADD32RoundRect,0.140000X-0.140000X-0.170000X0.140000X-0.170000X0.140000X0.170000X-0.140000X0.170000X0*%
%ADD33RoundRect,0.140000X0.140000X0.170000X-0.140000X0.170000X-0.140000X-0.170000X0.140000X-0.170000X0*%
%ADD34RoundRect,0.218750X0.218750X0.256250X-0.218750X0.256250X-0.218750X-0.256250X0.218750X-0.256250X0*%
%ADD35RoundRect,0.162500X-0.650000X-0.162500X0.650000X-0.162500X0.650000X0.162500X-0.650000X0.162500X0*%
G04 APERTURE END LIST*
D10*
%TO.C,*%
X168500000Y-112500000D03*
%TD*%
D11*
%TO.C,J8*%
X144170000Y-99250000D03*
D12*
X144170000Y-96710000D03*
X146710000Y-99250000D03*
X146710000Y-96710000D03*
X149250000Y-99250000D03*
X149250000Y-96710000D03*
%TD*%
D10*
%TO.C,*%
X137000000Y-120250000D03*
%TD*%
%TO.C,REF\u002A\u002A*%
X168500000Y-112500000D03*
%TD*%
D13*
%TO.C,J2*%
X164000000Y-132250000D03*
D14*
X167500000Y-132250000D03*
%TD*%
D10*
%TO.C,*%
X137000000Y-120250000D03*
%TD*%
%TO.C,*%
X137500000Y-135000000D03*
%TD*%
D15*
%TO.C,J16*%
X147247259Y-103969487D03*
X144897259Y-105969487D03*
%TD*%
D16*
%TO.C,R30*%
X136750000Y-117825000D03*
X136750000Y-116175000D03*
%TD*%
D17*
%TO.C,R31*%
X136664937Y-111312074D03*
X138314937Y-111312074D03*
%TD*%
D18*
%TO.C,J1*%
X139578473Y-104508907D03*
D19*
X139578473Y-107048907D03*
%TD*%
D20*
%TO.C,R11*%
X144928447Y-125307375D03*
X143278447Y-125307375D03*
%TD*%
D21*
%TO.C,D14*%
X163750000Y-114000000D03*
D22*
X163750000Y-112300000D03*
X165750000Y-112300000D03*
X165750000Y-114200000D03*
%TD*%
D23*
%TO.C,J7*%
X161571249Y-109224323D03*
X167351249Y-109224323D03*
D24*
X161261249Y-110299323D03*
X162061249Y-110299323D03*
D25*
X163211249Y-110299323D03*
X164211249Y-110299323D03*
X164711249Y-110299323D03*
X165711249Y-110299323D03*
D24*
X166861249Y-110299323D03*
X167661249Y-110299323D03*
X167661249Y-110299323D03*
X166861249Y-110299323D03*
D25*
X166211249Y-110299323D03*
X165211249Y-110299323D03*
X163711249Y-110299323D03*
X162711249Y-110299323D03*
D24*
X162061249Y-110299323D03*
X161261249Y-110299323D03*
D26*
X160141249Y-105544323D03*
D27*
X160141249Y-109724323D03*
D26*
X168781249Y-105544323D03*
D27*
X168781249Y-109724323D03*
%TD*%
D28*
%TO.C,BZ2*%
X165550001Y-123800001D03*
X158449999Y-123800001D03*
X165550001Y-116699999D03*
X158449999Y-116699999D03*
%TD*%
D29*
%TO.C,F2*%
X141296159Y-109766359D03*
X141296159Y-111341359D03*
%TD*%
D17*
%TO.C,R2*%
X146249801Y-125307375D03*
X147899801Y-125307375D03*
%TD*%
D30*
%TO.C,Q1*%
X157835782Y-131436692D03*
X157835782Y-129536692D03*
X159710782Y-130486692D03*
%TD*%
D31*
%TO.C,R80*%
X139778874Y-109724095D03*
X139778874Y-111374095D03*
%TD*%
D32*
%TO.C,C7*%
X143920000Y-109600000D03*
X144880000Y-109600000D03*
%TD*%
D33*
%TO.C,C9*%
X144880000Y-117600000D03*
X143920000Y-117600000D03*
%TD*%
D30*
%TO.C,Q2*%
X137018712Y-114731577D03*
X137018712Y-112831577D03*
X138893712Y-113781577D03*
%TD*%
D34*
%TO.C,D2*%
X138293333Y-109817907D03*
X136718333Y-109817907D03*
%TD*%
D35*
%TO.C,U6*%
X142075000Y-130909715D03*
X142075000Y-129639715D03*
X142075000Y-128369715D03*
X142075000Y-127099715D03*
X149250000Y-127099715D03*
X149250000Y-128369715D03*
X149250000Y-129639715D03*
X149250000Y-130909715D03*
%TD*%
D17*
%TO.C,R23*%
X143425000Y-120750000D03*
X145075000Y-120750000D03*
%TD*%
D16*
%TO.C,R1*%
X156070027Y-131303671D03*
X156070027Y-129653671D03*
%TD*%
D17*
%TO.C,R12*%
X148275746Y-108960863D03*
X149925746Y-108960863D03*
%TD*%
D32*
%TO.C,C8*%
X146720000Y-112400000D03*
X147680000Y-112400000D03*
%TD*%
M02*
