%TF.GenerationSoftware,KiCad,Pcbnew,9.99.0-4037-gdf8ecb877a*%
%TF.CreationDate,2025-11-08T20:25:16-05:00*%
%TF.ProjectId,horizon-mini,686f7269-7a6f-46e2-9d6d-696e692e6b69,rev?*%
%TF.SameCoordinates,Original*%
%TF.FileFunction,Soldermask,Top*%
%TF.FilePolarity,Negative*%
%FSLAX46Y46*%
G04 Gerber Fmt 4.6, Leading zero omitted, Abs format (unit mm)*
G04 Created by KiCad (PCBNEW 9.99.0-4037-gdf8ecb877a) date 2025-11-08 20:25:16*
%MOMM*%
%LPD*%
G01*
G04 APERTURE LIST*
G04 Aperture macros list*
%AMRoundRect*
0 Rectangle with rounded corners*
0 $1 Rounding radius*
0 $2 $3 $4 $5 $6 $7 $8 $9 X,Y pos of 4 corners*
0 Add a 4 corners polygon primitive as box body*
4,1,4,$2,$3,$4,$5,$6,$7,$8,$9,$2,$3,0*
0 Add four circle primitives for the rounded corners*
1,1,$1+$1,$2,$3*
1,1,$1+$1,$4,$5*
1,1,$1+$1,$6,$7*
1,1,$1+$1,$8,$9*
0 Add four rect primitives between the rounded corners*
20,1,$1+$1,$2,$3,$4,$5,0*
20,1,$1+$1,$4,$5,$6,$7,0*
20,1,$1+$1,$6,$7,$8,$9,0*
20,1,$1+$1,$8,$9,$2,$3,0*%
G04 Aperture macros list end*
%ADD10C,1.400000*%
%ADD11RoundRect,0.200000X0.200000X0.275000X-0.200000X0.275000X-0.200000X-0.275000X0.200000X-0.275000X0*%
%ADD12RoundRect,0.150000X-0.587500X-0.150000X0.587500X-0.150000X0.587500X0.150000X-0.587500X0.150000X0*%
%ADD13RoundRect,0.200000X0.275000X-0.200000X0.275000X0.200000X-0.275000X0.200000X-0.275000X-0.200000X0*%
%ADD14RoundRect,0.225000X0.225000X0.250000X-0.225000X0.250000X-0.225000X-0.250000X0.225000X-0.250000X0*%
%ADD15RoundRect,0.200000X-0.275000X0.200000X-0.275000X-0.200000X0.275000X-0.200000X0.275000X0.200000X0*%
%ADD16R,1.200000X1.200000*%
%ADD17RoundRect,0.218750X-0.218750X-0.256250X0.218750X-0.256250X0.218750X0.256250X-0.218750X0.256250X0*%
%ADD18RoundRect,0.075000X-0.662500X-0.075000X0.662500X-0.075000X0.662500X0.075000X-0.662500X0.075000X0*%
%ADD19RoundRect,0.075000X-0.075000X-0.662500X0.075000X-0.662500X0.075000X0.662500X-0.075000X0.662500X0*%
%ADD20RoundRect,0.200000X-0.200000X-0.275000X0.200000X-0.275000X0.200000X0.275000X-0.200000X0.275000X0*%
%ADD21R,1.700000X1.700000*%
%ADD22C,1.700000*%
%ADD23RoundRect,0.225000X0.250000X-0.225000X0.250000X0.225000X-0.250000X0.225000X-0.250000X-0.225000X0*%
%ADD24RoundRect,0.225000X-0.225000X-0.250000X0.225000X-0.250000X0.225000X0.250000X-0.225000X0.250000X0*%
%ADD25R,0.700000X1.750000*%
%ADD26R,1.450000X1.000000*%
%ADD27R,1.000000X1.550000*%
%ADD28R,0.800000X1.500000*%
%ADD29R,1.300000X1.500000*%
%ADD30R,1.500000X1.500000*%
%ADD31R,0.800000X1.400000*%
%ADD32RoundRect,0.150000X-0.150000X0.512500X-0.150000X-0.512500X0.150000X-0.512500X0.150000X0.512500X0*%
%ADD33RoundRect,0.135000X0.135000X0.185000X-0.135000X0.185000X-0.135000X-0.185000X0.135000X-0.185000X0*%
%ADD34RoundRect,0.250000X-0.325000X-0.650000X0.325000X-0.650000X0.325000X0.650000X-0.325000X0.650000X0*%
%ADD35R,1.500000X2.200000*%
%ADD36RoundRect,0.225000X-0.250000X0.225000X-0.250000X-0.225000X0.250000X-0.225000X0.250000X0.225000X0*%
%ADD37RoundRect,0.125000X-0.187500X-0.125000X0.187500X-0.125000X0.187500X0.125000X-0.187500X0.125000X0*%
%ADD38R,1.100000X1.900000*%
%ADD39RoundRect,0.218750X0.256250X-0.218750X0.256250X0.218750X-0.256250X0.218750X-0.256250X-0.218750X0*%
%ADD40RoundRect,0.140000X0.140000X0.170000X-0.140000X0.170000X-0.140000X-0.170000X0.140000X-0.170000X0*%
%ADD41RoundRect,0.087500X0.087500X-0.225000X0.087500X0.225000X-0.087500X0.225000X-0.087500X-0.225000X0*%
%ADD42RoundRect,0.087500X0.225000X-0.087500X0.225000X0.087500X-0.225000X0.087500X-0.225000X-0.087500X0*%
%ADD43RoundRect,0.087500X-0.125000X-0.087500X0.125000X-0.087500X0.125000X0.087500X-0.125000X0.087500X0*%
%ADD44RoundRect,0.087500X-0.087500X-0.125000X0.087500X-0.125000X0.087500X0.125000X-0.087500X0.125000X0*%
%ADD45RoundRect,0.250001X-0.899999X-0.899999X0.899999X-0.899999X0.899999X0.899999X-0.899999X0.899999X0*%
%ADD46C,2.300000*%
%ADD47RoundRect,0.150000X0.150000X-0.512500X0.150000X0.512500X-0.150000X0.512500X-0.150000X-0.512500X0*%
%ADD48RoundRect,0.087500X-0.325000X-0.087500X0.325000X-0.087500X0.325000X0.087500X-0.325000X0.087500X0*%
%ADD49RoundRect,0.087500X-0.087500X-0.325000X0.087500X-0.325000X0.087500X0.325000X-0.087500X0.325000X0*%
%ADD50R,2.700000X2.700000*%
%ADD51RoundRect,0.218750X0.218750X0.256250X-0.218750X0.256250X-0.218750X-0.256250X0.218750X-0.256250X0*%
%ADD52RoundRect,0.250000X-0.262500X-0.450000X0.262500X-0.450000X0.262500X0.450000X-0.262500X0.450000X0*%
%ADD53RoundRect,0.140000X-0.140000X-0.170000X0.140000X-0.170000X0.140000X0.170000X-0.140000X0.170000X0*%
%ADD54RoundRect,0.160000X0.565000X0.240000X-0.565000X0.240000X-0.565000X-0.240000X0.565000X-0.240000X0*%
%ADD55RoundRect,0.120000X0.605000X0.180000X-0.605000X0.180000X-0.605000X-0.180000X0.605000X-0.180000X0*%
%ADD56RoundRect,0.140000X-0.170000X0.140000X-0.170000X-0.140000X0.170000X-0.140000X0.170000X0.140000X0*%
%ADD57RoundRect,0.249999X-0.850001X0.850001X-0.850001X-0.850001X0.850001X-0.850001X0.850001X0.850001X0*%
%ADD58C,2.200000*%
%ADD59C,0.650000*%
%ADD60O,1.000000X1.800000*%
%ADD61O,1.000000X2.100000*%
G04 APERTURE END LIST*
D10*
%TO.C,*%
X168500000Y-112500000D03*
%TD*%
D11*
%TO.C,R25*%
X152766958Y-104464758D03*
X151116958Y-104464758D03*
%TD*%
%TO.C,R13*%
X149757500Y-104476159D03*
X148107500Y-104476159D03*
%TD*%
D12*
%TO.C,Q10*%
X162312500Y-116550000D03*
X162312500Y-118450000D03*
X164187500Y-117500000D03*
%TD*%
D11*
%TO.C,R19*%
X149757500Y-107408166D03*
X148107500Y-107408166D03*
%TD*%
D13*
%TO.C,R24*%
X151700298Y-113674330D03*
X151700298Y-112024330D03*
%TD*%
D14*
%TO.C,C47*%
X157182231Y-111704907D03*
X155632231Y-111704907D03*
%TD*%
D15*
%TO.C,R20*%
X151682500Y-114989848D03*
X151682500Y-116639848D03*
%TD*%
D16*
%TO.C,D10*%
X164987458Y-120555960D03*
X162187458Y-120555960D03*
%TD*%
D17*
%TO.C,D11*%
X155637012Y-108744294D03*
X157212012Y-108744294D03*
%TD*%
D18*
%TO.C,U5*%
X141520000Y-112314848D03*
X141520000Y-112814848D03*
X141520000Y-113314848D03*
X141520000Y-113814848D03*
X141520000Y-114314848D03*
X141520000Y-114814848D03*
X141520000Y-115314848D03*
X141520000Y-115814848D03*
X141520000Y-116314848D03*
X141520000Y-116814848D03*
X141520000Y-117314848D03*
X141520000Y-117814848D03*
D19*
X142932500Y-119227348D03*
X143432500Y-119227348D03*
X143932500Y-119227348D03*
X144432500Y-119227348D03*
X144932500Y-119227348D03*
X145432500Y-119227348D03*
X145932500Y-119227348D03*
X146432500Y-119227348D03*
X146932500Y-119227348D03*
X147432500Y-119227348D03*
X147932500Y-119227348D03*
X148432500Y-119227348D03*
D18*
X149845000Y-117814848D03*
X149845000Y-117314848D03*
X149845000Y-116814848D03*
X149845000Y-116314848D03*
X149845000Y-115814848D03*
X149845000Y-115314848D03*
X149845000Y-114814848D03*
X149845000Y-114314848D03*
X149845000Y-113814848D03*
X149845000Y-113314848D03*
X149845000Y-112814848D03*
X149845000Y-112314848D03*
D19*
X148432500Y-110902348D03*
X147932500Y-110902348D03*
X147432500Y-110902348D03*
X146932500Y-110902348D03*
X146432500Y-110902348D03*
X145932500Y-110902348D03*
X145432500Y-110902348D03*
X144932500Y-110902348D03*
X144432500Y-110902348D03*
X143932500Y-110902348D03*
X143432500Y-110902348D03*
X142932500Y-110902348D03*
%TD*%
D20*
%TO.C,R28*%
X154055700Y-119536707D03*
X155705700Y-119536707D03*
%TD*%
D21*
%TO.C,J8*%
X144170000Y-99250000D03*
D22*
X144170000Y-96710000D03*
X146710000Y-99250000D03*
X146710000Y-96710000D03*
X149250000Y-99250000D03*
X149250000Y-96710000D03*
%TD*%
D23*
%TO.C,C17*%
X162508162Y-128250680D03*
X162508162Y-126700680D03*
%TD*%
D24*
%TO.C,C10*%
X163975000Y-127000000D03*
X165525000Y-127000000D03*
%TD*%
D20*
%TO.C,R15*%
X160675000Y-107969011D03*
X162325000Y-107969011D03*
%TD*%
D25*
%TO.C,J3*%
X142487500Y-122850000D03*
X143587500Y-122850000D03*
X144687500Y-122850000D03*
X145787500Y-122850000D03*
X146887500Y-122850000D03*
X147987500Y-122850000D03*
X149087500Y-122850000D03*
X150187500Y-122850000D03*
D26*
X151312500Y-132075000D03*
D27*
X140087500Y-133650000D03*
D28*
X151637500Y-130575000D03*
D29*
X151387500Y-122975000D03*
D30*
X140037500Y-122975000D03*
D31*
X139687500Y-131225000D03*
%TD*%
D20*
%TO.C,R14*%
X155584270Y-110245906D03*
X157234270Y-110245906D03*
%TD*%
D32*
%TO.C,U16*%
X160567338Y-112008373D03*
X159617338Y-112008373D03*
X158667338Y-112008373D03*
X158667338Y-114283373D03*
X160567338Y-114283373D03*
%TD*%
D16*
%TO.C,D13*%
X157959458Y-106213734D03*
X157959458Y-103413734D03*
%TD*%
%TO.C,D6*%
X164337785Y-125400991D03*
X164337785Y-122600991D03*
%TD*%
D11*
%TO.C,R7*%
X168238518Y-120441079D03*
X166588518Y-120441079D03*
%TD*%
D33*
%TO.C,R5*%
X143954738Y-120739203D03*
X142934738Y-120739203D03*
%TD*%
D34*
%TO.C,C46*%
X157525000Y-120598225D03*
X160475000Y-120598225D03*
%TD*%
D35*
%TO.C,L7*%
X160689505Y-132564825D03*
X154289505Y-132564825D03*
%TD*%
D20*
%TO.C,R9*%
X153273613Y-122533518D03*
X154923613Y-122533518D03*
%TD*%
%TO.C,R26*%
X149543261Y-119491433D03*
X151193261Y-119491433D03*
%TD*%
%TO.C,R29*%
X154083225Y-104740063D03*
X155733225Y-104740063D03*
%TD*%
%TO.C,R4*%
X160908925Y-124868489D03*
X162558925Y-124868489D03*
%TD*%
D23*
%TO.C,C4*%
X152658866Y-107491147D03*
X152658866Y-105941147D03*
%TD*%
D13*
%TO.C,R16*%
X166750000Y-108044011D03*
X166750000Y-106394011D03*
%TD*%
D36*
%TO.C,C2*%
X157130700Y-116197383D03*
X157130700Y-117747383D03*
%TD*%
D20*
%TO.C,R10*%
X156243302Y-122534151D03*
X157893302Y-122534151D03*
%TD*%
D24*
%TO.C,C6*%
X145328526Y-108940285D03*
X146878526Y-108940285D03*
%TD*%
D14*
%TO.C,C38*%
X169229087Y-115921863D03*
X167679087Y-115921863D03*
%TD*%
D36*
%TO.C,C5*%
X157137653Y-113182732D03*
X157137653Y-114732732D03*
%TD*%
D37*
%TO.C,U1*%
X166077753Y-123517122D03*
X166077753Y-124167122D03*
X166077753Y-124817122D03*
X166077753Y-125467122D03*
X168202753Y-125467122D03*
X168202753Y-124817122D03*
X168202753Y-124167122D03*
X168202753Y-123517122D03*
D38*
X167140253Y-124492122D03*
%TD*%
D14*
%TO.C,C28*%
X165306298Y-108250000D03*
X163756298Y-108250000D03*
%TD*%
D10*
%TO.C,*%
X137000000Y-120250000D03*
%TD*%
%TO.C,REF\u002A\u002A*%
X168500000Y-112500000D03*
%TD*%
D23*
%TO.C,C1*%
X152630700Y-119561707D03*
X152630700Y-118011707D03*
%TD*%
D39*
%TO.C,D9*%
X166156497Y-118690991D03*
X166156497Y-117115991D03*
%TD*%
D40*
%TO.C,C12*%
X139674480Y-115156223D03*
X138714480Y-115156223D03*
%TD*%
D41*
%TO.C,U9*%
X154130700Y-118199207D03*
X154630700Y-118199207D03*
X155130700Y-118199207D03*
X155630700Y-118199207D03*
D42*
X155793200Y-117536707D03*
X155793200Y-117036707D03*
X155793200Y-116536707D03*
D41*
X155630700Y-115874207D03*
X155130700Y-115874207D03*
X154630700Y-115874207D03*
X154130700Y-115874207D03*
D42*
X153968200Y-116536707D03*
X153968200Y-117036707D03*
X153968200Y-117536707D03*
%TD*%
D43*
%TO.C,U7*%
X153914161Y-106502854D03*
X153914161Y-107002854D03*
D44*
X154176661Y-107515354D03*
X154676661Y-107515354D03*
X155176661Y-107515354D03*
D43*
X155439161Y-107002854D03*
X155439161Y-106502854D03*
D44*
X155176661Y-105990354D03*
X154676661Y-105990354D03*
X154176661Y-105990354D03*
%TD*%
D11*
%TO.C,R21*%
X155705700Y-114536707D03*
X154055700Y-114536707D03*
%TD*%
D45*
%TO.C,J2*%
X164000000Y-132250000D03*
D46*
X167500000Y-132250000D03*
%TD*%
D47*
%TO.C,U3*%
X158674069Y-118481725D03*
X159624069Y-118481725D03*
X160574069Y-118481725D03*
X160574069Y-116206725D03*
X159624069Y-116206725D03*
X158674069Y-116206725D03*
%TD*%
D13*
%TO.C,R3*%
X160999111Y-127970058D03*
X160999111Y-126320058D03*
%TD*%
D10*
%TO.C,*%
X137000000Y-120250000D03*
%TD*%
D13*
%TO.C,R22*%
X141168873Y-120559481D03*
X141168873Y-118909481D03*
%TD*%
D16*
%TO.C,D5*%
X159507980Y-122926292D03*
X162307980Y-122926292D03*
%TD*%
D48*
%TO.C,U2*%
X153316161Y-124990007D03*
X153316161Y-125640007D03*
X153316161Y-126290007D03*
X153316161Y-126940007D03*
D49*
X154303661Y-127927507D03*
X154953661Y-127927507D03*
X155603661Y-127927507D03*
X156253661Y-127927507D03*
D48*
X157241161Y-126940007D03*
X157241161Y-126290007D03*
X157241161Y-125640007D03*
X157241161Y-124990007D03*
D49*
X156253661Y-124002507D03*
X155603661Y-124002507D03*
X154953661Y-124002507D03*
X154303661Y-124002507D03*
D50*
X155278661Y-125965007D03*
%TD*%
D51*
%TO.C,D12*%
X165245529Y-105174028D03*
X163670529Y-105174028D03*
%TD*%
D14*
%TO.C,C40*%
X163445174Y-115017418D03*
X161895174Y-115017418D03*
%TD*%
D11*
%TO.C,R18*%
X149729970Y-105935280D03*
X148079970Y-105935280D03*
%TD*%
D23*
%TO.C,C37*%
X169226138Y-118980515D03*
X169226138Y-117430515D03*
%TD*%
D52*
%TO.C,R6*%
X167045740Y-127226637D03*
X168870740Y-127226637D03*
%TD*%
D10*
%TO.C,*%
X137500000Y-135000000D03*
%TD*%
D23*
%TO.C,C3*%
X151158866Y-107491147D03*
X151158866Y-105941147D03*
%TD*%
D24*
%TO.C,C39*%
X153326533Y-121006503D03*
X154876533Y-121006503D03*
%TD*%
D15*
%TO.C,R17*%
X162250000Y-104894011D03*
X162250000Y-106544011D03*
%TD*%
D53*
%TO.C,C11*%
X138722535Y-116119008D03*
X139682535Y-116119008D03*
%TD*%
D54*
%TO.C,D1*%
X146378526Y-107169095D03*
D55*
X146378526Y-106119095D03*
D54*
X146378526Y-105069095D03*
X143328526Y-105069095D03*
D55*
X143328526Y-106119095D03*
D54*
X143328526Y-107169095D03*
%TD*%
D14*
%TO.C,C29*%
X165300000Y-106719011D03*
X163750000Y-106719011D03*
%TD*%
D11*
%TO.C,R27*%
X151325000Y-110545939D03*
X149675000Y-110545939D03*
%TD*%
D13*
%TO.C,R8*%
X167717514Y-119000927D03*
X167717514Y-117350927D03*
%TD*%
D56*
%TO.C,C78*%
X140002023Y-113190777D03*
X140002023Y-114150777D03*
%TD*%
D14*
%TO.C,C14*%
X168186492Y-121951267D03*
X166636492Y-121951267D03*
%TD*%
D57*
%TO.C,J1*%
X139578473Y-104508907D03*
D58*
X139578473Y-107048907D03*
%TD*%
D59*
%TO.C,J7*%
X161571249Y-109224323D03*
X167351249Y-109224323D03*
D60*
X160141249Y-105544323D03*
D61*
X160141249Y-109724323D03*
D60*
X168781249Y-105544323D03*
D61*
X168781249Y-109724323D03*
%TD*%
M02*
