M48
; DRILL file KiCad 9.99.0-4037-gdf8ecb877a date 2025-11-08T20:25:13-0500
; FORMAT={-:-/ absolute / metric / decimal}
; #@! TF.CreationDate,2025-11-08T20:25:13-05:00
; #@! TF.GenerationSoftware,Kicad,Pcbnew,9.99.0-4037-gdf8ecb877a
; #@! TF.FileFunction,Plated,1,2,PTH
FMAT,2
METRIC
; #@! TA.AperFunction,Plated,PTH,ComponentDrill
T1C0.200
; #@! TA.AperFunction,Plated,PTH,ViaDrill
T2C0.300
; #@! TA.AperFunction,Plated,PTH,ComponentDrill
T3C0.600
; #@! TA.AperFunction,Plated,PTH,ComponentDrill
T4C1.000
; #@! TA.AperFunction,Plated,PTH,ComponentDrill
T5C1.100
; #@! TA.AperFunction,Plated,PTH,ComponentDrill
T6C1.200
%
G90
G05
T1
X154.179Y-124.865
X154.179Y-125.965
X154.179Y-127.065
X155.279Y-124.865
X155.279Y-125.965
X155.279Y-127.065
X156.379Y-124.865
X156.379Y-125.965
X156.379Y-127.065
X167.14Y-123.742
X167.14Y-124.492
X167.14Y-125.242
T2
X136.75Y-117.0
X136.77Y-118.948
X137.0Y-113.75
X137.5Y-109.25
X137.5Y-132.25
X137.893Y-117.115
X137.949Y-116.119
X137.967Y-118.471
X138.176Y-112.78
X138.194Y-114.511
X138.4Y-124.4
X138.4Y-126.4
X138.4Y-129.0
X138.5Y-121.25
X138.63Y-131.615
X139.0Y-110.5
X139.074Y-114.515
X139.128Y-116.831
X139.369Y-118.612
X140.0Y-112.4
X140.25Y-116.75
X140.25Y-117.75
X140.5Y-109.0
X141.5Y-103.25
X141.5Y-104.5
X141.5Y-106.25
X141.5Y-107.75
X141.5Y-123.41
X141.5Y-134.25
X141.8Y-132.6
X142.07Y-126.457
X142.308Y-120.815
X142.5Y-97.0
X143.0Y-113.2
X143.266Y-117.624
X143.4Y-104.2
X143.5Y-134.25
X143.6Y-108.6
X143.8Y-126.6
X143.8Y-132.8
X144.0Y-108.0
X144.0Y-112.2
X144.0Y-114.25
X144.25Y-116.5
X144.287Y-108.863
X144.364Y-121.564
X144.933Y-118.2
X145.0Y-127.0
X145.103Y-106.965
X145.2Y-113.0
X145.5Y-103.25
X145.5Y-116.0
X145.5Y-130.25
X145.5Y-134.25
X145.595Y-125.301
X145.805Y-117.857
X145.993Y-120.393
X146.933Y-120.44
X147.0Y-108.25
X147.059Y-124.916
X147.2Y-126.2
X147.2Y-127.4
X147.433Y-121.1
X147.5Y-98.0
X147.505Y-109.732
X148.2Y-112.315
X148.2Y-113.473
X148.2Y-133.0
X148.235Y-103.102
X148.6Y-120.6
X148.75Y-115.315
X148.913Y-103.792
X148.933Y-124.1
X149.0Y-111.5
X149.0Y-124.8
X149.0Y-125.8
X149.2Y-121.4
X149.8Y-103.4
X150.0Y-133.0
X150.183Y-109.94
X150.386Y-119.464
X150.475Y-105.205
X150.8Y-130.8
X151.0Y-103.4
X151.0Y-112.678
X151.0Y-124.6
X151.0Y-126.6
X151.0Y-128.0
X151.061Y-118.25
X151.4Y-108.6
X151.4Y-109.6
X151.5Y-134.25
X151.75Y-115.75
X151.75Y-118.012
X151.984Y-112.859
X152.005Y-105.201
X152.476Y-112.024
X152.497Y-117.119
X152.641Y-109.157
X152.671Y-108.35
X152.869Y-114.637
X153.0Y-115.4
X153.314Y-105.231
X153.872Y-103.286
X154.25Y-128.75
X154.25Y-134.25
X154.893Y-119.008
X154.904Y-114.629
X154.936Y-113.456
X155.0Y-128.75
X155.5Y-134.0
X155.706Y-113.181
X155.75Y-128.75
X155.8Y-103.8
X156.0Y-121.0
X156.159Y-108.697
X156.341Y-115.459
X156.4Y-106.4
X156.489Y-109.467
X156.516Y-116.911
X156.547Y-107.421
X156.6Y-105.2
X156.75Y-123.5
X156.946Y-103.944
X157.0Y-127.928
X157.75Y-130.25
X157.922Y-113.646
X158.0Y-104.75
X158.21Y-126.29
X158.25Y-125.556
X158.439Y-121.678
X158.5Y-107.6
X158.554Y-120.622
X159.111Y-111.0
X159.25Y-108.0
X159.458Y-114.306
X159.5Y-115.0
X159.558Y-125.638
X159.598Y-120.598
X159.75Y-107.25
X159.75Y-134.25
X160.5Y-104.25
X160.958Y-134.236
X161.0Y-118.5
X161.306Y-113.311
X161.5Y-107.25
X161.5Y-114.0
X161.721Y-124.842
X161.87Y-112.834
X162.4Y-114.0
X162.508Y-125.75
X162.6Y-109.222
X162.8Y-129.6
X163.2Y-130.6
X163.5Y-120.5
X163.75Y-111.5
X164.4Y-114.8
X164.6Y-130.4
X165.5Y-134.25
X165.522Y-111.249
X165.75Y-128.0
X165.937Y-119.54
X166.25Y-111.25
X166.25Y-115.0
X166.4Y-105.0
X166.631Y-121.194
X166.798Y-114.08
X167.0Y-114.75
X167.5Y-130.25
X167.5Y-134.25
X167.885Y-127.248
X168.0Y-107.2
X169.0Y-104.2
X169.199Y-116.809
X169.386Y-119.75
T4
X144.17Y-96.71
X144.17Y-99.25
X146.71Y-96.71
X146.71Y-99.25
X149.25Y-96.71
X149.25Y-99.25
T5
X139.578Y-104.509
X139.578Y-107.049
T6
X164.0Y-132.25
X167.5Y-132.25
T3
G00X160.141Y-105.144
M15
G01X160.141Y-105.944
M16
G05
G00X160.141Y-109.174
M15
G01X160.141Y-110.274
M16
G05
G00X168.781Y-105.144
M15
G01X168.781Y-105.944
M16
G05
G00X168.781Y-109.174
M15
G01X168.781Y-110.274
M16
G05
M30
