%TF.GenerationSoftware,KiCad,Pcbnew,9.99.0-4037-gdf8ecb877a*%
%TF.CreationDate,2025-11-08T20:25:16-05:00*%
%TF.ProjectId,horizon-mini,686f7269-7a6f-46e2-9d6d-696e692e6b69,rev?*%
%TF.SameCoordinates,Original*%
%TF.FileFunction,Legend,Bot*%
%TF.FilePolarity,Positive*%
%FSLAX46Y46*%
G04 Gerber Fmt 4.6, Leading zero omitted, Abs format (unit mm)*
G04 Created by KiCad (PCBNEW 9.99.0-4037-gdf8ecb877a) date 2025-11-08 20:25:16*
%MOMM*%
%LPD*%
G01*
G04 APERTURE LIST*
%ADD10C,0.120000*%
%ADD11C,0.152400*%
%ADD12C,0.508000*%
G04 APERTURE END LIST*
%TO.C,J16*%
D10*
X144962259Y-103234487D02*
X144962259Y-105234487D01*
X144962259Y-106704487D02*
X144962259Y-107079487D01*
X147182259Y-102859487D02*
X144962259Y-102859487D01*
X147182259Y-102859487D02*
X147182259Y-103234487D01*
X147182259Y-103234487D02*
X148362259Y-103234487D01*
X147182259Y-104704487D02*
X147182259Y-107079487D01*
X147182259Y-107079487D02*
X144962259Y-107079487D01*
%TO.C,R30*%
X136227500Y-117237258D02*
X136227500Y-116762742D01*
X137272500Y-117237258D02*
X137272500Y-116762742D01*
%TO.C,R31*%
X137252679Y-110789574D02*
X137727195Y-110789574D01*
X137252679Y-111834574D02*
X137727195Y-111834574D01*
%TO.C,J1*%
X136358473Y-102888907D02*
X136358473Y-108668907D01*
X136358473Y-102888907D02*
X142798473Y-102888907D01*
X136358473Y-108668907D02*
X142798473Y-108668907D01*
X136878473Y-102888907D02*
X136878473Y-108668907D01*
X142178473Y-102888907D02*
X142178473Y-103478907D01*
X142178473Y-105538907D02*
X142178473Y-106018907D01*
X142178473Y-108078907D02*
X142178473Y-108668907D01*
X142798473Y-102888907D02*
X142798473Y-103478907D01*
X142798473Y-105538907D02*
X142798473Y-106018907D01*
X142798473Y-108078907D02*
X142798473Y-108668907D01*
X143758473Y-104948907D02*
X143148473Y-104508907D01*
X143758473Y-104068907D01*
X143758473Y-104948907D01*
G36*
X143758473Y-104948907D02*
G01*
X143148473Y-104508907D01*
X143758473Y-104068907D01*
X143758473Y-104948907D01*
G37*
%TO.C,R11*%
X144340705Y-124784875D02*
X143866189Y-124784875D01*
X144340705Y-125829875D02*
X143866189Y-125829875D01*
%TO.C,D14*%
X164100000Y-111690000D02*
X165400000Y-111690000D01*
X165400000Y-114810000D02*
X164130000Y-114810000D01*
X163990000Y-115090000D02*
X163510000Y-115090000D01*
X163750000Y-114760000D01*
X163990000Y-115090000D01*
G36*
X163990000Y-115090000D02*
G01*
X163510000Y-115090000D01*
X163750000Y-114760000D01*
X163990000Y-115090000D01*
G37*
%TO.C,J7*%
X159791249Y-106719323D02*
X159791249Y-108419323D01*
X169131249Y-106719323D02*
X169131249Y-108419323D01*
%TO.C,BZ2*%
D11*
X157516900Y-122311561D02*
X157516900Y-118188439D01*
X159938439Y-115766900D02*
X164061561Y-115766900D01*
X164061561Y-124733100D02*
X159938439Y-124733100D01*
X166483100Y-118188439D02*
X166483100Y-122311561D01*
D12*
X165918144Y-125466240D02*
G75*
G02*
X165181858Y-125466240I-368143J98139D01*
G01*
%TO.C,F2*%
D10*
X140786159Y-110391080D02*
X140786159Y-110716638D01*
X141806159Y-110391080D02*
X141806159Y-110716638D01*
%TO.C,R2*%
X146837543Y-124784875D02*
X147312059Y-124784875D01*
X146837543Y-125829875D02*
X147312059Y-125829875D01*
%TO.C,Q1*%
X158773282Y-128926692D02*
X158123282Y-128926692D01*
X158773282Y-128926692D02*
X159423282Y-128926692D01*
X158773282Y-132046692D02*
X158123282Y-132046692D01*
X158773282Y-132046692D02*
X159423282Y-132046692D01*
X157850782Y-132326692D02*
X157370782Y-132326692D01*
X157610782Y-131996692D01*
X157850782Y-132326692D01*
G36*
X157850782Y-132326692D02*
G01*
X157370782Y-132326692D01*
X157610782Y-131996692D01*
X157850782Y-132326692D01*
G37*
%TO.C,R80*%
X139256374Y-110311837D02*
X139256374Y-110786353D01*
X140301374Y-110311837D02*
X140301374Y-110786353D01*
%TO.C,C7*%
X144292164Y-109240000D02*
X144507836Y-109240000D01*
X144292164Y-109960000D02*
X144507836Y-109960000D01*
%TO.C,C9*%
X144507836Y-117240000D02*
X144292164Y-117240000D01*
X144507836Y-117960000D02*
X144292164Y-117960000D01*
%TO.C,Q2*%
X137956212Y-112221577D02*
X137306212Y-112221577D01*
X137956212Y-112221577D02*
X138606212Y-112221577D01*
X137956212Y-115341577D02*
X137306212Y-115341577D01*
X137956212Y-115341577D02*
X138606212Y-115341577D01*
X137033712Y-115621577D02*
X136553712Y-115621577D01*
X136793712Y-115291577D01*
X137033712Y-115621577D01*
G36*
X137033712Y-115621577D02*
G01*
X136553712Y-115621577D01*
X136793712Y-115291577D01*
X137033712Y-115621577D01*
G37*
%TO.C,D2*%
X136705833Y-109082907D02*
X138990833Y-109082907D01*
X138990833Y-109082907D02*
X138990833Y-110552907D01*
X138990833Y-110552907D02*
X136705833Y-110552907D01*
%TO.C,U6*%
X142902500Y-126244715D02*
X142902500Y-126514715D01*
X142902500Y-131764715D02*
X142902500Y-131494715D01*
X145662500Y-126244715D02*
X142902500Y-126244715D01*
X145662500Y-126244715D02*
X148422500Y-126244715D01*
X145662500Y-131764715D02*
X142902500Y-131764715D01*
X145662500Y-131764715D02*
X148422500Y-131764715D01*
X148422500Y-126244715D02*
X148422500Y-126514715D01*
X148422500Y-131764715D02*
X148422500Y-131494715D01*
X142377500Y-131824715D02*
X141897500Y-131824715D01*
X142137500Y-131494715D01*
X142377500Y-131824715D01*
G36*
X142377500Y-131824715D02*
G01*
X141897500Y-131824715D01*
X142137500Y-131494715D01*
X142377500Y-131824715D01*
G37*
%TO.C,R23*%
X144012742Y-120227500D02*
X144487258Y-120227500D01*
X144012742Y-121272500D02*
X144487258Y-121272500D01*
%TO.C,R1*%
X155547527Y-130715929D02*
X155547527Y-130241413D01*
X156592527Y-130715929D02*
X156592527Y-130241413D01*
%TO.C,R12*%
X148863488Y-108438363D02*
X149338004Y-108438363D01*
X148863488Y-109483363D02*
X149338004Y-109483363D01*
%TO.C,C8*%
X147092164Y-112040000D02*
X147307836Y-112040000D01*
X147092164Y-112760000D02*
X147307836Y-112760000D01*
%TD*%
M02*
