%TF.GenerationSoftware,KiCad,Pcbnew,9.99.0-4037-gdf8ecb877a*%
%TF.CreationDate,2025-11-08T20:25:16-05:00*%
%TF.ProjectId,horizon-mini,686f7269-7a6f-46e2-9d6d-696e692e6b69,rev?*%
%TF.SameCoordinates,Original*%
%TF.FileFunction,Copper,L1,Top*%
%TF.FilePolarity,Positive*%
%FSLAX46Y46*%
G04 Gerber Fmt 4.6, Leading zero omitted, Abs format (unit mm)*
G04 Created by KiCad (PCBNEW 9.99.0-4037-gdf8ecb877a) date 2025-11-08 20:25:16*
%MOMM*%
%LPD*%
G01*
G04 APERTURE LIST*
G04 Aperture macros list*
%AMRoundRect*
0 Rectangle with rounded corners*
0 $1 Rounding radius*
0 $2 $3 $4 $5 $6 $7 $8 $9 X,Y pos of 4 corners*
0 Add a 4 corners polygon primitive as box body*
4,1,4,$2,$3,$4,$5,$6,$7,$8,$9,$2,$3,0*
0 Add four circle primitives for the rounded corners*
1,1,$1+$1,$2,$3*
1,1,$1+$1,$4,$5*
1,1,$1+$1,$6,$7*
1,1,$1+$1,$8,$9*
0 Add four rect primitives between the rounded corners*
20,1,$1+$1,$2,$3,$4,$5,0*
20,1,$1+$1,$4,$5,$6,$7,0*
20,1,$1+$1,$6,$7,$8,$9,0*
20,1,$1+$1,$8,$9,$2,$3,0*%
G04 Aperture macros list end*
%TA.AperFunction,SMDPad,CuDef*%
%ADD10RoundRect,0.200000X0.200000X0.275000X-0.200000X0.275000X-0.200000X-0.275000X0.200000X-0.275000X0*%
%TD*%
%TA.AperFunction,SMDPad,CuDef*%
%ADD11RoundRect,0.150000X-0.587500X-0.150000X0.587500X-0.150000X0.587500X0.150000X-0.587500X0.150000X0*%
%TD*%
%TA.AperFunction,SMDPad,CuDef*%
%ADD12RoundRect,0.200000X0.275000X-0.200000X0.275000X0.200000X-0.275000X0.200000X-0.275000X-0.200000X0*%
%TD*%
%TA.AperFunction,SMDPad,CuDef*%
%ADD13RoundRect,0.225000X0.225000X0.250000X-0.225000X0.250000X-0.225000X-0.250000X0.225000X-0.250000X0*%
%TD*%
%TA.AperFunction,SMDPad,CuDef*%
%ADD14RoundRect,0.200000X-0.275000X0.200000X-0.275000X-0.200000X0.275000X-0.200000X0.275000X0.200000X0*%
%TD*%
%TA.AperFunction,SMDPad,CuDef*%
%ADD15R,1.200000X1.200000*%
%TD*%
%TA.AperFunction,SMDPad,CuDef*%
%ADD16RoundRect,0.218750X-0.218750X-0.256250X0.218750X-0.256250X0.218750X0.256250X-0.218750X0.256250X0*%
%TD*%
%TA.AperFunction,SMDPad,CuDef*%
%ADD17RoundRect,0.075000X-0.662500X-0.075000X0.662500X-0.075000X0.662500X0.075000X-0.662500X0.075000X0*%
%TD*%
%TA.AperFunction,SMDPad,CuDef*%
%ADD18RoundRect,0.075000X-0.075000X-0.662500X0.075000X-0.662500X0.075000X0.662500X-0.075000X0.662500X0*%
%TD*%
%TA.AperFunction,SMDPad,CuDef*%
%ADD19RoundRect,0.200000X-0.200000X-0.275000X0.200000X-0.275000X0.200000X0.275000X-0.200000X0.275000X0*%
%TD*%
%TA.AperFunction,ComponentPad*%
%ADD20R,1.700000X1.700000*%
%TD*%
%TA.AperFunction,ComponentPad*%
%ADD21C,1.700000*%
%TD*%
%TA.AperFunction,SMDPad,CuDef*%
%ADD22RoundRect,0.225000X0.250000X-0.225000X0.250000X0.225000X-0.250000X0.225000X-0.250000X-0.225000X0*%
%TD*%
%TA.AperFunction,SMDPad,CuDef*%
%ADD23RoundRect,0.225000X-0.225000X-0.250000X0.225000X-0.250000X0.225000X0.250000X-0.225000X0.250000X0*%
%TD*%
%TA.AperFunction,SMDPad,CuDef*%
%ADD24R,0.700000X1.750000*%
%TD*%
%TA.AperFunction,SMDPad,CuDef*%
%ADD25R,1.450000X1.000000*%
%TD*%
%TA.AperFunction,SMDPad,CuDef*%
%ADD26R,1.000000X1.550000*%
%TD*%
%TA.AperFunction,SMDPad,CuDef*%
%ADD27R,0.800000X1.500000*%
%TD*%
%TA.AperFunction,SMDPad,CuDef*%
%ADD28R,1.300000X1.500000*%
%TD*%
%TA.AperFunction,SMDPad,CuDef*%
%ADD29R,1.500000X1.500000*%
%TD*%
%TA.AperFunction,SMDPad,CuDef*%
%ADD30R,0.800000X1.400000*%
%TD*%
%TA.AperFunction,SMDPad,CuDef*%
%ADD31RoundRect,0.150000X-0.150000X0.512500X-0.150000X-0.512500X0.150000X-0.512500X0.150000X0.512500X0*%
%TD*%
%TA.AperFunction,SMDPad,CuDef*%
%ADD32RoundRect,0.135000X0.135000X0.185000X-0.135000X0.185000X-0.135000X-0.185000X0.135000X-0.185000X0*%
%TD*%
%TA.AperFunction,SMDPad,CuDef*%
%ADD33RoundRect,0.250000X-0.325000X-0.650000X0.325000X-0.650000X0.325000X0.650000X-0.325000X0.650000X0*%
%TD*%
%TA.AperFunction,SMDPad,CuDef*%
%ADD34R,1.500000X2.200000*%
%TD*%
%TA.AperFunction,SMDPad,CuDef*%
%ADD35RoundRect,0.225000X-0.250000X0.225000X-0.250000X-0.225000X0.250000X-0.225000X0.250000X0.225000X0*%
%TD*%
%TA.AperFunction,SMDPad,CuDef*%
%ADD36RoundRect,0.125000X-0.187500X-0.125000X0.187500X-0.125000X0.187500X0.125000X-0.187500X0.125000X0*%
%TD*%
%TA.AperFunction,HeatsinkPad*%
%ADD37C,0.500000*%
%TD*%
%TA.AperFunction,HeatsinkPad*%
%ADD38R,1.100000X1.900000*%
%TD*%
%TA.AperFunction,SMDPad,CuDef*%
%ADD39RoundRect,0.218750X0.256250X-0.218750X0.256250X0.218750X-0.256250X0.218750X-0.256250X-0.218750X0*%
%TD*%
%TA.AperFunction,SMDPad,CuDef*%
%ADD40RoundRect,0.140000X0.140000X0.170000X-0.140000X0.170000X-0.140000X-0.170000X0.140000X-0.170000X0*%
%TD*%
%TA.AperFunction,SMDPad,CuDef*%
%ADD41RoundRect,0.087500X0.087500X-0.225000X0.087500X0.225000X-0.087500X0.225000X-0.087500X-0.225000X0*%
%TD*%
%TA.AperFunction,SMDPad,CuDef*%
%ADD42RoundRect,0.087500X0.225000X-0.087500X0.225000X0.087500X-0.225000X0.087500X-0.225000X-0.087500X0*%
%TD*%
%TA.AperFunction,SMDPad,CuDef*%
%ADD43RoundRect,0.087500X-0.125000X-0.087500X0.125000X-0.087500X0.125000X0.087500X-0.125000X0.087500X0*%
%TD*%
%TA.AperFunction,SMDPad,CuDef*%
%ADD44RoundRect,0.087500X-0.087500X-0.125000X0.087500X-0.125000X0.087500X0.125000X-0.087500X0.125000X0*%
%TD*%
%TA.AperFunction,ComponentPad*%
%ADD45RoundRect,0.250001X-0.899999X-0.899999X0.899999X-0.899999X0.899999X0.899999X-0.899999X0.899999X0*%
%TD*%
%TA.AperFunction,ComponentPad*%
%ADD46C,2.300000*%
%TD*%
%TA.AperFunction,SMDPad,CuDef*%
%ADD47RoundRect,0.150000X0.150000X-0.512500X0.150000X0.512500X-0.150000X0.512500X-0.150000X-0.512500X0*%
%TD*%
%TA.AperFunction,SMDPad,CuDef*%
%ADD48RoundRect,0.087500X-0.325000X-0.087500X0.325000X-0.087500X0.325000X0.087500X-0.325000X0.087500X0*%
%TD*%
%TA.AperFunction,SMDPad,CuDef*%
%ADD49RoundRect,0.087500X-0.087500X-0.325000X0.087500X-0.325000X0.087500X0.325000X-0.087500X0.325000X0*%
%TD*%
%TA.AperFunction,HeatsinkPad*%
%ADD50R,2.700000X2.700000*%
%TD*%
%TA.AperFunction,SMDPad,CuDef*%
%ADD51RoundRect,0.218750X0.218750X0.256250X-0.218750X0.256250X-0.218750X-0.256250X0.218750X-0.256250X0*%
%TD*%
%TA.AperFunction,SMDPad,CuDef*%
%ADD52RoundRect,0.250000X-0.262500X-0.450000X0.262500X-0.450000X0.262500X0.450000X-0.262500X0.450000X0*%
%TD*%
%TA.AperFunction,SMDPad,CuDef*%
%ADD53RoundRect,0.140000X-0.140000X-0.170000X0.140000X-0.170000X0.140000X0.170000X-0.140000X0.170000X0*%
%TD*%
%TA.AperFunction,SMDPad,CuDef*%
%ADD54RoundRect,0.160000X0.565000X0.240000X-0.565000X0.240000X-0.565000X-0.240000X0.565000X-0.240000X0*%
%TD*%
%TA.AperFunction,SMDPad,CuDef*%
%ADD55RoundRect,0.120000X0.605000X0.180000X-0.605000X0.180000X-0.605000X-0.180000X0.605000X-0.180000X0*%
%TD*%
%TA.AperFunction,SMDPad,CuDef*%
%ADD56RoundRect,0.140000X-0.170000X0.140000X-0.170000X-0.140000X0.170000X-0.140000X0.170000X0.140000X0*%
%TD*%
%TA.AperFunction,ComponentPad*%
%ADD57RoundRect,0.249999X-0.850001X0.850001X-0.850001X-0.850001X0.850001X-0.850001X0.850001X0.850001X0*%
%TD*%
%TA.AperFunction,ComponentPad*%
%ADD58C,2.200000*%
%TD*%
%TA.AperFunction,HeatsinkPad*%
%ADD59O,1.000000X1.800000*%
%TD*%
%TA.AperFunction,HeatsinkPad*%
%ADD60O,1.000000X2.100000*%
%TD*%
%TA.AperFunction,ViaPad*%
%ADD61C,0.550000*%
%TD*%
%TA.AperFunction,Conductor*%
%ADD62C,0.400000*%
%TD*%
%TA.AperFunction,Conductor*%
%ADD63C,0.200000*%
%TD*%
%TA.AperFunction,Conductor*%
%ADD64C,0.300000*%
%TD*%
%TA.AperFunction,Conductor*%
%ADD65C,0.150000*%
%TD*%
G04 APERTURE END LIST*
D10*
%TO.P,R25,1*%
%TO.N,+3.3V*%
X152766958Y-104464758D03*
%TO.P,R25,2*%
%TO.N,Net-(U7-INT_DRDY)*%
X151116958Y-104464758D03*
%TD*%
%TO.P,R13,1*%
%TO.N,2R*%
X149757500Y-104476159D03*
%TO.P,R13,2*%
%TO.N,Net-(D1-GA)*%
X148107500Y-104476159D03*
%TD*%
D11*
%TO.P,Q10,1,G_1*%
%TO.N,Net-(Q10-G)*%
X162312500Y-116550000D03*
%TO.P,Q10,2,S_2*%
%TO.N,POWAAAA*%
X162312500Y-118450000D03*
%TO.P,Q10,3,D_3*%
%TO.N,bat*%
X164187500Y-117500000D03*
%TD*%
D10*
%TO.P,R19,1*%
%TO.N,2B*%
X149757500Y-107408166D03*
%TO.P,R19,2*%
%TO.N,Net-(D1-BA)*%
X148107500Y-107408166D03*
%TD*%
D12*
%TO.P,R24,1*%
%TO.N,I2C0_SCL*%
X151700298Y-113674330D03*
%TO.P,R24,2*%
%TO.N,+3.3V*%
X151700298Y-112024330D03*
%TD*%
D13*
%TO.P,C47,1*%
%TO.N,+3.3V*%
X157182231Y-111704907D03*
%TO.P,C47,2*%
%TO.N,GND*%
X155632231Y-111704907D03*
%TD*%
D14*
%TO.P,R20,1*%
%TO.N,I2C0_SDA*%
X151682500Y-114989848D03*
%TO.P,R20,2*%
%TO.N,+3.3V*%
X151682500Y-116639848D03*
%TD*%
D15*
%TO.P,D10,1,K_1*%
%TO.N,POWAAAA*%
X164987458Y-120555960D03*
%TO.P,D10,2,A_2*%
%TO.N,+5V*%
X162187458Y-120555960D03*
%TD*%
D16*
%TO.P,D11,1,K_1*%
%TO.N,GND*%
X155637012Y-108744294D03*
%TO.P,D11,2,A_2*%
%TO.N,Net-(D11-A)*%
X157212012Y-108744294D03*
%TD*%
D17*
%TO.P,U5,1,PA00_1*%
%TO.N,unconnected-(U5-PA00-Pad1)*%
X141520000Y-112314848D03*
%TO.P,U5,2,PA01_2*%
%TO.N,unconnected-(U5-PA01-Pad2)*%
X141520000Y-112814848D03*
%TO.P,U5,3,PA02_3*%
%TO.N,unconnected-(U5-PA02-Pad3)*%
X141520000Y-113314848D03*
%TO.P,U5,4,PA03_4*%
%TO.N,unconnected-(U5-PA03-Pad4)*%
X141520000Y-113814848D03*
%TO.P,U5,5,GNDANA_5*%
%TO.N,Net-(U5-GNDANA)*%
X141520000Y-114314848D03*
%TO.P,U5,6,VDDANA_6*%
%TO.N,+3.3V*%
X141520000Y-114814848D03*
%TO.P,U5,7,PB08_7*%
%TO.N,SD_DETECT*%
X141520000Y-115314848D03*
%TO.P,U5,8,PB09_8*%
%TO.N,unconnected-(U5-PB09-Pad8)*%
X141520000Y-115814848D03*
%TO.P,U5,9,PA04_9*%
%TO.N,mosfet1_signalfire*%
X141520000Y-116314848D03*
%TO.P,U5,10,PA05_10*%
%TO.N,unconnected-(U5-PA05-Pad10)*%
X141520000Y-116814848D03*
%TO.P,U5,11,PA06_11*%
%TO.N,unconnected-(U5-PA06-Pad11)*%
X141520000Y-117314848D03*
%TO.P,U5,12,PA07_12*%
%TO.N,BUZZER*%
X141520000Y-117814848D03*
D18*
%TO.P,U5,13,PA08_13*%
%TO.N,CS_NAND MMCU*%
X142932500Y-119227348D03*
%TO.P,U5,14,PA09_14*%
%TO.N,unconnected-(U5-PA09-Pad14)*%
X143432500Y-119227348D03*
%TO.P,U5,15,PA10_15*%
%TO.N,unconnected-(U5-PA10-Pad15)*%
X143932500Y-119227348D03*
%TO.P,U5,16,PA11_16*%
%TO.N,unconnected-(U5-PA11-Pad16)*%
X144432500Y-119227348D03*
%TO.P,U5,17,VDDIO_17*%
%TO.N,+3.3V*%
X144932500Y-119227348D03*
%TO.P,U5,18,GND_18*%
%TO.N,GND*%
X145432500Y-119227348D03*
%TO.P,U5,19,PB10_19*%
%TO.N,unconnected-(U5-PB10-Pad19)*%
X145932500Y-119227348D03*
%TO.P,U5,20,PB11_20*%
%TO.N,CS_SD MMCU*%
X146432500Y-119227348D03*
%TO.P,U5,21,PA12_21*%
%TO.N,MOSI TMCU*%
X146932500Y-119227348D03*
%TO.P,U5,22,PA13_22*%
%TO.N,SCK TMCU*%
X147432500Y-119227348D03*
%TO.P,U5,23,PA14_23*%
%TO.N,MISO TMCU*%
X147932500Y-119227348D03*
%TO.P,U5,24,PA15_24*%
%TO.N,CS_IMU TMCU*%
X148432500Y-119227348D03*
D17*
%TO.P,U5,25,PA16_25*%
%TO.N,unconnected-(U5-PA16-Pad25)*%
X149845000Y-117814848D03*
%TO.P,U5,26,PA17_26*%
%TO.N,unconnected-(U5-PA17-Pad26)*%
X149845000Y-117314848D03*
%TO.P,U5,27,PA18_27*%
%TO.N,unconnected-(U5-PA18-Pad27)*%
X149845000Y-116814848D03*
%TO.P,U5,28,PA19_28*%
%TO.N,unconnected-(U5-PA19-Pad28)*%
X149845000Y-116314848D03*
%TO.P,U5,29,PA20_29*%
%TO.N,unconnected-(U5-PA20-Pad29)*%
X149845000Y-115814848D03*
%TO.P,U5,30,PA21_30*%
%TO.N,2B*%
X149845000Y-115314848D03*
%TO.P,U5,31,PA22_31*%
%TO.N,I2C0_SDA*%
X149845000Y-114814848D03*
%TO.P,U5,32,PA23_32*%
%TO.N,I2C0_SCL*%
X149845000Y-114314848D03*
%TO.P,U5,33,PA24_33*%
%TO.N,D- DMCU-2*%
X149845000Y-113814848D03*
%TO.P,U5,34,PA25_34*%
%TO.N,D+ DMCU-2*%
X149845000Y-113314848D03*
%TO.P,U5,35,GND_35*%
%TO.N,GND*%
X149845000Y-112814848D03*
%TO.P,U5,36,VDDIO_36*%
%TO.N,+3.3V*%
X149845000Y-112314848D03*
D18*
%TO.P,U5,37,PB22_37*%
%TO.N,2G*%
X148432500Y-110902348D03*
%TO.P,U5,38,PB23_38*%
%TO.N,2R*%
X147932500Y-110902348D03*
%TO.P,U5,39,PA27_39*%
%TO.N,unconnected-(U5-PA27-Pad39)*%
X147432500Y-110902348D03*
%TO.P,U5,40,~{RESET}_40*%
%TO.N,nRESET DMCU-2*%
X146932500Y-110902348D03*
%TO.P,U5,41,PA28_41*%
%TO.N,unconnected-(U5-PA28-Pad41)*%
X146432500Y-110902348D03*
%TO.P,U5,42,GND_42*%
%TO.N,GND*%
X145932500Y-110902348D03*
%TO.P,U5,43,VDDCORE_43*%
%TO.N,Net-(U5-VDDCORE)*%
X145432500Y-110902348D03*
%TO.P,U5,44,VDDIN_44*%
%TO.N,+3.3V*%
X144932500Y-110902348D03*
%TO.P,U5,45,PA30_45*%
%TO.N,SWCLK DMCU-2*%
X144432500Y-110902348D03*
%TO.P,U5,46,PA31_46*%
%TO.N,SWDIO DMCU-2*%
X143932500Y-110902348D03*
%TO.P,U5,47,PB02_47*%
%TO.N,unconnected-(U5-PB02-Pad47)*%
X143432500Y-110902348D03*
%TO.P,U5,48,PB03_48*%
%TO.N,unconnected-(U5-PB03-Pad48)*%
X142932500Y-110902348D03*
%TD*%
D19*
%TO.P,R28,1*%
%TO.N,+3.3V*%
X154055700Y-119536707D03*
%TO.P,R28,2*%
%TO.N,Net-(U9-INT1)*%
X155705700Y-119536707D03*
%TD*%
D20*
%TO.P,J8,1,Pin_1_1*%
%TO.N,+3.3V*%
X144170000Y-99250000D03*
D21*
%TO.P,J8,2,Pin_2_2*%
%TO.N,SWDIO DMCU-2*%
X144170000Y-96710000D03*
%TO.P,J8,3,Pin_3_3*%
%TO.N,GND*%
X146710000Y-99250000D03*
%TO.P,J8,4,Pin_4_4*%
X146710000Y-96710000D03*
%TO.P,J8,5,Pin_5_5*%
%TO.N,nRESET DMCU-2*%
X149250000Y-99250000D03*
%TO.P,J8,6,Pin_6_6*%
%TO.N,SWCLK DMCU-2*%
X149250000Y-96710000D03*
%TD*%
D22*
%TO.P,C17,1*%
%TO.N,Net-(J2-Pin_1)*%
X162508162Y-128250680D03*
%TO.P,C17,2*%
%TO.N,GND*%
X162508162Y-126700680D03*
%TD*%
D23*
%TO.P,C10,1*%
%TO.N,Net-(D6-K)*%
X163975000Y-127000000D03*
%TO.P,C10,2*%
%TO.N,GND*%
X165525000Y-127000000D03*
%TD*%
D19*
%TO.P,R15,1*%
%TO.N,Net-(J7-CC1)*%
X160675000Y-107969011D03*
%TO.P,R15,2*%
%TO.N,GND*%
X162325000Y-107969011D03*
%TD*%
D24*
%TO.P,J3,1,DAT2_1*%
%TO.N,unconnected-(J3-DAT2-Pad1)*%
X142487500Y-122850000D03*
%TO.P,J3,2,DAT3/CD_2*%
%TO.N,CS_SD MMCU*%
X143587500Y-122850000D03*
%TO.P,J3,3,CMD_3*%
%TO.N,MOSI TMCU*%
X144687500Y-122850000D03*
%TO.P,J3,4,VDD_4*%
%TO.N,+3.3V*%
X145787500Y-122850000D03*
%TO.P,J3,5,CLK_5*%
%TO.N,SCK TMCU*%
X146887500Y-122850000D03*
%TO.P,J3,6,VSS_6*%
%TO.N,GND*%
X147987500Y-122850000D03*
%TO.P,J3,7,DAT0_7*%
%TO.N,MISO TMCU*%
X149087500Y-122850000D03*
%TO.P,J3,8,DAT1_8*%
%TO.N,unconnected-(J3-DAT1-Pad8)*%
X150187500Y-122850000D03*
D25*
%TO.P,J3,9,DET_9*%
%TO.N,SD_DETECT*%
X151312500Y-132075000D03*
D26*
%TO.P,J3,10,SHIELD_10*%
%TO.N,GND*%
X140087500Y-133650000D03*
D27*
%TO.P,J3,11*%
%TO.N,N/C*%
X151637500Y-130575000D03*
D28*
X151387500Y-122975000D03*
D29*
X140037500Y-122975000D03*
D30*
X139687500Y-131225000D03*
%TD*%
D19*
%TO.P,R14,1*%
%TO.N,+3.3V*%
X155584270Y-110245906D03*
%TO.P,R14,2*%
%TO.N,Net-(D11-A)*%
X157234270Y-110245906D03*
%TD*%
D31*
%TO.P,U16,1,VIN_1*%
%TO.N,Net-(U16-EN)*%
X160567338Y-112008373D03*
%TO.P,U16,2,GND_2*%
%TO.N,GND*%
X159617338Y-112008373D03*
%TO.P,U16,3,EN_3*%
%TO.N,Net-(U16-EN)*%
X158667338Y-112008373D03*
%TO.P,U16,4,NC_4*%
%TO.N,unconnected-(U16-NC-Pad4)*%
X158667338Y-114283373D03*
%TO.P,U16,5,VOUT_5*%
%TO.N,+3.3V*%
X160567338Y-114283373D03*
%TD*%
D15*
%TO.P,D13,1,K_1*%
%TO.N,+5V*%
X157959458Y-106213734D03*
%TO.P,D13,2,A_2*%
%TO.N,Net-(D13-A)*%
X157959458Y-103413734D03*
%TD*%
%TO.P,D6,1,K_1*%
%TO.N,Net-(D6-K)*%
X164337785Y-125400991D03*
%TO.P,D6,2,A_2*%
%TO.N,+5V*%
X164337785Y-122600991D03*
%TD*%
D10*
%TO.P,R7,1*%
%TO.N,Net-(U1-FB)*%
X168238518Y-120441079D03*
%TO.P,R7,2*%
%TO.N,GND*%
X166588518Y-120441079D03*
%TD*%
D32*
%TO.P,R5,1*%
%TO.N,+3.3V*%
X143954738Y-120739203D03*
%TO.P,R5,2*%
%TO.N,CS_NAND MMCU*%
X142934738Y-120739203D03*
%TD*%
D33*
%TO.P,C46,1*%
%TO.N,bat*%
X157525000Y-120598225D03*
%TO.P,C46,2*%
%TO.N,GND*%
X160475000Y-120598225D03*
%TD*%
D34*
%TO.P,L7,1*%
%TO.N,Net-(J2-Pin_1)*%
X160689505Y-132564825D03*
%TO.P,L7,2*%
%TO.N,Net-(L7-Pad2)*%
X154289505Y-132564825D03*
%TD*%
D19*
%TO.P,R9,1*%
%TO.N,bat*%
X153273613Y-122533518D03*
%TO.P,R9,2*%
%TO.N,Net-(U2-FB)*%
X154923613Y-122533518D03*
%TD*%
%TO.P,R26,1*%
%TO.N,CS_IMU TMCU*%
X149543261Y-119491433D03*
%TO.P,R26,2*%
%TO.N,+3.3V*%
X151193261Y-119491433D03*
%TD*%
%TO.P,R29,1*%
%TO.N,+3.3V*%
X154083225Y-104740063D03*
%TO.P,R29,2*%
%TO.N,Net-(U7-~{CS})*%
X155733225Y-104740063D03*
%TD*%
%TO.P,R4,1*%
%TO.N,Net-(U2-LBI)*%
X160908925Y-124868489D03*
%TO.P,R4,2*%
%TO.N,GND*%
X162558925Y-124868489D03*
%TD*%
D22*
%TO.P,C4,1*%
%TO.N,GND*%
X152658866Y-107491147D03*
%TO.P,C4,2*%
%TO.N,+3.3V*%
X152658866Y-105941147D03*
%TD*%
D12*
%TO.P,R16,1*%
%TO.N,Net-(J7-CC2)*%
X166750000Y-108044011D03*
%TO.P,R16,2*%
%TO.N,GND*%
X166750000Y-106394011D03*
%TD*%
D35*
%TO.P,C2,1*%
%TO.N,GND*%
X157130700Y-116197383D03*
%TO.P,C2,2*%
%TO.N,+3.3V*%
X157130700Y-117747383D03*
%TD*%
D19*
%TO.P,R10,1*%
%TO.N,Net-(U2-FB)*%
X156243302Y-122534151D03*
%TO.P,R10,2*%
%TO.N,GND*%
X157893302Y-122534151D03*
%TD*%
D23*
%TO.P,C6,1*%
%TO.N,N/C*%
X145328526Y-108940285D03*
%TO.P,C6,2*%
%TO.N,GND*%
X146878526Y-108940285D03*
%TD*%
D13*
%TO.P,C38,1*%
%TO.N,Net-(U16-EN)*%
X169229087Y-115921863D03*
%TO.P,C38,2*%
%TO.N,GND*%
X167679087Y-115921863D03*
%TD*%
D35*
%TO.P,C5,1*%
%TO.N,GND*%
X157137653Y-113182732D03*
%TO.P,C5,2*%
%TO.N,+3.3V*%
X157137653Y-114732732D03*
%TD*%
D36*
%TO.P,U1,1,EN_1*%
%TO.N,Net-(D6-K)*%
X166077753Y-123517122D03*
%TO.P,U1,2,VIN_2*%
X166077753Y-124167122D03*
%TO.P,U1,3,GND_3*%
%TO.N,GND*%
X166077753Y-124817122D03*
%TO.P,U1,4,VOUT_4*%
%TO.N,Net-(U16-EN)*%
X166077753Y-125467122D03*
%TO.P,U1,5,VOUT_5*%
X168202753Y-125467122D03*
%TO.P,U1,6,FB_6*%
%TO.N,Net-(U1-FB)*%
X168202753Y-124817122D03*
%TO.P,U1,7,PG_7*%
%TO.N,unconnected-(U1-PG-Pad7)*%
X168202753Y-124167122D03*
%TO.P,U1,8,SS/TR_8*%
%TO.N,Net-(U1-SS{slash}TR)*%
X168202753Y-123517122D03*
D37*
%TO.P,U1,9,GND_9*%
%TO.N,GND*%
X167140253Y-123742122D03*
X167140253Y-124492122D03*
D38*
X167140253Y-124492122D03*
D37*
X167140253Y-125242122D03*
%TD*%
D13*
%TO.P,C28,1*%
%TO.N,GND*%
X165306298Y-108250000D03*
%TO.P,C28,2*%
%TO.N,Net-(D13-A)*%
X163756298Y-108250000D03*
%TD*%
D22*
%TO.P,C1,1*%
%TO.N,+3.3V*%
X152630700Y-119561707D03*
%TO.P,C1,2*%
%TO.N,GND*%
X152630700Y-118011707D03*
%TD*%
D39*
%TO.P,D9,1,K_1*%
%TO.N,GND*%
X166156497Y-118690991D03*
%TO.P,D9,2,A_2*%
%TO.N,Net-(D9-A)*%
X166156497Y-117115991D03*
%TD*%
D40*
%TO.P,C12,1*%
%TO.N,+3.3V*%
X139674480Y-115156223D03*
%TO.P,C12,2*%
%TO.N,GND*%
X138714480Y-115156223D03*
%TD*%
D41*
%TO.P,U9,1,SDO/SA0_1*%
%TO.N,GND*%
X154130700Y-118199207D03*
%TO.P,U9,2,SDX_2*%
X154630700Y-118199207D03*
%TO.P,U9,3,SCX_3*%
X155130700Y-118199207D03*
%TO.P,U9,4,INT1_4*%
%TO.N,Net-(U9-INT1)*%
X155630700Y-118199207D03*
D42*
%TO.P,U9,5,VDDIO_5*%
%TO.N,+3.3V*%
X155793200Y-117536707D03*
%TO.P,U9,6,GND_6*%
%TO.N,GND*%
X155793200Y-117036707D03*
%TO.P,U9,7,GND_7*%
X155793200Y-116536707D03*
D41*
%TO.P,U9,8,VDD_8*%
%TO.N,+3.3V*%
X155630700Y-115874207D03*
%TO.P,U9,9,INT2_9*%
%TO.N,unconnected-(U9-INT2-Pad9)*%
X155130700Y-115874207D03*
%TO.P,U9,10,NC_10*%
%TO.N,unconnected-(U9-NC-Pad10)*%
X154630700Y-115874207D03*
%TO.P,U9,11,NC_11*%
%TO.N,unconnected-(U9-NC-Pad11)*%
X154130700Y-115874207D03*
D42*
%TO.P,U9,12,CS_12*%
%TO.N,Net-(U9-CS)*%
X153968200Y-116536707D03*
%TO.P,U9,13,SCL_13*%
%TO.N,I2C0_SCL*%
X153968200Y-117036707D03*
%TO.P,U9,14,SDA_14*%
%TO.N,I2C0_SDA*%
X153968200Y-117536707D03*
%TD*%
D43*
%TO.P,U7,1,Vdd_IO_1*%
%TO.N,+3.3V*%
X153914161Y-106502854D03*
%TO.P,U7,2,SCL_2*%
%TO.N,I2C0_SCL*%
X153914161Y-107002854D03*
D44*
%TO.P,U7,3,GND_3*%
%TO.N,GND*%
X154176661Y-107515354D03*
%TO.P,U7,4,SDA_4*%
%TO.N,I2C0_SDA*%
X154676661Y-107515354D03*
%TO.P,U7,5,SA0_5*%
%TO.N,GND*%
X155176661Y-107515354D03*
D43*
%TO.P,U7,6,~{CS}_6*%
%TO.N,Net-(U7-~{CS})*%
X155439161Y-107002854D03*
%TO.P,U7,7,INT_DRDY_7*%
%TO.N,Net-(U7-INT_DRDY)*%
X155439161Y-106502854D03*
D44*
%TO.P,U7,8,GND_8*%
%TO.N,GND*%
X155176661Y-105990354D03*
%TO.P,U7,9,GND_9*%
X154676661Y-105990354D03*
%TO.P,U7,10,VDD_10*%
%TO.N,+3.3V*%
X154176661Y-105990354D03*
%TD*%
D10*
%TO.P,R21,1*%
%TO.N,+3.3V*%
X155705700Y-114536707D03*
%TO.P,R21,2*%
%TO.N,Net-(U9-CS)*%
X154055700Y-114536707D03*
%TD*%
D45*
%TO.P,J2,1,Pin_1_1*%
%TO.N,Net-(J2-Pin_1)*%
X164000000Y-132250000D03*
D46*
%TO.P,J2,2,Pin_2_2*%
%TO.N,GND*%
X167500000Y-132250000D03*
%TD*%
D47*
%TO.P,U3,1,VIN_1*%
%TO.N,bat*%
X158674069Y-118481725D03*
%TO.P,U3,2,GND_2*%
%TO.N,GND*%
X159624069Y-118481725D03*
%TO.P,U3,3,CTL_3*%
X160574069Y-118481725D03*
%TO.P,U3,4,STAT_4*%
%TO.N,unconnected-(U3-STAT-Pad4)*%
X160574069Y-116206725D03*
%TO.P,U3,5,GATE_5*%
%TO.N,Net-(Q10-G)*%
X159624069Y-116206725D03*
%TO.P,U3,6,SENSE_6*%
%TO.N,POWAAAA*%
X158674069Y-116206725D03*
%TD*%
D12*
%TO.P,R3,1*%
%TO.N,Net-(J2-Pin_1)*%
X160999111Y-127970058D03*
%TO.P,R3,2*%
%TO.N,Net-(U2-LBI)*%
X160999111Y-126320058D03*
%TD*%
%TO.P,R22,1*%
%TO.N,+3.3V*%
X141168873Y-120559481D03*
%TO.P,R22,2*%
%TO.N,SD_DETECT*%
X141168873Y-118909481D03*
%TD*%
D15*
%TO.P,D5,1,K_1*%
%TO.N,+5V*%
X159507980Y-122926292D03*
%TO.P,D5,2,A_2*%
%TO.N,POWAAAA*%
X162307980Y-122926292D03*
%TD*%
D48*
%TO.P,U2,1,VOUT_1*%
%TO.N,bat*%
X153316161Y-124990007D03*
%TO.P,U2,2,NC_2*%
%TO.N,unconnected-(U2-NC-Pad2)*%
X153316161Y-125640007D03*
%TO.P,U2,3,SW_3*%
%TO.N,Net-(L7-Pad2)*%
X153316161Y-126290007D03*
%TO.P,U2,4,SW_4*%
X153316161Y-126940007D03*
D49*
%TO.P,U2,5,PGND_5*%
%TO.N,GND*%
X154303661Y-127927507D03*
%TO.P,U2,6,PGND_6*%
X154953661Y-127927507D03*
%TO.P,U2,7,PGND_7*%
X155603661Y-127927507D03*
%TO.P,U2,8,VBAT_8*%
%TO.N,Net-(J2-Pin_1)*%
X156253661Y-127927507D03*
D48*
%TO.P,U2,9,LBI_9*%
%TO.N,Net-(U2-LBI)*%
X157241161Y-126940007D03*
%TO.P,U2,10,SYNC_10*%
%TO.N,GND*%
X157241161Y-126290007D03*
%TO.P,U2,11,EN_11*%
%TO.N,Net-(J2-Pin_1)*%
X157241161Y-125640007D03*
%TO.P,U2,12,LBO_12*%
%TO.N,unconnected-(U2-LBO-Pad12)*%
X157241161Y-124990007D03*
D49*
%TO.P,U2,13,GND_13*%
%TO.N,GND*%
X156253661Y-124002507D03*
%TO.P,U2,14,FB_14*%
%TO.N,Net-(U2-FB)*%
X155603661Y-124002507D03*
%TO.P,U2,15,VOUT_15*%
%TO.N,bat*%
X154953661Y-124002507D03*
%TO.P,U2,16,VOUT_16*%
X154303661Y-124002507D03*
D37*
%TO.P,U2,17,PAD_17*%
%TO.N,GND*%
X154178661Y-124865007D03*
X154178661Y-125965007D03*
X154178661Y-127065007D03*
X155278661Y-124865007D03*
X155278661Y-125965007D03*
D50*
X155278661Y-125965007D03*
D37*
X155278661Y-127065007D03*
X156378661Y-124865007D03*
X156378661Y-125965007D03*
X156378661Y-127065007D03*
%TD*%
D51*
%TO.P,D12,1,K_1*%
%TO.N,GND*%
X165245529Y-105174028D03*
%TO.P,D12,2,A_2*%
%TO.N,Net-(D12-A)*%
X163670529Y-105174028D03*
%TD*%
D13*
%TO.P,C40,1*%
%TO.N,POWAAAA*%
X163445174Y-115017418D03*
%TO.P,C40,2*%
%TO.N,GND*%
X161895174Y-115017418D03*
%TD*%
D10*
%TO.P,R18,1*%
%TO.N,2G*%
X149729970Y-105935280D03*
%TO.P,R18,2*%
%TO.N,Net-(D1-RA)*%
X148079970Y-105935280D03*
%TD*%
D22*
%TO.P,C37,1*%
%TO.N,Net-(U16-EN)*%
X169226138Y-118980515D03*
%TO.P,C37,2*%
%TO.N,GND*%
X169226138Y-117430515D03*
%TD*%
D52*
%TO.P,R6,1*%
%TO.N,Net-(U16-EN)*%
X167045740Y-127226637D03*
%TO.P,R6,2*%
%TO.N,Net-(U1-FB)*%
X168870740Y-127226637D03*
%TD*%
D22*
%TO.P,C3,1*%
%TO.N,GND*%
X151158866Y-107491147D03*
%TO.P,C3,2*%
%TO.N,+3.3V*%
X151158866Y-105941147D03*
%TD*%
D23*
%TO.P,C39,1*%
%TO.N,bat*%
X153326533Y-121006503D03*
%TO.P,C39,2*%
%TO.N,GND*%
X154876533Y-121006503D03*
%TD*%
D14*
%TO.P,R17,1*%
%TO.N,Net-(D12-A)*%
X162250000Y-104894011D03*
%TO.P,R17,2*%
%TO.N,Net-(D13-A)*%
X162250000Y-106544011D03*
%TD*%
D53*
%TO.P,C11,1*%
%TO.N,GND*%
X138722535Y-116119008D03*
%TO.P,C11,2*%
%TO.N,+3.3V*%
X139682535Y-116119008D03*
%TD*%
D54*
%TO.P,D1,1,BA_1*%
%TO.N,Net-(D1-BA)*%
X146378526Y-107169095D03*
D55*
%TO.P,D1,2,RA_2*%
%TO.N,Net-(D1-RA)*%
X146378526Y-106119095D03*
D54*
%TO.P,D1,3,GA_3*%
%TO.N,Net-(D1-GA)*%
X146378526Y-105069095D03*
%TO.P,D1,4,GK_4*%
%TO.N,GND*%
X143328526Y-105069095D03*
D55*
%TO.P,D1,5,RK_5*%
X143328526Y-106119095D03*
D54*
%TO.P,D1,6,BK_6*%
X143328526Y-107169095D03*
%TD*%
D13*
%TO.P,C29,1*%
%TO.N,GND*%
X165300000Y-106719011D03*
%TO.P,C29,2*%
%TO.N,Net-(D13-A)*%
X163750000Y-106719011D03*
%TD*%
D10*
%TO.P,R27,1*%
%TO.N,N/C*%
X151325000Y-110545939D03*
%TO.P,R27,2*%
%TO.N,+3.3V*%
X149675000Y-110545939D03*
%TD*%
D12*
%TO.P,R8,1*%
%TO.N,Net-(U16-EN)*%
X167717514Y-119000927D03*
%TO.P,R8,2*%
%TO.N,Net-(D9-A)*%
X167717514Y-117350927D03*
%TD*%
D56*
%TO.P,C78,1*%
%TO.N,GND*%
X140002023Y-113190777D03*
%TO.P,C78,2*%
%TO.N,Net-(U5-GNDANA)*%
X140002023Y-114150777D03*
%TD*%
D13*
%TO.P,C14,1*%
%TO.N,Net-(U1-SS{slash}TR)*%
X168186492Y-121951267D03*
%TO.P,C14,2*%
%TO.N,GND*%
X166636492Y-121951267D03*
%TD*%
D57*
%TO.P,J1,1,Pin_1_1*%
%TO.N,Net-(D2-K)*%
X139578473Y-104508907D03*
D58*
%TO.P,J1,2,Pin_2_2*%
%TO.N,Net-(J1-Pin_2)*%
X139578473Y-107048907D03*
%TD*%
D59*
%TO.P,J7,S1,SHIELD_S1*%
%TO.N,GND*%
X160141249Y-105544323D03*
D60*
X160141249Y-109724323D03*
D59*
X168781249Y-105544323D03*
D60*
X168781249Y-109724323D03*
%TD*%
D61*
%TO.N,+3.3V*%
X152475670Y-112024330D03*
X141500000Y-123409715D03*
X148200000Y-112314848D03*
X144287495Y-108863018D03*
X150182500Y-109940285D03*
X151060707Y-118250000D03*
X145595298Y-125301257D03*
X155705700Y-113181438D03*
X144932500Y-118200000D03*
%TO.N,2B*%
X149000000Y-111500000D03*
X148750000Y-115314848D03*
%TO.N,GND*%
X156000000Y-121000000D03*
X154250000Y-128750000D03*
X149200000Y-121400000D03*
X153000000Y-115400000D03*
X145200000Y-113000000D03*
X138400000Y-126400000D03*
X151000000Y-126600000D03*
X156945723Y-103944250D03*
X136750000Y-117000000D03*
X162400000Y-114000000D03*
X140500000Y-109000000D03*
X141800000Y-132600000D03*
X139127816Y-116830658D03*
X159557652Y-125638026D03*
X151400000Y-108600000D03*
X157922345Y-113646010D03*
X155800000Y-103800000D03*
X167000000Y-114750000D03*
X156400000Y-106400000D03*
X141500000Y-104500000D03*
X153872459Y-103285800D03*
X145500000Y-103250000D03*
X141500000Y-107750000D03*
X162508162Y-125750000D03*
X148200000Y-133000000D03*
X165500000Y-134250000D03*
X150000000Y-133000000D03*
X161306283Y-113311337D03*
X166797797Y-114080041D03*
X152670970Y-108350354D03*
X143500000Y-134250000D03*
X147000000Y-108250000D03*
X166400000Y-105000000D03*
X145500000Y-134250000D03*
X149000000Y-124800000D03*
X166250000Y-115000000D03*
X155000000Y-128750000D03*
X147200000Y-127400000D03*
X147200000Y-126200000D03*
X143000000Y-113200000D03*
X160957513Y-134235509D03*
X145500000Y-116000000D03*
X144000000Y-108000000D03*
X154904387Y-114628683D03*
X159750000Y-134250000D03*
X148600000Y-120600000D03*
X137500000Y-132250000D03*
X159250000Y-108000000D03*
X141500000Y-134250000D03*
X141500000Y-103250000D03*
X139000000Y-110500000D03*
X157750000Y-130250000D03*
X156158729Y-108696908D03*
X137000000Y-113750000D03*
X167500000Y-130250000D03*
X169199126Y-116809193D03*
X145103358Y-106965359D03*
X137967334Y-118471028D03*
X151400000Y-109600000D03*
X137948504Y-116119008D03*
X138400000Y-124400000D03*
X144000000Y-112200000D03*
X156488565Y-109466634D03*
X162800000Y-129600000D03*
X149800000Y-103400000D03*
X167500000Y-134250000D03*
X138176115Y-112780179D03*
X143266055Y-117623731D03*
X164600000Y-130400000D03*
X154250000Y-134250000D03*
X154893139Y-119007945D03*
X156340807Y-115459432D03*
X138194391Y-114510655D03*
X158209993Y-126290007D03*
X156750000Y-123500000D03*
X148235123Y-103101536D03*
X144250000Y-116500000D03*
X151000000Y-103400000D03*
X147500000Y-98000000D03*
X138400000Y-129000000D03*
X143400000Y-104200000D03*
X139368903Y-118611593D03*
X161000000Y-118500000D03*
X156600000Y-105200000D03*
X145805307Y-117856744D03*
X150800000Y-130800000D03*
X165750000Y-128000000D03*
X161500000Y-107250000D03*
X153314468Y-105231075D03*
X165936749Y-119539650D03*
X156515987Y-116911337D03*
X158438751Y-121678215D03*
X148912738Y-103791691D03*
X137892718Y-117114621D03*
X166630966Y-121194360D03*
X155750000Y-128750000D03*
X147058991Y-124916212D03*
X151500000Y-134250000D03*
X138500000Y-121250000D03*
X143800000Y-132800000D03*
X150475201Y-105205362D03*
X144000000Y-114250000D03*
X142070364Y-126457491D03*
X159598225Y-120598225D03*
X159110926Y-111000000D03*
X161869681Y-112833732D03*
X141500000Y-106250000D03*
X152005101Y-105201317D03*
X149000000Y-125800000D03*
X158000000Y-104750000D03*
X150385595Y-119463993D03*
X151000000Y-128000000D03*
X137500000Y-109250000D03*
X164400000Y-114800000D03*
X158554417Y-120621855D03*
X143800000Y-126600000D03*
X140000000Y-112400000D03*
X161720604Y-124842205D03*
X143600000Y-108600000D03*
X136769881Y-118947890D03*
X168000000Y-107200000D03*
X160500000Y-104250000D03*
X145000000Y-127000000D03*
X148200000Y-113472635D03*
X152641036Y-109156697D03*
X151750000Y-118011707D03*
X169000000Y-104200000D03*
X154936188Y-113456339D03*
X151000000Y-124600000D03*
X163200000Y-130600000D03*
X139073821Y-114514896D03*
X145500000Y-130250000D03*
X159457775Y-114305707D03*
X155500000Y-134000000D03*
X152497185Y-117118708D03*
X138630088Y-131614752D03*
%TO.N,I2C0_SDA*%
X152868556Y-114637373D03*
X151750000Y-115750000D03*
%TO.N,+5V*%
X158500000Y-107600000D03*
X163500000Y-120500000D03*
%TO.N,mosfet1_signalfire*%
X140250000Y-116750000D03*
%TO.N,BUZZER*%
X140250000Y-117750000D03*
%TO.N,CS_NAND MMCU*%
X142307500Y-120815285D03*
%TO.N,CS_SD MMCU*%
X144364235Y-121564457D03*
X145993131Y-120393131D03*
%TO.N,MOSI TMCU*%
X146932500Y-120440285D03*
%TO.N,SCK TMCU*%
X147432500Y-121100000D03*
%TO.N,MISO TMCU*%
X148932500Y-124100000D03*
%TO.N,D- DMCU-2*%
X159500000Y-115000000D03*
X151983539Y-112859062D03*
X161500000Y-114000000D03*
%TO.N,D+ DMCU-2*%
X156547286Y-107421190D03*
X165522425Y-111249098D03*
X151000000Y-112678425D03*
X163750000Y-111500000D03*
%TO.N,nRESET DMCU-2*%
X147504561Y-109732048D03*
%TO.N,SWDIO DMCU-2*%
X142500000Y-97000000D03*
%TO.N,Net-(J2-Pin_1)*%
X157000000Y-127927507D03*
X158250000Y-125556095D03*
%TO.N,Net-(J7-CC1)*%
X159750000Y-107250000D03*
%TO.N,Net-(U16-EN)*%
X169386500Y-119750000D03*
X167884912Y-127247548D03*
%TO.N,Net-(D13-A)*%
X162600000Y-109222323D03*
%TO.N,Net-(J7-CC2)*%
X166250000Y-111250000D03*
%TD*%
%TO.N,+3.3V*%
D62*
X149845000Y-112314848D02*
X148200000Y-112314848D01*
X144932500Y-111250000D02*
X144932500Y-110324108D01*
D63*
X143021263Y-100398737D02*
X144170000Y-99250000D01*
X145432500Y-109044259D02*
X145328526Y-108940285D01*
X156003876Y-117747383D02*
X155793200Y-117536707D01*
D62*
X155630700Y-116023641D02*
X155630699Y-116023642D01*
X151060707Y-119358879D02*
X151060707Y-118250000D01*
D63*
X154731700Y-120212707D02*
X156077342Y-120212707D01*
X145057063Y-112314848D02*
X144932500Y-112190285D01*
X142346215Y-121364285D02*
X141500000Y-122210500D01*
D62*
X144807936Y-112314848D02*
X144686392Y-112436392D01*
X142936392Y-114186392D02*
X144686392Y-112436392D01*
X142936392Y-114186392D02*
X144917527Y-116167527D01*
D63*
X154176661Y-106240354D02*
X153914161Y-106502854D01*
X145787500Y-122850000D02*
X145787500Y-123377000D01*
D62*
X139708542Y-116093001D02*
X139682535Y-116119008D01*
D63*
X145787500Y-123377000D02*
X145238500Y-123926000D01*
X139708542Y-115190285D02*
X139674480Y-115156223D01*
X152766958Y-104464758D02*
X153807920Y-104464758D01*
D62*
X149845000Y-112314848D02*
X150182500Y-111977348D01*
X142307936Y-114814848D02*
X142561392Y-114561392D01*
X144932500Y-112190285D02*
X144932500Y-111250000D01*
D63*
X143329656Y-121364285D02*
X143954738Y-120739203D01*
D62*
X145250000Y-112314848D02*
X144807936Y-112314848D01*
D64*
X160567338Y-114283373D02*
X159637954Y-113353989D01*
D63*
X145595298Y-124282798D02*
X145238500Y-123926000D01*
X141500000Y-122210500D02*
X141500000Y-123409715D01*
D62*
X140031502Y-115190285D02*
X140406939Y-114814848D01*
D63*
X150182500Y-109940285D02*
X150482866Y-109639919D01*
X139682535Y-115216292D02*
X139708542Y-115190285D01*
X153220573Y-106502854D02*
X152658866Y-105941147D01*
D62*
X151060707Y-118250000D02*
X151060707Y-117261641D01*
D63*
X144400000Y-109200000D02*
X144400000Y-108975523D01*
X141936500Y-123926000D02*
X141168873Y-123158373D01*
X153914161Y-106502854D02*
X153220573Y-106502854D01*
D62*
X155630700Y-114611707D02*
X155705700Y-114536707D01*
D63*
X143954738Y-120739203D02*
X144224737Y-120739203D01*
X145432500Y-110902348D02*
X145432500Y-109044259D01*
X149675000Y-110447785D02*
X150182500Y-109940285D01*
X144501000Y-108649513D02*
X144501000Y-104000000D01*
X144287495Y-108863018D02*
X144501000Y-108649513D01*
D62*
X144932500Y-117597446D02*
X144917527Y-117582473D01*
D63*
X141168873Y-123158373D02*
X141168873Y-120969196D01*
D62*
X149852064Y-112321912D02*
X150388984Y-112321912D01*
X144932500Y-110324108D02*
X144928549Y-110320157D01*
D64*
X159637954Y-113353989D02*
X158779198Y-113353989D01*
D63*
X156077342Y-120212707D02*
X157130700Y-119159349D01*
X152560426Y-119491433D02*
X152630700Y-119561707D01*
D62*
X148200000Y-112314848D02*
X145250000Y-112314848D01*
D63*
X150482866Y-106617147D02*
X151158866Y-105941147D01*
D62*
X139708542Y-115190285D02*
X140031502Y-115190285D01*
X144932500Y-118200000D02*
X144932500Y-119227348D01*
D63*
X142800000Y-121364285D02*
X143329656Y-121364285D01*
X144932500Y-110902348D02*
X144932500Y-109732500D01*
X154055700Y-119536707D02*
X154731700Y-120212707D01*
D62*
X155705700Y-113181438D02*
X157182231Y-111704907D01*
D63*
X145238500Y-123926000D02*
X141936500Y-123926000D01*
D62*
X142750000Y-114372785D02*
X142561392Y-114561392D01*
D63*
X144400000Y-108975523D02*
X144287495Y-108863018D01*
X156941628Y-114536707D02*
X157137653Y-114732732D01*
D62*
X144917527Y-116167527D02*
X144917527Y-117582473D01*
D63*
X153807920Y-104464758D02*
X154083225Y-104740063D01*
D62*
X140406939Y-114814848D02*
X141520000Y-114814848D01*
X157182231Y-111704907D02*
X155723230Y-110245906D01*
D63*
X144501000Y-104000000D02*
X143021263Y-102520263D01*
D62*
X141520000Y-114814848D02*
X142307937Y-114814848D01*
D63*
X144224737Y-120739203D02*
X144932500Y-120031440D01*
D62*
X144932500Y-110902348D02*
X145432500Y-110902348D01*
X157988999Y-116889084D02*
X157988999Y-115584078D01*
X157130700Y-117747383D02*
X157988999Y-116889084D01*
D63*
X143021263Y-102520263D02*
X143021263Y-100398737D01*
X157130700Y-119159349D02*
X157130700Y-117747383D01*
D62*
X155630700Y-115874207D02*
X155630700Y-114611707D01*
D63*
X144932500Y-109732500D02*
X144400000Y-109200000D01*
X150482866Y-109639919D02*
X150482866Y-106617147D01*
D62*
X139708542Y-115190285D02*
X139708542Y-116093001D01*
X151060707Y-117261641D02*
X151682500Y-116639848D01*
D64*
X158779198Y-113353989D02*
X157182231Y-111757022D01*
D63*
X154176661Y-105990354D02*
X154176661Y-106240354D01*
X152658866Y-105941147D02*
X151158866Y-105941147D01*
D62*
X144686392Y-112436392D02*
X144932500Y-112190285D01*
X149845000Y-112314848D02*
X150135518Y-112024330D01*
X144932500Y-118200000D02*
X144932500Y-117597446D01*
X142561392Y-114561392D02*
X142307937Y-114814848D01*
X151193261Y-119491433D02*
X152560426Y-119491433D01*
X152630700Y-119561707D02*
X154030700Y-119561707D01*
D63*
X144932500Y-120031440D02*
X144932500Y-119227348D01*
D62*
X144932500Y-111250000D02*
X144932500Y-110902348D01*
D64*
X157182231Y-111757022D02*
X157182231Y-111704907D01*
D62*
X155705700Y-114536707D02*
X155705700Y-113181438D01*
D63*
X150182500Y-111977348D02*
X150182500Y-109940285D01*
X145595298Y-125301257D02*
X145595298Y-124282798D01*
X151193261Y-119491433D02*
X151060707Y-119358879D01*
X154083225Y-105896918D02*
X154176661Y-105990354D01*
X155723230Y-110245906D02*
X155584270Y-110245906D01*
X154083225Y-104740063D02*
X154083225Y-105896918D01*
X157130700Y-117747383D02*
X156003876Y-117747383D01*
D62*
X150135518Y-112024330D02*
X151700298Y-112024330D01*
D63*
X142800000Y-121364285D02*
X142346215Y-121364285D01*
X154030700Y-119561707D02*
X154055700Y-119536707D01*
D62*
X145250000Y-112314848D02*
X145057063Y-112314848D01*
D63*
X149675000Y-110545939D02*
X149675000Y-110447785D01*
D62*
X155705700Y-114536707D02*
X156941628Y-114536707D01*
X155630700Y-115874207D02*
X155630700Y-116023641D01*
X157988999Y-115584078D02*
X157137653Y-114732732D01*
X142750000Y-114372785D02*
X142936392Y-114186392D01*
X149845000Y-112314848D02*
X149852064Y-112321912D01*
X152475670Y-112024330D02*
X151700298Y-112024330D01*
%TO.N,Net-(U7-INT_DRDY)*%
D63*
X151116958Y-104464758D02*
X151792958Y-103788758D01*
X155132225Y-104690285D02*
X155132225Y-105322992D01*
X151792958Y-103788758D02*
X154230698Y-103788758D01*
X155552661Y-106389354D02*
X155439161Y-106502854D01*
X155132225Y-105322992D02*
X155552661Y-105743428D01*
X154230698Y-103788758D02*
X155132225Y-104690285D01*
X155552661Y-105743428D02*
X155552661Y-106389354D01*
%TO.N,2R*%
X149757500Y-104476159D02*
X148708500Y-105525159D01*
X148708500Y-109388849D02*
X147932500Y-110164849D01*
X147932500Y-110164849D02*
X147932500Y-110902348D01*
X148708500Y-105525159D02*
X148708500Y-109388849D01*
%TO.N,Net-(D1-GA)*%
X146378526Y-105069095D02*
X147514564Y-105069095D01*
X147514564Y-105069095D02*
X148107500Y-104476159D01*
%TO.N,Net-(Q10-G)*%
X161792275Y-117070225D02*
X159825070Y-117070225D01*
X159624069Y-116869224D02*
X159624069Y-116206725D01*
X162312500Y-116550000D02*
X161792275Y-117070225D01*
X159825070Y-117070225D02*
X159624069Y-116869224D01*
%TO.N,POWAAAA*%
X165126000Y-120417418D02*
X164987458Y-120555960D01*
D62*
X162312500Y-118450000D02*
X162312500Y-117995532D01*
D63*
X163445174Y-116644174D02*
X163700500Y-116899500D01*
D62*
X165226000Y-117159032D02*
X165226000Y-120317418D01*
X162312500Y-118450000D02*
X161333725Y-117471225D01*
X159276070Y-117471225D02*
X158674069Y-116869224D01*
X162307980Y-122926292D02*
X163131688Y-123750000D01*
X158674069Y-116869224D02*
X158674069Y-116206725D01*
X163131688Y-123750000D02*
X165000000Y-123750000D01*
X165000000Y-123750000D02*
X165265128Y-123484872D01*
D63*
X163450454Y-116999000D02*
X163445174Y-116993720D01*
X164924546Y-116999000D02*
X165126000Y-117200454D01*
D62*
X165226000Y-120317418D02*
X164987458Y-120555960D01*
X164965968Y-116899000D02*
X165226000Y-117159032D01*
X165265128Y-120833630D02*
X164987458Y-120555960D01*
D63*
X162312500Y-118136954D02*
X163450454Y-116999000D01*
D62*
X163445174Y-116862858D02*
X163445174Y-115017418D01*
D63*
X163800000Y-116999000D02*
X164924546Y-116999000D01*
D62*
X161333725Y-117471225D02*
X159276070Y-117471225D01*
D63*
X163445174Y-116600000D02*
X163445174Y-115017418D01*
X163445174Y-116800000D02*
X163445174Y-116600000D01*
X163544674Y-116899500D02*
X163445174Y-116800000D01*
D62*
X163409032Y-116899000D02*
X163445174Y-116862858D01*
X163409032Y-116899000D02*
X164965968Y-116899000D01*
X165265128Y-123484872D02*
X165265128Y-120833630D01*
D63*
X163450454Y-116999000D02*
X163800000Y-116999000D01*
X162312500Y-118450000D02*
X162312500Y-118136954D01*
X163445174Y-116993720D02*
X163445174Y-116800000D01*
X163700500Y-116899500D02*
X163544674Y-116899500D01*
X163445174Y-116600000D02*
X163445174Y-116644174D01*
X163700500Y-116899500D02*
X163800000Y-116999000D01*
D62*
X162312500Y-117995532D02*
X163409032Y-116899000D01*
%TO.N,bat*%
X153273613Y-122533518D02*
X153273613Y-121059423D01*
X154303661Y-123563566D02*
X153273613Y-122533518D01*
X157525000Y-120598225D02*
X157525000Y-119630794D01*
D63*
X162655321Y-119345225D02*
X159324523Y-119345225D01*
X158674069Y-118694771D02*
X158674069Y-118481725D01*
D62*
X153273613Y-121059423D02*
X153326533Y-121006503D01*
X154303661Y-124002507D02*
X154303661Y-123563566D01*
X153939161Y-124002507D02*
X154303661Y-124002507D01*
D63*
X164187500Y-117813046D02*
X162655321Y-119345225D01*
D62*
X154303661Y-124002507D02*
X154953661Y-124002507D01*
D63*
X156440722Y-121682503D02*
X154002533Y-121682503D01*
X164187500Y-117500000D02*
X164187500Y-117813046D01*
D62*
X153316161Y-124990007D02*
X153316161Y-124625507D01*
D63*
X157525000Y-120598225D02*
X156440722Y-121682503D01*
D62*
X153316161Y-124625507D02*
X153939161Y-124002507D01*
D63*
X159324523Y-119345225D02*
X158674069Y-118694771D01*
D62*
X157525000Y-119630794D02*
X158674069Y-118481725D01*
D63*
X154002533Y-121682503D02*
X153326533Y-121006503D01*
%TO.N,2B*%
X149757500Y-107408166D02*
X149757500Y-109415797D01*
X149757500Y-109415797D02*
X149000000Y-110173297D01*
X149845000Y-115314848D02*
X148750000Y-115314848D01*
X149000000Y-110173297D02*
X149000000Y-111500000D01*
X148714368Y-115314848D02*
X148704756Y-115324460D01*
%TO.N,Net-(D1-BA)*%
X147868429Y-107169095D02*
X148107500Y-107408166D01*
X146378526Y-107169095D02*
X147868429Y-107169095D01*
%TO.N,I2C0_SCL*%
X153914161Y-107002854D02*
X153800661Y-107116354D01*
X152358500Y-114332532D02*
X151700298Y-113674330D01*
X151700298Y-113674330D02*
X151059780Y-114314848D01*
X151059780Y-114314848D02*
X149845000Y-114314848D01*
X153968200Y-117036707D02*
X153745274Y-117036707D01*
X152358500Y-115649933D02*
X152358500Y-114332532D01*
X152325670Y-113674330D02*
X151700298Y-113674330D01*
X153800661Y-107116354D02*
X153800661Y-112199339D01*
X153745274Y-117036707D02*
X152358500Y-115649933D01*
X153800661Y-112199339D02*
X152325670Y-113674330D01*
%TO.N,GND*%
X154886087Y-107101854D02*
X154467235Y-107101854D01*
X154130700Y-118199207D02*
X152818200Y-118199207D01*
X167140253Y-124176869D02*
X166500000Y-124817122D01*
X169199126Y-116876645D02*
X169226138Y-116903657D01*
X165300000Y-106719011D02*
X165300000Y-108243702D01*
X154303661Y-127190007D02*
X154178661Y-127065007D01*
X159598225Y-120598225D02*
X160475000Y-120598225D01*
X145805307Y-117856744D02*
X145432500Y-118229551D01*
X154936188Y-113456339D02*
X154977661Y-113414866D01*
D62*
X140087500Y-133650000D02*
X140900000Y-133650000D01*
D63*
X157922345Y-113646010D02*
X157600931Y-113646010D01*
X160141249Y-105544323D02*
X160141249Y-104608751D01*
X154630700Y-118199207D02*
X154130700Y-118199207D01*
D62*
X154953661Y-127927507D02*
X154953661Y-128703661D01*
D63*
X143328526Y-104271474D02*
X143400000Y-104200000D01*
X155632231Y-111704907D02*
X155632231Y-111382231D01*
X168781249Y-109724323D02*
X168781249Y-105544323D01*
X149782847Y-112877001D02*
X149845000Y-112814848D01*
X154953661Y-127927507D02*
X154953661Y-127390007D01*
X156256168Y-123993832D02*
X156256168Y-124000000D01*
D62*
X166588518Y-121151912D02*
X166630966Y-121194360D01*
D63*
X157130700Y-116197383D02*
X156132524Y-116197383D01*
X166225972Y-105174028D02*
X166400000Y-105000000D01*
X146878526Y-108371474D02*
X147000000Y-108250000D01*
X165245529Y-105174028D02*
X166225972Y-105174028D01*
X165245529Y-106664540D02*
X165300000Y-106719011D01*
X158438751Y-121678215D02*
X157893302Y-122223664D01*
X167679087Y-115921863D02*
X167679087Y-115429087D01*
D62*
X166588518Y-120441079D02*
X166588518Y-121151912D01*
D63*
X147500000Y-97500000D02*
X147500000Y-98000000D01*
X152658866Y-107658866D02*
X152658866Y-107491147D01*
X156253661Y-124002507D02*
X156253661Y-124740007D01*
X155176661Y-107392428D02*
X154886087Y-107101854D01*
D62*
X154303661Y-128696339D02*
X154250000Y-128750000D01*
D63*
X156256168Y-124000000D02*
X156253661Y-124002507D01*
X143328526Y-105069095D02*
X143328526Y-106119095D01*
X155637012Y-108744294D02*
X155637012Y-107975705D01*
X154176661Y-107392428D02*
X154176661Y-107515354D01*
X156515987Y-116911337D02*
X156515987Y-116812096D01*
X155793200Y-117036707D02*
X155793200Y-116536707D01*
X148272475Y-113472635D02*
X148868109Y-112877001D01*
X154977661Y-113414866D02*
X154977661Y-112359477D01*
D62*
X154303661Y-127927507D02*
X154303661Y-128696339D01*
D63*
X155603661Y-127927507D02*
X155603661Y-127515008D01*
X157137653Y-113182732D02*
X157432732Y-113182732D01*
X155993497Y-121006503D02*
X156000000Y-121000000D01*
D62*
X166636492Y-121951267D02*
X166636492Y-121199886D01*
D63*
X151158866Y-108358866D02*
X151400000Y-108600000D01*
X165525000Y-127775000D02*
X165750000Y-128000000D01*
X160574069Y-118481725D02*
X159624069Y-118481725D01*
X157600931Y-113646010D02*
X157137653Y-113182732D01*
X140000000Y-112400000D02*
X140000000Y-113122785D01*
X154630700Y-118199207D02*
X155130700Y-118199207D01*
X155130700Y-118770384D02*
X154893139Y-119007945D01*
X155176661Y-107515354D02*
X155176661Y-107392428D01*
X159115152Y-110950941D02*
X159200941Y-110950941D01*
X166500000Y-124817122D02*
X166077753Y-124817122D01*
X159110926Y-110955167D02*
X159115152Y-110950941D01*
X146878526Y-108940285D02*
X146878526Y-108371474D01*
X154876533Y-121006503D02*
X155750000Y-121006503D01*
X166588518Y-119123012D02*
X166156497Y-118690991D01*
X156158729Y-108696908D02*
X155684398Y-108696908D01*
X147500000Y-98000000D02*
X147500000Y-98250000D01*
X143328526Y-105069095D02*
X143328526Y-104271474D01*
X168000000Y-107200000D02*
X167000000Y-107200000D01*
X152670970Y-107670970D02*
X152658866Y-107658866D01*
X154303661Y-127927507D02*
X154303661Y-127190007D01*
X155480701Y-117036707D02*
X155793200Y-117036707D01*
X165525000Y-127000000D02*
X165525000Y-125057376D01*
X167679087Y-115429087D02*
X167000000Y-114750000D01*
X146710000Y-96710000D02*
X147500000Y-97500000D01*
X160141249Y-109724323D02*
X160141249Y-108891249D01*
X138722535Y-116119008D02*
X138000000Y-116119008D01*
X156132524Y-116197383D02*
X155793200Y-116536707D01*
X161895174Y-114354826D02*
X162250000Y-114000000D01*
X147058991Y-124916212D02*
X147093503Y-124916212D01*
X155130700Y-117386708D02*
X155480701Y-117036707D01*
X167140253Y-125242122D02*
X166715253Y-124817122D01*
X154248252Y-107586945D02*
X154176661Y-107515354D01*
X165525000Y-125057376D02*
X165765254Y-124817122D01*
X152630700Y-118011707D02*
X151750000Y-118011707D01*
X152818200Y-118199207D02*
X152630700Y-118011707D01*
X165765254Y-124817122D02*
X166077753Y-124817122D01*
X146710000Y-99040000D02*
X147500000Y-98250000D01*
X161605989Y-107250000D02*
X161500000Y-107250000D01*
X159106700Y-110950941D02*
X159088375Y-110950941D01*
X166815253Y-124817122D02*
X166715253Y-124817122D01*
X154676661Y-105990354D02*
X154676661Y-106892428D01*
D62*
X155603661Y-127927507D02*
X155603661Y-128603661D01*
D63*
X169199126Y-116809193D02*
X169199126Y-116876645D01*
D62*
X140900000Y-133650000D02*
X141500000Y-134250000D01*
D63*
X156253661Y-124740007D02*
X156378661Y-124865007D01*
X160574069Y-118481725D02*
X160981725Y-118481725D01*
X155176661Y-105990354D02*
X154676661Y-105990354D01*
X143328526Y-106119095D02*
X143328526Y-107169095D01*
X165245529Y-105174028D02*
X165245529Y-106664540D01*
X155130700Y-118199207D02*
X155130700Y-117386708D01*
X156515987Y-116812096D02*
X157130700Y-116197383D01*
X166750000Y-106950000D02*
X166750000Y-106394011D01*
X146710000Y-99250000D02*
X146710000Y-99040000D01*
X138000000Y-116119008D02*
X137948504Y-116119008D01*
X154676661Y-106892428D02*
X154886087Y-107101854D01*
X160141249Y-104608751D02*
X160500000Y-104250000D01*
X155637012Y-107975705D02*
X155176661Y-107515354D01*
D62*
X155603661Y-128603661D02*
X155750000Y-128750000D01*
D63*
X154904387Y-114628683D02*
X154904387Y-113488140D01*
X159110926Y-110955167D02*
X159106700Y-110950941D01*
X159110926Y-111000000D02*
X159110926Y-110955167D01*
X162325000Y-107969011D02*
X161605989Y-107250000D01*
X143328526Y-107169095D02*
X143328526Y-107328526D01*
X154953661Y-127390007D02*
X155278661Y-127065007D01*
X147987500Y-124022215D02*
X147987500Y-122850000D01*
X158209993Y-126290007D02*
X157241161Y-126290007D01*
X146878526Y-108940285D02*
X145932500Y-109886311D01*
X167140253Y-123742122D02*
X167140253Y-124176869D01*
X148868109Y-112877001D02*
X149782847Y-112877001D01*
X165300000Y-108243702D02*
X165306298Y-108250000D01*
X166156497Y-119319902D02*
X165936749Y-119539650D01*
X162508162Y-124919252D02*
X162558925Y-124868489D01*
X138714480Y-114874237D02*
X139073821Y-114514896D01*
X145932500Y-109886311D02*
X145932500Y-110902348D01*
X152658866Y-107491147D02*
X151158866Y-107491147D01*
X154977661Y-112359477D02*
X155632231Y-111704907D01*
X155603661Y-127515008D02*
X156053662Y-127065007D01*
X166588518Y-120441079D02*
X166588518Y-119123012D01*
X168781249Y-104468751D02*
X169000000Y-104250000D01*
X138714480Y-115156223D02*
X138714480Y-114874237D01*
X162508162Y-126700680D02*
X162508162Y-125750000D01*
X169226138Y-116903657D02*
X169226138Y-117430515D01*
X155130700Y-118199207D02*
X155130700Y-118770384D01*
X145432500Y-118229551D02*
X145432500Y-119227348D01*
X154467235Y-107101854D02*
X154176661Y-107392428D01*
X155684398Y-108696908D02*
X155637012Y-108744294D01*
X154904387Y-113488140D02*
X154936188Y-113456339D01*
X165525000Y-127000000D02*
X165525000Y-127775000D01*
X166156497Y-118690991D02*
X166156497Y-119319902D01*
X162508162Y-125750000D02*
X162508162Y-124919252D01*
D62*
X154953661Y-128703661D02*
X155000000Y-128750000D01*
D63*
X167140253Y-123742122D02*
X167140253Y-125242122D01*
X167000000Y-107200000D02*
X166750000Y-106950000D01*
X151158866Y-107491147D02*
X151158866Y-108358866D01*
X160981725Y-118481725D02*
X161000000Y-118500000D01*
X147093503Y-124916212D02*
X147987500Y-124022215D01*
X161895174Y-115017418D02*
X161895174Y-114354826D01*
D62*
X166636492Y-121199886D02*
X166630966Y-121194360D01*
D63*
X156750000Y-123500000D02*
X156256168Y-123993832D01*
X157893302Y-122223664D02*
X157893302Y-122534151D01*
X166250000Y-114627838D02*
X166797797Y-114080041D01*
X168781249Y-105544323D02*
X168781249Y-104468751D01*
X160141249Y-108891249D02*
X159250000Y-108000000D01*
X155632231Y-111704907D02*
X155632231Y-111515399D01*
X154630700Y-118199207D02*
X154630700Y-118745506D01*
X166715253Y-124817122D02*
X166077753Y-124817122D01*
X156053662Y-127065007D02*
X156378661Y-127065007D01*
X154630700Y-118745506D02*
X154893139Y-119007945D01*
X152670970Y-108350354D02*
X152670970Y-107670970D01*
X159200941Y-110950941D02*
X159617338Y-111367338D01*
X143328526Y-107328526D02*
X144000000Y-108000000D01*
X166250000Y-115000000D02*
X166250000Y-114627838D01*
X167140253Y-124492122D02*
X166815253Y-124817122D01*
%TO.N,I2C0_SDA*%
X151682500Y-115592206D02*
X153627001Y-117536707D01*
X154676661Y-112868104D02*
X154676661Y-107515354D01*
X153627001Y-117536707D02*
X153968200Y-117536707D01*
X152907392Y-114637373D02*
X154676661Y-112868104D01*
X151507500Y-114814848D02*
X149845000Y-114814848D01*
X151682500Y-114989848D02*
X151507500Y-114814848D01*
X151682500Y-114989848D02*
X151682500Y-115592206D01*
X152868556Y-114637373D02*
X152907392Y-114637373D01*
%TO.N,+5V*%
D62*
X163500000Y-120500000D02*
X162243418Y-120500000D01*
X157959458Y-106959458D02*
X158500000Y-107500000D01*
D63*
X159507980Y-122926292D02*
X159817126Y-122926292D01*
D62*
X157959458Y-106213734D02*
X157959458Y-106959458D01*
D63*
X164337785Y-122600991D02*
X164232489Y-122600991D01*
D62*
X164232489Y-122600991D02*
X162187458Y-120555960D01*
X159817126Y-122926292D02*
X160323708Y-122926292D01*
D63*
X162243418Y-120500000D02*
X162187458Y-120555960D01*
D62*
X162187458Y-121062542D02*
X162187458Y-120555960D01*
X160323708Y-122926292D02*
X162187458Y-121062542D01*
%TO.N,Net-(D11-A)*%
D63*
X157234270Y-108766552D02*
X157212012Y-108744294D01*
X157234270Y-110245906D02*
X157234270Y-108766552D01*
%TO.N,Net-(U5-GNDANA)*%
X140166094Y-114314848D02*
X141520000Y-114314848D01*
X140002023Y-114150777D02*
X140166094Y-114314848D01*
%TO.N,SD_DETECT*%
X141168873Y-118909481D02*
X141555269Y-118909481D01*
X139086500Y-128949816D02*
X142110684Y-131974000D01*
X141168873Y-118909481D02*
X139086500Y-120991854D01*
X142257499Y-115314848D02*
X141520000Y-115314848D01*
X142528876Y-117935874D02*
X142528876Y-115586225D01*
X142528876Y-115586225D02*
X142257499Y-115314848D01*
X142110684Y-131974000D02*
X151211500Y-131974000D01*
X139086500Y-120991854D02*
X139086500Y-128949816D01*
X141555269Y-118909481D02*
X142528876Y-117935874D01*
X151211500Y-131974000D02*
X151312500Y-132075000D01*
%TO.N,mosfet1_signalfire*%
D62*
X141520000Y-116314848D02*
X142127669Y-116314848D01*
X140685152Y-116314848D02*
X141520000Y-116314848D01*
X140250000Y-116750000D02*
X140685152Y-116314848D01*
X142127669Y-116314848D02*
X142127876Y-116315055D01*
%TO.N,BUZZER*%
D63*
X141417330Y-117913850D02*
X140416305Y-117913850D01*
X141455152Y-117750000D02*
X141520000Y-117814848D01*
X141520000Y-117814848D02*
X141435665Y-117899183D01*
X141435665Y-117899183D02*
X140863649Y-117899183D01*
X141420998Y-117913850D02*
X141417330Y-117913850D01*
X140416305Y-117913850D02*
X140229300Y-117726845D01*
X140250000Y-117750000D02*
X141455152Y-117750000D01*
X141520000Y-117814848D02*
X141420998Y-117913850D01*
%TO.N,CS_NAND MMCU*%
X142307500Y-120815285D02*
X142858656Y-120815285D01*
X142934738Y-119229586D02*
X142932500Y-119227348D01*
X142858656Y-120815285D02*
X142934738Y-120739203D01*
X142934738Y-120739203D02*
X142934738Y-119229586D01*
%TO.N,CS_SD MMCU*%
X144156250Y-121756250D02*
X143587500Y-122325000D01*
X146001668Y-120384593D02*
X146432500Y-119953761D01*
X143587500Y-122325000D02*
X143587500Y-122850000D01*
X144156250Y-121756250D02*
X144172442Y-121756250D01*
X144251393Y-121661108D02*
X144156250Y-121756250D01*
X144172442Y-121756250D02*
X144364235Y-121564457D01*
X146432500Y-119953761D02*
X146432500Y-119227348D01*
%TO.N,MOSI TMCU*%
X145238500Y-121774000D02*
X144687500Y-122325000D01*
X146932500Y-120440285D02*
X146932500Y-119227348D01*
X146932500Y-120440285D02*
X145598785Y-121774000D01*
X145598785Y-121774000D02*
X145238500Y-121774000D01*
X144687500Y-122325000D02*
X144687500Y-122850000D01*
%TO.N,SCK TMCU*%
X147432500Y-121209715D02*
X147432500Y-122305000D01*
X147432500Y-121100000D02*
X147432500Y-119227348D01*
X147432500Y-122305000D02*
X146887500Y-122850000D01*
%TO.N,MISO TMCU*%
X149087500Y-122325000D02*
X149087500Y-122850000D01*
X148932500Y-124100000D02*
X148932500Y-123005000D01*
X147932500Y-121170000D02*
X149087500Y-122325000D01*
X148932500Y-123005000D02*
X149087500Y-122850000D01*
X147932500Y-119227348D02*
X147932500Y-121170000D01*
%TO.N,CS_IMU TMCU*%
X149543261Y-119491433D02*
X148696585Y-119491433D01*
X148696585Y-119491433D02*
X148432500Y-119227348D01*
%TO.N,D- DMCU-2*%
D65*
X151503280Y-112859062D02*
X151983539Y-112859062D01*
D63*
X160670532Y-115343225D02*
X159843225Y-115343225D01*
X161068338Y-114945419D02*
X160670532Y-115343225D01*
D65*
X149845000Y-113814848D02*
X150547494Y-113814848D01*
D63*
X161068338Y-114431662D02*
X161068338Y-114945419D01*
X161500000Y-114000000D02*
X161068338Y-114431662D01*
D65*
X150547494Y-113814848D02*
X151503280Y-112859062D01*
D63*
X159843225Y-115343225D02*
X159500000Y-115000000D01*
%TO.N,D+ DMCU-2*%
X151000000Y-112828583D02*
X150513735Y-113314848D01*
X159440249Y-109440249D02*
X157421190Y-107421190D01*
X163225323Y-110975323D02*
X159850885Y-110975323D01*
X159850885Y-110975323D02*
X159440249Y-110564687D01*
X165271523Y-111500000D02*
X165522425Y-111249098D01*
X150513735Y-113314848D02*
X149845000Y-113314848D01*
X159440249Y-110564687D02*
X159440249Y-109440249D01*
X151000000Y-112678425D02*
X151000000Y-112828583D01*
X157421190Y-107421190D02*
X156547286Y-107421190D01*
X163750000Y-111500000D02*
X165271523Y-111500000D01*
X163750000Y-111500000D02*
X163225323Y-110975323D01*
%TO.N,2G*%
X149729970Y-105935280D02*
X149019949Y-106645301D01*
X149019949Y-109577400D02*
X148432500Y-110164849D01*
X149019949Y-106645301D02*
X149019949Y-109577400D01*
X148432500Y-110164849D02*
X148432500Y-110902348D01*
%TO.N,nRESET DMCU-2*%
X147365301Y-109732048D02*
X147504561Y-109732048D01*
X146932500Y-110164849D02*
X147365301Y-109732048D01*
X146932500Y-110902348D02*
X146932500Y-110164849D01*
%TO.N,SWCLK DMCU-2*%
X148199000Y-95659000D02*
X149250000Y-96710000D01*
X142402526Y-108111047D02*
X142402526Y-98216474D01*
X143119000Y-96274661D02*
X143734661Y-95659000D01*
X144432500Y-110141021D02*
X142402526Y-108111047D01*
X144432500Y-110902348D02*
X144432500Y-110141021D01*
X143734661Y-95659000D02*
X148199000Y-95659000D01*
X143119000Y-97500000D02*
X143119000Y-96274661D01*
X142402526Y-98216474D02*
X143119000Y-97500000D01*
%TO.N,SWDIO DMCU-2*%
X143932500Y-110066699D02*
X143932500Y-110902348D01*
X142500000Y-97000000D02*
X142101526Y-97398474D01*
X142101526Y-108235725D02*
X143932500Y-110066699D01*
X142101526Y-97398474D02*
X142101526Y-108235725D01*
%TO.N,Net-(U9-INT1)*%
X155705700Y-119536707D02*
X155705700Y-118274207D01*
X155705700Y-118274207D02*
X155630700Y-118199207D01*
%TO.N,Net-(J2-Pin_1)*%
D62*
X156253661Y-127927507D02*
X157000000Y-127927507D01*
X157000000Y-127927507D02*
X160956560Y-127927507D01*
D63*
X163685175Y-132564825D02*
X164000000Y-132250000D01*
D62*
X156822493Y-127927507D02*
X157000000Y-127927507D01*
D63*
X157325073Y-125556095D02*
X157241161Y-125640007D01*
D62*
X160999111Y-127970058D02*
X162227540Y-127970058D01*
D63*
X160956560Y-127927507D02*
X160999111Y-127970058D01*
D62*
X164000000Y-129742518D02*
X162508162Y-128250680D01*
D63*
X158250000Y-125556095D02*
X157325073Y-125556095D01*
D62*
X164000000Y-132250000D02*
X164000000Y-129742518D01*
D63*
X162227540Y-127970058D02*
X162508162Y-128250680D01*
D62*
X160689505Y-132564825D02*
X163685175Y-132564825D01*
%TO.N,Net-(D6-K)*%
X164337785Y-126637215D02*
X163975000Y-127000000D01*
D63*
X166077753Y-124167122D02*
X166077753Y-123517122D01*
D62*
X164337785Y-125400991D02*
X164337785Y-126637215D01*
X165571654Y-124167122D02*
X166077753Y-124167122D01*
X164337785Y-125400991D02*
X165571654Y-124167122D01*
%TO.N,Net-(J7-CC1)*%
D63*
X160675000Y-107969011D02*
X160469011Y-107969011D01*
X160469011Y-107969011D02*
X159750000Y-107250000D01*
%TO.N,Net-(U16-EN)*%
X167717514Y-119000927D02*
X168500000Y-118218441D01*
X166077753Y-125467122D02*
X166303753Y-125693122D01*
D62*
X167717514Y-119000927D02*
X169205726Y-119000927D01*
D63*
X167864001Y-127226637D02*
X167045740Y-127226637D01*
X160250000Y-113000000D02*
X160567338Y-112682662D01*
X158667338Y-112670872D02*
X158996466Y-113000000D01*
D62*
X169205726Y-119000927D02*
X169226138Y-118980515D01*
D63*
X169386500Y-119140877D02*
X169226138Y-118980515D01*
D62*
X166508644Y-125898013D02*
X167771862Y-125898013D01*
X169229087Y-115446863D02*
X165889869Y-112107645D01*
D63*
X168500000Y-116650950D02*
X169229087Y-115921863D01*
X158996466Y-113000000D02*
X160250000Y-113000000D01*
D62*
X167771862Y-125898013D02*
X168202753Y-125467122D01*
D63*
X169386500Y-119750000D02*
X169386500Y-119140877D01*
X167884912Y-127247548D02*
X167864001Y-127226637D01*
D62*
X167045740Y-126435109D02*
X166077753Y-125467122D01*
X169229087Y-115921863D02*
X169229087Y-115446863D01*
X167045740Y-127226637D02*
X167045740Y-126435109D01*
X166303753Y-125693122D02*
X166508644Y-125898013D01*
X160666610Y-112107645D02*
X160567338Y-112008373D01*
D63*
X168500000Y-118218441D02*
X168500000Y-116650950D01*
X160567338Y-112682662D02*
X160567338Y-112008373D01*
X158667338Y-112008373D02*
X158667338Y-112670872D01*
D62*
X165889869Y-112107645D02*
X160666610Y-112107645D01*
%TO.N,Net-(D13-A)*%
D63*
X161574000Y-104574000D02*
X161574000Y-105868011D01*
X157959458Y-103413734D02*
X160413734Y-103413734D01*
X162425000Y-106719011D02*
X162250000Y-106544011D01*
X160413734Y-103413734D02*
X161574000Y-104574000D01*
X163756298Y-106725309D02*
X163750000Y-106719011D01*
X161574000Y-105868011D02*
X162250000Y-106544011D01*
X163756298Y-108250000D02*
X163585093Y-108250000D01*
X163585093Y-108250000D02*
X162612347Y-109222746D01*
X163756298Y-108250000D02*
X163756298Y-106725309D01*
X163750000Y-106719011D02*
X162425000Y-106719011D01*
%TO.N,Net-(U1-FB)*%
D62*
X168238518Y-120441079D02*
X168837492Y-121040053D01*
X168837492Y-121040053D02*
X169014694Y-121217255D01*
X169014694Y-121217255D02*
X169014694Y-124485306D01*
D63*
X168515252Y-124817122D02*
X168202753Y-124817122D01*
D62*
X168870740Y-125172610D02*
X168515252Y-124817122D01*
D63*
X168432878Y-124817122D02*
X168202753Y-124817122D01*
D62*
X168870740Y-127226637D02*
X168870740Y-125172610D01*
X169014694Y-124485306D02*
X168682878Y-124817122D01*
X168682878Y-124817122D02*
X168432878Y-124817122D01*
%TO.N,Net-(L7-Pad2)*%
X153316161Y-126290007D02*
X153316161Y-126940007D01*
X154289505Y-132564825D02*
X154289505Y-132710495D01*
X153316161Y-132433839D02*
X153316161Y-126940007D01*
X153316161Y-133316161D02*
X153316161Y-132433839D01*
X153538169Y-133094153D02*
X153538169Y-132517639D01*
X154289505Y-132710495D02*
X153500000Y-133500000D01*
X153500000Y-133500000D02*
X153316161Y-133316161D01*
X153532561Y-131662142D02*
X153532561Y-132217439D01*
X153316161Y-133316161D02*
X153538169Y-133094153D01*
X153532561Y-132217439D02*
X153316161Y-132433839D01*
X153538169Y-132517639D02*
X153519812Y-132499282D01*
%TO.N,Net-(U2-FB)*%
X155603661Y-123213566D02*
X155603661Y-124002507D01*
X154923613Y-122533518D02*
X155603661Y-123213566D01*
X155603661Y-123213566D02*
X155603661Y-123173792D01*
X156242669Y-122533518D02*
X156243302Y-122534151D01*
X155603661Y-123173792D02*
X156243302Y-122534151D01*
%TO.N,Net-(U7-~{CS})*%
D63*
X155852661Y-104859499D02*
X155852661Y-106712280D01*
X155852661Y-106712280D02*
X155562087Y-107002854D01*
X155733225Y-104740063D02*
X155852661Y-104859499D01*
X155562087Y-107002854D02*
X155439161Y-107002854D01*
%TO.N,Net-(U2-LBI)*%
D62*
X160999111Y-126320058D02*
X160999111Y-124958675D01*
X160379162Y-126940007D02*
X157241161Y-126940007D01*
X160999111Y-126320058D02*
X160379162Y-126940007D01*
D63*
X160999111Y-124958675D02*
X160908925Y-124868489D01*
%TO.N,Net-(J7-CC2)*%
X166750000Y-108044011D02*
X166250000Y-108544011D01*
X166250000Y-108544011D02*
X166250000Y-111250000D01*
%TO.N,Net-(U1-SS{slash}TR)*%
X168186492Y-123500861D02*
X168202753Y-123517122D01*
D62*
X168186492Y-121951267D02*
X168186492Y-123500861D01*
%TO.N,Net-(D9-A)*%
X167717514Y-117350927D02*
X166391433Y-117350927D01*
X166391433Y-117350927D02*
X166156497Y-117115991D01*
%TO.N,Net-(U9-CS)*%
D63*
X153754700Y-114837707D02*
X153754700Y-116323207D01*
X153754700Y-116323207D02*
X153968200Y-116536707D01*
X154055700Y-114536707D02*
X153754700Y-114837707D01*
%TO.N,Net-(D12-A)*%
X163670529Y-105174028D02*
X162530017Y-105174028D01*
X162530017Y-105174028D02*
X162250000Y-104894011D01*
%TO.N,Net-(D1-RA)*%
X148079970Y-105935280D02*
X146562341Y-105935280D01*
X146562341Y-105935280D02*
X146378526Y-106119095D01*
%TD*%
%TA.AperFunction,Conductor*%
%TO.N,GND*%
G36*
X151192539Y-95020185D02*
G01*
X151238294Y-95072989D01*
X151249500Y-95124500D01*
X151249500Y-102450374D01*
X151249423Y-102450561D01*
X151249500Y-102500000D01*
X150801035Y-102500000D01*
X150891897Y-102462364D01*
X150962364Y-102391897D01*
X151000500Y-102299828D01*
X151000500Y-101200172D01*
X150962364Y-101108103D01*
X150891897Y-101037636D01*
X150853202Y-101021608D01*
X150799829Y-100999500D01*
X150799828Y-100999500D01*
X143774795Y-100999500D01*
X143745763Y-100999500D01*
X143678724Y-100979815D01*
X143632969Y-100927011D01*
X143621763Y-100875500D01*
X143621763Y-100724499D01*
X143641448Y-100657460D01*
X143694252Y-100611705D01*
X143745763Y-100600499D01*
X145067871Y-100600499D01*
X145067872Y-100600499D01*
X145127483Y-100594091D01*
X145262331Y-100543796D01*
X145377546Y-100457546D01*
X145463796Y-100342331D01*
X145514091Y-100207483D01*
X145520500Y-100147873D01*
X145520499Y-100123979D01*
X145523330Y-100110963D01*
X145533940Y-100091525D01*
X145540179Y-100070275D01*
X145556803Y-100049643D01*
X145556808Y-100049636D01*
X145556811Y-100049634D01*
X145556818Y-100049626D01*
X146227037Y-99379408D01*
X146244075Y-99442993D01*
X146309901Y-99557007D01*
X146402993Y-99650099D01*
X146517007Y-99715925D01*
X146580590Y-99732962D01*
X145948282Y-100365269D01*
X145948282Y-100365270D01*
X146002449Y-100404624D01*
X146191782Y-100501095D01*
X146393870Y-100566757D01*
X146603754Y-100600000D01*
X146816246Y-100600000D01*
X147026127Y-100566757D01*
X147026130Y-100566757D01*
X147228217Y-100501095D01*
X147417554Y-100404622D01*
X147471716Y-100365270D01*
X147471717Y-100365270D01*
X146839408Y-99732962D01*
X146902993Y-99715925D01*
X147017007Y-99650099D01*
X147110099Y-99557007D01*
X147175925Y-99442993D01*
X147192962Y-99379408D01*
X147825270Y-100011717D01*
X147825270Y-100011716D01*
X147864622Y-99957555D01*
X147869232Y-99948507D01*
X147917205Y-99897709D01*
X147985025Y-99880912D01*
X148051161Y-99903447D01*
X148090204Y-99948504D01*
X148094949Y-99957817D01*
X148219890Y-100129786D01*
X148370213Y-100280109D01*
X148542179Y-100405048D01*
X148542181Y-100405049D01*
X148542184Y-100405051D01*
X148731588Y-100501557D01*
X148933757Y-100567246D01*
X149143713Y-100600500D01*
X149143714Y-100600500D01*
X149356286Y-100600500D01*
X149356287Y-100600500D01*
X149566243Y-100567246D01*
X149768412Y-100501557D01*
X149957816Y-100405051D01*
X150044138Y-100342335D01*
X150129786Y-100280109D01*
X150129788Y-100280106D01*
X150129792Y-100280104D01*
X150280104Y-100129792D01*
X150280106Y-100129788D01*
X150280109Y-100129786D01*
X150405048Y-99957820D01*
X150405050Y-99957817D01*
X150405051Y-99957816D01*
X150501557Y-99768412D01*
X150567246Y-99566243D01*
X150600500Y-99356287D01*
X150600500Y-99143713D01*
X150567246Y-98933757D01*
X150501557Y-98731588D01*
X150405051Y-98542184D01*
X150405049Y-98542181D01*
X150405048Y-98542179D01*
X150280109Y-98370213D01*
X150129786Y-98219890D01*
X149957820Y-98094951D01*
X149957115Y-98094591D01*
X149949054Y-98090485D01*
X149898259Y-98042512D01*
X149881463Y-97974692D01*
X149903999Y-97908556D01*
X149949054Y-97869515D01*
X149957816Y-97865051D01*
X150047554Y-97799853D01*
X150129786Y-97740109D01*
X150129788Y-97740106D01*
X150129792Y-97740104D01*
X150280104Y-97589792D01*
X150280106Y-97589788D01*
X150280109Y-97589786D01*
X150405048Y-97417820D01*
X150405047Y-97417820D01*
X150405051Y-97417816D01*
X150501557Y-97228412D01*
X150567246Y-97026243D01*
X150600500Y-96816287D01*
X150600500Y-96603713D01*
X150567246Y-96393757D01*
X150501557Y-96191588D01*
X150405051Y-96002184D01*
X150405049Y-96002181D01*
X150405048Y-96002179D01*
X150280109Y-95830213D01*
X150129786Y-95679890D01*
X149957820Y-95554951D01*
X149768414Y-95458444D01*
X149768413Y-95458443D01*
X149768412Y-95458443D01*
X149566243Y-95392754D01*
X149566241Y-95392753D01*
X149566240Y-95392753D01*
X149404957Y-95367208D01*
X149356287Y-95359500D01*
X149143713Y-95359500D01*
X149115006Y-95364046D01*
X148933757Y-95392753D01*
X148891473Y-95406492D01*
X148821632Y-95408486D01*
X148765476Y-95376241D01*
X148686590Y-95297355D01*
X148686588Y-95297352D01*
X148601417Y-95212181D01*
X148567932Y-95150858D01*
X148572916Y-95081166D01*
X148614788Y-95025233D01*
X148680252Y-95000816D01*
X148689098Y-95000500D01*
X151125500Y-95000500D01*
X151192539Y-95020185D01*
G37*
%TD.AperFunction*%
%TA.AperFunction,Conductor*%
G36*
X146244075Y-96902993D02*
G01*
X146309901Y-97017007D01*
X146402993Y-97110099D01*
X146517007Y-97175925D01*
X146580590Y-97192962D01*
X145948282Y-97825269D01*
X145948282Y-97825270D01*
X146002452Y-97864626D01*
X146012048Y-97869516D01*
X146062844Y-97917491D01*
X146079638Y-97985312D01*
X146057100Y-98051447D01*
X146012051Y-98090483D01*
X146002440Y-98095380D01*
X145948282Y-98134727D01*
X145948282Y-98134728D01*
X146580591Y-98767037D01*
X146517007Y-98784075D01*
X146402993Y-98849901D01*
X146309901Y-98942993D01*
X146244075Y-99057007D01*
X146227037Y-99120591D01*
X145556818Y-98450372D01*
X145523333Y-98389049D01*
X145520499Y-98362691D01*
X145520499Y-98352129D01*
X145520498Y-98352123D01*
X145514091Y-98292516D01*
X145463797Y-98157671D01*
X145463793Y-98157664D01*
X145377547Y-98042455D01*
X145377544Y-98042452D01*
X145262335Y-97956206D01*
X145262328Y-97956202D01*
X145130917Y-97907189D01*
X145074983Y-97865318D01*
X145050566Y-97799853D01*
X145065418Y-97731580D01*
X145086566Y-97703329D01*
X145200104Y-97589792D01*
X145325051Y-97417816D01*
X145329793Y-97408508D01*
X145377763Y-97357711D01*
X145445583Y-97340911D01*
X145511719Y-97363445D01*
X145550763Y-97408500D01*
X145555373Y-97417547D01*
X145594728Y-97471716D01*
X146227036Y-96839407D01*
X146244075Y-96902993D01*
G37*
%TD.AperFunction*%
%TA.AperFunction,Conductor*%
G36*
X147825270Y-97471717D02*
G01*
X147825270Y-97471716D01*
X147864622Y-97417555D01*
X147869232Y-97408507D01*
X147917205Y-97357709D01*
X147985025Y-97340912D01*
X148051161Y-97363447D01*
X148090204Y-97408504D01*
X148094949Y-97417817D01*
X148219890Y-97589786D01*
X148370213Y-97740109D01*
X148542182Y-97865050D01*
X148550946Y-97869516D01*
X148601742Y-97917491D01*
X148618536Y-97985312D01*
X148595998Y-98051447D01*
X148550946Y-98090484D01*
X148542182Y-98094949D01*
X148370213Y-98219890D01*
X148219890Y-98370213D01*
X148094949Y-98542182D01*
X148090202Y-98551499D01*
X148042227Y-98602293D01*
X147974405Y-98619087D01*
X147908271Y-98596548D01*
X147869234Y-98551495D01*
X147864626Y-98542452D01*
X147825270Y-98488282D01*
X147825269Y-98488282D01*
X147192962Y-99120590D01*
X147175925Y-99057007D01*
X147110099Y-98942993D01*
X147017007Y-98849901D01*
X146902993Y-98784075D01*
X146839409Y-98767037D01*
X147471716Y-98134728D01*
X147417550Y-98095375D01*
X147407954Y-98090486D01*
X147357157Y-98042512D01*
X147340361Y-97974692D01*
X147362897Y-97908556D01*
X147407954Y-97869514D01*
X147417554Y-97864622D01*
X147471716Y-97825270D01*
X147471717Y-97825270D01*
X146839408Y-97192962D01*
X146902993Y-97175925D01*
X147017007Y-97110099D01*
X147110099Y-97017007D01*
X147175925Y-96902993D01*
X147192962Y-96839409D01*
X147825270Y-97471717D01*
G37*
%TD.AperFunction*%
%TD*%
%TA.AperFunction,Conductor*%
%TO.N,GND*%
G36*
X138363738Y-102734762D02*
G01*
X138430669Y-102754812D01*
X138476136Y-102807865D01*
X138485702Y-102877076D01*
X138456331Y-102940473D01*
X138415465Y-102971143D01*
X138409139Y-102974092D01*
X138259815Y-103066196D01*
X138135762Y-103190249D01*
X138043660Y-103339569D01*
X138043658Y-103339574D01*
X138016994Y-103420042D01*
X137988474Y-103506109D01*
X137988474Y-103506110D01*
X137988473Y-103506110D01*
X137977973Y-103608889D01*
X137977973Y-105408924D01*
X137988473Y-105511703D01*
X138043658Y-105678239D01*
X138043660Y-105678244D01*
X138069319Y-105719844D01*
X138132964Y-105823029D01*
X138135762Y-105827564D01*
X138264601Y-105956403D01*
X138298086Y-106017726D01*
X138293102Y-106087418D01*
X138277240Y-106116965D01*
X138228260Y-106184383D01*
X138209601Y-106210065D01*
X138095233Y-106434523D01*
X138017383Y-106674121D01*
X137997347Y-106800624D01*
X137977973Y-106922945D01*
X137977973Y-107174869D01*
X137989083Y-107245014D01*
X138017383Y-107423692D01*
X138095233Y-107663290D01*
X138209605Y-107887755D01*
X138357674Y-108091556D01*
X138357678Y-108091561D01*
X138535818Y-108269701D01*
X138535823Y-108269705D01*
X138634791Y-108341609D01*
X138739628Y-108417777D01*
X138882657Y-108490654D01*
X138964089Y-108532146D01*
X138964091Y-108532146D01*
X138964094Y-108532148D01*
X139203688Y-108609997D01*
X139452511Y-108649407D01*
X139452512Y-108649407D01*
X139704434Y-108649407D01*
X139704435Y-108649407D01*
X139953258Y-108609997D01*
X140192852Y-108532148D01*
X140417318Y-108417777D01*
X140621129Y-108269700D01*
X140799266Y-108091563D01*
X140947343Y-107887752D01*
X141061714Y-107663286D01*
X141139563Y-107423692D01*
X141178973Y-107174869D01*
X141178973Y-106922945D01*
X141139563Y-106674122D01*
X141061714Y-106434528D01*
X141061712Y-106434525D01*
X141061712Y-106434523D01*
X140982483Y-106279028D01*
X140947343Y-106210062D01*
X140879706Y-106116967D01*
X140856227Y-106051164D01*
X140872052Y-105983110D01*
X140892344Y-105956402D01*
X140897123Y-105951622D01*
X140897129Y-105951619D01*
X141021185Y-105827563D01*
X141113287Y-105678242D01*
X141168472Y-105511705D01*
X141178973Y-105408917D01*
X141178973Y-103608897D01*
X141168472Y-103506109D01*
X141113287Y-103339572D01*
X141021185Y-103190251D01*
X140897129Y-103066195D01*
X140897125Y-103066192D01*
X140753642Y-102977690D01*
X140706917Y-102925742D01*
X140695696Y-102856780D01*
X140723539Y-102792698D01*
X140781608Y-102753842D01*
X140819409Y-102748154D01*
X141199516Y-102750228D01*
X141200172Y-102750500D01*
X141249321Y-102750500D01*
X141298461Y-102750768D01*
X141298461Y-102750767D01*
X141298476Y-102750768D01*
X141298725Y-102750719D01*
X141299388Y-102750589D01*
X141299808Y-102750507D01*
X141299825Y-102750500D01*
X141299828Y-102750500D01*
X141329572Y-102738178D01*
X141399040Y-102730709D01*
X141461520Y-102761982D01*
X141497174Y-102822070D01*
X141501026Y-102852739D01*
X141501026Y-108149055D01*
X141501025Y-108149073D01*
X141501025Y-108314779D01*
X141501024Y-108314779D01*
X141541949Y-108467510D01*
X141570884Y-108517625D01*
X141570885Y-108517629D01*
X141570886Y-108517629D01*
X141586655Y-108544943D01*
X141621005Y-108604439D01*
X141621007Y-108604442D01*
X141739875Y-108723310D01*
X141739881Y-108723315D01*
X142572783Y-109556217D01*
X142606268Y-109617540D01*
X142601284Y-109687232D01*
X142560589Y-109742273D01*
X142447051Y-109829395D01*
X142447050Y-109829396D01*
X142447049Y-109829397D01*
X142354802Y-109949615D01*
X142354800Y-109949618D01*
X142296813Y-110089611D01*
X142296813Y-110089612D01*
X142282000Y-110202120D01*
X142282000Y-111540348D01*
X142262315Y-111607387D01*
X142209511Y-111653142D01*
X142158000Y-111664348D01*
X140819772Y-111664348D01*
X140707264Y-111679161D01*
X140707263Y-111679161D01*
X140567270Y-111737148D01*
X140567267Y-111737149D01*
X140567267Y-111737150D01*
X140447049Y-111829397D01*
X140363501Y-111938279D01*
X140354800Y-111949618D01*
X140296813Y-112089611D01*
X140296813Y-112089612D01*
X140282000Y-112202120D01*
X140282000Y-112330036D01*
X140262315Y-112397075D01*
X140252023Y-112409345D01*
X140252023Y-113066777D01*
X140232338Y-113133816D01*
X140179534Y-113179571D01*
X140128023Y-113190777D01*
X140002023Y-113190777D01*
X140002023Y-113246277D01*
X139982338Y-113313316D01*
X139929534Y-113359071D01*
X139878023Y-113370277D01*
X139767325Y-113370277D01*
X139731031Y-113373133D01*
X139731025Y-113373134D01*
X139575633Y-113418280D01*
X139575628Y-113418283D01*
X139566789Y-113423509D01*
X139503671Y-113440777D01*
X139197519Y-113440777D01*
X139239991Y-113586971D01*
X139251934Y-113607166D01*
X139269115Y-113674890D01*
X139251934Y-113733405D01*
X139239529Y-113754381D01*
X139239527Y-113754386D01*
X139194380Y-113909779D01*
X139194379Y-113909785D01*
X139191523Y-113946079D01*
X139191523Y-114252526D01*
X139171838Y-114319565D01*
X139119034Y-114365320D01*
X139049876Y-114375264D01*
X139032928Y-114371602D01*
X138964481Y-114351716D01*
X138964480Y-114351717D01*
X138964480Y-114657868D01*
X138947214Y-114720986D01*
X138941987Y-114729823D01*
X138941984Y-114729831D01*
X138896837Y-114885225D01*
X138896836Y-114885231D01*
X138893980Y-114921525D01*
X138893980Y-115390920D01*
X138896836Y-115427214D01*
X138896837Y-115427220D01*
X138941984Y-115582613D01*
X138945083Y-115589774D01*
X138943916Y-115590278D01*
X138959145Y-115650301D01*
X138951318Y-115684860D01*
X138952217Y-115685122D01*
X138904892Y-115848010D01*
X138904891Y-115848016D01*
X138902035Y-115884310D01*
X138902035Y-116353705D01*
X138904891Y-116389999D01*
X138904892Y-116390005D01*
X138950038Y-116545397D01*
X138950040Y-116545401D01*
X138950041Y-116545403D01*
X138955267Y-116554241D01*
X138972535Y-116617360D01*
X138972535Y-116923511D01*
X139118729Y-116881040D01*
X139138919Y-116869099D01*
X139206643Y-116851914D01*
X139242327Y-116858555D01*
X139254282Y-116862661D01*
X139286140Y-116881502D01*
X139435247Y-116924822D01*
X139438062Y-116925789D01*
X139464229Y-116944330D01*
X139491259Y-116961593D01*
X139493347Y-116964962D01*
X139495071Y-116966184D01*
X139496869Y-116970646D01*
X139512340Y-116995610D01*
X139562759Y-117117334D01*
X139562763Y-117117341D01*
X139605372Y-117181110D01*
X139626249Y-117247787D01*
X139607764Y-117315167D01*
X139605372Y-117318890D01*
X139562763Y-117382658D01*
X139562759Y-117382665D01*
X139504302Y-117523794D01*
X139504301Y-117523798D01*
X139474500Y-117673615D01*
X139474500Y-117826384D01*
X139504300Y-117976197D01*
X139504302Y-117976205D01*
X139562759Y-118117334D01*
X139562764Y-118117343D01*
X139647629Y-118244351D01*
X139647632Y-118244355D01*
X139755644Y-118352367D01*
X139755648Y-118352370D01*
X139882656Y-118437235D01*
X139882662Y-118437238D01*
X139882663Y-118437239D01*
X140023795Y-118495698D01*
X140066483Y-118504189D01*
X140094996Y-118509861D01*
X140156907Y-118542245D01*
X140191481Y-118602961D01*
X140194297Y-118642691D01*
X140193373Y-118652867D01*
X140193373Y-118984383D01*
X140173688Y-119051422D01*
X140157054Y-119072064D01*
X138605981Y-120623136D01*
X138605977Y-120623141D01*
X138561471Y-120700230D01*
X138561471Y-120700231D01*
X138526923Y-120760068D01*
X138526923Y-120760069D01*
X138485999Y-120912797D01*
X138485999Y-120912799D01*
X138485999Y-121080900D01*
X138486000Y-121080913D01*
X138486000Y-128863146D01*
X138485999Y-128863164D01*
X138485999Y-129028870D01*
X138485998Y-129028870D01*
X138491298Y-129048648D01*
X138526923Y-129181601D01*
X138538227Y-129201180D01*
X138605977Y-129318528D01*
X138605981Y-129318533D01*
X138724849Y-129437401D01*
X138724855Y-129437406D01*
X139144341Y-129856892D01*
X139177826Y-129918215D01*
X139172842Y-129987907D01*
X139130970Y-130043840D01*
X139099994Y-130060755D01*
X139045170Y-130081203D01*
X139045164Y-130081206D01*
X138929955Y-130167452D01*
X138929952Y-130167455D01*
X138843706Y-130282664D01*
X138843702Y-130282671D01*
X138793408Y-130417517D01*
X138787001Y-130477116D01*
X138787000Y-130477135D01*
X138787000Y-131972870D01*
X138787001Y-131972876D01*
X138793408Y-132032483D01*
X138843702Y-132167328D01*
X138843706Y-132167335D01*
X138929952Y-132282544D01*
X138929955Y-132282547D01*
X139045164Y-132368793D01*
X139045173Y-132368798D01*
X139121900Y-132397415D01*
X139177834Y-132439286D01*
X139202252Y-132504750D01*
X139187401Y-132573023D01*
X139177836Y-132587906D01*
X139144148Y-132632907D01*
X139144145Y-132632913D01*
X139093903Y-132767620D01*
X139093901Y-132767627D01*
X139087500Y-132827155D01*
X139087500Y-133400000D01*
X141087500Y-133400000D01*
X141087500Y-132827172D01*
X141087499Y-132827155D01*
X141081098Y-132767627D01*
X141081096Y-132767620D01*
X141030854Y-132632913D01*
X141030850Y-132632906D01*
X140944690Y-132517812D01*
X140944687Y-132517809D01*
X140829593Y-132431649D01*
X140829586Y-132431645D01*
X140694879Y-132381403D01*
X140694872Y-132381401D01*
X140635344Y-132375000D01*
X140623557Y-132375000D01*
X140556518Y-132355315D01*
X140510763Y-132302511D01*
X140500819Y-132233353D01*
X140524292Y-132176687D01*
X140531296Y-132167331D01*
X140581591Y-132032483D01*
X140588000Y-131972873D01*
X140587999Y-131599910D01*
X140607683Y-131532873D01*
X140660487Y-131487118D01*
X140729646Y-131477174D01*
X140793201Y-131506199D01*
X140799680Y-131512231D01*
X141625823Y-132338374D01*
X141625833Y-132338385D01*
X141630163Y-132342715D01*
X141630164Y-132342716D01*
X141741968Y-132454520D01*
X141741970Y-132454521D01*
X141796092Y-132485768D01*
X141796091Y-132485768D01*
X141796094Y-132485769D01*
X141878893Y-132533574D01*
X141878894Y-132533575D01*
X141878896Y-132533575D01*
X141878899Y-132533577D01*
X142031627Y-132574501D01*
X142031630Y-132574501D01*
X142197337Y-132574501D01*
X142197353Y-132574500D01*
X145013500Y-132574500D01*
X145080539Y-132594185D01*
X145126294Y-132646989D01*
X145137500Y-132698500D01*
X145137500Y-133925000D01*
X147637500Y-133925000D01*
X147637500Y-132698500D01*
X147657185Y-132631461D01*
X147709989Y-132585706D01*
X147761500Y-132574500D01*
X149970416Y-132574500D01*
X150037455Y-132594185D01*
X150083210Y-132646989D01*
X150090921Y-132675097D01*
X150091624Y-132674932D01*
X150093407Y-132682479D01*
X150143702Y-132817328D01*
X150143706Y-132817335D01*
X150229952Y-132932544D01*
X150229955Y-132932547D01*
X150345164Y-133018793D01*
X150345171Y-133018797D01*
X150480017Y-133069091D01*
X150480016Y-133069091D01*
X150486944Y-133069835D01*
X150539627Y-133075500D01*
X152085372Y-133075499D01*
X152144983Y-133069091D01*
X152279831Y-133018796D01*
X152395046Y-132932546D01*
X152395048Y-132932542D01*
X152401317Y-132926275D01*
X152403109Y-132928067D01*
X152448317Y-132894220D01*
X152518009Y-132889229D01*
X152579335Y-132922709D01*
X152612825Y-132984029D01*
X152615661Y-133010398D01*
X152615661Y-133247167D01*
X152615661Y-133385155D01*
X152615661Y-133385157D01*
X152615660Y-133385157D01*
X152642579Y-133520483D01*
X152642582Y-133520493D01*
X152695383Y-133647968D01*
X152772048Y-133762706D01*
X153053454Y-134044112D01*
X153168192Y-134120777D01*
X153295667Y-134173578D01*
X153295672Y-134173580D01*
X153295676Y-134173580D01*
X153295677Y-134173581D01*
X153431003Y-134200500D01*
X153431006Y-134200500D01*
X153568996Y-134200500D01*
X153568997Y-134200499D01*
X153704329Y-134173580D01*
X153704338Y-134173576D01*
X153710159Y-134171811D01*
X153710509Y-134172966D01*
X153748927Y-134165324D01*
X155087376Y-134165324D01*
X155087377Y-134165324D01*
X155146988Y-134158916D01*
X155281836Y-134108621D01*
X155397051Y-134022371D01*
X155483301Y-133907156D01*
X155533596Y-133772308D01*
X155540005Y-133712698D01*
X155540004Y-131416953D01*
X155533596Y-131357342D01*
X155526076Y-131337181D01*
X155483302Y-131222496D01*
X155483298Y-131222489D01*
X155397052Y-131107280D01*
X155397049Y-131107277D01*
X155281840Y-131021031D01*
X155281833Y-131021027D01*
X155146987Y-130970733D01*
X155146988Y-130970733D01*
X155087388Y-130964326D01*
X155087386Y-130964325D01*
X155087378Y-130964325D01*
X155087370Y-130964325D01*
X154140661Y-130964325D01*
X154073622Y-130944640D01*
X154027867Y-130891836D01*
X154016661Y-130840325D01*
X154016661Y-128960206D01*
X154036346Y-128893167D01*
X154089150Y-128847412D01*
X154117748Y-128843126D01*
X154128661Y-128833556D01*
X154128661Y-128833555D01*
X154478661Y-128833555D01*
X154544530Y-128824885D01*
X154581207Y-128809693D01*
X154650676Y-128802223D01*
X154676115Y-128809693D01*
X154712789Y-128824884D01*
X154712801Y-128824888D01*
X154778659Y-128833557D01*
X154778661Y-128833556D01*
X154778661Y-128102507D01*
X154478661Y-128102507D01*
X154478661Y-128833555D01*
X154128661Y-128833555D01*
X154128661Y-128051507D01*
X154148346Y-127984468D01*
X154201150Y-127938713D01*
X154252661Y-127927507D01*
X154303661Y-127927507D01*
X154303661Y-127876507D01*
X154323346Y-127809468D01*
X154376150Y-127763713D01*
X154427661Y-127752507D01*
X154512607Y-127752507D01*
X154512607Y-127752506D01*
X154192676Y-127432576D01*
X154159191Y-127371253D01*
X154164175Y-127301562D01*
X154165779Y-127297483D01*
X154214026Y-127181006D01*
X154217146Y-127157304D01*
X154235306Y-127149783D01*
X154263437Y-127121652D01*
X154278661Y-127084898D01*
X154278661Y-127065007D01*
X154532215Y-127065007D01*
X154728661Y-127261453D01*
X154925107Y-127065007D01*
X154905216Y-127045116D01*
X155178661Y-127045116D01*
X155178661Y-127084898D01*
X155193885Y-127121652D01*
X155222016Y-127149783D01*
X155258770Y-127165007D01*
X155298552Y-127165007D01*
X155335306Y-127149783D01*
X155363437Y-127121652D01*
X155378661Y-127084898D01*
X155378661Y-127045116D01*
X155363437Y-127008362D01*
X155335306Y-126980231D01*
X155298552Y-126965007D01*
X155258770Y-126965007D01*
X155222016Y-126980231D01*
X155193885Y-127008362D01*
X155178661Y-127045116D01*
X154905216Y-127045116D01*
X154728661Y-126868561D01*
X154532215Y-127065007D01*
X154278661Y-127065007D01*
X154278661Y-127045116D01*
X154263437Y-127008362D01*
X154235306Y-126980231D01*
X154229161Y-126977685D01*
X154229161Y-126813967D01*
X154228594Y-126809664D01*
X154219341Y-126739381D01*
X154230106Y-126670346D01*
X154254599Y-126635513D01*
X154375105Y-126515007D01*
X155082215Y-126515007D01*
X155278661Y-126711453D01*
X155475107Y-126515007D01*
X155278661Y-126318561D01*
X155082215Y-126515007D01*
X154375105Y-126515007D01*
X154375106Y-126515006D01*
X154265480Y-126405380D01*
X154231995Y-126344057D01*
X154229161Y-126317699D01*
X154229161Y-126163973D01*
X154229160Y-126163959D01*
X154216132Y-126065007D01*
X154215223Y-126058101D01*
X154235306Y-126049783D01*
X154263437Y-126021652D01*
X154278661Y-125984898D01*
X154278661Y-125965007D01*
X154532215Y-125965007D01*
X154728661Y-126161453D01*
X154925107Y-125965007D01*
X154905216Y-125945116D01*
X155178661Y-125945116D01*
X155178661Y-125984898D01*
X155193885Y-126021652D01*
X155222016Y-126049783D01*
X155258770Y-126065007D01*
X155298552Y-126065007D01*
X155335306Y-126049783D01*
X155363437Y-126021652D01*
X155378661Y-125984898D01*
X155378661Y-125965007D01*
X155632215Y-125965007D01*
X155828661Y-126161453D01*
X156025107Y-125965007D01*
X155828661Y-125768561D01*
X155632215Y-125965007D01*
X155378661Y-125965007D01*
X155378661Y-125945116D01*
X155363437Y-125908362D01*
X155335306Y-125880231D01*
X155298552Y-125865007D01*
X155258770Y-125865007D01*
X155222016Y-125880231D01*
X155193885Y-125908362D01*
X155178661Y-125945116D01*
X154905216Y-125945116D01*
X154728661Y-125768561D01*
X154532215Y-125965007D01*
X154278661Y-125965007D01*
X154278661Y-125945116D01*
X154263437Y-125908362D01*
X154235306Y-125880231D01*
X154215223Y-125871912D01*
X154229161Y-125766047D01*
X154229161Y-125612315D01*
X154248846Y-125545276D01*
X154265480Y-125524634D01*
X154375107Y-125415007D01*
X155082215Y-125415007D01*
X155278661Y-125611453D01*
X155475107Y-125415007D01*
X155278661Y-125218561D01*
X155082215Y-125415007D01*
X154375107Y-125415007D01*
X154254599Y-125294499D01*
X154221114Y-125233176D01*
X154219341Y-125190632D01*
X154219588Y-125188760D01*
X154229161Y-125116047D01*
X154229161Y-125039507D01*
X154248846Y-124972468D01*
X154301650Y-124926713D01*
X154345114Y-124915768D01*
X154349127Y-124915507D01*
X154429701Y-124915507D01*
X154508356Y-124905151D01*
X154512425Y-124904887D01*
X154542682Y-124911674D01*
X154573321Y-124916452D01*
X154577696Y-124919528D01*
X154580600Y-124920180D01*
X154585088Y-124924726D01*
X154608153Y-124940945D01*
X154728661Y-125061453D01*
X154838288Y-124951826D01*
X154899611Y-124918341D01*
X154925969Y-124915507D01*
X155079694Y-124915507D01*
X155079701Y-124915507D01*
X155185566Y-124901569D01*
X155193885Y-124921652D01*
X155222016Y-124949783D01*
X155258770Y-124965007D01*
X155298552Y-124965007D01*
X155335306Y-124949783D01*
X155363437Y-124921652D01*
X155371755Y-124901569D01*
X155477621Y-124915507D01*
X155477628Y-124915507D01*
X155631353Y-124915507D01*
X155698392Y-124935192D01*
X155719034Y-124951826D01*
X155828661Y-125061453D01*
X156028666Y-124861447D01*
X156044792Y-124806530D01*
X156068615Y-124779245D01*
X156071058Y-124777159D01*
X156110528Y-124746874D01*
X156118076Y-124737035D01*
X156128007Y-124728562D01*
X156148450Y-124719411D01*
X156166537Y-124706202D01*
X156179721Y-124705415D01*
X156191780Y-124700018D01*
X156213927Y-124703373D01*
X156236283Y-124702039D01*
X156247800Y-124708505D01*
X156260861Y-124710484D01*
X156277677Y-124725279D01*
X156297207Y-124736244D01*
X156303399Y-124747909D01*
X156313318Y-124756636D01*
X156319465Y-124778174D01*
X156321062Y-124781184D01*
X156293885Y-124808362D01*
X156278661Y-124845116D01*
X156278661Y-124884898D01*
X156293885Y-124921652D01*
X156322016Y-124949783D01*
X156328161Y-124952328D01*
X156328161Y-125116040D01*
X156328162Y-125116057D01*
X156337980Y-125190632D01*
X156327214Y-125259667D01*
X156302723Y-125294498D01*
X156182215Y-125415007D01*
X156291842Y-125524633D01*
X156325327Y-125585956D01*
X156328161Y-125612315D01*
X156328161Y-125766054D01*
X156342098Y-125871912D01*
X156322016Y-125880231D01*
X156293885Y-125908362D01*
X156278661Y-125945116D01*
X156278661Y-125984898D01*
X156293885Y-126021652D01*
X156322016Y-126049783D01*
X156358770Y-126065007D01*
X156398552Y-126065007D01*
X156425431Y-126053873D01*
X156475463Y-126119075D01*
X156500657Y-126184244D01*
X156486618Y-126252689D01*
X156437804Y-126302679D01*
X156379218Y-126318003D01*
X156182215Y-126515007D01*
X156302722Y-126635514D01*
X156336207Y-126696837D01*
X156338780Y-126731242D01*
X156338514Y-126735327D01*
X156328161Y-126813967D01*
X156328161Y-126894540D01*
X156327900Y-126898554D01*
X156317227Y-126927740D01*
X156308476Y-126957546D01*
X156305334Y-126960268D01*
X156303906Y-126964174D01*
X156279149Y-126982957D01*
X156255672Y-127003301D01*
X156250996Y-127004318D01*
X156248245Y-127006406D01*
X156237570Y-127007238D01*
X156204161Y-127014507D01*
X156127621Y-127014507D01*
X156127615Y-127014507D01*
X156127610Y-127014508D01*
X156053034Y-127024326D01*
X155983998Y-127013560D01*
X155949168Y-126989068D01*
X155828661Y-126868561D01*
X155632215Y-127065007D01*
X155671442Y-127104234D01*
X155704927Y-127165557D01*
X155699943Y-127235249D01*
X155682139Y-127267399D01*
X155652543Y-127305970D01*
X155593297Y-127449004D01*
X155593296Y-127449009D01*
X155593055Y-127450840D01*
X155592422Y-127452270D01*
X155591193Y-127456858D01*
X155590477Y-127456666D01*
X155564788Y-127514737D01*
X155506463Y-127553207D01*
X155436598Y-127554038D01*
X155382435Y-127522335D01*
X155278661Y-127418561D01*
X154944714Y-127752506D01*
X154944715Y-127752507D01*
X155429161Y-127752507D01*
X155496200Y-127772192D01*
X155541955Y-127824996D01*
X155553161Y-127876507D01*
X155553161Y-127978507D01*
X155533476Y-128045546D01*
X155480672Y-128091301D01*
X155429161Y-128102507D01*
X155128661Y-128102507D01*
X155128661Y-128833555D01*
X155194530Y-128824885D01*
X155231207Y-128809693D01*
X155300676Y-128802223D01*
X155326115Y-128809693D01*
X155362789Y-128824884D01*
X155362801Y-128824888D01*
X155428659Y-128833557D01*
X155428661Y-128833556D01*
X155428661Y-128622566D01*
X155448346Y-128555527D01*
X155501150Y-128509772D01*
X155570308Y-128499828D01*
X155633864Y-128528853D01*
X155650929Y-128546939D01*
X155652538Y-128549029D01*
X155652544Y-128549044D01*
X155746794Y-128671874D01*
X155747488Y-128672407D01*
X155752929Y-128679476D01*
X155762782Y-128704855D01*
X155775827Y-128728745D01*
X155777270Y-128742174D01*
X155778216Y-128744609D01*
X155777768Y-128746805D01*
X155778661Y-128755103D01*
X155778661Y-128833555D01*
X155844528Y-128824885D01*
X155880553Y-128809963D01*
X155950022Y-128802493D01*
X155975450Y-128809958D01*
X156012662Y-128825372D01*
X156127621Y-128840507D01*
X156127628Y-128840507D01*
X156379694Y-128840507D01*
X156379701Y-128840507D01*
X156494660Y-128825372D01*
X156637698Y-128766124D01*
X156717310Y-128705035D01*
X156782476Y-128679843D01*
X156816984Y-128681795D01*
X156923618Y-128703006D01*
X156923619Y-128703007D01*
X156923620Y-128703007D01*
X157076381Y-128703007D01*
X157076382Y-128703006D01*
X157226205Y-128673205D01*
X157312534Y-128637445D01*
X157359987Y-128628007D01*
X160140041Y-128628007D01*
X160207080Y-128647692D01*
X160227717Y-128664321D01*
X160288926Y-128725530D01*
X160434505Y-128813536D01*
X160596915Y-128864144D01*
X160667495Y-128870558D01*
X160667498Y-128870558D01*
X161330724Y-128870558D01*
X161330727Y-128870558D01*
X161401307Y-128864144D01*
X161514119Y-128828990D01*
X161583977Y-128827839D01*
X161643369Y-128864640D01*
X161656545Y-128882278D01*
X161685193Y-128928723D01*
X161805117Y-129048647D01*
X161805121Y-129048650D01*
X161949456Y-129137678D01*
X161949459Y-129137679D01*
X161949465Y-129137683D01*
X162110454Y-129191029D01*
X162209817Y-129201180D01*
X162416641Y-129201179D01*
X162483681Y-129220863D01*
X162504323Y-129237498D01*
X163263181Y-129996356D01*
X163296666Y-130057679D01*
X163299500Y-130084037D01*
X163299500Y-130475500D01*
X163279815Y-130542539D01*
X163227011Y-130588294D01*
X163175500Y-130599500D01*
X163049984Y-130599500D01*
X162947204Y-130610000D01*
X162947203Y-130610001D01*
X162780664Y-130665186D01*
X162780662Y-130665187D01*
X162631348Y-130757286D01*
X162631344Y-130757289D01*
X162507289Y-130881344D01*
X162507286Y-130881348D01*
X162415187Y-131030662D01*
X162415186Y-131030664D01*
X162360001Y-131197203D01*
X162360000Y-131197204D01*
X162349500Y-131299984D01*
X162349500Y-131740325D01*
X162329815Y-131807364D01*
X162277011Y-131853119D01*
X162225500Y-131864325D01*
X162064004Y-131864325D01*
X161996965Y-131844640D01*
X161951210Y-131791836D01*
X161940004Y-131740325D01*
X161940004Y-131416954D01*
X161940003Y-131416948D01*
X161940002Y-131416941D01*
X161933596Y-131357342D01*
X161926076Y-131337181D01*
X161883302Y-131222496D01*
X161883298Y-131222489D01*
X161797052Y-131107280D01*
X161797049Y-131107277D01*
X161681840Y-131021031D01*
X161681833Y-131021027D01*
X161546987Y-130970733D01*
X161546988Y-130970733D01*
X161487388Y-130964326D01*
X161487386Y-130964325D01*
X161487378Y-130964325D01*
X161487369Y-130964325D01*
X159891634Y-130964325D01*
X159891628Y-130964326D01*
X159832021Y-130970733D01*
X159697176Y-131021027D01*
X159697169Y-131021031D01*
X159581960Y-131107277D01*
X159581957Y-131107280D01*
X159495711Y-131222489D01*
X159495707Y-131222496D01*
X159445413Y-131357342D01*
X159442417Y-131385215D01*
X159439006Y-131416948D01*
X159439005Y-131416960D01*
X159439005Y-133712695D01*
X159439006Y-133712701D01*
X159445413Y-133772308D01*
X159495707Y-133907153D01*
X159495711Y-133907160D01*
X159581957Y-134022369D01*
X159581960Y-134022372D01*
X159697169Y-134108618D01*
X159697176Y-134108622D01*
X159832022Y-134158916D01*
X159832021Y-134158916D01*
X159838949Y-134159660D01*
X159891632Y-134165325D01*
X161487377Y-134165324D01*
X161546988Y-134158916D01*
X161681836Y-134108621D01*
X161797051Y-134022371D01*
X161883301Y-133907156D01*
X161933596Y-133772308D01*
X161940005Y-133712698D01*
X161940005Y-133389325D01*
X161959690Y-133322286D01*
X162012494Y-133276531D01*
X162064005Y-133265325D01*
X162258043Y-133265325D01*
X162325082Y-133285010D01*
X162370837Y-133337814D01*
X162375749Y-133350321D01*
X162415186Y-133469335D01*
X162415187Y-133469337D01*
X162507286Y-133618651D01*
X162507289Y-133618655D01*
X162631344Y-133742710D01*
X162631348Y-133742713D01*
X162780662Y-133834812D01*
X162780664Y-133834813D01*
X162780666Y-133834814D01*
X162947203Y-133889999D01*
X163049992Y-133900500D01*
X163049997Y-133900500D01*
X164950003Y-133900500D01*
X164950008Y-133900500D01*
X165052797Y-133889999D01*
X165219334Y-133834814D01*
X165368655Y-133742711D01*
X165492711Y-133618655D01*
X165584814Y-133469334D01*
X165639999Y-133302797D01*
X165650500Y-133200008D01*
X165650500Y-132680241D01*
X165670185Y-132613202D01*
X165722989Y-132567447D01*
X165792147Y-132557503D01*
X165855703Y-132586528D01*
X165892431Y-132641923D01*
X165970883Y-132883377D01*
X166088796Y-133114791D01*
X166169951Y-133226492D01*
X166169952Y-133226493D01*
X166935387Y-132461058D01*
X166940889Y-132481591D01*
X167019881Y-132618408D01*
X167131592Y-132730119D01*
X167268409Y-132809111D01*
X167288940Y-132814612D01*
X166523505Y-133580046D01*
X166523506Y-133580048D01*
X166635208Y-133661203D01*
X166866622Y-133779116D01*
X167113622Y-133859370D01*
X167370143Y-133900000D01*
X167629857Y-133900000D01*
X167886377Y-133859370D01*
X168133377Y-133779116D01*
X168364788Y-133661205D01*
X168476492Y-133580046D01*
X168476493Y-133580046D01*
X167711058Y-132814612D01*
X167731591Y-132809111D01*
X167868408Y-132730119D01*
X167980119Y-132618408D01*
X168059111Y-132481591D01*
X168064612Y-132461058D01*
X168830046Y-133226493D01*
X168830046Y-133226492D01*
X168911205Y-133114788D01*
X169029116Y-132883377D01*
X169109370Y-132636377D01*
X169150000Y-132379857D01*
X169150000Y-132120142D01*
X169109370Y-131863622D01*
X169029116Y-131616622D01*
X168911203Y-131385208D01*
X168830048Y-131273506D01*
X168830046Y-131273505D01*
X168064612Y-132038940D01*
X168059111Y-132018409D01*
X167980119Y-131881592D01*
X167868408Y-131769881D01*
X167731591Y-131690889D01*
X167711059Y-131685387D01*
X168476493Y-130919952D01*
X168476492Y-130919951D01*
X168364791Y-130838796D01*
X168133377Y-130720883D01*
X167886377Y-130640629D01*
X167629857Y-130600000D01*
X167370143Y-130600000D01*
X167113622Y-130640629D01*
X166866622Y-130720883D01*
X166635215Y-130838792D01*
X166523506Y-130919952D01*
X167288941Y-131685387D01*
X167268409Y-131690889D01*
X167131592Y-131769881D01*
X167019881Y-131881592D01*
X166940889Y-132018409D01*
X166935387Y-132038941D01*
X166169952Y-131273506D01*
X166088792Y-131385215D01*
X165970883Y-131616622D01*
X165892431Y-131858076D01*
X165852994Y-131915751D01*
X165788635Y-131942950D01*
X165719789Y-131931036D01*
X165668313Y-131883791D01*
X165650500Y-131819758D01*
X165650500Y-131299997D01*
X165650499Y-131299984D01*
X165639999Y-131197204D01*
X165639999Y-131197203D01*
X165584814Y-131030666D01*
X165492711Y-130881345D01*
X165368655Y-130757289D01*
X165368651Y-130757286D01*
X165219337Y-130665187D01*
X165219335Y-130665186D01*
X165136065Y-130637593D01*
X165052797Y-130610001D01*
X165052795Y-130610000D01*
X164950015Y-130599500D01*
X164950008Y-130599500D01*
X164824500Y-130599500D01*
X164757461Y-130579815D01*
X164711706Y-130527011D01*
X164700500Y-130475500D01*
X164700500Y-129673522D01*
X164673581Y-129538195D01*
X164673580Y-129538194D01*
X164673580Y-129538190D01*
X164662872Y-129512339D01*
X164620778Y-129410713D01*
X164620776Y-129410709D01*
X164620775Y-129410707D01*
X164563174Y-129324501D01*
X164563174Y-129324500D01*
X164544117Y-129295980D01*
X164544114Y-129295975D01*
X163519980Y-128271841D01*
X163486495Y-128210518D01*
X163483661Y-128184160D01*
X163483661Y-128090543D01*
X163503346Y-128023504D01*
X163556150Y-127977749D01*
X163620264Y-127967185D01*
X163701655Y-127975500D01*
X164248344Y-127975499D01*
X164248352Y-127975498D01*
X164248355Y-127975498D01*
X164329734Y-127967185D01*
X164347708Y-127965349D01*
X164508697Y-127912003D01*
X164653044Y-127822968D01*
X164662668Y-127813343D01*
X164723987Y-127779856D01*
X164793679Y-127784835D01*
X164838034Y-127813339D01*
X164847267Y-127822572D01*
X164847271Y-127822575D01*
X164991507Y-127911542D01*
X164991518Y-127911547D01*
X165152393Y-127964855D01*
X165251683Y-127974999D01*
X165275000Y-127974998D01*
X165275000Y-127124000D01*
X165294685Y-127056961D01*
X165347489Y-127011206D01*
X165399000Y-127000000D01*
X165651000Y-127000000D01*
X165718039Y-127019685D01*
X165763794Y-127072489D01*
X165775000Y-127124000D01*
X165775000Y-127974999D01*
X165798308Y-127974999D01*
X165798322Y-127974998D01*
X165897607Y-127964855D01*
X165955340Y-127945725D01*
X166025168Y-127943323D01*
X166085210Y-127979055D01*
X166099883Y-127998334D01*
X166133239Y-128052413D01*
X166190528Y-128145293D01*
X166314584Y-128269349D01*
X166463906Y-128361451D01*
X166630443Y-128416636D01*
X166733231Y-128427137D01*
X167358248Y-128427136D01*
X167358256Y-128427135D01*
X167358259Y-128427135D01*
X167414542Y-128421385D01*
X167461037Y-128416636D01*
X167627574Y-128361451D01*
X167776896Y-128269349D01*
X167870559Y-128175686D01*
X167931882Y-128142201D01*
X168001574Y-128147185D01*
X168045921Y-128175686D01*
X168139584Y-128269349D01*
X168288906Y-128361451D01*
X168455443Y-128416636D01*
X168558231Y-128427137D01*
X169183248Y-128427136D01*
X169183256Y-128427135D01*
X169183259Y-128427135D01*
X169239542Y-128421385D01*
X169286037Y-128416636D01*
X169452574Y-128361451D01*
X169547905Y-128302650D01*
X169615296Y-128284211D01*
X169681959Y-128305133D01*
X169726729Y-128358775D01*
X169737000Y-128408190D01*
X169737000Y-136140955D01*
X169717315Y-136207994D01*
X169664511Y-136253749D01*
X169613000Y-136264955D01*
X136359110Y-136264955D01*
X136292071Y-136245270D01*
X136246316Y-136192466D01*
X136235110Y-136140955D01*
X136235110Y-134906379D01*
X136549500Y-134906379D01*
X136549500Y-135093620D01*
X136586025Y-135277243D01*
X136586027Y-135277251D01*
X136657676Y-135450228D01*
X136657681Y-135450237D01*
X136761697Y-135605907D01*
X136761700Y-135605911D01*
X136894088Y-135738299D01*
X136894092Y-135738302D01*
X137049762Y-135842318D01*
X137049768Y-135842321D01*
X137049769Y-135842322D01*
X137222749Y-135913973D01*
X137406379Y-135950499D01*
X137406383Y-135950500D01*
X137406384Y-135950500D01*
X137593617Y-135950500D01*
X137593618Y-135950499D01*
X137777251Y-135913973D01*
X137950231Y-135842322D01*
X138105908Y-135738302D01*
X138238302Y-135605908D01*
X138342322Y-135450231D01*
X138413973Y-135277251D01*
X138450500Y-135093616D01*
X138450500Y-134906384D01*
X138413973Y-134722749D01*
X138342322Y-134549769D01*
X138342321Y-134549768D01*
X138342318Y-134549762D01*
X138290923Y-134472844D01*
X139087500Y-134472844D01*
X139093901Y-134532372D01*
X139093903Y-134532379D01*
X139144145Y-134667086D01*
X139144149Y-134667093D01*
X139230309Y-134782187D01*
X139230312Y-134782190D01*
X139345406Y-134868350D01*
X139345413Y-134868354D01*
X139480120Y-134918596D01*
X139480127Y-134918598D01*
X139539655Y-134924999D01*
X139539672Y-134925000D01*
X139837500Y-134925000D01*
X140337500Y-134925000D01*
X140635328Y-134925000D01*
X140635344Y-134924999D01*
X140694872Y-134918598D01*
X140694879Y-134918596D01*
X140829586Y-134868354D01*
X140829593Y-134868350D01*
X140944687Y-134782190D01*
X140944690Y-134782187D01*
X141030850Y-134667093D01*
X141030854Y-134667086D01*
X141081096Y-134532379D01*
X141081098Y-134532372D01*
X141087499Y-134472844D01*
X141087500Y-134472827D01*
X141087500Y-133900000D01*
X140337500Y-133900000D01*
X140337500Y-134925000D01*
X139837500Y-134925000D01*
X139837500Y-133900000D01*
X139087500Y-133900000D01*
X139087500Y-134472844D01*
X138290923Y-134472844D01*
X138238302Y-134394092D01*
X138238299Y-134394088D01*
X138105911Y-134261700D01*
X138105907Y-134261697D01*
X137950237Y-134157681D01*
X137950228Y-134157676D01*
X137777251Y-134086027D01*
X137777243Y-134086025D01*
X137593620Y-134049500D01*
X137593616Y-134049500D01*
X137406384Y-134049500D01*
X137406379Y-134049500D01*
X137222756Y-134086025D01*
X137222748Y-134086027D01*
X137049771Y-134157676D01*
X137049762Y-134157681D01*
X136894092Y-134261697D01*
X136894088Y-134261700D01*
X136761700Y-134394088D01*
X136761697Y-134394092D01*
X136657681Y-134549762D01*
X136657676Y-134549771D01*
X136586027Y-134722748D01*
X136586025Y-134722756D01*
X136549500Y-134906379D01*
X136235110Y-134906379D01*
X136235110Y-121114061D01*
X136254795Y-121047022D01*
X136307599Y-121001267D01*
X136376757Y-120991323D01*
X136428000Y-121010958D01*
X136448848Y-121024889D01*
X136549762Y-121092318D01*
X136549768Y-121092321D01*
X136549769Y-121092322D01*
X136722749Y-121163973D01*
X136906379Y-121200499D01*
X136906383Y-121200500D01*
X136906384Y-121200500D01*
X137093617Y-121200500D01*
X137093618Y-121200499D01*
X137277251Y-121163973D01*
X137450231Y-121092322D01*
X137605908Y-120988302D01*
X137738302Y-120855908D01*
X137842322Y-120700231D01*
X137913973Y-120527251D01*
X137950500Y-120343616D01*
X137950500Y-120156384D01*
X137913973Y-119972749D01*
X137851598Y-119822162D01*
X137842323Y-119799771D01*
X137842318Y-119799762D01*
X137738302Y-119644092D01*
X137738299Y-119644088D01*
X137605911Y-119511700D01*
X137605907Y-119511697D01*
X137450237Y-119407681D01*
X137450228Y-119407676D01*
X137277251Y-119336027D01*
X137277243Y-119336025D01*
X137093620Y-119299500D01*
X137093616Y-119299500D01*
X136906384Y-119299500D01*
X136906379Y-119299500D01*
X136722756Y-119336025D01*
X136722748Y-119336027D01*
X136549771Y-119407676D01*
X136549762Y-119407681D01*
X136428001Y-119489040D01*
X136361323Y-119509918D01*
X136293943Y-119491433D01*
X136247253Y-119439454D01*
X136235110Y-119385938D01*
X136235110Y-116369008D01*
X137943745Y-116369008D01*
X137945389Y-116389918D01*
X137990503Y-116545203D01*
X138072813Y-116684382D01*
X138072820Y-116684391D01*
X138187151Y-116798722D01*
X138187160Y-116798729D01*
X138326339Y-116881039D01*
X138472535Y-116923512D01*
X138472535Y-116369008D01*
X137943745Y-116369008D01*
X136235110Y-116369008D01*
X136235110Y-115406223D01*
X137935690Y-115406223D01*
X137937334Y-115427133D01*
X137982447Y-115582416D01*
X137982524Y-115582545D01*
X137982553Y-115582660D01*
X137985546Y-115589576D01*
X137984430Y-115590058D01*
X137999707Y-115650269D01*
X137991824Y-115685073D01*
X137992679Y-115685322D01*
X137945390Y-115848089D01*
X137945389Y-115848095D01*
X137943744Y-115869007D01*
X137943745Y-115869008D01*
X138464480Y-115869008D01*
X138464480Y-115406223D01*
X137935690Y-115406223D01*
X136235110Y-115406223D01*
X136235110Y-114906222D01*
X137935689Y-114906222D01*
X137935690Y-114906223D01*
X138464480Y-114906223D01*
X138464480Y-114351717D01*
X138464478Y-114351716D01*
X138318289Y-114394188D01*
X138318286Y-114394190D01*
X138179105Y-114476501D01*
X138179096Y-114476508D01*
X138064765Y-114590839D01*
X138064758Y-114590848D01*
X137982448Y-114730027D01*
X137982446Y-114730032D01*
X137937335Y-114885304D01*
X137937334Y-114885310D01*
X137935689Y-114906222D01*
X136235110Y-114906222D01*
X136235110Y-112940777D01*
X139197519Y-112940777D01*
X139752023Y-112940777D01*
X139752023Y-112411987D01*
X139752022Y-112411986D01*
X139731110Y-112413631D01*
X139731104Y-112413632D01*
X139575832Y-112458743D01*
X139575827Y-112458745D01*
X139436648Y-112541055D01*
X139436639Y-112541062D01*
X139322308Y-112655393D01*
X139322301Y-112655402D01*
X139239991Y-112794581D01*
X139197519Y-112940777D01*
X136235110Y-112940777D01*
X136235110Y-102847830D01*
X136254795Y-102780791D01*
X136307599Y-102735036D01*
X136359781Y-102723832D01*
X138363738Y-102734762D01*
G37*
%TD.AperFunction*%
%TA.AperFunction,Conductor*%
G36*
X148180039Y-122869685D02*
G01*
X148225794Y-122922489D01*
X148237000Y-122974000D01*
X148237000Y-123727940D01*
X148227561Y-123775392D01*
X148186802Y-123873793D01*
X148186799Y-123873802D01*
X148157000Y-124023615D01*
X148157000Y-124176384D01*
X148186800Y-124326197D01*
X148186802Y-124326205D01*
X148245259Y-124467334D01*
X148245264Y-124467343D01*
X148330129Y-124594351D01*
X148330132Y-124594355D01*
X148438144Y-124702367D01*
X148438148Y-124702370D01*
X148565156Y-124787235D01*
X148565165Y-124787240D01*
X148591038Y-124797957D01*
X148706295Y-124845698D01*
X148856115Y-124875499D01*
X148856119Y-124875500D01*
X148856120Y-124875500D01*
X149008881Y-124875500D01*
X149008882Y-124875499D01*
X149158705Y-124845698D01*
X149299837Y-124787239D01*
X149426852Y-124702370D01*
X149534870Y-124594352D01*
X149619739Y-124467337D01*
X149678198Y-124326205D01*
X149678374Y-124325316D01*
X149678594Y-124324896D01*
X149679966Y-124320375D01*
X149680823Y-124320634D01*
X149710752Y-124263406D01*
X149771464Y-124228825D01*
X149799984Y-124225499D01*
X150585372Y-124225499D01*
X150585385Y-124225498D01*
X150624244Y-124221320D01*
X150650752Y-124221320D01*
X150689627Y-124225500D01*
X152085372Y-124225499D01*
X152144983Y-124219091D01*
X152279831Y-124168796D01*
X152395046Y-124082546D01*
X152481296Y-123967331D01*
X152531591Y-123832483D01*
X152538000Y-123772873D01*
X152537999Y-123523134D01*
X152557683Y-123456097D01*
X152610487Y-123410342D01*
X152679646Y-123400398D01*
X152726147Y-123417018D01*
X152784007Y-123451996D01*
X152946417Y-123502604D01*
X153016997Y-123509018D01*
X153142630Y-123509018D01*
X153209669Y-123528703D01*
X153255424Y-123581507D01*
X153265368Y-123650665D01*
X153236343Y-123714221D01*
X153230311Y-123720699D01*
X152772049Y-124178960D01*
X152772048Y-124178961D01*
X152695385Y-124293696D01*
X152650653Y-124401689D01*
X152611580Y-124452610D01*
X152571792Y-124483140D01*
X152477543Y-124605969D01*
X152418297Y-124749004D01*
X152418296Y-124749009D01*
X152403161Y-124863959D01*
X152403161Y-125116054D01*
X152413513Y-125194679D01*
X152417488Y-125224872D01*
X152418296Y-125231004D01*
X152418296Y-125231006D01*
X152433435Y-125267556D01*
X152440902Y-125337026D01*
X152433435Y-125362458D01*
X152418296Y-125399007D01*
X152418296Y-125399009D01*
X152403161Y-125513959D01*
X152403161Y-125766054D01*
X152418296Y-125881004D01*
X152418296Y-125881006D01*
X152433435Y-125917556D01*
X152440902Y-125987026D01*
X152433435Y-126012458D01*
X152418296Y-126049007D01*
X152418296Y-126049009D01*
X152403161Y-126163959D01*
X152403161Y-126416054D01*
X152418296Y-126531004D01*
X152418296Y-126531006D01*
X152433435Y-126567556D01*
X152440902Y-126637026D01*
X152433435Y-126662458D01*
X152418296Y-126699007D01*
X152418296Y-126699009D01*
X152403161Y-126813959D01*
X152403161Y-127066054D01*
X152418296Y-127181004D01*
X152418297Y-127181009D01*
X152477543Y-127324043D01*
X152571795Y-127446875D01*
X152577541Y-127452621D01*
X152575459Y-127454702D01*
X152608336Y-127499696D01*
X152615661Y-127541683D01*
X152615661Y-129389601D01*
X152595976Y-129456640D01*
X152543172Y-129502395D01*
X152474014Y-129512339D01*
X152410458Y-129483314D01*
X152401427Y-129473614D01*
X152401317Y-129473725D01*
X152395044Y-129467452D01*
X152279835Y-129381206D01*
X152279828Y-129381202D01*
X152144982Y-129330908D01*
X152144983Y-129330908D01*
X152085383Y-129324501D01*
X152085381Y-129324500D01*
X152085373Y-129324500D01*
X152085364Y-129324500D01*
X151189629Y-129324500D01*
X151189623Y-129324501D01*
X151130016Y-129330908D01*
X150995171Y-129381202D01*
X150995164Y-129381206D01*
X150879955Y-129467452D01*
X150879952Y-129467455D01*
X150810766Y-129559876D01*
X150754832Y-129601747D01*
X150685141Y-129606731D01*
X150623818Y-129573245D01*
X150590334Y-129511922D01*
X150587500Y-129485565D01*
X150587500Y-127725000D01*
X142087500Y-127725000D01*
X142087500Y-129725000D01*
X150613000Y-129725000D01*
X150680039Y-129744685D01*
X150725794Y-129797489D01*
X150737000Y-129849000D01*
X150737000Y-130950500D01*
X150717315Y-131017539D01*
X150664511Y-131063294D01*
X150613002Y-131074500D01*
X150539630Y-131074500D01*
X150539623Y-131074501D01*
X150480016Y-131080908D01*
X150345171Y-131131202D01*
X150345164Y-131131206D01*
X150229955Y-131217452D01*
X150229952Y-131217455D01*
X150150334Y-131323811D01*
X150094400Y-131365682D01*
X150051068Y-131373500D01*
X142410781Y-131373500D01*
X142343742Y-131353815D01*
X142323100Y-131337181D01*
X139723319Y-128737400D01*
X139689834Y-128676077D01*
X139687000Y-128649719D01*
X139687000Y-124349499D01*
X139706685Y-124282460D01*
X139759489Y-124236705D01*
X139811000Y-124225499D01*
X140835371Y-124225499D01*
X140835372Y-124225499D01*
X140894983Y-124219091D01*
X140944882Y-124200480D01*
X141029829Y-124168797D01*
X141029829Y-124168796D01*
X141029831Y-124168796D01*
X141071716Y-124137440D01*
X141137178Y-124113022D01*
X141188333Y-124120146D01*
X141190920Y-124121085D01*
X141273795Y-124155413D01*
X141299687Y-124160562D01*
X141308548Y-124163779D01*
X141329406Y-124179108D01*
X141352341Y-124191104D01*
X141353916Y-124192651D01*
X141567784Y-124406520D01*
X141567786Y-124406521D01*
X141567790Y-124406524D01*
X141608799Y-124430200D01*
X141704716Y-124485577D01*
X141857443Y-124526501D01*
X141857445Y-124526501D01*
X142023154Y-124526501D01*
X142023170Y-124526500D01*
X144870798Y-124526500D01*
X144937837Y-124546185D01*
X144983592Y-124598989D01*
X144994798Y-124650500D01*
X144994798Y-124766490D01*
X144975113Y-124833529D01*
X144973900Y-124835381D01*
X144908062Y-124933913D01*
X144908057Y-124933922D01*
X144849600Y-125075051D01*
X144849598Y-125075059D01*
X144819798Y-125224872D01*
X144819798Y-125377641D01*
X144849598Y-125527454D01*
X144849600Y-125527462D01*
X144908057Y-125668591D01*
X144908062Y-125668600D01*
X144992927Y-125795608D01*
X144992930Y-125795612D01*
X145100942Y-125903624D01*
X145100946Y-125903627D01*
X145227954Y-125988492D01*
X145227963Y-125988497D01*
X145259934Y-126001739D01*
X145369093Y-126046955D01*
X145459847Y-126065007D01*
X145518913Y-126076756D01*
X145518917Y-126076757D01*
X145518918Y-126076757D01*
X145671679Y-126076757D01*
X145671680Y-126076756D01*
X145821503Y-126046955D01*
X145962635Y-125988496D01*
X146089650Y-125903627D01*
X146197668Y-125795609D01*
X146282537Y-125668594D01*
X146340996Y-125527462D01*
X146370798Y-125377637D01*
X146370798Y-125224877D01*
X146340996Y-125075052D01*
X146290740Y-124953724D01*
X146282538Y-124933922D01*
X146282533Y-124933913D01*
X146216696Y-124835381D01*
X146195818Y-124768703D01*
X146195798Y-124766490D01*
X146195798Y-124371855D01*
X146195798Y-124361858D01*
X146195799Y-124361856D01*
X146195799Y-124323527D01*
X146215485Y-124256488D01*
X146255517Y-124221802D01*
X146268288Y-124210736D01*
X146276458Y-124207351D01*
X146294165Y-124200746D01*
X146363856Y-124195761D01*
X146380833Y-124200747D01*
X146430008Y-124219088D01*
X146430011Y-124219088D01*
X146430017Y-124219091D01*
X146489627Y-124225500D01*
X147285372Y-124225499D01*
X147344983Y-124219091D01*
X147394882Y-124200479D01*
X147464569Y-124195494D01*
X147481548Y-124200479D01*
X147530128Y-124218598D01*
X147530127Y-124218598D01*
X147589655Y-124224999D01*
X147589672Y-124225000D01*
X147737500Y-124225000D01*
X147737500Y-123784167D01*
X147737927Y-123776188D01*
X147737822Y-123776183D01*
X147737997Y-123772898D01*
X147738000Y-123772873D01*
X147737999Y-122973999D01*
X147757683Y-122906961D01*
X147810487Y-122861206D01*
X147861999Y-122850000D01*
X148113000Y-122850000D01*
X148180039Y-122869685D01*
G37*
%TD.AperFunction*%
%TA.AperFunction,Conductor*%
G36*
X162751964Y-124888174D02*
G01*
X162797719Y-124940978D01*
X162808925Y-124992489D01*
X162808925Y-125871364D01*
X162789240Y-125938403D01*
X162772606Y-125959045D01*
X162758162Y-125973489D01*
X162758162Y-126576680D01*
X162738477Y-126643719D01*
X162685673Y-126689474D01*
X162634162Y-126700680D01*
X162382162Y-126700680D01*
X162315123Y-126680995D01*
X162269368Y-126628191D01*
X162258162Y-126576680D01*
X162258162Y-125722805D01*
X162277847Y-125655766D01*
X162294481Y-125635124D01*
X162308925Y-125620680D01*
X162308925Y-124992489D01*
X162328610Y-124925450D01*
X162381414Y-124879695D01*
X162432925Y-124868489D01*
X162684925Y-124868489D01*
X162751964Y-124888174D01*
G37*
%TD.AperFunction*%
%TA.AperFunction,Conductor*%
G36*
X158086341Y-122553836D02*
G01*
X158132096Y-122606640D01*
X158143302Y-122658151D01*
X158143302Y-123509150D01*
X158149883Y-123509150D01*
X158220404Y-123502742D01*
X158249932Y-123493541D01*
X158319792Y-123492389D01*
X158379186Y-123529188D01*
X158409255Y-123592257D01*
X158410115Y-123598671D01*
X158413889Y-123633775D01*
X158464182Y-123768620D01*
X158464186Y-123768627D01*
X158550432Y-123883836D01*
X158550435Y-123883839D01*
X158665644Y-123970085D01*
X158665651Y-123970089D01*
X158800497Y-124020383D01*
X158800496Y-124020383D01*
X158807424Y-124021127D01*
X158860107Y-124026792D01*
X160013098Y-124026791D01*
X160080137Y-124046476D01*
X160125892Y-124099279D01*
X160135836Y-124168438D01*
X160119215Y-124214939D01*
X160096987Y-124251708D01*
X160065447Y-124303882D01*
X160014838Y-124466296D01*
X160008425Y-124536875D01*
X160008425Y-125200102D01*
X160014838Y-125270681D01*
X160014838Y-125270683D01*
X160014839Y-125270685D01*
X160033288Y-125329890D01*
X160065447Y-125433095D01*
X160154365Y-125580183D01*
X160172201Y-125647738D01*
X160154365Y-125708482D01*
X160080634Y-125830449D01*
X160030024Y-125992865D01*
X160023611Y-126063444D01*
X160023611Y-126115507D01*
X160003926Y-126182546D01*
X159951122Y-126228301D01*
X159899611Y-126239507D01*
X158958032Y-126239507D01*
X158890993Y-126219822D01*
X158845238Y-126167018D01*
X158835294Y-126097860D01*
X158854930Y-126046616D01*
X158937235Y-125923438D01*
X158937235Y-125923437D01*
X158937239Y-125923432D01*
X158995698Y-125782300D01*
X159025500Y-125632475D01*
X159025500Y-125479715D01*
X158995698Y-125329890D01*
X158941938Y-125200102D01*
X158937240Y-125188760D01*
X158937235Y-125188751D01*
X158852370Y-125061743D01*
X158852367Y-125061739D01*
X158744355Y-124953727D01*
X158744351Y-124953724D01*
X158617343Y-124868859D01*
X158617334Y-124868854D01*
X158476205Y-124810397D01*
X158476197Y-124810395D01*
X158326384Y-124780595D01*
X158326380Y-124780595D01*
X158234964Y-124780595D01*
X158167925Y-124760910D01*
X158122170Y-124708106D01*
X158120403Y-124704048D01*
X158109838Y-124678542D01*
X158079778Y-124605970D01*
X158079777Y-124605969D01*
X158079777Y-124605968D01*
X158043476Y-124558660D01*
X157985528Y-124483140D01*
X157885674Y-124406520D01*
X157862697Y-124388889D01*
X157862698Y-124388889D01*
X157719663Y-124329643D01*
X157719661Y-124329642D01*
X157719660Y-124329642D01*
X157693493Y-124326197D01*
X157604708Y-124314507D01*
X157604701Y-124314507D01*
X156877621Y-124314507D01*
X156877613Y-124314507D01*
X156869288Y-124315604D01*
X156800252Y-124304839D01*
X156747996Y-124258459D01*
X156738541Y-124240118D01*
X156712607Y-124177507D01*
X156428161Y-124177507D01*
X156361122Y-124157822D01*
X156315367Y-124105018D01*
X156304161Y-124053507D01*
X156304161Y-123951507D01*
X156323846Y-123884468D01*
X156376650Y-123838713D01*
X156428161Y-123827507D01*
X156928660Y-123827507D01*
X156928660Y-123638993D01*
X156913542Y-123524147D01*
X156913540Y-123524142D01*
X156888258Y-123463106D01*
X156880789Y-123393636D01*
X156912063Y-123331157D01*
X156915110Y-123327999D01*
X156980976Y-123262133D01*
X157042297Y-123228650D01*
X157111989Y-123233634D01*
X157156336Y-123262135D01*
X157258424Y-123364223D01*
X157403906Y-123452170D01*
X157403905Y-123452170D01*
X157566196Y-123502741D01*
X157566195Y-123502741D01*
X157636710Y-123509149D01*
X157636728Y-123509150D01*
X157643301Y-123509149D01*
X157643302Y-123509149D01*
X157643302Y-122658151D01*
X157662987Y-122591112D01*
X157715791Y-122545357D01*
X157767302Y-122534151D01*
X158019302Y-122534151D01*
X158086341Y-122553836D01*
G37*
%TD.AperFunction*%
%TA.AperFunction,Conductor*%
G36*
X166911537Y-124575135D02*
G01*
X166913900Y-124574796D01*
X166943670Y-124588391D01*
X166973921Y-124600871D01*
X166975284Y-124602829D01*
X166977456Y-124603821D01*
X166995152Y-124631358D01*
X167013851Y-124658207D01*
X167014340Y-124661215D01*
X167015230Y-124662599D01*
X167019161Y-124681110D01*
X167032481Y-124780796D01*
X167229349Y-124977664D01*
X167262834Y-125038987D01*
X167257850Y-125108679D01*
X167229349Y-125153026D01*
X167221181Y-125161194D01*
X167207963Y-125168411D01*
X167196898Y-125157346D01*
X167160144Y-125142122D01*
X167120362Y-125142122D01*
X167083608Y-125157346D01*
X167055477Y-125185477D01*
X167050492Y-125197513D01*
X166967705Y-125197513D01*
X166900666Y-125177828D01*
X166854911Y-125125024D01*
X166848629Y-125108108D01*
X166843872Y-125091736D01*
X166843871Y-125091732D01*
X166776411Y-124977664D01*
X166763425Y-124955705D01*
X166763418Y-124955696D01*
X166712525Y-124904803D01*
X166679040Y-124843480D01*
X166684024Y-124773788D01*
X166712525Y-124729441D01*
X166763418Y-124678547D01*
X166763423Y-124678542D01*
X166789521Y-124634413D01*
X166791265Y-124632783D01*
X166791938Y-124630495D01*
X166816654Y-124609078D01*
X166840590Y-124586729D01*
X166842939Y-124586301D01*
X166844742Y-124584740D01*
X166877128Y-124580083D01*
X166909332Y-124574226D01*
X166911537Y-124575135D01*
G37*
%TD.AperFunction*%
%TA.AperFunction,Conductor*%
G36*
X166781557Y-120460764D02*
G01*
X166827312Y-120513568D01*
X166838518Y-120565079D01*
X166838518Y-120846267D01*
X166850173Y-120857922D01*
X166883658Y-120919245D01*
X166886492Y-120945603D01*
X166886492Y-121827267D01*
X166866807Y-121894306D01*
X166814003Y-121940061D01*
X166762492Y-121951267D01*
X166510492Y-121951267D01*
X166443453Y-121931582D01*
X166397698Y-121878778D01*
X166386492Y-121827267D01*
X166386492Y-121546079D01*
X166374837Y-121534424D01*
X166341352Y-121473101D01*
X166338518Y-121446743D01*
X166338518Y-120565079D01*
X166358203Y-120498040D01*
X166411007Y-120452285D01*
X166462518Y-120441079D01*
X166714518Y-120441079D01*
X166781557Y-120460764D01*
G37*
%TD.AperFunction*%
%TA.AperFunction,Conductor*%
G36*
X158790465Y-119664410D02*
G01*
X158811107Y-119681044D01*
X158839662Y-119709599D01*
X158839672Y-119709610D01*
X158844002Y-119713940D01*
X158844003Y-119713941D01*
X158955807Y-119825745D01*
X159028161Y-119867518D01*
X159092738Y-119904802D01*
X159245466Y-119945726D01*
X159245469Y-119945726D01*
X159276000Y-119945726D01*
X159343039Y-119965411D01*
X159388794Y-120018215D01*
X159400000Y-120069726D01*
X159400000Y-120348225D01*
X160225000Y-120348225D01*
X160225000Y-120069725D01*
X160244685Y-120002686D01*
X160297489Y-119956931D01*
X160349000Y-119945725D01*
X160601000Y-119945725D01*
X160668039Y-119965410D01*
X160713794Y-120018214D01*
X160725000Y-120069725D01*
X160725000Y-120474225D01*
X160705315Y-120541264D01*
X160652511Y-120587019D01*
X160601000Y-120598225D01*
X160475000Y-120598225D01*
X160475000Y-120724225D01*
X160455315Y-120791264D01*
X160402511Y-120837019D01*
X160351000Y-120848225D01*
X159400001Y-120848225D01*
X159400001Y-121298211D01*
X159410494Y-121400922D01*
X159465641Y-121567344D01*
X159465645Y-121567353D01*
X159508416Y-121636696D01*
X159526856Y-121704088D01*
X159505933Y-121770752D01*
X159452291Y-121815521D01*
X159402877Y-121825792D01*
X158860109Y-121825792D01*
X158860103Y-121825793D01*
X158800493Y-121832201D01*
X158770133Y-121843524D01*
X158700442Y-121848506D01*
X158639123Y-121815022D01*
X158549530Y-121725429D01*
X158516045Y-121664106D01*
X158521029Y-121594414D01*
X158531669Y-121572656D01*
X158534814Y-121567559D01*
X158589999Y-121401022D01*
X158600500Y-121298234D01*
X158600499Y-119898217D01*
X158589999Y-119795428D01*
X158589839Y-119794681D01*
X158589874Y-119794208D01*
X158589311Y-119788693D01*
X158590294Y-119788592D01*
X158595055Y-119725006D01*
X158637111Y-119669212D01*
X158702657Y-119645012D01*
X158711092Y-119644725D01*
X158723426Y-119644725D01*
X158790465Y-119664410D01*
G37*
%TD.AperFunction*%
%TA.AperFunction,Conductor*%
G36*
X150411595Y-120191271D02*
G01*
X150455942Y-120219772D01*
X150558072Y-120321902D01*
X150558074Y-120321903D01*
X150558076Y-120321905D01*
X150703655Y-120409911D01*
X150866065Y-120460519D01*
X150936645Y-120466933D01*
X150936648Y-120466933D01*
X151449874Y-120466933D01*
X151449877Y-120466933D01*
X151520457Y-120460519D01*
X151682867Y-120409911D01*
X151784002Y-120348772D01*
X151851553Y-120330936D01*
X151918027Y-120352453D01*
X151925061Y-120357623D01*
X151927659Y-120359677D01*
X152071994Y-120448705D01*
X152071997Y-120448706D01*
X152072003Y-120448710D01*
X152149003Y-120474225D01*
X152232991Y-120502056D01*
X152240106Y-120502782D01*
X152272034Y-120506044D01*
X152336726Y-120532439D01*
X152376878Y-120589619D01*
X152382791Y-120642004D01*
X152376033Y-120708148D01*
X152376033Y-121304840D01*
X152376034Y-121304858D01*
X152386183Y-121404210D01*
X152386184Y-121404213D01*
X152439529Y-121565197D01*
X152439532Y-121565204D01*
X152481420Y-121633113D01*
X152499861Y-121700506D01*
X152478939Y-121767169D01*
X152425297Y-121811939D01*
X152355967Y-121820601D01*
X152301572Y-121797479D01*
X152279830Y-121781203D01*
X152279828Y-121781202D01*
X152144982Y-121730908D01*
X152144983Y-121730908D01*
X152085383Y-121724501D01*
X152085381Y-121724500D01*
X152085373Y-121724500D01*
X152085365Y-121724500D01*
X151037251Y-121724500D01*
X150970212Y-121704815D01*
X150937985Y-121674812D01*
X150895048Y-121617457D01*
X150895046Y-121617454D01*
X150895042Y-121617451D01*
X150779835Y-121531206D01*
X150779828Y-121531202D01*
X150644982Y-121480908D01*
X150644983Y-121480908D01*
X150585383Y-121474501D01*
X150585381Y-121474500D01*
X150585373Y-121474500D01*
X150585364Y-121474500D01*
X149789629Y-121474500D01*
X149789623Y-121474501D01*
X149730016Y-121480908D01*
X149680832Y-121499253D01*
X149611140Y-121504237D01*
X149594167Y-121499253D01*
X149544982Y-121480908D01*
X149544983Y-121480908D01*
X149485383Y-121474501D01*
X149485381Y-121474500D01*
X149485373Y-121474500D01*
X149485365Y-121474500D01*
X149137598Y-121474500D01*
X149070559Y-121454815D01*
X149049917Y-121438181D01*
X148569319Y-120957583D01*
X148535834Y-120896260D01*
X148533000Y-120869902D01*
X148533000Y-120575701D01*
X148552685Y-120508662D01*
X148605489Y-120462907D01*
X148640807Y-120452763D01*
X148657736Y-120450535D01*
X148797733Y-120392546D01*
X148830675Y-120367268D01*
X148895842Y-120342074D01*
X148964287Y-120356112D01*
X148970296Y-120359518D01*
X149053655Y-120409911D01*
X149216065Y-120460519D01*
X149286645Y-120466933D01*
X149286648Y-120466933D01*
X149799874Y-120466933D01*
X149799877Y-120466933D01*
X149870457Y-120460519D01*
X150032867Y-120409911D01*
X150178446Y-120321905D01*
X150209166Y-120291185D01*
X150280580Y-120219772D01*
X150341903Y-120186287D01*
X150411595Y-120191271D01*
G37*
%TD.AperFunction*%
%TA.AperFunction,Conductor*%
G36*
X155990689Y-120813208D02*
G01*
X156161419Y-120813208D01*
X156228458Y-120832893D01*
X156274213Y-120885697D01*
X156284157Y-120954855D01*
X156255132Y-121018411D01*
X156249100Y-121024889D01*
X156228305Y-121045684D01*
X156166982Y-121079169D01*
X156140624Y-121082003D01*
X155000533Y-121082003D01*
X154933494Y-121062318D01*
X154887739Y-121009514D01*
X154876533Y-120958003D01*
X154876533Y-120937207D01*
X154896218Y-120870168D01*
X154949022Y-120824413D01*
X155000533Y-120813207D01*
X155990673Y-120813207D01*
X155990689Y-120813208D01*
G37*
%TD.AperFunction*%
%TA.AperFunction,Conductor*%
G36*
X160517108Y-118251410D02*
G01*
X160562863Y-118304214D01*
X160574069Y-118355725D01*
X160574069Y-118481725D01*
X160700069Y-118481725D01*
X160767108Y-118501410D01*
X160812863Y-118554214D01*
X160824069Y-118605725D01*
X160824069Y-118620725D01*
X160804384Y-118687764D01*
X160751580Y-118733519D01*
X160700069Y-118744725D01*
X160388431Y-118744725D01*
X160344158Y-118731725D01*
X159748069Y-118731725D01*
X159681030Y-118712040D01*
X159635275Y-118659236D01*
X159624069Y-118607725D01*
X159624069Y-118355725D01*
X159643754Y-118288686D01*
X159696558Y-118242931D01*
X159748069Y-118231725D01*
X160450069Y-118231725D01*
X160517108Y-118251410D01*
G37*
%TD.AperFunction*%
%TA.AperFunction,Conductor*%
G36*
X154898239Y-118043892D02*
G01*
X154943994Y-118096696D01*
X154955200Y-118148207D01*
X154955200Y-118250207D01*
X154935515Y-118317246D01*
X154882711Y-118363001D01*
X154831200Y-118374207D01*
X154542448Y-118374207D01*
X154494093Y-118360008D01*
X154485198Y-118358067D01*
X154484250Y-118357118D01*
X154475409Y-118354522D01*
X154429654Y-118301718D01*
X154419710Y-118232560D01*
X154442947Y-118181677D01*
X154445481Y-118174898D01*
X154446426Y-118174059D01*
X154448735Y-118169004D01*
X154468554Y-118150630D01*
X154480850Y-118141504D01*
X154489737Y-118137824D01*
X154605179Y-118049242D01*
X154606005Y-118048630D01*
X154637888Y-118036889D01*
X154669582Y-118024637D01*
X154671364Y-118024562D01*
X154671570Y-118024487D01*
X154671824Y-118024543D01*
X154679899Y-118024207D01*
X154831200Y-118024207D01*
X154898239Y-118043892D01*
G37*
%TD.AperFunction*%
%TA.AperFunction,Conductor*%
G36*
X143271034Y-115546662D02*
G01*
X143271045Y-115546661D01*
X143302574Y-115561066D01*
X143334580Y-115575683D01*
X143334594Y-115575696D01*
X143334596Y-115575697D01*
X143334597Y-115575699D01*
X143341058Y-115581715D01*
X144180708Y-116421365D01*
X144214193Y-116482688D01*
X144217027Y-116509046D01*
X144217027Y-117651469D01*
X144229617Y-117714760D01*
X144232000Y-117738952D01*
X144232000Y-117840011D01*
X144222560Y-117887465D01*
X144209781Y-117918315D01*
X144165940Y-117972718D01*
X144099645Y-117994782D01*
X144079037Y-117993800D01*
X144073651Y-117993091D01*
X144045227Y-117989348D01*
X144045220Y-117989348D01*
X143819780Y-117989348D01*
X143819772Y-117989348D01*
X143732893Y-118000786D01*
X143707264Y-118004161D01*
X143707262Y-118004161D01*
X143699208Y-118005222D01*
X143698816Y-118002247D01*
X143666184Y-118002247D01*
X143665792Y-118005222D01*
X143657737Y-118004161D01*
X143657736Y-118004161D01*
X143628771Y-118000347D01*
X143545227Y-117989348D01*
X143545220Y-117989348D01*
X143319780Y-117989348D01*
X143319774Y-117989348D01*
X143319769Y-117989349D01*
X143269561Y-117995959D01*
X143200526Y-117985193D01*
X143148270Y-117938813D01*
X143129376Y-117873020D01*
X143129376Y-115675263D01*
X143129377Y-115669375D01*
X143139629Y-115634481D01*
X143149062Y-115602357D01*
X143149069Y-115602350D01*
X143149073Y-115602339D01*
X143177144Y-115578023D01*
X143201866Y-115556602D01*
X143201876Y-115556600D01*
X143201885Y-115556593D01*
X143237164Y-115551526D01*
X143271024Y-115546658D01*
X143271034Y-115546662D01*
G37*
%TD.AperFunction*%
%TA.AperFunction,Conductor*%
G36*
X147887465Y-113024786D02*
G01*
X147973795Y-113060546D01*
X148119920Y-113089612D01*
X148123615Y-113090347D01*
X148123619Y-113090348D01*
X148123620Y-113090348D01*
X148276381Y-113090348D01*
X148276382Y-113090347D01*
X148426205Y-113060546D01*
X148438716Y-113055363D01*
X148508182Y-113047894D01*
X148570662Y-113079167D01*
X148606316Y-113139255D01*
X148609109Y-113186105D01*
X148607000Y-113202122D01*
X148607000Y-113427575D01*
X148622874Y-113548140D01*
X148619899Y-113548531D01*
X148619899Y-113581164D01*
X148622874Y-113581556D01*
X148621813Y-113589610D01*
X148621813Y-113589612D01*
X148619502Y-113607166D01*
X148607000Y-113702120D01*
X148607000Y-113927575D01*
X148622874Y-114048140D01*
X148619899Y-114048531D01*
X148619899Y-114081164D01*
X148622874Y-114081556D01*
X148621813Y-114089610D01*
X148621813Y-114089612D01*
X148619672Y-114105875D01*
X148607000Y-114202120D01*
X148607000Y-114427561D01*
X148607001Y-114427580D01*
X148607996Y-114435137D01*
X148597230Y-114504172D01*
X148550849Y-114556427D01*
X148529198Y-114566278D01*
X148529423Y-114566819D01*
X148382665Y-114627607D01*
X148382656Y-114627612D01*
X148255648Y-114712477D01*
X148255644Y-114712480D01*
X148147632Y-114820492D01*
X148147629Y-114820496D01*
X148062764Y-114947504D01*
X148062759Y-114947513D01*
X148004302Y-115088642D01*
X148004300Y-115088650D01*
X147974500Y-115238463D01*
X147974500Y-115391232D01*
X148004300Y-115541045D01*
X148004302Y-115541053D01*
X148062759Y-115682182D01*
X148062764Y-115682191D01*
X148147629Y-115809199D01*
X148147632Y-115809203D01*
X148255644Y-115917215D01*
X148255648Y-115917218D01*
X148382656Y-116002083D01*
X148382665Y-116002088D01*
X148529423Y-116062877D01*
X148528665Y-116064706D01*
X148579481Y-116097999D01*
X148607945Y-116161807D01*
X148607997Y-116194557D01*
X148607000Y-116202127D01*
X148607000Y-116427575D01*
X148622874Y-116548140D01*
X148619899Y-116548531D01*
X148619899Y-116581164D01*
X148622874Y-116581556D01*
X148607000Y-116702120D01*
X148607000Y-116927575D01*
X148615958Y-116995610D01*
X148620464Y-117029840D01*
X148622874Y-117048140D01*
X148619899Y-117048531D01*
X148619899Y-117081164D01*
X148622874Y-117081556D01*
X148607000Y-117202120D01*
X148607000Y-117427575D01*
X148617999Y-117511119D01*
X148621003Y-117533934D01*
X148622874Y-117548140D01*
X148619899Y-117548531D01*
X148619899Y-117581164D01*
X148622874Y-117581556D01*
X148607000Y-117702120D01*
X148607000Y-117865348D01*
X148587315Y-117932387D01*
X148534511Y-117978142D01*
X148483000Y-117989348D01*
X148319772Y-117989348D01*
X148232893Y-118000786D01*
X148207264Y-118004161D01*
X148207262Y-118004161D01*
X148199208Y-118005222D01*
X148198816Y-118002247D01*
X148166184Y-118002247D01*
X148165792Y-118005222D01*
X148157737Y-118004161D01*
X148157736Y-118004161D01*
X148128771Y-118000347D01*
X148045227Y-117989348D01*
X148045220Y-117989348D01*
X147819780Y-117989348D01*
X147819772Y-117989348D01*
X147732893Y-118000786D01*
X147707264Y-118004161D01*
X147707262Y-118004161D01*
X147699208Y-118005222D01*
X147698816Y-118002247D01*
X147666184Y-118002247D01*
X147665792Y-118005222D01*
X147657737Y-118004161D01*
X147657736Y-118004161D01*
X147628771Y-118000347D01*
X147545227Y-117989348D01*
X147545220Y-117989348D01*
X147319780Y-117989348D01*
X147319772Y-117989348D01*
X147232893Y-118000786D01*
X147207264Y-118004161D01*
X147207262Y-118004161D01*
X147199208Y-118005222D01*
X147198816Y-118002247D01*
X147166184Y-118002247D01*
X147165792Y-118005222D01*
X147157737Y-118004161D01*
X147157736Y-118004161D01*
X147128771Y-118000347D01*
X147045227Y-117989348D01*
X147045220Y-117989348D01*
X146819780Y-117989348D01*
X146819772Y-117989348D01*
X146732893Y-118000786D01*
X146707264Y-118004161D01*
X146707262Y-118004161D01*
X146699208Y-118005222D01*
X146698816Y-118002247D01*
X146666184Y-118002247D01*
X146665792Y-118005222D01*
X146657737Y-118004161D01*
X146657736Y-118004161D01*
X146628771Y-118000347D01*
X146545227Y-117989348D01*
X146545220Y-117989348D01*
X146319780Y-117989348D01*
X146319772Y-117989348D01*
X146232893Y-118000786D01*
X146207264Y-118004161D01*
X146207262Y-118004161D01*
X146199208Y-118005222D01*
X146198816Y-118002247D01*
X146166184Y-118002247D01*
X146165792Y-118005222D01*
X146157737Y-118004161D01*
X146157736Y-118004161D01*
X146128771Y-118000347D01*
X146045227Y-117989348D01*
X146045220Y-117989348D01*
X145819780Y-117989348D01*
X145819777Y-117989348D01*
X145785960Y-117993800D01*
X145716925Y-117983032D01*
X145664671Y-117936651D01*
X145655217Y-117918313D01*
X145642439Y-117887464D01*
X145633000Y-117840011D01*
X145633000Y-117528455D01*
X145632999Y-117528445D01*
X145632074Y-117523798D01*
X145632070Y-117523781D01*
X145620409Y-117465152D01*
X145618027Y-117440963D01*
X145618027Y-116098538D01*
X145618027Y-116098534D01*
X145616853Y-116092634D01*
X145591107Y-115963199D01*
X145558434Y-115884318D01*
X145538304Y-115835719D01*
X145461639Y-115720981D01*
X144014730Y-114274072D01*
X143981245Y-114212749D01*
X143986229Y-114143057D01*
X144014728Y-114098712D01*
X145061774Y-113051667D01*
X145123097Y-113018182D01*
X145149455Y-113015348D01*
X145181007Y-113015348D01*
X147840013Y-113015348D01*
X147887465Y-113024786D01*
G37*
%TD.AperFunction*%
%TA.AperFunction,Conductor*%
G36*
X165615389Y-112827830D02*
G01*
X165636031Y-112844464D01*
X166934624Y-114143057D01*
X167526750Y-114735182D01*
X167560235Y-114796505D01*
X167555251Y-114866197D01*
X167513379Y-114922130D01*
X167447915Y-114946547D01*
X167439072Y-114946863D01*
X167405781Y-114946863D01*
X167405763Y-114946864D01*
X167306479Y-114957007D01*
X167145605Y-115010315D01*
X167145594Y-115010320D01*
X167001358Y-115099287D01*
X167001354Y-115099290D01*
X166881514Y-115219130D01*
X166881511Y-115219134D01*
X166792544Y-115363370D01*
X166792539Y-115363381D01*
X166739231Y-115524256D01*
X166729087Y-115623540D01*
X166729087Y-115671863D01*
X167555087Y-115671863D01*
X167622126Y-115691548D01*
X167667881Y-115744352D01*
X167679087Y-115795863D01*
X167679087Y-116047863D01*
X167659402Y-116114902D01*
X167606598Y-116160657D01*
X167555087Y-116171863D01*
X166729087Y-116171863D01*
X166728719Y-116172231D01*
X166667395Y-116205716D01*
X166602036Y-116202255D01*
X166559184Y-116188055D01*
X166559180Y-116188054D01*
X166460678Y-116177991D01*
X166460671Y-116177991D01*
X165852323Y-116177991D01*
X165852315Y-116177991D01*
X165753813Y-116188054D01*
X165753812Y-116188055D01*
X165700515Y-116205716D01*
X165594212Y-116240941D01*
X165594207Y-116240943D01*
X165478831Y-116312109D01*
X165411438Y-116330549D01*
X165344843Y-116309672D01*
X165297776Y-116278223D01*
X165170300Y-116225421D01*
X165170290Y-116225418D01*
X165034964Y-116198500D01*
X165034962Y-116198500D01*
X165034961Y-116198500D01*
X164269674Y-116198500D01*
X164202635Y-116178815D01*
X164156880Y-116126011D01*
X164145674Y-116074500D01*
X164145674Y-115869292D01*
X164165359Y-115802253D01*
X164181993Y-115781611D01*
X164211202Y-115752402D01*
X164243142Y-115720462D01*
X164332177Y-115576115D01*
X164385523Y-115415126D01*
X164395674Y-115315763D01*
X164395673Y-114719074D01*
X164394999Y-114712480D01*
X164385523Y-114619710D01*
X164385522Y-114619707D01*
X164367997Y-114566819D01*
X164332177Y-114458721D01*
X164332173Y-114458715D01*
X164332172Y-114458712D01*
X164243144Y-114314377D01*
X164243141Y-114314373D01*
X164123218Y-114194450D01*
X164123214Y-114194447D01*
X163978879Y-114105419D01*
X163978873Y-114105416D01*
X163978871Y-114105415D01*
X163974055Y-114103819D01*
X163817883Y-114052069D01*
X163718520Y-114041918D01*
X163171836Y-114041918D01*
X163171818Y-114041919D01*
X163072466Y-114052068D01*
X163072463Y-114052069D01*
X162911479Y-114105414D01*
X162911468Y-114105419D01*
X162767133Y-114194447D01*
X162767127Y-114194451D01*
X162757498Y-114204081D01*
X162696174Y-114237564D01*
X162626482Y-114232577D01*
X162582139Y-114204078D01*
X162572906Y-114194845D01*
X162572902Y-114194842D01*
X162428666Y-114105875D01*
X162428657Y-114105871D01*
X162360495Y-114083284D01*
X162303050Y-114043511D01*
X162276228Y-113978994D01*
X162275500Y-113965578D01*
X162275500Y-113923619D01*
X162275499Y-113923615D01*
X162272747Y-113909779D01*
X162245698Y-113773795D01*
X162187239Y-113632663D01*
X162187238Y-113632662D01*
X162187235Y-113632656D01*
X162102370Y-113505648D01*
X162102367Y-113505644D01*
X161994355Y-113397632D01*
X161994351Y-113397629D01*
X161867343Y-113312764D01*
X161867334Y-113312759D01*
X161726205Y-113254302D01*
X161726197Y-113254300D01*
X161576384Y-113224500D01*
X161576380Y-113224500D01*
X161423620Y-113224500D01*
X161423615Y-113224500D01*
X161273802Y-113254299D01*
X161273798Y-113254301D01*
X161273796Y-113254301D01*
X161273795Y-113254302D01*
X161259787Y-113260103D01*
X161240825Y-113267958D01*
X161171355Y-113275424D01*
X161124950Y-113256807D01*
X161119830Y-113253419D01*
X161119203Y-113252792D01*
X161116182Y-113251005D01*
X161113582Y-113249285D01*
X161092990Y-113224869D01*
X161071204Y-113201537D01*
X161070624Y-113198351D01*
X161068536Y-113195875D01*
X161064413Y-113164207D01*
X161058700Y-113132796D01*
X161059935Y-113129801D01*
X161059517Y-113126590D01*
X161073165Y-113097728D01*
X161085344Y-113068206D01*
X161088364Y-113065588D01*
X161089387Y-113063427D01*
X161094646Y-113060144D01*
X161113259Y-113044017D01*
X161113040Y-113043734D01*
X161118249Y-113039693D01*
X161118888Y-113039140D01*
X161119203Y-113038954D01*
X161235419Y-112922738D01*
X161267185Y-112869025D01*
X161318253Y-112821341D01*
X161373917Y-112808145D01*
X165548350Y-112808145D01*
X165615389Y-112827830D01*
G37*
%TD.AperFunction*%
%TA.AperFunction,Conductor*%
G36*
X168481249Y-109974323D02*
G01*
X167781249Y-109974323D01*
X167781249Y-110372818D01*
X167819676Y-110566004D01*
X167819679Y-110566016D01*
X167895056Y-110747994D01*
X167895063Y-110748007D01*
X168004497Y-110911785D01*
X168004500Y-110911789D01*
X168143782Y-111051071D01*
X168143786Y-111051074D01*
X168307564Y-111160508D01*
X168307577Y-111160515D01*
X168489557Y-111235892D01*
X168531249Y-111244185D01*
X168531249Y-110441311D01*
X168541189Y-110458528D01*
X168597044Y-110514383D01*
X168665453Y-110553879D01*
X168741753Y-110574323D01*
X168820745Y-110574323D01*
X168897045Y-110553879D01*
X168965454Y-110514383D01*
X169021309Y-110458528D01*
X169031249Y-110441311D01*
X169031249Y-111244185D01*
X169072939Y-111235892D01*
X169072941Y-111235892D01*
X169254920Y-111160515D01*
X169254933Y-111160508D01*
X169418711Y-111051074D01*
X169418715Y-111051071D01*
X169525319Y-110944468D01*
X169586642Y-110910983D01*
X169656334Y-110915967D01*
X169712267Y-110957839D01*
X169736684Y-111023303D01*
X169737000Y-111032149D01*
X169737000Y-114664757D01*
X169717315Y-114731796D01*
X169664511Y-114777551D01*
X169595353Y-114787495D01*
X169531797Y-114758470D01*
X169525319Y-114752438D01*
X168435062Y-113662181D01*
X168401577Y-113600858D01*
X168406561Y-113531166D01*
X168448433Y-113475233D01*
X168513897Y-113450816D01*
X168522743Y-113450500D01*
X168593617Y-113450500D01*
X168593618Y-113450499D01*
X168777251Y-113413973D01*
X168950231Y-113342322D01*
X169105908Y-113238302D01*
X169238302Y-113105908D01*
X169342322Y-112950231D01*
X169413973Y-112777251D01*
X169450500Y-112593616D01*
X169450500Y-112406384D01*
X169413973Y-112222749D01*
X169342322Y-112049769D01*
X169342321Y-112049768D01*
X169342318Y-112049762D01*
X169238302Y-111894092D01*
X169238299Y-111894088D01*
X169105911Y-111761700D01*
X169105907Y-111761697D01*
X168950237Y-111657681D01*
X168950228Y-111657676D01*
X168777251Y-111586027D01*
X168777243Y-111586025D01*
X168593620Y-111549500D01*
X168593616Y-111549500D01*
X168406384Y-111549500D01*
X168406379Y-111549500D01*
X168222756Y-111586025D01*
X168222748Y-111586027D01*
X168049771Y-111657676D01*
X168049762Y-111657681D01*
X167894092Y-111761697D01*
X167894088Y-111761700D01*
X167761700Y-111894088D01*
X167761697Y-111894092D01*
X167657681Y-112049762D01*
X167657676Y-112049771D01*
X167586027Y-112222748D01*
X167586025Y-112222756D01*
X167549500Y-112406379D01*
X167549500Y-112477257D01*
X167529815Y-112544296D01*
X167477011Y-112590051D01*
X167407853Y-112599995D01*
X167344297Y-112570970D01*
X167337819Y-112564938D01*
X166772483Y-111999602D01*
X166738998Y-111938279D01*
X166743982Y-111868587D01*
X166772483Y-111824240D01*
X166852367Y-111744355D01*
X166852370Y-111744352D01*
X166937239Y-111617337D01*
X166995698Y-111476205D01*
X167025500Y-111326380D01*
X167025500Y-111173620D01*
X166995698Y-111023795D01*
X166943439Y-110897630D01*
X166937240Y-110882665D01*
X166937235Y-110882656D01*
X166871398Y-110784124D01*
X166850520Y-110717446D01*
X166850500Y-110715233D01*
X166850500Y-109814520D01*
X166870185Y-109747481D01*
X166922989Y-109701726D01*
X166992147Y-109691782D01*
X167036498Y-109707132D01*
X167129114Y-109760604D01*
X167275483Y-109799823D01*
X167275485Y-109799823D01*
X167427012Y-109799823D01*
X167427015Y-109799823D01*
X167573384Y-109760604D01*
X167704614Y-109684838D01*
X167811764Y-109577688D01*
X167835646Y-109536322D01*
X167886213Y-109488107D01*
X167943033Y-109474323D01*
X168481249Y-109474323D01*
X168481249Y-109974323D01*
G37*
%TD.AperFunction*%
%TA.AperFunction,Conductor*%
G36*
X143707264Y-112125535D02*
G01*
X143722472Y-112127537D01*
X143786369Y-112155802D01*
X143824841Y-112214126D01*
X143825673Y-112283991D01*
X143788601Y-112343215D01*
X143740080Y-112366076D01*
X142957227Y-113174876D01*
X142896458Y-113209356D01*
X142826694Y-113205509D01*
X142770085Y-113164555D01*
X142745189Y-113104820D01*
X142742126Y-113081552D01*
X142745189Y-113081148D01*
X142745189Y-113048546D01*
X142742126Y-113048143D01*
X142746070Y-113018182D01*
X142758000Y-112927568D01*
X142758000Y-112702128D01*
X142743187Y-112589612D01*
X142743186Y-112589611D01*
X142742126Y-112581553D01*
X142745189Y-112581149D01*
X142745189Y-112548546D01*
X142742126Y-112548143D01*
X142743844Y-112535093D01*
X142758000Y-112427568D01*
X142758000Y-112264348D01*
X142777685Y-112197309D01*
X142830489Y-112151554D01*
X142882000Y-112140348D01*
X143045213Y-112140348D01*
X143045220Y-112140348D01*
X143157736Y-112125535D01*
X143157736Y-112125534D01*
X143165795Y-112124474D01*
X143166198Y-112127537D01*
X143198802Y-112127537D01*
X143199205Y-112124474D01*
X143207263Y-112125534D01*
X143207264Y-112125535D01*
X143319780Y-112140348D01*
X143319787Y-112140348D01*
X143545213Y-112140348D01*
X143545220Y-112140348D01*
X143657736Y-112125535D01*
X143657736Y-112125534D01*
X143665795Y-112124474D01*
X143666198Y-112127537D01*
X143698801Y-112127537D01*
X143699204Y-112124474D01*
X143707264Y-112125535D01*
G37*
%TD.AperFunction*%
%TA.AperFunction,Conductor*%
G36*
X153143200Y-107260832D02*
G01*
X153188955Y-107313636D01*
X153200161Y-107365147D01*
X153200161Y-107617147D01*
X153180476Y-107684186D01*
X153127672Y-107729941D01*
X153076161Y-107741147D01*
X152908866Y-107741147D01*
X152908866Y-108441146D01*
X152957174Y-108441146D01*
X152957188Y-108441145D01*
X153063207Y-108430315D01*
X153063519Y-108433378D01*
X153119675Y-108437483D01*
X153175544Y-108479441D01*
X153199859Y-108544943D01*
X153200161Y-108553597D01*
X153200161Y-111352736D01*
X153180476Y-111419775D01*
X153127672Y-111465530D01*
X153058514Y-111475474D01*
X152994958Y-111446449D01*
X152988480Y-111440417D01*
X152970025Y-111421962D01*
X152970021Y-111421959D01*
X152843013Y-111337094D01*
X152843004Y-111337089D01*
X152701875Y-111278632D01*
X152701867Y-111278630D01*
X152552054Y-111248830D01*
X152552050Y-111248830D01*
X152411920Y-111248830D01*
X152349041Y-111231705D01*
X152348419Y-111231339D01*
X152264904Y-111180852D01*
X152260021Y-111179330D01*
X152249311Y-111173029D01*
X152229849Y-111152279D01*
X152208244Y-111133765D01*
X152206254Y-111127122D01*
X152201512Y-111122067D01*
X152196356Y-111094087D01*
X152188192Y-111066834D01*
X152189599Y-111057411D01*
X152188852Y-111053354D01*
X152190982Y-111048156D01*
X152193804Y-111029269D01*
X152219086Y-110948135D01*
X152225500Y-110877555D01*
X152225500Y-110214323D01*
X152219086Y-110143743D01*
X152168478Y-109981333D01*
X152080472Y-109835754D01*
X152080470Y-109835752D01*
X152080469Y-109835750D01*
X151960188Y-109715469D01*
X151937454Y-109701726D01*
X151814606Y-109627461D01*
X151652196Y-109576853D01*
X151652194Y-109576852D01*
X151652192Y-109576852D01*
X151602778Y-109572362D01*
X151581616Y-109570439D01*
X151581613Y-109570439D01*
X151207366Y-109570439D01*
X151140327Y-109550754D01*
X151094572Y-109497950D01*
X151083366Y-109446439D01*
X151083366Y-108441146D01*
X151408866Y-108441146D01*
X151457174Y-108441146D01*
X151457188Y-108441145D01*
X151556473Y-108431002D01*
X151717347Y-108377694D01*
X151717354Y-108377691D01*
X151843768Y-108299717D01*
X151911161Y-108281276D01*
X151973964Y-108299717D01*
X152100377Y-108377691D01*
X152100384Y-108377694D01*
X152261259Y-108431002D01*
X152360549Y-108441146D01*
X152408865Y-108441145D01*
X152408866Y-108441145D01*
X152408866Y-107741147D01*
X151408866Y-107741147D01*
X151408866Y-108441146D01*
X151083366Y-108441146D01*
X151083366Y-107615147D01*
X151103051Y-107548108D01*
X151124555Y-107529474D01*
X151122547Y-107527466D01*
X151158866Y-107491147D01*
X151158866Y-107365147D01*
X151178551Y-107298108D01*
X151231355Y-107252353D01*
X151282866Y-107241147D01*
X153076161Y-107241147D01*
X153143200Y-107260832D01*
G37*
%TD.AperFunction*%
%TA.AperFunction,Conductor*%
G36*
X169679877Y-102741945D02*
G01*
X169725714Y-102794677D01*
X169737000Y-102846364D01*
X169737000Y-104386497D01*
X169717315Y-104453536D01*
X169664511Y-104499291D01*
X169595353Y-104509235D01*
X169531797Y-104480210D01*
X169525319Y-104474178D01*
X169418715Y-104367574D01*
X169418711Y-104367571D01*
X169254933Y-104258137D01*
X169254920Y-104258130D01*
X169072940Y-104182752D01*
X169072932Y-104182750D01*
X169031249Y-104174458D01*
X169031249Y-104977334D01*
X169021309Y-104960118D01*
X168965454Y-104904263D01*
X168897045Y-104864767D01*
X168820745Y-104844323D01*
X168741753Y-104844323D01*
X168665453Y-104864767D01*
X168597044Y-104904263D01*
X168541189Y-104960118D01*
X168531249Y-104977334D01*
X168531249Y-104174459D01*
X168531248Y-104174458D01*
X168489565Y-104182750D01*
X168489557Y-104182752D01*
X168307577Y-104258130D01*
X168307564Y-104258137D01*
X168143786Y-104367571D01*
X168143782Y-104367574D01*
X168004500Y-104506856D01*
X168004497Y-104506860D01*
X167895063Y-104670638D01*
X167895056Y-104670651D01*
X167819679Y-104852629D01*
X167819676Y-104852641D01*
X167781249Y-105045827D01*
X167781249Y-105294323D01*
X168481249Y-105294323D01*
X168481249Y-105794323D01*
X167781248Y-105794323D01*
X167781041Y-105794530D01*
X167719717Y-105828015D01*
X167650026Y-105823029D01*
X167594093Y-105781157D01*
X167587242Y-105770995D01*
X167580070Y-105759131D01*
X167459877Y-105638938D01*
X167314395Y-105550991D01*
X167314396Y-105550991D01*
X167152105Y-105500420D01*
X167152106Y-105500420D01*
X167081572Y-105494011D01*
X167000000Y-105494011D01*
X167000000Y-106270011D01*
X166980315Y-106337050D01*
X166927511Y-106382805D01*
X166876000Y-106394011D01*
X166624000Y-106394011D01*
X166556961Y-106374326D01*
X166511206Y-106321522D01*
X166500000Y-106270011D01*
X166500000Y-105494011D01*
X166499999Y-105494010D01*
X166418417Y-105494011D01*
X166347897Y-105500419D01*
X166347885Y-105500421D01*
X166343910Y-105501660D01*
X166274049Y-105502806D01*
X166214660Y-105466000D01*
X166205241Y-105446240D01*
X166183029Y-105424028D01*
X165495529Y-105424028D01*
X165495529Y-105614011D01*
X165513681Y-105632163D01*
X165547166Y-105693486D01*
X165550000Y-105719844D01*
X165550000Y-107169958D01*
X165553464Y-107176302D01*
X165556298Y-107202660D01*
X165556298Y-109224999D01*
X165569100Y-109237801D01*
X165592539Y-109244684D01*
X165638294Y-109297488D01*
X165649500Y-109348999D01*
X165649500Y-110349598D01*
X165629815Y-110416637D01*
X165577011Y-110462392D01*
X165525500Y-110473598D01*
X165446040Y-110473598D01*
X165296227Y-110503398D01*
X165296219Y-110503400D01*
X165155090Y-110561857D01*
X165155081Y-110561862D01*
X165028073Y-110646727D01*
X165028069Y-110646730D01*
X164920054Y-110754745D01*
X164860156Y-110844391D01*
X164806544Y-110889196D01*
X164757054Y-110899500D01*
X164284766Y-110899500D01*
X164217727Y-110879815D01*
X164215875Y-110878602D01*
X164117343Y-110812764D01*
X164117334Y-110812759D01*
X163976205Y-110754302D01*
X163976199Y-110754300D01*
X163859968Y-110731180D01*
X163798057Y-110698795D01*
X163796479Y-110697244D01*
X163712913Y-110613678D01*
X163712911Y-110613675D01*
X163594040Y-110494804D01*
X163594039Y-110494803D01*
X163491175Y-110435415D01*
X163491174Y-110435414D01*
X163457106Y-110415745D01*
X163401204Y-110400766D01*
X163304380Y-110374822D01*
X163146266Y-110374822D01*
X163138670Y-110374822D01*
X163138654Y-110374823D01*
X161265249Y-110374823D01*
X161198210Y-110355138D01*
X161152455Y-110302334D01*
X161141249Y-110250823D01*
X161141249Y-109974323D01*
X160441249Y-109974323D01*
X160441249Y-109474323D01*
X160979465Y-109474323D01*
X161046504Y-109494008D01*
X161086851Y-109536322D01*
X161110734Y-109577688D01*
X161217884Y-109684838D01*
X161349114Y-109760604D01*
X161495483Y-109799823D01*
X161495485Y-109799823D01*
X161647013Y-109799823D01*
X161647015Y-109799823D01*
X161793384Y-109760604D01*
X161868319Y-109717339D01*
X161936218Y-109700867D01*
X162002245Y-109723719D01*
X162018000Y-109737046D01*
X162105644Y-109824690D01*
X162105648Y-109824693D01*
X162232656Y-109909558D01*
X162232662Y-109909561D01*
X162232663Y-109909562D01*
X162373795Y-109968021D01*
X162523615Y-109997822D01*
X162523619Y-109997823D01*
X162523620Y-109997823D01*
X162676381Y-109997823D01*
X162676382Y-109997822D01*
X162826205Y-109968021D01*
X162967337Y-109909562D01*
X163094352Y-109824693D01*
X163202370Y-109716675D01*
X163287239Y-109589660D01*
X163345698Y-109448528D01*
X163365647Y-109348230D01*
X163398031Y-109286323D01*
X163399527Y-109284799D01*
X163422510Y-109261816D01*
X163483831Y-109228333D01*
X163510180Y-109225499D01*
X164029642Y-109225499D01*
X164029650Y-109225498D01*
X164029653Y-109225498D01*
X164084058Y-109219940D01*
X164129006Y-109215349D01*
X164289995Y-109162003D01*
X164434342Y-109072968D01*
X164443966Y-109063343D01*
X164505285Y-109029856D01*
X164574977Y-109034835D01*
X164619332Y-109063339D01*
X164628565Y-109072572D01*
X164628569Y-109072575D01*
X164772805Y-109161542D01*
X164772816Y-109161547D01*
X164933691Y-109214855D01*
X165032981Y-109224999D01*
X165056298Y-109224998D01*
X165056298Y-107799052D01*
X165052834Y-107792709D01*
X165050000Y-107766351D01*
X165050000Y-106279028D01*
X165031848Y-106260876D01*
X164998363Y-106199553D01*
X164995529Y-106173195D01*
X164995529Y-104924028D01*
X165495529Y-104924028D01*
X166183028Y-104924028D01*
X166183028Y-104869892D01*
X166183027Y-104869875D01*
X166172972Y-104771444D01*
X166120122Y-104611955D01*
X166120120Y-104611950D01*
X166031914Y-104468947D01*
X165913109Y-104350142D01*
X165770106Y-104261936D01*
X165770101Y-104261934D01*
X165610612Y-104209085D01*
X165512179Y-104199028D01*
X165495529Y-104199028D01*
X165495529Y-104924028D01*
X164995529Y-104924028D01*
X164995529Y-104199027D01*
X164978885Y-104199028D01*
X164880444Y-104209085D01*
X164720956Y-104261934D01*
X164720951Y-104261936D01*
X164577948Y-104350142D01*
X164546062Y-104382028D01*
X164484738Y-104415513D01*
X164415047Y-104410527D01*
X164370702Y-104382028D01*
X164338421Y-104349747D01*
X164338416Y-104349744D01*
X164195324Y-104261483D01*
X164195318Y-104261480D01*
X164195316Y-104261479D01*
X164035714Y-104208592D01*
X164035712Y-104208591D01*
X163937210Y-104198528D01*
X163937203Y-104198528D01*
X163403855Y-104198528D01*
X163403847Y-104198528D01*
X163305345Y-104208591D01*
X163305344Y-104208592D01*
X163171312Y-104253006D01*
X163101483Y-104255408D01*
X163044628Y-104222982D01*
X162960185Y-104138539D01*
X162814606Y-104050533D01*
X162652196Y-103999925D01*
X162652194Y-103999924D01*
X162652192Y-103999924D01*
X162602778Y-103995434D01*
X162581616Y-103993511D01*
X161918384Y-103993511D01*
X161918383Y-103993511D01*
X161906881Y-103994556D01*
X161838336Y-103981018D01*
X161807981Y-103958746D01*
X160901324Y-103052089D01*
X160894255Y-103045020D01*
X160894254Y-103045018D01*
X160796836Y-102947600D01*
X160763354Y-102886280D01*
X160768338Y-102816588D01*
X160810210Y-102760655D01*
X160875674Y-102736238D01*
X160884306Y-102735922D01*
X169612810Y-102722364D01*
X169679877Y-102741945D01*
G37*
%TD.AperFunction*%
%TA.AperFunction,Conductor*%
G36*
X148051039Y-108403351D02*
G01*
X148096794Y-108456155D01*
X148108000Y-108507666D01*
X148108000Y-108970579D01*
X148088315Y-109037618D01*
X148035511Y-109083373D01*
X147966353Y-109093317D01*
X147915109Y-109073681D01*
X147871904Y-109044812D01*
X147871895Y-109044807D01*
X147730766Y-108986350D01*
X147730758Y-108986348D01*
X147580945Y-108956548D01*
X147580941Y-108956548D01*
X147428181Y-108956548D01*
X147428176Y-108956548D01*
X147278363Y-108986348D01*
X147278355Y-108986350D01*
X147137226Y-109044807D01*
X147137217Y-109044812D01*
X147071417Y-109088779D01*
X147004739Y-109109657D01*
X146937359Y-109091172D01*
X146890669Y-109039193D01*
X146878526Y-108985677D01*
X146878526Y-108814285D01*
X146898211Y-108747246D01*
X146951015Y-108701491D01*
X147002526Y-108690285D01*
X147828525Y-108690285D01*
X147828525Y-108641977D01*
X147828524Y-108641962D01*
X147818381Y-108542673D01*
X147816965Y-108536056D01*
X147819320Y-108535551D01*
X147817306Y-108476832D01*
X147853042Y-108416793D01*
X147915565Y-108385606D01*
X147937411Y-108383666D01*
X147984000Y-108383666D01*
X148051039Y-108403351D01*
G37*
%TD.AperFunction*%
%TA.AperFunction,Conductor*%
G36*
X169031249Y-106914185D02*
G01*
X169072939Y-106905892D01*
X169072941Y-106905892D01*
X169254920Y-106830515D01*
X169254933Y-106830508D01*
X169418711Y-106721074D01*
X169418715Y-106721071D01*
X169525319Y-106614468D01*
X169586642Y-106580983D01*
X169656334Y-106585967D01*
X169712267Y-106627839D01*
X169736684Y-106693303D01*
X169737000Y-106702149D01*
X169737000Y-108416497D01*
X169717315Y-108483536D01*
X169664511Y-108529291D01*
X169595353Y-108539235D01*
X169531797Y-108510210D01*
X169525319Y-108504178D01*
X169418715Y-108397574D01*
X169418711Y-108397571D01*
X169254933Y-108288137D01*
X169254920Y-108288130D01*
X169072940Y-108212752D01*
X169072932Y-108212750D01*
X169031249Y-108204458D01*
X169031249Y-109007334D01*
X169021309Y-108990118D01*
X168965454Y-108934263D01*
X168897045Y-108894767D01*
X168820745Y-108874323D01*
X168741753Y-108874323D01*
X168665453Y-108894767D01*
X168597044Y-108934263D01*
X168541189Y-108990118D01*
X168531249Y-109007334D01*
X168531249Y-108204459D01*
X168531248Y-108204458D01*
X168489565Y-108212750D01*
X168489557Y-108212752D01*
X168307577Y-108288130D01*
X168307564Y-108288137D01*
X168143786Y-108397571D01*
X168143782Y-108397574D01*
X168004500Y-108536856D01*
X168004497Y-108536860D01*
X167895063Y-108700638D01*
X167895058Y-108700647D01*
X167891115Y-108710168D01*
X167872845Y-108732838D01*
X167871124Y-108737137D01*
X167867032Y-108740050D01*
X167847272Y-108764570D01*
X167819723Y-108773738D01*
X167814209Y-108777665D01*
X167806874Y-108778014D01*
X167780977Y-108786633D01*
X167756597Y-108780409D01*
X167744419Y-108780990D01*
X167718992Y-108770810D01*
X167713279Y-108769352D01*
X167713107Y-108769250D01*
X167705563Y-108764757D01*
X167704614Y-108763808D01*
X167683505Y-108751621D01*
X167682797Y-108751199D01*
X167659577Y-108726177D01*
X167636029Y-108701481D01*
X167635863Y-108700623D01*
X167635270Y-108699984D01*
X167629266Y-108666393D01*
X167622806Y-108632874D01*
X167623110Y-108631952D01*
X167622977Y-108631204D01*
X167624837Y-108626733D01*
X167640126Y-108580515D01*
X167668478Y-108533617D01*
X167719086Y-108371207D01*
X167725500Y-108300627D01*
X167725500Y-107787395D01*
X167719086Y-107716815D01*
X167668478Y-107554405D01*
X167580472Y-107408826D01*
X167580470Y-107408824D01*
X167580469Y-107408822D01*
X167477984Y-107306337D01*
X167444499Y-107245014D01*
X167449483Y-107175322D01*
X167477985Y-107130974D01*
X167580071Y-107028889D01*
X167580072Y-107028888D01*
X167668019Y-106883406D01*
X167718590Y-106721117D01*
X167724999Y-106650583D01*
X167724999Y-106572263D01*
X167744683Y-106505223D01*
X167797486Y-106459467D01*
X167866645Y-106449523D01*
X167930201Y-106478547D01*
X167952101Y-106503370D01*
X168004497Y-106581785D01*
X168004500Y-106581789D01*
X168143782Y-106721071D01*
X168143786Y-106721074D01*
X168307564Y-106830508D01*
X168307577Y-106830515D01*
X168489557Y-106905892D01*
X168531249Y-106914185D01*
X168531249Y-106111311D01*
X168541189Y-106128528D01*
X168597044Y-106184383D01*
X168665453Y-106223879D01*
X168741753Y-106244323D01*
X168820745Y-106244323D01*
X168897045Y-106223879D01*
X168965454Y-106184383D01*
X169021309Y-106128528D01*
X169031249Y-106111311D01*
X169031249Y-106914185D01*
G37*
%TD.AperFunction*%
%TA.AperFunction,Conductor*%
G36*
X159318428Y-107909471D02*
G01*
X159332441Y-107909722D01*
X159361195Y-107922960D01*
X159362754Y-107923936D01*
X159382663Y-107937239D01*
X159523795Y-107995698D01*
X159577543Y-108006389D01*
X159640030Y-108018819D01*
X159701941Y-108051204D01*
X159703520Y-108052755D01*
X159728204Y-108077439D01*
X159761689Y-108138762D01*
X159756705Y-108208454D01*
X159714833Y-108264387D01*
X159687979Y-108279680D01*
X159667572Y-108288133D01*
X159503789Y-108397569D01*
X159503784Y-108397573D01*
X159462976Y-108438381D01*
X159401653Y-108471866D01*
X159331961Y-108466880D01*
X159287615Y-108438380D01*
X159110267Y-108261032D01*
X159076782Y-108199709D01*
X159081766Y-108130017D01*
X159099267Y-108099605D01*
X159098986Y-108099417D01*
X159101795Y-108095212D01*
X159102107Y-108094671D01*
X159102358Y-108094363D01*
X159102370Y-108094352D01*
X159168289Y-107995698D01*
X159190624Y-107962272D01*
X159192200Y-107963325D01*
X159196612Y-107958832D01*
X159203139Y-107945192D01*
X159220592Y-107934410D01*
X159234970Y-107919769D01*
X159249718Y-107916420D01*
X159262582Y-107908474D01*
X159283096Y-107908840D01*
X159303105Y-107904297D01*
X159318428Y-107909471D01*
G37*
%TD.AperFunction*%
%TA.AperFunction,Conductor*%
G36*
X143208229Y-103556910D02*
G01*
X143214707Y-103562942D01*
X143612012Y-103960247D01*
X143645497Y-104021570D01*
X143640513Y-104091262D01*
X143612012Y-104135609D01*
X143578526Y-104169095D01*
X143578526Y-107045095D01*
X143558841Y-107112134D01*
X143506037Y-107157889D01*
X143454526Y-107169095D01*
X143202526Y-107169095D01*
X143135487Y-107149410D01*
X143089732Y-107096606D01*
X143078526Y-107045095D01*
X143078526Y-104169095D01*
X143042207Y-104132776D01*
X143044010Y-104130972D01*
X143014232Y-104096606D01*
X143003026Y-104045095D01*
X143003026Y-103650623D01*
X143022711Y-103583584D01*
X143075515Y-103537829D01*
X143144673Y-103527885D01*
X143208229Y-103556910D01*
G37*
%TD.AperFunction*%
%TA.AperFunction,Conductor*%
G36*
X151249500Y-102500067D02*
G01*
X151249500Y-102549837D01*
X151249575Y-102550212D01*
X151268582Y-102595898D01*
X151268654Y-102596073D01*
X151287636Y-102641898D01*
X151287777Y-102642109D01*
X151287851Y-102642221D01*
X151287856Y-102642226D01*
X151287857Y-102642227D01*
X151322983Y-102677244D01*
X151323119Y-102677380D01*
X151358104Y-102712365D01*
X151358432Y-102712583D01*
X151358433Y-102712584D01*
X151404272Y-102731487D01*
X151450172Y-102750500D01*
X151450374Y-102750500D01*
X151450561Y-102750577D01*
X151450573Y-102750576D01*
X151450574Y-102750577D01*
X151500132Y-102750500D01*
X151561438Y-102750500D01*
X151562402Y-102750402D01*
X156734767Y-102742368D01*
X156801835Y-102761949D01*
X156847672Y-102814681D01*
X156858958Y-102866368D01*
X156858958Y-104061604D01*
X156858959Y-104061610D01*
X156865366Y-104121217D01*
X156915660Y-104256062D01*
X156915664Y-104256069D01*
X157001910Y-104371278D01*
X157001913Y-104371281D01*
X157117122Y-104457527D01*
X157117129Y-104457531D01*
X157251975Y-104507825D01*
X157251974Y-104507825D01*
X157258902Y-104508569D01*
X157311585Y-104514234D01*
X158607330Y-104514233D01*
X158666941Y-104507825D01*
X158801789Y-104457530D01*
X158917004Y-104371280D01*
X159003254Y-104256065D01*
X159053549Y-104121217D01*
X159053549Y-104121215D01*
X159055332Y-104113672D01*
X159057604Y-104114208D01*
X159079887Y-104060422D01*
X159137281Y-104020577D01*
X159176434Y-104014234D01*
X159633007Y-104014234D01*
X159700046Y-104033919D01*
X159745801Y-104086723D01*
X159755745Y-104155881D01*
X159726720Y-104219437D01*
X159680460Y-104252795D01*
X159667573Y-104258132D01*
X159667564Y-104258137D01*
X159503786Y-104367571D01*
X159503782Y-104367574D01*
X159364500Y-104506856D01*
X159364497Y-104506860D01*
X159255063Y-104670638D01*
X159255056Y-104670651D01*
X159179679Y-104852629D01*
X159179676Y-104852641D01*
X159141249Y-105045827D01*
X159141249Y-105183184D01*
X159121564Y-105250223D01*
X159068760Y-105295978D01*
X158999602Y-105305922D01*
X158936046Y-105276897D01*
X158917984Y-105257497D01*
X158917004Y-105256188D01*
X158917002Y-105256186D01*
X158801793Y-105169940D01*
X158801786Y-105169936D01*
X158666940Y-105119642D01*
X158666941Y-105119642D01*
X158607341Y-105113235D01*
X158607339Y-105113234D01*
X158607331Y-105113234D01*
X158607322Y-105113234D01*
X157311587Y-105113234D01*
X157311581Y-105113235D01*
X157251974Y-105119642D01*
X157117129Y-105169936D01*
X157117122Y-105169940D01*
X157001913Y-105256186D01*
X157001910Y-105256189D01*
X156915664Y-105371398D01*
X156915660Y-105371405D01*
X156865366Y-105506251D01*
X156858959Y-105565850D01*
X156858958Y-105565869D01*
X156858958Y-106541397D01*
X156839273Y-106608436D01*
X156786469Y-106654191D01*
X156719591Y-106664441D01*
X156715137Y-106663884D01*
X156623666Y-106645690D01*
X156569449Y-106645690D01*
X156561794Y-106644734D01*
X156536539Y-106633762D01*
X156510122Y-106626005D01*
X156504952Y-106620039D01*
X156497711Y-106616893D01*
X156482396Y-106594008D01*
X156464367Y-106573201D01*
X156462389Y-106564110D01*
X156458853Y-106558826D01*
X156458630Y-106546830D01*
X156453161Y-106521690D01*
X156453161Y-105537146D01*
X156472846Y-105470107D01*
X156484080Y-105456166D01*
X156484068Y-105456157D01*
X156488694Y-105450251D01*
X156488697Y-105450248D01*
X156576703Y-105304669D01*
X156627311Y-105142259D01*
X156633725Y-105071679D01*
X156633725Y-104408447D01*
X156627311Y-104337867D01*
X156576703Y-104175457D01*
X156488697Y-104029878D01*
X156488695Y-104029876D01*
X156488694Y-104029874D01*
X156368413Y-103909593D01*
X156222831Y-103821585D01*
X156207924Y-103816940D01*
X156060421Y-103770977D01*
X156060419Y-103770976D01*
X156060417Y-103770976D01*
X156011003Y-103766486D01*
X155989841Y-103764563D01*
X155476609Y-103764563D01*
X155457370Y-103766311D01*
X155406032Y-103770976D01*
X155406029Y-103770977D01*
X155243619Y-103821585D01*
X155243617Y-103821585D01*
X155243614Y-103821587D01*
X155236780Y-103824663D01*
X155236052Y-103823046D01*
X155177633Y-103838465D01*
X155111161Y-103816940D01*
X155093369Y-103802193D01*
X154718288Y-103427113D01*
X154718286Y-103427110D01*
X154599415Y-103308239D01*
X154599414Y-103308238D01*
X154512602Y-103258118D01*
X154512602Y-103258117D01*
X154512598Y-103258116D01*
X154462483Y-103229181D01*
X154309755Y-103188257D01*
X154151641Y-103188257D01*
X154144045Y-103188257D01*
X154144029Y-103188258D01*
X151713898Y-103188258D01*
X151672977Y-103199222D01*
X151672977Y-103199223D01*
X151635709Y-103209209D01*
X151561172Y-103229181D01*
X151561167Y-103229184D01*
X151424248Y-103308233D01*
X151424240Y-103308239D01*
X151312438Y-103420042D01*
X151312436Y-103420044D01*
X151290137Y-103442342D01*
X151279539Y-103452941D01*
X151218215Y-103486425D01*
X151218210Y-103486424D01*
X151191859Y-103489258D01*
X150860342Y-103489258D01*
X150841103Y-103491006D01*
X150789765Y-103495671D01*
X150627349Y-103546281D01*
X150491947Y-103628134D01*
X150424393Y-103645970D01*
X150363649Y-103628134D01*
X150247106Y-103557681D01*
X150084696Y-103507073D01*
X150084694Y-103507072D01*
X150084692Y-103507072D01*
X150035278Y-103502582D01*
X150014116Y-103500659D01*
X149500884Y-103500659D01*
X149481645Y-103502407D01*
X149430307Y-103507072D01*
X149267893Y-103557681D01*
X149179887Y-103610883D01*
X149122315Y-103645687D01*
X149122314Y-103645688D01*
X149122310Y-103645690D01*
X149020181Y-103747820D01*
X148958858Y-103781305D01*
X148889166Y-103776321D01*
X148844819Y-103747820D01*
X148742689Y-103645690D01*
X148742686Y-103645688D01*
X148742685Y-103645687D01*
X148597106Y-103557681D01*
X148434696Y-103507073D01*
X148434694Y-103507072D01*
X148434692Y-103507072D01*
X148385278Y-103502582D01*
X148364116Y-103500659D01*
X147850884Y-103500659D01*
X147831645Y-103502407D01*
X147780307Y-103507072D01*
X147617893Y-103557681D01*
X147529887Y-103610883D01*
X147472315Y-103645687D01*
X147472314Y-103645688D01*
X147472310Y-103645690D01*
X147352030Y-103765970D01*
X147264022Y-103911552D01*
X147213412Y-104073969D01*
X147212632Y-104077894D01*
X147211538Y-104079983D01*
X147211463Y-104080227D01*
X147211418Y-104080213D01*
X147180243Y-104139803D01*
X147119525Y-104174373D01*
X147066831Y-104175314D01*
X147063464Y-104174644D01*
X147063459Y-104174643D01*
X146996907Y-104168595D01*
X146996904Y-104168595D01*
X145760137Y-104168595D01*
X145693599Y-104174641D01*
X145693592Y-104174643D01*
X145540459Y-104222360D01*
X145540455Y-104222362D01*
X145403196Y-104305337D01*
X145403191Y-104305341D01*
X145313181Y-104395352D01*
X145251858Y-104428837D01*
X145182166Y-104423853D01*
X145126233Y-104381981D01*
X145101816Y-104316517D01*
X145101500Y-104307671D01*
X145101500Y-103920945D01*
X145101499Y-103920941D01*
X145098983Y-103911552D01*
X145087265Y-103867816D01*
X145060577Y-103768215D01*
X144989835Y-103645687D01*
X144981520Y-103631284D01*
X144869716Y-103519480D01*
X144869713Y-103519478D01*
X144062416Y-102712181D01*
X144028931Y-102650858D01*
X144033915Y-102581166D01*
X144075787Y-102525233D01*
X144141251Y-102500816D01*
X144150097Y-102500500D01*
X150799826Y-102500500D01*
X150799828Y-102500500D01*
X150801035Y-102500000D01*
X151249500Y-102500000D01*
X151249500Y-102500067D01*
G37*
%TD.AperFunction*%
%TD*%
M02*
