%TF.GenerationSoftware,KiCad,Pcbnew,9.99.0-4037-gdf8ecb877a*%
%TF.CreationDate,2025-11-08T20:25:16-05:00*%
%TF.ProjectId,horizon-mini,686f7269-7a6f-46e2-9d6d-696e692e6b69,rev?*%
%TF.SameCoordinates,Original*%
%TF.FileFunction,Legend,Top*%
%TF.FilePolarity,Positive*%
%FSLAX46Y46*%
G04 Gerber Fmt 4.6, Leading zero omitted, Abs format (unit mm)*
G04 Created by KiCad (PCBNEW 9.99.0-4037-gdf8ecb877a) date 2025-11-08 20:25:16*
%MOMM*%
%LPD*%
G01*
G04 APERTURE LIST*
%ADD10C,0.150000*%
%ADD11C,0.120000*%
%ADD12C,0.508000*%
G04 APERTURE END LIST*
D10*
X148289642Y-106360978D02*
X147956309Y-105884787D01*
X147718214Y-106360978D02*
X147718214Y-105360978D01*
X147718214Y-105360978D02*
X148099166Y-105360978D01*
X148099166Y-105360978D02*
X148194404Y-105408597D01*
X148194404Y-105408597D02*
X148242023Y-105456216D01*
X148242023Y-105456216D02*
X148289642Y-105551454D01*
X148289642Y-105551454D02*
X148289642Y-105694311D01*
X148289642Y-105694311D02*
X148242023Y-105789549D01*
X148242023Y-105789549D02*
X148194404Y-105837168D01*
X148194404Y-105837168D02*
X148099166Y-105884787D01*
X148099166Y-105884787D02*
X147718214Y-105884787D01*
X149242023Y-106360978D02*
X148670595Y-106360978D01*
X148956309Y-106360978D02*
X148956309Y-105360978D01*
X148956309Y-105360978D02*
X148861071Y-105503835D01*
X148861071Y-105503835D02*
X148765833Y-105599073D01*
X148765833Y-105599073D02*
X148670595Y-105646692D01*
X149575357Y-105360978D02*
X150194404Y-105360978D01*
X150194404Y-105360978D02*
X149861071Y-105741930D01*
X149861071Y-105741930D02*
X150003928Y-105741930D01*
X150003928Y-105741930D02*
X150099166Y-105789549D01*
X150099166Y-105789549D02*
X150146785Y-105837168D01*
X150146785Y-105837168D02*
X150194404Y-105932406D01*
X150194404Y-105932406D02*
X150194404Y-106170501D01*
X150194404Y-106170501D02*
X150146785Y-106265739D01*
X150146785Y-106265739D02*
X150099166Y-106313359D01*
X150099166Y-106313359D02*
X150003928Y-106360978D01*
X150003928Y-106360978D02*
X149718214Y-106360978D01*
X149718214Y-106360978D02*
X149622976Y-106313359D01*
X149622976Y-106313359D02*
X149575357Y-106265739D01*
X148262112Y-107820099D02*
X147928779Y-107343908D01*
X147690684Y-107820099D02*
X147690684Y-106820099D01*
X147690684Y-106820099D02*
X148071636Y-106820099D01*
X148071636Y-106820099D02*
X148166874Y-106867718D01*
X148166874Y-106867718D02*
X148214493Y-106915337D01*
X148214493Y-106915337D02*
X148262112Y-107010575D01*
X148262112Y-107010575D02*
X148262112Y-107153432D01*
X148262112Y-107153432D02*
X148214493Y-107248670D01*
X148214493Y-107248670D02*
X148166874Y-107296289D01*
X148166874Y-107296289D02*
X148071636Y-107343908D01*
X148071636Y-107343908D02*
X147690684Y-107343908D01*
X149214493Y-107820099D02*
X148643065Y-107820099D01*
X148928779Y-107820099D02*
X148928779Y-106820099D01*
X148928779Y-106820099D02*
X148833541Y-106962956D01*
X148833541Y-106962956D02*
X148738303Y-107058194D01*
X148738303Y-107058194D02*
X148643065Y-107105813D01*
X149785922Y-107248670D02*
X149690684Y-107201051D01*
X149690684Y-107201051D02*
X149643065Y-107153432D01*
X149643065Y-107153432D02*
X149595446Y-107058194D01*
X149595446Y-107058194D02*
X149595446Y-107010575D01*
X149595446Y-107010575D02*
X149643065Y-106915337D01*
X149643065Y-106915337D02*
X149690684Y-106867718D01*
X149690684Y-106867718D02*
X149785922Y-106820099D01*
X149785922Y-106820099D02*
X149976398Y-106820099D01*
X149976398Y-106820099D02*
X150071636Y-106867718D01*
X150071636Y-106867718D02*
X150119255Y-106915337D01*
X150119255Y-106915337D02*
X150166874Y-107010575D01*
X150166874Y-107010575D02*
X150166874Y-107058194D01*
X150166874Y-107058194D02*
X150119255Y-107153432D01*
X150119255Y-107153432D02*
X150071636Y-107201051D01*
X150071636Y-107201051D02*
X149976398Y-107248670D01*
X149976398Y-107248670D02*
X149785922Y-107248670D01*
X149785922Y-107248670D02*
X149690684Y-107296289D01*
X149690684Y-107296289D02*
X149643065Y-107343908D01*
X149643065Y-107343908D02*
X149595446Y-107439146D01*
X149595446Y-107439146D02*
X149595446Y-107629622D01*
X149595446Y-107629622D02*
X149643065Y-107724860D01*
X149643065Y-107724860D02*
X149690684Y-107772480D01*
X149690684Y-107772480D02*
X149785922Y-107820099D01*
X149785922Y-107820099D02*
X149976398Y-107820099D01*
X149976398Y-107820099D02*
X150071636Y-107772480D01*
X150071636Y-107772480D02*
X150119255Y-107724860D01*
X150119255Y-107724860D02*
X150166874Y-107629622D01*
X150166874Y-107629622D02*
X150166874Y-107439146D01*
X150166874Y-107439146D02*
X150119255Y-107343908D01*
X150119255Y-107343908D02*
X150071636Y-107296289D01*
X150071636Y-107296289D02*
X149976398Y-107248670D01*
%TO.C,R25*%
D11*
X152179216Y-103942258D02*
X151704700Y-103942258D01*
X152179216Y-104987258D02*
X151704700Y-104987258D01*
%TO.C,R13*%
X149169758Y-103953659D02*
X148695242Y-103953659D01*
X149169758Y-104998659D02*
X148695242Y-104998659D01*
%TO.C,Q10*%
X163250000Y-115940000D02*
X162600000Y-115940000D01*
X163250000Y-115940000D02*
X163900000Y-115940000D01*
X163250000Y-119060000D02*
X162600000Y-119060000D01*
X163250000Y-119060000D02*
X163900000Y-119060000D01*
X162087500Y-115990000D02*
X161847500Y-115660000D01*
X162327500Y-115660000D01*
X162087500Y-115990000D01*
G36*
X162087500Y-115990000D02*
G01*
X161847500Y-115660000D01*
X162327500Y-115660000D01*
X162087500Y-115990000D01*
G37*
%TO.C,R19*%
X149169758Y-106885666D02*
X148695242Y-106885666D01*
X149169758Y-107930666D02*
X148695242Y-107930666D01*
%TO.C,R24*%
X151177798Y-113086588D02*
X151177798Y-112612072D01*
X152222798Y-113086588D02*
X152222798Y-112612072D01*
%TO.C,C47*%
X156547811Y-111194907D02*
X156266651Y-111194907D01*
X156547811Y-112214907D02*
X156266651Y-112214907D01*
%TO.C,R20*%
X151160000Y-115577590D02*
X151160000Y-116052106D01*
X152205000Y-115577590D02*
X152205000Y-116052106D01*
%TO.C,D10*%
X165847458Y-119605960D02*
X162187458Y-119605960D01*
X165847458Y-121505960D02*
X162187458Y-121505960D01*
X165847458Y-121505960D02*
X165847458Y-119605960D01*
%TO.C,D11*%
X154939512Y-108009294D02*
X154939512Y-109479294D01*
X154939512Y-109479294D02*
X157224512Y-109479294D01*
X157224512Y-108009294D02*
X154939512Y-108009294D01*
%TO.C,U5*%
X142072500Y-111454848D02*
X142072500Y-111904848D01*
X142072500Y-118674848D02*
X142072500Y-118224848D01*
X142522500Y-111454848D02*
X142072500Y-111454848D01*
X142522500Y-118674848D02*
X142072500Y-118674848D01*
X148842500Y-111454848D02*
X149292500Y-111454848D01*
X148842500Y-118674848D02*
X149292500Y-118674848D01*
X149292500Y-111454848D02*
X149292500Y-111904848D01*
X149292500Y-118674848D02*
X149292500Y-118224848D01*
X141482500Y-111904848D02*
X141142500Y-111434848D01*
X141822500Y-111434848D01*
X141482500Y-111904848D01*
G36*
X141482500Y-111904848D02*
G01*
X141142500Y-111434848D01*
X141822500Y-111434848D01*
X141482500Y-111904848D01*
G37*
%TO.C,R28*%
X154643442Y-119014207D02*
X155117958Y-119014207D01*
X154643442Y-120059207D02*
X155117958Y-120059207D01*
%TO.C,J8*%
X142790000Y-95330000D02*
X150630000Y-95330000D01*
X142790000Y-97980000D02*
X142790000Y-95330000D01*
X142790000Y-100630000D02*
X142790000Y-99250000D01*
X144170000Y-100630000D02*
X142790000Y-100630000D01*
X145440000Y-97980000D02*
X142790000Y-97980000D01*
X145440000Y-100630000D02*
X145440000Y-97980000D01*
X145440000Y-100630000D02*
X150630000Y-100630000D01*
X150630000Y-100630000D02*
X150630000Y-95330000D01*
%TO.C,C17*%
X161998162Y-127616260D02*
X161998162Y-127335100D01*
X163018162Y-127616260D02*
X163018162Y-127335100D01*
%TO.C,C10*%
X164609420Y-126490000D02*
X164890580Y-126490000D01*
X164609420Y-127510000D02*
X164890580Y-127510000D01*
%TO.C,R15*%
X161262742Y-107446511D02*
X161737258Y-107446511D01*
X161262742Y-108491511D02*
X161737258Y-108491511D01*
%TO.C,J3*%
X139227500Y-130275000D02*
X139227500Y-123975000D01*
X139227500Y-133985000D02*
X139227500Y-132175000D01*
X139337500Y-133985000D02*
X139227500Y-133985000D01*
X152097500Y-129575000D02*
X152097500Y-123975000D01*
X152097500Y-132825000D02*
X152097500Y-133985000D01*
X152097500Y-133985000D02*
X140837500Y-133985000D01*
%TO.C,R14*%
X156172012Y-109723406D02*
X156646528Y-109723406D01*
X156172012Y-110768406D02*
X156646528Y-110768406D01*
%TO.C,U16*%
X158057338Y-113145873D02*
X158057338Y-112345873D01*
X158057338Y-113145873D02*
X158057338Y-113945873D01*
X161177338Y-113145873D02*
X161177338Y-112345873D01*
X161177338Y-113145873D02*
X161177338Y-113945873D01*
X161457338Y-112085873D02*
X161127338Y-111845873D01*
X161457338Y-111605873D01*
X161457338Y-112085873D01*
G36*
X161457338Y-112085873D02*
G01*
X161127338Y-111845873D01*
X161457338Y-111605873D01*
X161457338Y-112085873D01*
G37*
%TO.C,D13*%
X157009458Y-107073734D02*
X157009458Y-103413734D01*
X157009458Y-107073734D02*
X158909458Y-107073734D01*
X158909458Y-107073734D02*
X158909458Y-103413734D01*
%TO.C,D6*%
X163387785Y-126260991D02*
X163387785Y-122600991D01*
X163387785Y-126260991D02*
X165287785Y-126260991D01*
X165287785Y-126260991D02*
X165287785Y-122600991D01*
%TO.C,R7*%
X167650776Y-119918579D02*
X167176260Y-119918579D01*
X167650776Y-120963579D02*
X167176260Y-120963579D01*
%TO.C,R5*%
X143598379Y-120359203D02*
X143291097Y-120359203D01*
X143598379Y-121119203D02*
X143291097Y-121119203D01*
%TO.C,C46*%
X158288748Y-119688225D02*
X159711252Y-119688225D01*
X158288748Y-121508225D02*
X159711252Y-121508225D01*
%TO.C,L7*%
X153789505Y-128864825D02*
X161189505Y-128864825D01*
X153789505Y-131164825D02*
X153789505Y-128864825D01*
X153789505Y-136264825D02*
X153789505Y-133964825D01*
X161189505Y-128864825D02*
X161189505Y-131164825D01*
X161189505Y-133964825D02*
X161189505Y-136264825D01*
X161189505Y-136264825D02*
X153789505Y-136264825D01*
%TO.C,R9*%
X153861355Y-122011018D02*
X154335871Y-122011018D01*
X153861355Y-123056018D02*
X154335871Y-123056018D01*
%TO.C,R26*%
X150131003Y-118968933D02*
X150605519Y-118968933D01*
X150131003Y-120013933D02*
X150605519Y-120013933D01*
%TO.C,R29*%
X154670967Y-104217563D02*
X155145483Y-104217563D01*
X154670967Y-105262563D02*
X155145483Y-105262563D01*
%TO.C,R4*%
X161496667Y-124345989D02*
X161971183Y-124345989D01*
X161496667Y-125390989D02*
X161971183Y-125390989D01*
%TO.C,C4*%
X152148866Y-106856727D02*
X152148866Y-106575567D01*
X153168866Y-106856727D02*
X153168866Y-106575567D01*
%TO.C,R16*%
X166227500Y-107456269D02*
X166227500Y-106981753D01*
X167272500Y-107456269D02*
X167272500Y-106981753D01*
%TO.C,C2*%
X156620700Y-116831803D02*
X156620700Y-117112963D01*
X157640700Y-116831803D02*
X157640700Y-117112963D01*
%TO.C,R10*%
X156831044Y-122011651D02*
X157305560Y-122011651D01*
X156831044Y-123056651D02*
X157305560Y-123056651D01*
%TO.C,C6*%
X145962946Y-108430285D02*
X146244106Y-108430285D01*
X145962946Y-109450285D02*
X146244106Y-109450285D01*
%TO.C,C38*%
X168594667Y-115411863D02*
X168313507Y-115411863D01*
X168594667Y-116431863D02*
X168313507Y-116431863D01*
%TO.C,C5*%
X156627653Y-113817152D02*
X156627653Y-114098312D01*
X157647653Y-113817152D02*
X157647653Y-114098312D01*
%TO.C,U1*%
X165740253Y-126102122D02*
X168540253Y-126102122D01*
X165850253Y-122882122D02*
X168540253Y-122882122D01*
X165610253Y-123112122D02*
X165330253Y-123112122D01*
X165610253Y-122832122D01*
X165610253Y-123112122D01*
G36*
X165610253Y-123112122D02*
G01*
X165330253Y-123112122D01*
X165610253Y-122832122D01*
X165610253Y-123112122D01*
G37*
%TO.C,C28*%
X164671878Y-107740000D02*
X164390718Y-107740000D01*
X164671878Y-108760000D02*
X164390718Y-108760000D01*
%TO.C,C1*%
X152120700Y-118927287D02*
X152120700Y-118646127D01*
X153140700Y-118927287D02*
X153140700Y-118646127D01*
%TO.C,D9*%
X165421497Y-117103491D02*
X165421497Y-119388491D01*
X165421497Y-119388491D02*
X166891497Y-119388491D01*
X166891497Y-119388491D02*
X166891497Y-117103491D01*
%TO.C,C12*%
X139302316Y-114796223D02*
X139086644Y-114796223D01*
X139302316Y-115516223D02*
X139086644Y-115516223D01*
%TO.C,U9*%
X153520700Y-115426707D02*
X153695700Y-115426707D01*
X153520700Y-116101707D02*
X153520700Y-115426707D01*
X153520700Y-117971707D02*
X153520700Y-118346707D01*
X156240700Y-115426707D02*
X156065700Y-115426707D01*
X156240700Y-116101707D02*
X156240700Y-115426707D01*
X156240700Y-117971707D02*
X156240700Y-118646707D01*
X156240700Y-118646707D02*
X156065700Y-118646707D01*
X153520700Y-118646707D02*
X153330700Y-118786707D01*
X153330700Y-118506707D01*
X153520700Y-118646707D01*
G36*
X153520700Y-118646707D02*
G01*
X153330700Y-118786707D01*
X153330700Y-118506707D01*
X153520700Y-118646707D01*
G37*
%TO.C,U7*%
X153556661Y-106067854D02*
X153556661Y-105872854D01*
X153566661Y-107862854D02*
X153566661Y-107437854D01*
X153741661Y-107862854D02*
X153566661Y-107862854D01*
X155611661Y-105642854D02*
X155786661Y-105642854D01*
X155611661Y-107862854D02*
X155786661Y-107862854D01*
X155786661Y-105642854D02*
X155786661Y-106067854D01*
X155786661Y-107862854D02*
X155786661Y-107437854D01*
X153556661Y-105632854D02*
X153416661Y-105442854D01*
X153696661Y-105442854D01*
X153556661Y-105632854D01*
G36*
X153556661Y-105632854D02*
G01*
X153416661Y-105442854D01*
X153696661Y-105442854D01*
X153556661Y-105632854D01*
G37*
%TO.C,R21*%
X155117958Y-114014207D02*
X154643442Y-114014207D01*
X155117958Y-115059207D02*
X154643442Y-115059207D01*
%TO.C,J2*%
X162130000Y-129330000D02*
X162130000Y-136070000D01*
X162130000Y-129330000D02*
X169370000Y-129330000D01*
X162130000Y-134450000D02*
X169370000Y-134450000D01*
X162130000Y-136070000D02*
X163700000Y-136070000D01*
X164300000Y-136070000D02*
X169370000Y-136070000D01*
X169370000Y-129330000D02*
X169370000Y-136070000D01*
X164440000Y-136680000D02*
X163560000Y-136680000D01*
X164000000Y-136070000D01*
X164440000Y-136680000D01*
G36*
X164440000Y-136680000D02*
G01*
X163560000Y-136680000D01*
X164000000Y-136070000D01*
X164440000Y-136680000D01*
G37*
%TO.C,U3*%
X158064069Y-117344225D02*
X158064069Y-116544225D01*
X158064069Y-117344225D02*
X158064069Y-118144225D01*
X161184069Y-117344225D02*
X161184069Y-116544225D01*
X161184069Y-117344225D02*
X161184069Y-118144225D01*
X158114069Y-118644225D02*
X157784069Y-118884225D01*
X157784069Y-118404225D01*
X158114069Y-118644225D01*
G36*
X158114069Y-118644225D02*
G01*
X157784069Y-118884225D01*
X157784069Y-118404225D01*
X158114069Y-118644225D01*
G37*
%TO.C,R3*%
X160476611Y-127382316D02*
X160476611Y-126907800D01*
X161521611Y-127382316D02*
X161521611Y-126907800D01*
%TO.C,R22*%
X140646373Y-119971739D02*
X140646373Y-119497223D01*
X141691373Y-119971739D02*
X141691373Y-119497223D01*
%TO.C,D5*%
X158647980Y-121976292D02*
X158647980Y-123876292D01*
X158647980Y-121976292D02*
X162307980Y-121976292D01*
X158647980Y-123876292D02*
X162307980Y-123876292D01*
%TO.C,U2*%
X153168661Y-124555007D02*
X153168661Y-124095007D01*
X153168661Y-128075007D02*
X153168661Y-127375007D01*
X153868661Y-123855007D02*
X153468661Y-123855007D01*
X153868661Y-128075007D02*
X153168661Y-128075007D01*
X156688661Y-123855007D02*
X157388661Y-123855007D01*
X156688661Y-128075007D02*
X157388661Y-128075007D01*
X157388661Y-123855007D02*
X157388661Y-124555007D01*
X157388661Y-128075007D02*
X157388661Y-127375007D01*
X153168661Y-123855007D02*
X152928661Y-123525007D01*
X153408661Y-123525007D01*
X153168661Y-123855007D01*
G36*
X153168661Y-123855007D02*
G01*
X152928661Y-123525007D01*
X153408661Y-123525007D01*
X153168661Y-123855007D01*
G37*
%TO.C,D12*%
X163658029Y-105909028D02*
X165943029Y-105909028D01*
X165943029Y-104439028D02*
X163658029Y-104439028D01*
X165943029Y-105909028D02*
X165943029Y-104439028D01*
%TO.C,C40*%
X162810754Y-114507418D02*
X162529594Y-114507418D01*
X162810754Y-115527418D02*
X162529594Y-115527418D01*
%TO.C,R18*%
X149142228Y-105412780D02*
X148667712Y-105412780D01*
X149142228Y-106457780D02*
X148667712Y-106457780D01*
%TO.C,C37*%
X168716138Y-118346095D02*
X168716138Y-118064935D01*
X169736138Y-118346095D02*
X169736138Y-118064935D01*
%TO.C,R6*%
X167731176Y-126491637D02*
X168185304Y-126491637D01*
X167731176Y-127961637D02*
X168185304Y-127961637D01*
%TO.C,C3*%
X150648866Y-106856727D02*
X150648866Y-106575567D01*
X151668866Y-106856727D02*
X151668866Y-106575567D01*
%TO.C,C39*%
X153960953Y-120496503D02*
X154242113Y-120496503D01*
X153960953Y-121516503D02*
X154242113Y-121516503D01*
%TO.C,R17*%
X161727500Y-105481753D02*
X161727500Y-105956269D01*
X162772500Y-105481753D02*
X162772500Y-105956269D01*
%TO.C,C11*%
X139094699Y-115759008D02*
X139310371Y-115759008D01*
X139094699Y-116479008D02*
X139310371Y-116479008D01*
%TO.C,D1*%
X146378526Y-104469095D02*
X143328526Y-104469095D01*
X146378526Y-107769095D02*
X143328526Y-107769095D01*
X147043526Y-108099095D02*
X146563526Y-108099095D01*
X146803526Y-107769095D01*
X147043526Y-108099095D01*
G36*
X147043526Y-108099095D02*
G01*
X146563526Y-108099095D01*
X146803526Y-107769095D01*
X147043526Y-108099095D01*
G37*
%TO.C,C29*%
X164665580Y-106209011D02*
X164384420Y-106209011D01*
X164665580Y-107229011D02*
X164384420Y-107229011D01*
%TO.C,R27*%
X150737258Y-110023439D02*
X150262742Y-110023439D01*
X150737258Y-111068439D02*
X150262742Y-111068439D01*
%TO.C,R8*%
X167195014Y-118413185D02*
X167195014Y-117938669D01*
X168240014Y-118413185D02*
X168240014Y-117938669D01*
%TO.C,C78*%
X139642023Y-113562941D02*
X139642023Y-113778613D01*
X140362023Y-113562941D02*
X140362023Y-113778613D01*
%TO.C,C14*%
X167552072Y-121441267D02*
X167270912Y-121441267D01*
X167552072Y-122461267D02*
X167270912Y-122461267D01*
%TO.C,BZ2*%
D12*
X165931000Y-125368100D02*
G75*
G02*
X165169000Y-125368100I-381000J0D01*
G01*
X165169000Y-125368100D02*
G75*
G02*
X165931000Y-125368100I381000J0D01*
G01*
%TD*%
M02*
