%TF.GenerationSoftware,KiCad,Pcbnew,9.99.0-4037-gdf8ecb877a*%
%TF.CreationDate,2025-11-08T20:25:16-05:00*%
%TF.ProjectId,horizon-mini,686f7269-7a6f-46e2-9d6d-696e692e6b69,rev?*%
%TF.SameCoordinates,Original*%
%TF.FileFunction,Copper,L2,Bot*%
%TF.FilePolarity,Positive*%
%FSLAX46Y46*%
G04 Gerber Fmt 4.6, Leading zero omitted, Abs format (unit mm)*
G04 Created by KiCad (PCBNEW 9.99.0-4037-gdf8ecb877a) date 2025-11-08 20:25:16*
%MOMM*%
%LPD*%
G01*
G04 APERTURE LIST*
G04 Aperture macros list*
%AMRoundRect*
0 Rectangle with rounded corners*
0 $1 Rounding radius*
0 $2 $3 $4 $5 $6 $7 $8 $9 X,Y pos of 4 corners*
0 Add a 4 corners polygon primitive as box body*
4,1,4,$2,$3,$4,$5,$6,$7,$8,$9,$2,$3,0*
0 Add four circle primitives for the rounded corners*
1,1,$1+$1,$2,$3*
1,1,$1+$1,$4,$5*
1,1,$1+$1,$6,$7*
1,1,$1+$1,$8,$9*
0 Add four rect primitives between the rounded corners*
20,1,$1+$1,$2,$3,$4,$5,0*
20,1,$1+$1,$4,$5,$6,$7,0*
20,1,$1+$1,$6,$7,$8,$9,0*
20,1,$1+$1,$8,$9,$2,$3,0*%
G04 Aperture macros list end*
%ADD10C,0.125000*%
%TA.AperFunction,NonConductor*%
%ADD11C,0.125000*%
%TD*%
%TA.AperFunction,EtchedComponent*%
%ADD12C,0.000000*%
%TD*%
%TA.AperFunction,ComponentPad*%
%ADD13R,1.700000X1.700000*%
%TD*%
%TA.AperFunction,ComponentPad*%
%ADD14C,1.700000*%
%TD*%
%TA.AperFunction,HeatsinkPad*%
%ADD15C,0.500000*%
%TD*%
%TA.AperFunction,HeatsinkPad*%
%ADD16R,0.500000X2.000000*%
%TD*%
%TA.AperFunction,ComponentPad*%
%ADD17RoundRect,0.250001X-0.899999X-0.899999X0.899999X-0.899999X0.899999X0.899999X-0.899999X0.899999X0*%
%TD*%
%TA.AperFunction,ComponentPad*%
%ADD18C,2.300000*%
%TD*%
%TA.AperFunction,HeatsinkPad*%
%ADD19R,2.700000X2.700000*%
%TD*%
%TA.AperFunction,SMDPad,CuDef*%
%ADD20R,2.350000X0.850000*%
%TD*%
%TA.AperFunction,SMDPad,CuDef*%
%ADD21RoundRect,0.200000X0.275000X-0.200000X0.275000X0.200000X-0.275000X0.200000X-0.275000X-0.200000X0*%
%TD*%
%TA.AperFunction,SMDPad,CuDef*%
%ADD22RoundRect,0.200000X-0.200000X-0.275000X0.200000X-0.275000X0.200000X0.275000X-0.200000X0.275000X0*%
%TD*%
%TA.AperFunction,ComponentPad*%
%ADD23RoundRect,0.249999X-0.850001X0.850001X-0.850001X-0.850001X0.850001X-0.850001X0.850001X0.850001X0*%
%TD*%
%TA.AperFunction,ComponentPad*%
%ADD24C,2.200000*%
%TD*%
%TA.AperFunction,SMDPad,CuDef*%
%ADD25RoundRect,0.200000X0.200000X0.275000X-0.200000X0.275000X-0.200000X-0.275000X0.200000X-0.275000X0*%
%TD*%
%TA.AperFunction,SMDPad,CuDef*%
%ADD26RoundRect,0.175000X-0.175000X-0.325000X0.175000X-0.325000X0.175000X0.325000X-0.175000X0.325000X0*%
%TD*%
%TA.AperFunction,SMDPad,CuDef*%
%ADD27RoundRect,0.150000X-0.200000X-0.150000X0.200000X-0.150000X0.200000X0.150000X-0.200000X0.150000X0*%
%TD*%
%TA.AperFunction,SMDPad,CuDef*%
%ADD28RoundRect,0.150000X-0.150000X-0.425000X0.150000X-0.425000X0.150000X0.425000X-0.150000X0.425000X0*%
%TD*%
%TA.AperFunction,SMDPad,CuDef*%
%ADD29RoundRect,0.075000X-0.075000X-0.500000X0.075000X-0.500000X0.075000X0.500000X-0.075000X0.500000X0*%
%TD*%
%TA.AperFunction,HeatsinkPad*%
%ADD30O,1.000000X1.800000*%
%TD*%
%TA.AperFunction,HeatsinkPad*%
%ADD31O,1.000000X2.100000*%
%TD*%
%TA.AperFunction,SMDPad,CuDef*%
%ADD32R,2.311400X2.311400*%
%TD*%
%TA.AperFunction,SMDPad,CuDef*%
%ADD33RoundRect,0.218750X-0.256250X0.218750X-0.256250X-0.218750X0.256250X-0.218750X0.256250X0.218750X0*%
%TD*%
%TA.AperFunction,SMDPad,CuDef*%
%ADD34RoundRect,0.150000X-0.587500X-0.150000X0.587500X-0.150000X0.587500X0.150000X-0.587500X0.150000X0*%
%TD*%
%TA.AperFunction,SMDPad,CuDef*%
%ADD35RoundRect,0.200000X-0.275000X0.200000X-0.275000X-0.200000X0.275000X-0.200000X0.275000X0.200000X0*%
%TD*%
%TA.AperFunction,SMDPad,CuDef*%
%ADD36RoundRect,0.140000X-0.140000X-0.170000X0.140000X-0.170000X0.140000X0.170000X-0.140000X0.170000X0*%
%TD*%
%TA.AperFunction,SMDPad,CuDef*%
%ADD37RoundRect,0.140000X0.140000X0.170000X-0.140000X0.170000X-0.140000X-0.170000X0.140000X-0.170000X0*%
%TD*%
%TA.AperFunction,SMDPad,CuDef*%
%ADD38RoundRect,0.218750X0.218750X0.256250X-0.218750X0.256250X-0.218750X-0.256250X0.218750X-0.256250X0*%
%TD*%
%TA.AperFunction,SMDPad,CuDef*%
%ADD39RoundRect,0.162500X-0.650000X-0.162500X0.650000X-0.162500X0.650000X0.162500X-0.650000X0.162500X0*%
%TD*%
%TA.AperFunction,ViaPad*%
%ADD40C,0.550000*%
%TD*%
%TA.AperFunction,Conductor*%
%ADD41C,0.200000*%
%TD*%
%TA.AperFunction,Conductor*%
%ADD42C,0.400000*%
%TD*%
%TA.AperFunction,Conductor*%
%ADD43C,0.150000*%
%TD*%
G04 APERTURE END LIST*
D10*
D11*
X168620144Y-135182309D02*
X168453478Y-135682309D01*
X168453478Y-135682309D02*
X168286811Y-135182309D01*
X167858240Y-135682309D02*
X168143954Y-135682309D01*
X168001097Y-135682309D02*
X168001097Y-135182309D01*
X168001097Y-135182309D02*
X168048716Y-135253738D01*
X168048716Y-135253738D02*
X168096335Y-135301357D01*
X168096335Y-135301357D02*
X168143954Y-135325166D01*
X167643955Y-135634690D02*
X167620145Y-135658500D01*
X167620145Y-135658500D02*
X167643955Y-135682309D01*
X167643955Y-135682309D02*
X167667764Y-135658500D01*
X167667764Y-135658500D02*
X167643955Y-135634690D01*
X167643955Y-135634690D02*
X167643955Y-135682309D01*
X167143955Y-135682309D02*
X167429669Y-135682309D01*
X167286812Y-135682309D02*
X167286812Y-135182309D01*
X167286812Y-135182309D02*
X167334431Y-135253738D01*
X167334431Y-135253738D02*
X167382050Y-135301357D01*
X167382050Y-135301357D02*
X167429669Y-135325166D01*
D12*
%TA.AperFunction,EtchedComponent*%
%TO.C,G\u002A\u002A\u002A*%
G36*
X165013896Y-134656623D02*
G01*
X165025342Y-134657184D01*
X165039950Y-134658692D01*
X165052453Y-134661652D01*
X165065885Y-134666876D01*
X165083277Y-134675173D01*
X165100939Y-134684699D01*
X165128038Y-134702835D01*
X165150475Y-134722535D01*
X165167468Y-134742950D01*
X165178237Y-134763230D01*
X165182000Y-134782525D01*
X165181707Y-134787658D01*
X165177210Y-134801122D01*
X165168676Y-134809507D01*
X165157900Y-134812614D01*
X165146677Y-134810244D01*
X165136804Y-134802198D01*
X165130075Y-134788277D01*
X165127464Y-134781267D01*
X165116667Y-134765008D01*
X165100378Y-134748925D01*
X165080240Y-134734135D01*
X165057897Y-134721758D01*
X165034992Y-134712911D01*
X165013169Y-134708714D01*
X165005496Y-134708252D01*
X164994187Y-134708520D01*
X164986564Y-134710957D01*
X164979787Y-134716201D01*
X164976733Y-134719370D01*
X164971465Y-134729080D01*
X164970000Y-134742825D01*
X164970013Y-134744445D01*
X164971174Y-134757527D01*
X164974595Y-134770607D01*
X164980801Y-134784451D01*
X164990315Y-134799828D01*
X165003663Y-134817503D01*
X165021368Y-134838245D01*
X165043955Y-134862822D01*
X165071949Y-134892000D01*
X165076463Y-134896643D01*
X165102028Y-134923130D01*
X165122440Y-134944769D01*
X165138173Y-134962221D01*
X165149700Y-134976146D01*
X165157494Y-134987206D01*
X165162029Y-134996060D01*
X165163779Y-135003370D01*
X165163216Y-135009796D01*
X165160815Y-135016000D01*
X165159996Y-135017509D01*
X165152613Y-135024684D01*
X165139903Y-135028364D01*
X165129638Y-135029319D01*
X165109785Y-135029780D01*
X165084638Y-135029325D01*
X165055722Y-135028028D01*
X165024562Y-135025962D01*
X164992685Y-135023200D01*
X164961614Y-135019815D01*
X164953516Y-135018828D01*
X164929893Y-135015873D01*
X164912704Y-135013456D01*
X164900773Y-135011256D01*
X164892926Y-135008955D01*
X164887989Y-135006236D01*
X164884786Y-135002778D01*
X164882142Y-134998264D01*
X164879230Y-134988214D01*
X164882203Y-134975825D01*
X164892220Y-134965488D01*
X164892755Y-134965142D01*
X164897730Y-134962576D01*
X164903712Y-134961321D01*
X164912422Y-134961376D01*
X164925583Y-134962737D01*
X164944916Y-134965402D01*
X164956134Y-134966912D01*
X164982076Y-134969884D01*
X165009477Y-134972488D01*
X165034000Y-134974293D01*
X165080000Y-134976973D01*
X165027639Y-134923486D01*
X165016740Y-134912291D01*
X164993401Y-134887690D01*
X164974775Y-134866856D01*
X164959979Y-134848664D01*
X164948127Y-134831986D01*
X164938338Y-134815697D01*
X164929727Y-134798670D01*
X164920885Y-134774787D01*
X164916505Y-134746871D01*
X164918813Y-134720846D01*
X164927579Y-134697625D01*
X164942577Y-134678117D01*
X164963579Y-134663234D01*
X164971944Y-134659563D01*
X164982099Y-134657127D01*
X164995259Y-134656255D01*
X165013896Y-134656623D01*
G37*
%TD.AperFunction*%
%TA.AperFunction,EtchedComponent*%
G36*
X166637366Y-135201279D02*
G01*
X166632737Y-135230389D01*
X166620551Y-135262019D01*
X166600740Y-135296006D01*
X166595049Y-135304167D01*
X166567263Y-135338394D01*
X166532462Y-135373928D01*
X166491245Y-135410265D01*
X166444213Y-135446901D01*
X166391964Y-135483333D01*
X166335100Y-135519057D01*
X166334571Y-135519372D01*
X166290919Y-135545071D01*
X166253330Y-135566453D01*
X166221969Y-135583427D01*
X166196997Y-135595904D01*
X166183271Y-135602678D01*
X166175228Y-135607819D01*
X166171914Y-135612301D01*
X166171960Y-135617290D01*
X166172644Y-135621055D01*
X166174449Y-135631855D01*
X166177142Y-135648369D01*
X166180219Y-135667447D01*
X166180544Y-135669461D01*
X166184475Y-135693998D01*
X166188755Y-135720845D01*
X166193204Y-135748868D01*
X166197643Y-135776933D01*
X166201893Y-135803905D01*
X166205772Y-135828650D01*
X166209103Y-135850033D01*
X166211704Y-135866920D01*
X166213396Y-135878178D01*
X166214000Y-135882671D01*
X166213408Y-135882809D01*
X166206730Y-135883100D01*
X166193404Y-135883295D01*
X166174405Y-135883392D01*
X166150706Y-135883387D01*
X166123281Y-135883276D01*
X166093104Y-135883058D01*
X165972208Y-135882000D01*
X165959051Y-135798280D01*
X165957692Y-135789668D01*
X165953820Y-135765605D01*
X165950358Y-135744741D01*
X165947509Y-135728254D01*
X165945472Y-135717320D01*
X165944451Y-135713117D01*
X165941729Y-135713701D01*
X165932673Y-135716872D01*
X165918467Y-135722308D01*
X165900336Y-135729539D01*
X165879504Y-135738093D01*
X165864888Y-135744112D01*
X165835605Y-135755914D01*
X165802822Y-135768874D01*
X165768358Y-135782293D01*
X165734027Y-135795469D01*
X165701646Y-135807703D01*
X165673032Y-135818295D01*
X165650000Y-135826545D01*
X165639421Y-135830528D01*
X165631809Y-135835227D01*
X165628446Y-135841856D01*
X165628444Y-135852387D01*
X165629507Y-135859455D01*
X165630911Y-135868789D01*
X165633429Y-135883578D01*
X165544715Y-135884982D01*
X165543597Y-135885000D01*
X165514773Y-135885496D01*
X165492110Y-135886089D01*
X165473831Y-135886979D01*
X165458159Y-135888368D01*
X165443317Y-135890457D01*
X165427528Y-135893445D01*
X165409015Y-135897535D01*
X165386000Y-135902927D01*
X165370866Y-135906409D01*
X165343245Y-135912365D01*
X165315897Y-135917828D01*
X165291318Y-135922308D01*
X165272000Y-135925314D01*
X165255186Y-135927235D01*
X165224407Y-135929577D01*
X165191320Y-135930924D01*
X165157973Y-135931265D01*
X165126414Y-135930592D01*
X165098691Y-135928896D01*
X165076852Y-135926168D01*
X165059815Y-135922301D01*
X165036835Y-135915009D01*
X165014751Y-135906001D01*
X164995900Y-135896255D01*
X164982620Y-135886748D01*
X164979260Y-135883229D01*
X164970777Y-135872417D01*
X164962620Y-135860000D01*
X164959630Y-135854675D01*
X164954879Y-135843347D01*
X164952592Y-135830785D01*
X164952000Y-135813632D01*
X164952001Y-135813328D01*
X164980285Y-135813328D01*
X164983881Y-135834526D01*
X164994795Y-135853024D01*
X165012829Y-135868615D01*
X165037788Y-135881090D01*
X165069476Y-135890238D01*
X165071185Y-135890586D01*
X165092164Y-135893384D01*
X165118889Y-135894964D01*
X165149397Y-135895335D01*
X165181727Y-135894510D01*
X165213915Y-135892498D01*
X165244000Y-135889310D01*
X165255634Y-135887680D01*
X165279275Y-135883951D01*
X165303458Y-135879679D01*
X165326773Y-135875155D01*
X165347813Y-135870673D01*
X165365170Y-135866524D01*
X165377435Y-135863002D01*
X165383201Y-135860399D01*
X165383390Y-135859455D01*
X165382994Y-135852013D01*
X165381497Y-135838008D01*
X165379038Y-135818346D01*
X165375754Y-135793933D01*
X165371784Y-135765672D01*
X165367268Y-135734470D01*
X165362344Y-135701232D01*
X165357151Y-135666863D01*
X165351828Y-135632268D01*
X165346513Y-135598352D01*
X165341346Y-135566021D01*
X165336464Y-135536180D01*
X165332390Y-135512000D01*
X165573365Y-135512000D01*
X165575617Y-135523000D01*
X165576106Y-135525651D01*
X165577872Y-135536065D01*
X165580619Y-135552777D01*
X165584181Y-135574747D01*
X165588388Y-135600933D01*
X165593072Y-135630296D01*
X165598065Y-135661796D01*
X165601062Y-135680707D01*
X165605761Y-135710145D01*
X165609991Y-135736368D01*
X165613596Y-135758440D01*
X165616423Y-135775421D01*
X165618319Y-135786374D01*
X165619130Y-135790362D01*
X165621996Y-135789663D01*
X165631321Y-135786726D01*
X165645917Y-135781890D01*
X165664553Y-135775565D01*
X165686000Y-135768157D01*
X165731609Y-135752113D01*
X165776420Y-135735977D01*
X165816671Y-135721079D01*
X165851927Y-135707594D01*
X165881750Y-135695696D01*
X165905705Y-135685560D01*
X165923356Y-135677359D01*
X165934267Y-135671268D01*
X165938000Y-135667462D01*
X165938000Y-135667447D01*
X165937374Y-135662550D01*
X165935660Y-135651065D01*
X165933060Y-135634284D01*
X165929774Y-135613499D01*
X165926000Y-135589999D01*
X165925910Y-135589439D01*
X165922153Y-135566104D01*
X165918884Y-135545621D01*
X165916304Y-135529251D01*
X165914609Y-135518256D01*
X165914000Y-135513895D01*
X165912674Y-135513659D01*
X165904534Y-135513273D01*
X165889693Y-135512922D01*
X165868971Y-135512614D01*
X165843188Y-135512359D01*
X165813165Y-135512165D01*
X165779723Y-135512042D01*
X165743683Y-135512000D01*
X165573365Y-135512000D01*
X165332390Y-135512000D01*
X165332008Y-135509735D01*
X165328115Y-135487589D01*
X165324924Y-135470650D01*
X165322575Y-135459821D01*
X165321206Y-135456009D01*
X165319480Y-135456667D01*
X165311907Y-135461190D01*
X165299592Y-135469352D01*
X165283609Y-135480384D01*
X165265031Y-135493516D01*
X165244934Y-135507980D01*
X165224389Y-135523005D01*
X165204473Y-135537822D01*
X165186257Y-135551662D01*
X165170817Y-135563756D01*
X165168715Y-135565444D01*
X165127442Y-135600559D01*
X165090159Y-135636095D01*
X165057398Y-135671394D01*
X165029692Y-135705797D01*
X165007571Y-135738646D01*
X164991567Y-135769285D01*
X164982212Y-135797056D01*
X164980285Y-135813328D01*
X164952001Y-135813328D01*
X164952002Y-135812418D01*
X164952554Y-135797052D01*
X164954682Y-135784646D01*
X164959236Y-135771930D01*
X164967067Y-135755632D01*
X164983730Y-135726340D01*
X165014132Y-135683979D01*
X165052059Y-135641580D01*
X165097626Y-135599030D01*
X165150947Y-135556214D01*
X165212138Y-135513018D01*
X165213997Y-135511782D01*
X165234704Y-135498317D01*
X165256047Y-135484904D01*
X165275616Y-135473034D01*
X165291000Y-135464201D01*
X165297435Y-135460658D01*
X165310021Y-135453525D01*
X165318740Y-135448293D01*
X165322000Y-135445902D01*
X165321802Y-135444332D01*
X165320540Y-135435848D01*
X165318231Y-135420790D01*
X165315006Y-135400006D01*
X165311001Y-135374344D01*
X165306350Y-135344649D01*
X165301185Y-135311768D01*
X165295641Y-135276549D01*
X165289851Y-135239839D01*
X165283950Y-135202483D01*
X165278071Y-135165330D01*
X165272349Y-135129225D01*
X165266916Y-135095016D01*
X165261907Y-135063550D01*
X165257455Y-135035674D01*
X165253695Y-135012233D01*
X165250760Y-134994076D01*
X165248784Y-134982050D01*
X165247902Y-134976999D01*
X165245848Y-134967999D01*
X165367151Y-134967999D01*
X165488454Y-134968000D01*
X165516227Y-135143999D01*
X165544000Y-135319999D01*
X165713000Y-135319999D01*
X165753149Y-135319964D01*
X165788518Y-135319836D01*
X165817117Y-135319596D01*
X165839580Y-135319225D01*
X165856539Y-135318701D01*
X165868628Y-135318005D01*
X165876479Y-135317118D01*
X165880726Y-135316018D01*
X165882000Y-135314688D01*
X165881873Y-135313359D01*
X165880736Y-135305082D01*
X165878528Y-135290151D01*
X165875381Y-135269423D01*
X165871427Y-135243755D01*
X165866797Y-135214005D01*
X165861623Y-135181030D01*
X165856036Y-135145688D01*
X165854897Y-135138490D01*
X166099057Y-135138490D01*
X166099713Y-135146050D01*
X166101483Y-135160446D01*
X166104262Y-135180938D01*
X166107943Y-135206788D01*
X166112420Y-135237258D01*
X166117586Y-135271608D01*
X166123336Y-135309102D01*
X166129564Y-135349000D01*
X166132350Y-135366696D01*
X166138495Y-135405664D01*
X166144222Y-135441915D01*
X166149414Y-135474708D01*
X166153954Y-135503302D01*
X166157723Y-135526956D01*
X166160604Y-135544930D01*
X166162479Y-135556482D01*
X166163231Y-135560872D01*
X166165635Y-135560617D01*
X166174110Y-135557165D01*
X166187714Y-135550729D01*
X166205427Y-135541838D01*
X166226232Y-135531023D01*
X166249110Y-135518817D01*
X166273043Y-135505749D01*
X166297013Y-135492349D01*
X166320000Y-135479150D01*
X166325486Y-135475938D01*
X166381683Y-135441302D01*
X166432208Y-135406907D01*
X166476810Y-135373002D01*
X166515239Y-135339839D01*
X166547244Y-135307667D01*
X166572574Y-135276737D01*
X166590977Y-135247299D01*
X166602203Y-135219604D01*
X166606000Y-135193901D01*
X166605937Y-135191197D01*
X166601203Y-135171467D01*
X166589246Y-135154055D01*
X166570474Y-135139047D01*
X166545296Y-135126525D01*
X166514121Y-135116573D01*
X166477356Y-135109276D01*
X166435411Y-135104716D01*
X166388695Y-135102979D01*
X166337615Y-135104147D01*
X166282581Y-135108304D01*
X166224000Y-135115535D01*
X166211668Y-135117341D01*
X166178543Y-135122258D01*
X166152352Y-135126276D01*
X166132345Y-135129528D01*
X166117772Y-135132146D01*
X166107881Y-135134263D01*
X166101924Y-135136009D01*
X166099149Y-135137518D01*
X166099057Y-135138490D01*
X165854897Y-135138490D01*
X165853509Y-135129724D01*
X165848083Y-135095218D01*
X165843127Y-135063398D01*
X165838773Y-135035133D01*
X165835155Y-135011291D01*
X165832405Y-134992743D01*
X165830655Y-134980356D01*
X165830036Y-134975000D01*
X165830307Y-134973368D01*
X165831883Y-134971711D01*
X165835614Y-134970434D01*
X165842333Y-134969487D01*
X165852877Y-134968822D01*
X165868081Y-134968389D01*
X165888779Y-134968140D01*
X165915808Y-134968027D01*
X165950000Y-134968000D01*
X165961199Y-134968008D01*
X165990370Y-134968109D01*
X166016430Y-134968314D01*
X166038400Y-134968607D01*
X166055304Y-134968974D01*
X166066163Y-134969399D01*
X166070000Y-134969867D01*
X166070267Y-134972455D01*
X166071600Y-134981827D01*
X166073842Y-134996450D01*
X166076752Y-135014862D01*
X166080092Y-135035602D01*
X166083622Y-135057208D01*
X166087103Y-135078219D01*
X166090295Y-135097172D01*
X166092959Y-135112608D01*
X166094857Y-135123064D01*
X166095747Y-135127080D01*
X166097934Y-135127017D01*
X166106495Y-135125465D01*
X166119924Y-135122510D01*
X166136524Y-135118507D01*
X166170604Y-135110209D01*
X166213575Y-135100649D01*
X166252185Y-135093384D01*
X166288284Y-135088159D01*
X166323720Y-135084719D01*
X166360342Y-135082808D01*
X166400000Y-135082173D01*
X166411450Y-135082170D01*
X166440566Y-135082432D01*
X166463780Y-135083175D01*
X166482656Y-135084495D01*
X166498757Y-135086491D01*
X166513645Y-135089260D01*
X166549540Y-135099156D01*
X166581675Y-135113252D01*
X166606593Y-135130674D01*
X166624226Y-135151260D01*
X166634506Y-135174849D01*
X166636568Y-135193901D01*
X166637366Y-135201279D01*
G37*
%TD.AperFunction*%
%TD*%
D13*
%TO.P,J8,1,Pin_1_1*%
%TO.N,+3.3V*%
X144170000Y-99250000D03*
D14*
%TO.P,J8,2,Pin_2_2*%
%TO.N,SWDIO DMCU-2*%
X144170000Y-96710000D03*
%TO.P,J8,3,Pin_3_3*%
%TO.N,GND*%
X146710000Y-99250000D03*
%TO.P,J8,4,Pin_4_4*%
X146710000Y-96710000D03*
%TO.P,J8,5,Pin_5_5*%
%TO.N,nRESET DMCU-2*%
X149250000Y-99250000D03*
%TO.P,J8,6,Pin_6_6*%
%TO.N,SWCLK DMCU-2*%
X149250000Y-96710000D03*
%TD*%
D15*
%TO.P,U1,9,GND_9*%
%TO.N,GND*%
X167140253Y-123742122D03*
X167140253Y-124492122D03*
D16*
X167140253Y-124492122D03*
D15*
X167140253Y-125242122D03*
%TD*%
D17*
%TO.P,J2,1,Pin_1_1*%
%TO.N,Net-(J2-Pin_1)*%
X164000000Y-132250000D03*
D18*
%TO.P,J2,2,Pin_2_2*%
%TO.N,GND*%
X167500000Y-132250000D03*
%TD*%
D15*
%TO.P,U2,17,PAD_17*%
%TO.N,GND*%
X154178661Y-124865007D03*
X154178661Y-125965007D03*
X154178661Y-127065007D03*
X155278661Y-124865007D03*
X155278661Y-125965007D03*
D19*
X155278661Y-125965007D03*
D15*
X155278661Y-127065007D03*
X156378661Y-124865007D03*
X156378661Y-125965007D03*
X156378661Y-127065007D03*
%TD*%
D20*
%TO.P,J16,1,Pin_1_1*%
%TO.N,+5V*%
X147247259Y-103969487D03*
%TO.P,J16,2,Pin_2_2*%
%TO.N,Net-(J16-Pin_2)*%
X144897259Y-105969487D03*
%TD*%
D21*
%TO.P,R30,1*%
%TO.N,mosfet1_signalfire*%
X136750000Y-117825000D03*
%TO.P,R30,2*%
%TO.N,Net-(Q2-G)*%
X136750000Y-116175000D03*
%TD*%
D22*
%TO.P,R31,1*%
%TO.N,Net-(D2-A)*%
X136664937Y-111312074D03*
%TO.P,R31,2*%
%TO.N,Net-(Q2-D)*%
X138314937Y-111312074D03*
%TD*%
D23*
%TO.P,J1,1,Pin_1_1*%
%TO.N,Net-(D2-K)*%
X139578473Y-104508907D03*
D24*
%TO.P,J1,2,Pin_2_2*%
%TO.N,Net-(J1-Pin_2)*%
X139578473Y-107048907D03*
%TD*%
D25*
%TO.P,R11,1*%
%TO.N,+3.3V*%
X144928447Y-125307375D03*
%TO.P,R11,2*%
%TO.N,Net-(U6-~{WP}{slash}IO_{2})*%
X143278447Y-125307375D03*
%TD*%
D26*
%TO.P,D14,1,GND_1*%
%TO.N,GND*%
X163750000Y-114000000D03*
D27*
%TO.P,D14,2,I/O1_2*%
%TO.N,D+ DMCU-2*%
X163750000Y-112300000D03*
%TO.P,D14,3,I/O2_3*%
%TO.N,D- DMCU-2*%
X165750000Y-112300000D03*
%TO.P,D14,4,VCC_4*%
%TO.N,Net-(D13-A)*%
X165750000Y-114200000D03*
%TD*%
D28*
%TO.P,J7,A1,GND_A1*%
%TO.N,GND*%
X161261249Y-110299323D03*
%TO.P,J7,A4,VBUS_A4*%
%TO.N,Net-(D13-A)*%
X162061249Y-110299323D03*
D29*
%TO.P,J7,A5,CC1_A5*%
%TO.N,Net-(J7-CC1)*%
X163211249Y-110299323D03*
%TO.P,J7,A6,D+_A6*%
%TO.N,D+ DMCU-2*%
X164211249Y-110299323D03*
%TO.P,J7,A7,D-_A7*%
%TO.N,D- DMCU-2*%
X164711249Y-110299323D03*
%TO.P,J7,A8,SBU1_A8*%
%TO.N,unconnected-(J7-SBU1-PadA8)*%
X165711249Y-110299323D03*
D28*
%TO.P,J7,A9,VBUS_A9*%
%TO.N,Net-(D13-A)*%
X166861249Y-110299323D03*
%TO.P,J7,A12,GND_A12*%
%TO.N,GND*%
X167661249Y-110299323D03*
%TO.P,J7,B1,GND_B1*%
X167661249Y-110299323D03*
%TO.P,J7,B4,VBUS_B4*%
%TO.N,Net-(D13-A)*%
X166861249Y-110299323D03*
D29*
%TO.P,J7,B5,CC2_B5*%
%TO.N,Net-(J7-CC2)*%
X166211249Y-110299323D03*
%TO.P,J7,B6,D+_B6*%
%TO.N,D+ DMCU-2*%
X165211249Y-110299323D03*
%TO.P,J7,B7,D-_B7*%
%TO.N,D- DMCU-2*%
X163711249Y-110299323D03*
%TO.P,J7,B8,SBU2_B8*%
%TO.N,unconnected-(J7-SBU2-PadB8)*%
X162711249Y-110299323D03*
D28*
%TO.P,J7,B9,VBUS_B9*%
%TO.N,Net-(D13-A)*%
X162061249Y-110299323D03*
%TO.P,J7,B12,GND_B12*%
%TO.N,GND*%
X161261249Y-110299323D03*
D30*
%TO.P,J7,S1,SHIELD_S1*%
X160141249Y-105544323D03*
D31*
X160141249Y-109724323D03*
D30*
X168781249Y-105544323D03*
D31*
X168781249Y-109724323D03*
%TD*%
D32*
%TO.P,BZ2,1,1_1*%
%TO.N,Net-(Q1-D)*%
X165550001Y-123800001D03*
%TO.P,BZ2,2,2_2*%
%TO.N,+3.3V*%
X158449999Y-123800001D03*
%TO.P,BZ2,3*%
%TO.N,N/C*%
X165550001Y-116699999D03*
%TO.P,BZ2,4*%
X158449999Y-116699999D03*
%TD*%
D33*
%TO.P,F2,1*%
%TO.N,Net-(J1-Pin_2)*%
X141296159Y-109766359D03*
%TO.P,F2,2*%
%TO.N,GND*%
X141296159Y-111341359D03*
%TD*%
D22*
%TO.P,R2,1*%
%TO.N,+3.3V*%
X146249801Y-125307375D03*
%TO.P,R2,2*%
%TO.N,Net-(U6-~{HOLD}{slash}~{RESET}{slash}IO_{3})*%
X147899801Y-125307375D03*
%TD*%
D34*
%TO.P,Q1,1,G_1*%
%TO.N,BUZZER*%
X157835782Y-131436692D03*
%TO.P,Q1,2,S_2*%
%TO.N,GND*%
X157835782Y-129536692D03*
%TO.P,Q1,3,D_3*%
%TO.N,Net-(Q1-D)*%
X159710782Y-130486692D03*
%TD*%
D35*
%TO.P,R80,1*%
%TO.N,Net-(J16-Pin_2)*%
X139778874Y-109724095D03*
%TO.P,R80,2*%
%TO.N,Net-(Q2-D)*%
X139778874Y-111374095D03*
%TD*%
D36*
%TO.P,C7,1*%
%TO.N,GND*%
X143920000Y-109600000D03*
%TO.P,C7,2*%
%TO.N,+3.3V*%
X144880000Y-109600000D03*
%TD*%
D37*
%TO.P,C9,1*%
%TO.N,+3.3V*%
X144880000Y-117600000D03*
%TO.P,C9,2*%
%TO.N,GND*%
X143920000Y-117600000D03*
%TD*%
D34*
%TO.P,Q2,1,G_1*%
%TO.N,Net-(Q2-G)*%
X137018712Y-114731577D03*
%TO.P,Q2,2,S_2*%
%TO.N,Net-(D2-K)*%
X137018712Y-112831577D03*
%TO.P,Q2,3,D_3*%
%TO.N,Net-(Q2-D)*%
X138893712Y-113781577D03*
%TD*%
D38*
%TO.P,D2,1,K_1*%
%TO.N,Net-(D2-K)*%
X138293333Y-109817907D03*
%TO.P,D2,2,A_2*%
%TO.N,Net-(D2-A)*%
X136718333Y-109817907D03*
%TD*%
D39*
%TO.P,U6,1,~{CS}_1*%
%TO.N,CS_NAND MMCU*%
X142075000Y-130909715D03*
%TO.P,U6,2,DO/IO_{1}_2*%
%TO.N,MISO TMCU*%
X142075000Y-129639715D03*
%TO.P,U6,3,~{WP}/IO_{2}_3*%
%TO.N,Net-(U6-~{WP}{slash}IO_{2})*%
X142075000Y-128369715D03*
%TO.P,U6,4,GND_4*%
%TO.N,GND*%
X142075000Y-127099715D03*
%TO.P,U6,5,DI/IO_{0}_5*%
%TO.N,MOSI TMCU*%
X149250000Y-127099715D03*
%TO.P,U6,6,CLK_6*%
%TO.N,SCK TMCU*%
X149250000Y-128369715D03*
%TO.P,U6,7,~{HOLD}/~{RESET}/IO_{3}_7*%
%TO.N,Net-(U6-~{HOLD}{slash}~{RESET}{slash}IO_{3})*%
X149250000Y-129639715D03*
%TO.P,U6,8,VCC_8*%
%TO.N,+3.3V*%
X149250000Y-130909715D03*
%TD*%
D22*
%TO.P,R23,1*%
%TO.N,+3.3V*%
X143425000Y-120750000D03*
%TO.P,R23,2*%
%TO.N,CS_SD MMCU*%
X145075000Y-120750000D03*
%TD*%
D21*
%TO.P,R1,1*%
%TO.N,BUZZER*%
X156070027Y-131303671D03*
%TO.P,R1,2*%
%TO.N,GND*%
X156070027Y-129653671D03*
%TD*%
D22*
%TO.P,R12,1*%
%TO.N,nRESET DMCU-2*%
X148275746Y-108960863D03*
%TO.P,R12,2*%
%TO.N,+3.3V*%
X149925746Y-108960863D03*
%TD*%
D36*
%TO.P,C8,1*%
%TO.N,GND*%
X146720000Y-112400000D03*
%TO.P,C8,2*%
%TO.N,+3.3V*%
X147680000Y-112400000D03*
%TD*%
D40*
%TO.N,+3.3V*%
X152475670Y-112024330D03*
X141500000Y-123409715D03*
X148200000Y-112314848D03*
X144287495Y-108863018D03*
X150182500Y-109940285D03*
X151060707Y-118250000D03*
X145595298Y-125301257D03*
X155705700Y-113181438D03*
X144932500Y-118200000D03*
%TO.N,2B*%
X149000000Y-111500000D03*
X148750000Y-115314848D03*
%TO.N,GND*%
X156000000Y-121000000D03*
X154250000Y-128750000D03*
X149200000Y-121400000D03*
X153000000Y-115400000D03*
X145200000Y-113000000D03*
X138400000Y-126400000D03*
X151000000Y-126600000D03*
X156945723Y-103944250D03*
X136750000Y-117000000D03*
X162400000Y-114000000D03*
X140500000Y-109000000D03*
X141800000Y-132600000D03*
X139127816Y-116830658D03*
X159557652Y-125638026D03*
X151400000Y-108600000D03*
X157922345Y-113646010D03*
X155800000Y-103800000D03*
X167000000Y-114750000D03*
X156400000Y-106400000D03*
X141500000Y-104500000D03*
X153872459Y-103285800D03*
X145500000Y-103250000D03*
X141500000Y-107750000D03*
X162508162Y-125750000D03*
X148200000Y-133000000D03*
X165500000Y-134250000D03*
X150000000Y-133000000D03*
X161306283Y-113311337D03*
X166797797Y-114080041D03*
X152670970Y-108350354D03*
X143500000Y-134250000D03*
X147000000Y-108250000D03*
X166400000Y-105000000D03*
X145500000Y-134250000D03*
X149000000Y-124800000D03*
X166250000Y-115000000D03*
X155000000Y-128750000D03*
X147200000Y-127400000D03*
X147200000Y-126200000D03*
X143000000Y-113200000D03*
X160957513Y-134235509D03*
X145500000Y-116000000D03*
X144000000Y-108000000D03*
X154904387Y-114628683D03*
X159750000Y-134250000D03*
X148600000Y-120600000D03*
X137500000Y-132250000D03*
X159250000Y-108000000D03*
X141500000Y-134250000D03*
X141500000Y-103250000D03*
X139000000Y-110500000D03*
X157750000Y-130250000D03*
X156158729Y-108696908D03*
X137000000Y-113750000D03*
X167500000Y-130250000D03*
X169199126Y-116809193D03*
X145103358Y-106965359D03*
X137967334Y-118471028D03*
X151400000Y-109600000D03*
X137948504Y-116119008D03*
X138400000Y-124400000D03*
X144000000Y-112200000D03*
X156488565Y-109466634D03*
X162800000Y-129600000D03*
X149800000Y-103400000D03*
X167500000Y-134250000D03*
X138176115Y-112780179D03*
X143266055Y-117623731D03*
X164600000Y-130400000D03*
X154250000Y-134250000D03*
X154893139Y-119007945D03*
X156340807Y-115459432D03*
X138194391Y-114510655D03*
X158209993Y-126290007D03*
X156750000Y-123500000D03*
X148235123Y-103101536D03*
X144250000Y-116500000D03*
X151000000Y-103400000D03*
X147500000Y-98000000D03*
X138400000Y-129000000D03*
X143400000Y-104200000D03*
X139368903Y-118611593D03*
X161000000Y-118500000D03*
X156600000Y-105200000D03*
X145805307Y-117856744D03*
X150800000Y-130800000D03*
X165750000Y-128000000D03*
X161500000Y-107250000D03*
X153314468Y-105231075D03*
X165936749Y-119539650D03*
X156515987Y-116911337D03*
X158438751Y-121678215D03*
X148912738Y-103791691D03*
X137892718Y-117114621D03*
X166630966Y-121194360D03*
X155750000Y-128750000D03*
X147058991Y-124916212D03*
X151500000Y-134250000D03*
X138500000Y-121250000D03*
X143800000Y-132800000D03*
X150475201Y-105205362D03*
X144000000Y-114250000D03*
X142070364Y-126457491D03*
X159598225Y-120598225D03*
X159110926Y-111000000D03*
X161869681Y-112833732D03*
X141500000Y-106250000D03*
X152005101Y-105201317D03*
X149000000Y-125800000D03*
X158000000Y-104750000D03*
X150385595Y-119463993D03*
X151000000Y-128000000D03*
X137500000Y-109250000D03*
X164400000Y-114800000D03*
X158554417Y-120621855D03*
X143800000Y-126600000D03*
X140000000Y-112400000D03*
X161720604Y-124842205D03*
X143600000Y-108600000D03*
X136769881Y-118947890D03*
X168000000Y-107200000D03*
X160500000Y-104250000D03*
X145000000Y-127000000D03*
X148200000Y-113472635D03*
X152641036Y-109156697D03*
X151750000Y-118011707D03*
X169000000Y-104200000D03*
X154936188Y-113456339D03*
X151000000Y-124600000D03*
X163200000Y-130600000D03*
X139073821Y-114514896D03*
X145500000Y-130250000D03*
X159457775Y-114305707D03*
X155500000Y-134000000D03*
X152497185Y-117118708D03*
X138630088Y-131614752D03*
%TO.N,I2C0_SDA*%
X152868556Y-114637373D03*
X151750000Y-115750000D03*
%TO.N,+5V*%
X158500000Y-107600000D03*
X163500000Y-120500000D03*
%TO.N,mosfet1_signalfire*%
X140250000Y-116750000D03*
%TO.N,BUZZER*%
X140250000Y-117750000D03*
%TO.N,CS_NAND MMCU*%
X142307500Y-120815285D03*
%TO.N,CS_SD MMCU*%
X144364235Y-121564457D03*
X145993131Y-120393131D03*
%TO.N,MOSI TMCU*%
X146932500Y-120440285D03*
%TO.N,SCK TMCU*%
X147432500Y-121100000D03*
%TO.N,MISO TMCU*%
X148932500Y-124100000D03*
%TO.N,D- DMCU-2*%
X159500000Y-115000000D03*
X151983539Y-112859062D03*
X161500000Y-114000000D03*
%TO.N,D+ DMCU-2*%
X156547286Y-107421190D03*
X165522425Y-111249098D03*
X151000000Y-112678425D03*
X163750000Y-111500000D03*
%TO.N,nRESET DMCU-2*%
X147504561Y-109732048D03*
%TO.N,SWDIO DMCU-2*%
X142500000Y-97000000D03*
%TO.N,Net-(J2-Pin_1)*%
X157000000Y-127927507D03*
X158250000Y-125556095D03*
%TO.N,Net-(J7-CC1)*%
X159750000Y-107250000D03*
%TO.N,Net-(U16-EN)*%
X169386500Y-119750000D03*
X167884912Y-127247548D03*
%TO.N,Net-(D13-A)*%
X162600000Y-109222323D03*
%TO.N,Net-(J7-CC2)*%
X166250000Y-111250000D03*
%TD*%
%TO.N,+3.3V*%
D41*
X144880000Y-118235587D02*
X144931826Y-118287413D01*
X152763707Y-118512707D02*
X151323414Y-118512707D01*
D42*
X152750000Y-111750000D02*
X154500000Y-111750000D01*
D41*
X147765152Y-112314848D02*
X147680000Y-112400000D01*
D42*
X149925746Y-109683531D02*
X150182500Y-109940285D01*
X149925746Y-108960863D02*
X149925746Y-109683531D01*
D41*
X149250000Y-130909715D02*
X148437501Y-130909715D01*
X144287495Y-109007495D02*
X144880000Y-109600000D01*
X143425000Y-121484715D02*
X143425000Y-120750000D01*
X158051001Y-123800001D02*
X152763707Y-118512707D01*
X141500000Y-123409715D02*
X143425000Y-121484715D01*
D42*
X154500000Y-111750000D02*
X155705700Y-112955700D01*
D41*
X158449999Y-123800001D02*
X158051001Y-123800001D01*
X144287495Y-108863018D02*
X144287495Y-109007495D01*
X148437501Y-130909715D02*
X146249801Y-128722015D01*
D42*
X152475670Y-112024330D02*
X152750000Y-111750000D01*
D41*
X155705700Y-113181438D02*
X155705700Y-112955700D01*
D42*
X144932500Y-118200000D02*
X144932500Y-117652500D01*
D41*
X148200000Y-112314848D02*
X147765152Y-112314848D01*
X144880000Y-117600000D02*
X144880000Y-118235587D01*
X144928447Y-125307375D02*
X146249801Y-125307375D01*
D42*
X144932500Y-117652500D02*
X144880000Y-117600000D01*
D41*
X151323414Y-118512707D02*
X151060707Y-118250000D01*
X146249801Y-128722015D02*
X146249801Y-125307375D01*
%TO.N,2B*%
X148750000Y-111750000D02*
X149000000Y-111500000D01*
X148750000Y-115314848D02*
X148750000Y-111750000D01*
%TO.N,GND*%
X144068717Y-108000000D02*
X145103358Y-106965359D01*
X148200000Y-113472635D02*
X148272475Y-113472635D01*
X143600000Y-109280000D02*
X143600000Y-108600000D01*
X160716249Y-110299323D02*
X160141249Y-109724323D01*
D43*
X159176895Y-111197312D02*
X159117930Y-111138347D01*
X159754753Y-111775170D02*
X159754753Y-112431649D01*
X159833373Y-112616406D02*
X159805856Y-112643923D01*
D41*
X156070027Y-129653671D02*
X157718803Y-129653671D01*
X168000000Y-108200000D02*
X168027249Y-108227249D01*
X161261249Y-110299323D02*
X160716249Y-110299323D01*
X147200000Y-126200000D02*
X147200000Y-125057221D01*
D43*
X159754753Y-112431649D02*
X159286963Y-111963859D01*
X159562134Y-111979583D02*
X159562134Y-111834135D01*
D41*
X142075000Y-127099715D02*
X142075000Y-126462127D01*
D43*
X159275170Y-111444965D02*
X159275170Y-111468551D01*
X159562134Y-111834135D02*
X159503169Y-111775170D01*
D41*
X143266055Y-117623731D02*
X143289786Y-117600000D01*
X168206249Y-110299323D02*
X168781249Y-109724323D01*
D43*
X159345928Y-111370276D02*
X159660409Y-111684757D01*
D41*
X146720000Y-112400000D02*
X147792635Y-113472635D01*
X165750000Y-128000000D02*
X165750000Y-126632375D01*
X143920000Y-109600000D02*
X143600000Y-109280000D01*
X165750000Y-126632375D02*
X167140253Y-125242122D01*
X157835782Y-129536692D02*
X157835782Y-130164218D01*
D43*
X159275170Y-111952066D02*
X159275170Y-111444965D01*
X159110926Y-111135274D02*
X159345928Y-111370276D01*
D41*
X147200000Y-125057221D02*
X147058991Y-124916212D01*
D43*
X159664340Y-111857721D02*
X159652547Y-111869514D01*
X159110926Y-111000000D02*
X159110926Y-111135274D01*
D41*
X157718803Y-129653671D02*
X157835782Y-129536692D01*
D43*
X159805856Y-112643923D02*
X159176895Y-112014962D01*
D41*
X157835782Y-130164218D02*
X157750000Y-130250000D01*
D43*
X159286963Y-111963859D02*
X159275170Y-111952066D01*
X159503169Y-111775170D02*
X159455997Y-111775170D01*
X159660409Y-111684757D02*
X159833373Y-111684757D01*
X159275170Y-111468551D02*
X159664340Y-111857721D01*
X159117930Y-111138347D02*
X159754753Y-111775170D01*
D41*
X147792635Y-113472635D02*
X148200000Y-113472635D01*
X167140253Y-123742122D02*
X167140253Y-124492122D01*
X163750000Y-114000000D02*
X162400000Y-114000000D01*
X168027249Y-109933323D02*
X167661249Y-110299323D01*
D43*
X159833373Y-111684757D02*
X159833373Y-112616406D01*
X159381307Y-111798756D02*
X159562134Y-111979583D01*
D41*
X167661249Y-110299323D02*
X168206249Y-110299323D01*
X143600000Y-108600000D02*
X143600000Y-108400000D01*
D43*
X159353790Y-111900962D02*
X159381307Y-111873445D01*
D41*
X143600000Y-108400000D02*
X144000000Y-108000000D01*
X142075000Y-126462127D02*
X142070364Y-126457491D01*
X143289786Y-117600000D02*
X143920000Y-117600000D01*
X144000000Y-108000000D02*
X144068717Y-108000000D01*
D43*
X159176895Y-111999238D02*
X159176895Y-111197312D01*
X159652547Y-111869514D02*
X159652547Y-112180064D01*
X159652547Y-112180064D02*
X159632892Y-112180064D01*
D41*
X168000000Y-107200000D02*
X168000000Y-108200000D01*
X162400000Y-114000000D02*
X162250000Y-114000000D01*
D43*
X159381307Y-111873445D02*
X159381307Y-111716205D01*
X159381307Y-111716205D02*
X159381307Y-111798756D01*
D41*
X168027249Y-108227249D02*
X168027249Y-109933323D01*
X167140253Y-124492122D02*
X167140253Y-125242122D01*
D43*
X159176895Y-112014962D02*
X159176895Y-111999238D01*
X159632892Y-112180064D02*
X159353790Y-111900962D01*
%TO.N,I2C0_SDA*%
D41*
X152868556Y-114637373D02*
X152862627Y-114637373D01*
X152862627Y-114637373D02*
X151750000Y-115750000D01*
%TO.N,+5V*%
D42*
X147658393Y-104380621D02*
X148212282Y-104380621D01*
X147247259Y-103969487D02*
X147247259Y-104352070D01*
X158388692Y-107711308D02*
X158388692Y-112388692D01*
X147247259Y-103969487D02*
X147658393Y-104380621D01*
X158500000Y-107600000D02*
X158500000Y-106250057D01*
X156848943Y-104599000D02*
X147099000Y-104599000D01*
X163500000Y-117500000D02*
X163500000Y-120500000D01*
X158500000Y-106250057D02*
X156848943Y-104599000D01*
X158500000Y-107600000D02*
X158388692Y-107711308D01*
X147099000Y-104599000D02*
X146971112Y-104471112D01*
X146971112Y-104471112D02*
X147247259Y-104194965D01*
X146971112Y-104447086D02*
X146529165Y-104005139D01*
X147247259Y-104194965D02*
X147247259Y-103969487D01*
X158388692Y-112388692D02*
X163500000Y-117500000D01*
X147247259Y-104352070D02*
X147362854Y-104467665D01*
X146971112Y-104471112D02*
X146971112Y-104447086D01*
%TO.N,mosfet1_signalfire*%
X139175000Y-117825000D02*
X140250000Y-116750000D01*
X136750000Y-117825000D02*
X139175000Y-117825000D01*
%TO.N,BUZZER*%
D41*
X140250000Y-118750000D02*
X140250000Y-117750000D01*
X156070027Y-131303671D02*
X151873698Y-135500000D01*
X141500000Y-135500000D02*
X137899000Y-131899000D01*
X137899000Y-131899000D02*
X137899000Y-121101000D01*
X137899000Y-121101000D02*
X140250000Y-118750000D01*
X151873698Y-135500000D02*
X141500000Y-135500000D01*
X156070027Y-131303671D02*
X157702761Y-131303671D01*
%TO.N,CS_NAND MMCU*%
X140947235Y-122175550D02*
X142307500Y-120815285D01*
X140947235Y-130594449D02*
X140947235Y-122175550D01*
X142075000Y-130909715D02*
X141262501Y-130909715D01*
X141262501Y-130909715D02*
X140947235Y-130594449D01*
%TO.N,CS_SD MMCU*%
X145075000Y-120750000D02*
X145636261Y-120750000D01*
X145993131Y-120393131D02*
X146001668Y-120384593D01*
X145075000Y-120750000D02*
X144809510Y-120750000D01*
X144364235Y-121564457D02*
X144364235Y-121460765D01*
X145636261Y-120750000D02*
X145993131Y-120393131D01*
X144364235Y-121460765D02*
X145075000Y-120750000D01*
%TO.N,MOSI TMCU*%
X149575000Y-126774715D02*
X149575000Y-123954689D01*
X146932500Y-120440285D02*
X146820311Y-120552474D01*
X149575000Y-123954689D02*
X146820311Y-121200000D01*
X146820311Y-120552474D02*
X146820311Y-121200000D01*
X149250000Y-127099715D02*
X149575000Y-126774715D01*
%TO.N,SCK TMCU*%
X150432500Y-127999714D02*
X150432500Y-124100000D01*
X150062499Y-128369715D02*
X150432500Y-127999714D01*
X150432500Y-124100000D02*
X147432500Y-121100000D01*
X149250000Y-128369715D02*
X150062499Y-128369715D01*
%TO.N,MISO TMCU*%
X142075000Y-129639715D02*
X142887499Y-129639715D01*
X144327447Y-124860733D02*
X144838180Y-124350000D01*
X148682500Y-124350000D02*
X148932500Y-124100000D01*
X144838180Y-124350000D02*
X147932500Y-124350000D01*
X144327447Y-128199767D02*
X144327447Y-124860733D01*
X147932500Y-124350000D02*
X148682500Y-124350000D01*
X142887499Y-129639715D02*
X144327447Y-128199767D01*
%TO.N,D- DMCU-2*%
X164019847Y-109523323D02*
X164510248Y-109523323D01*
X163711249Y-110299323D02*
X163711249Y-109831921D01*
X157000000Y-114000000D02*
X158000000Y-115000000D01*
X158000000Y-115000000D02*
X159500000Y-115000000D01*
X151983539Y-112859062D02*
X152670761Y-112859062D01*
X164711249Y-111261249D02*
X165750000Y-112300000D01*
X165750000Y-112300000D02*
X165249000Y-112801000D01*
X164711249Y-110299323D02*
X164711249Y-111261249D01*
X152670761Y-112859062D02*
X153811699Y-114000000D01*
X162699000Y-112801000D02*
X161500000Y-114000000D01*
X165249000Y-112801000D02*
X162699000Y-112801000D01*
X164711249Y-109724324D02*
X164711249Y-110299323D01*
X164510248Y-109523323D02*
X164711249Y-109724324D01*
X163711249Y-109831921D02*
X164019847Y-109523323D01*
X153811699Y-114000000D02*
X157000000Y-114000000D01*
%TO.N,D+ DMCU-2*%
X153580326Y-110250563D02*
X153948022Y-110618259D01*
X153226772Y-111254655D02*
X153311624Y-111169802D01*
X153311624Y-110830390D02*
X153156060Y-110674826D01*
X154372285Y-110193994D02*
X154004589Y-109826298D01*
X164211249Y-110299323D02*
X164211249Y-110788751D01*
X154089443Y-109402035D02*
X154427137Y-109064342D01*
X153410623Y-110080860D02*
X153410621Y-110080858D01*
X154287433Y-110618259D02*
X154372285Y-110533406D01*
X151000000Y-112491479D02*
X152392387Y-111099092D01*
X165522425Y-111249098D02*
X165211249Y-110937922D01*
X152731798Y-111099092D02*
X152887361Y-111254655D01*
X152986354Y-110505120D02*
X152986357Y-110505122D01*
X154427137Y-109064342D02*
X156070289Y-107421190D01*
X163750000Y-111500000D02*
X163750000Y-112300000D01*
X165211249Y-110937922D02*
X165211249Y-110299323D01*
X154004589Y-109486887D02*
X154089443Y-109402035D01*
X164211249Y-110788751D02*
X163750000Y-111250000D01*
X153049998Y-109720235D02*
X153410623Y-110080860D01*
X152986357Y-110505122D02*
X152625733Y-110144498D01*
X153410621Y-110080858D02*
X153580326Y-110250563D01*
X156070289Y-107421190D02*
X156547286Y-107421190D01*
X163750000Y-111250000D02*
X163750000Y-111500000D01*
X152625734Y-109805086D02*
X152710586Y-109720235D01*
X153156060Y-110674826D02*
X152986354Y-110505120D01*
X152710586Y-109720235D02*
G75*
G02*
X153049998Y-109720235I169706J-169701D01*
G01*
X152887361Y-111254655D02*
G75*
G03*
X153226772Y-111254656I169706J169707D01*
G01*
X152392387Y-111099092D02*
G75*
G02*
X152731798Y-111099091I169706J-169707D01*
G01*
X154004589Y-109826298D02*
G75*
G02*
X154004596Y-109486894I169711J169698D01*
G01*
X152625733Y-110144498D02*
G75*
G02*
X152625741Y-109805094I169667J169698D01*
G01*
X154372285Y-110533406D02*
G75*
G03*
X154372285Y-110193994I-169685J169706D01*
G01*
X153311624Y-111169802D02*
G75*
G03*
X153311620Y-110830394I-169724J169702D01*
G01*
X153948022Y-110618259D02*
G75*
G03*
X154287433Y-110618260I169706J169707D01*
G01*
%TO.N,nRESET DMCU-2*%
X148275746Y-107375688D02*
X143307957Y-102407899D01*
X148275746Y-108960863D02*
X148275746Y-107375688D01*
X143307957Y-102407899D02*
X143307957Y-101092101D01*
X148851000Y-100649000D02*
X149250000Y-100250000D01*
X143307957Y-101092101D02*
X143751058Y-100649000D01*
X143751058Y-100649000D02*
X148851000Y-100649000D01*
X149250000Y-100250000D02*
X149250000Y-99250000D01*
X147504561Y-109732048D02*
X148275746Y-108960863D01*
%TO.N,SWDIO DMCU-2*%
X143880000Y-97000000D02*
X144170000Y-96710000D01*
X142500000Y-97000000D02*
X143880000Y-97000000D01*
%TO.N,Net-(J2-Pin_1)*%
D42*
X159072493Y-127927507D02*
X159500000Y-127500000D01*
X158326024Y-125556095D02*
X158250000Y-125556095D01*
X159500000Y-127500000D02*
X159500000Y-126730071D01*
X159500000Y-126730071D02*
X158326024Y-125556095D01*
X157000000Y-127927507D02*
X159072493Y-127927507D01*
%TO.N,Net-(J7-CC1)*%
D41*
X159950885Y-111075323D02*
X159440249Y-110564687D01*
X159440249Y-108809751D02*
X159440249Y-108803762D01*
X162902651Y-111075323D02*
X159950885Y-111075323D01*
X159440249Y-108518272D02*
X159440249Y-109250000D01*
X163211249Y-110766725D02*
X162902651Y-111075323D01*
X159440249Y-110564687D02*
X159440249Y-109250000D01*
X159750000Y-107250000D02*
X159750000Y-108208521D01*
X159750000Y-108208521D02*
X159440249Y-108518272D01*
X159440249Y-109250000D02*
X159440249Y-108809751D01*
X163211249Y-110299323D02*
X163211249Y-110766725D01*
%TO.N,Net-(U16-EN)*%
X169386500Y-125863500D02*
X169386500Y-119750000D01*
X168002452Y-127247548D02*
X169386500Y-125863500D01*
X167884912Y-127247548D02*
X168002452Y-127247548D01*
%TO.N,Net-(D13-A)*%
X166861249Y-110299323D02*
X166861249Y-109724324D01*
X165750000Y-114200000D02*
X166861249Y-113088751D01*
X162600000Y-109222323D02*
X162563250Y-109222323D01*
X162563250Y-109222323D02*
X162061249Y-109724324D01*
X162061249Y-109724324D02*
X162061249Y-110299323D01*
X166359248Y-109222323D02*
X162600000Y-109222323D01*
X166861249Y-109724324D02*
X166359248Y-109222323D01*
X166861249Y-113088751D02*
X166861249Y-110299323D01*
%TO.N,Net-(J7-CC2)*%
X166250000Y-110338074D02*
X166211249Y-110299323D01*
X166250000Y-111250000D02*
X166250000Y-110338074D01*
%TO.N,Net-(J16-Pin_2)*%
D42*
X142500000Y-108366746D02*
X144897259Y-105969487D01*
X142245141Y-110504859D02*
X142500000Y-110250000D01*
X139778874Y-109724095D02*
X140559638Y-110504859D01*
X142500000Y-110250000D02*
X142500000Y-108366746D01*
X140559638Y-110504859D02*
X142245141Y-110504859D01*
%TO.N,Net-(Q2-G)*%
X136750000Y-116175000D02*
X136750000Y-115000289D01*
X136750000Y-115000289D02*
X137018712Y-114731577D01*
%TO.N,Net-(D2-A)*%
X136718333Y-111279351D02*
X136685610Y-111312074D01*
X136718333Y-109817907D02*
X136718333Y-111279351D01*
%TO.N,Net-(Q2-D)*%
X138893712Y-113781577D02*
X138893712Y-111890849D01*
X138314937Y-111312074D02*
X139716853Y-111312074D01*
X139716853Y-111312074D02*
X139778874Y-111374095D01*
X138893712Y-111890849D02*
X138314937Y-111312074D01*
%TO.N,Net-(D2-K)*%
X138177473Y-105909907D02*
X139578473Y-104508907D01*
X138293333Y-109817907D02*
X138177473Y-109702047D01*
X137500000Y-112350289D02*
X137500000Y-110611240D01*
X138177473Y-109702047D02*
X138177473Y-105909907D01*
X137018712Y-112831577D02*
X137500000Y-112350289D01*
X137500000Y-110611240D02*
X138293333Y-109817907D01*
%TO.N,Net-(J1-Pin_2)*%
X141296159Y-108766593D02*
X139578473Y-107048907D01*
X141296159Y-109766359D02*
X141296159Y-108766593D01*
%TO.N,Net-(U6-~{WP}{slash}IO_{2})*%
D41*
X142136068Y-128369715D02*
X143278447Y-127227336D01*
X143278447Y-127227336D02*
X143278447Y-125307375D01*
X142075000Y-128369715D02*
X142136068Y-128369715D01*
%TO.N,Net-(Q1-D)*%
X159710782Y-130486692D02*
X165550001Y-124647473D01*
X165550001Y-124647473D02*
X165550001Y-123800001D01*
%TO.N,Net-(U6-~{HOLD}{slash}~{RESET}{slash}IO_{3})*%
X148437501Y-129639715D02*
X149250000Y-129639715D01*
X147899801Y-125307375D02*
X147899801Y-129102015D01*
X147899801Y-129102015D02*
X148437501Y-129639715D01*
%TD*%
%TA.AperFunction,Conductor*%
%TO.N,GND*%
G36*
X141705703Y-97115536D02*
G01*
X141743477Y-97174314D01*
X141746117Y-97185058D01*
X141754300Y-97226197D01*
X141754302Y-97226205D01*
X141812759Y-97367334D01*
X141812764Y-97367343D01*
X141897629Y-97494351D01*
X141897632Y-97494355D01*
X142005644Y-97602367D01*
X142005648Y-97602370D01*
X142132656Y-97687235D01*
X142132665Y-97687240D01*
X142164636Y-97700482D01*
X142273795Y-97745698D01*
X142423615Y-97775499D01*
X142423619Y-97775500D01*
X142423620Y-97775500D01*
X142576381Y-97775500D01*
X142576382Y-97775499D01*
X142726205Y-97745698D01*
X142867337Y-97687239D01*
X142965875Y-97621398D01*
X143032552Y-97600520D01*
X143034766Y-97600500D01*
X143099242Y-97600500D01*
X143166281Y-97620185D01*
X143186923Y-97636819D01*
X143253430Y-97703326D01*
X143286915Y-97764649D01*
X143281931Y-97834341D01*
X143240059Y-97890274D01*
X143209083Y-97907189D01*
X143077669Y-97956203D01*
X143077664Y-97956206D01*
X142962455Y-98042452D01*
X142962452Y-98042455D01*
X142876206Y-98157664D01*
X142876202Y-98157671D01*
X142825908Y-98292517D01*
X142819501Y-98352116D01*
X142819501Y-98352123D01*
X142819500Y-98352135D01*
X142819500Y-100147870D01*
X142819501Y-100147876D01*
X142825908Y-100207483D01*
X142876202Y-100342328D01*
X142876204Y-100342331D01*
X142954069Y-100446346D01*
X142978487Y-100511808D01*
X142963636Y-100580082D01*
X142942498Y-100608324D01*
X142939243Y-100611579D01*
X142827439Y-100723382D01*
X142827435Y-100723388D01*
X142777674Y-100809577D01*
X142748381Y-100860313D01*
X142748380Y-100860314D01*
X142730509Y-100927011D01*
X142707456Y-101013044D01*
X142707456Y-101013046D01*
X142707456Y-101181147D01*
X142707457Y-101181160D01*
X142707457Y-102321229D01*
X142707456Y-102321247D01*
X142707456Y-102486953D01*
X142707455Y-102486953D01*
X142710951Y-102500000D01*
X141500503Y-102500000D01*
X141500768Y-102451539D01*
X141500500Y-102450881D01*
X141500500Y-97209249D01*
X141520185Y-97142210D01*
X141572989Y-97096455D01*
X141642147Y-97086511D01*
X141705703Y-97115536D01*
G37*
%TD.AperFunction*%
%TA.AperFunction,Conductor*%
G36*
X151192539Y-95020185D02*
G01*
X151238294Y-95072989D01*
X151249500Y-95124500D01*
X151249500Y-102438070D01*
X151249405Y-102439044D01*
X151249500Y-102500000D01*
X150801035Y-102500000D01*
X150891897Y-102462364D01*
X150962364Y-102391897D01*
X151000500Y-102299828D01*
X151000500Y-101200172D01*
X150962364Y-101108103D01*
X150891897Y-101037636D01*
X150799829Y-100999500D01*
X150799828Y-100999500D01*
X149649096Y-100999500D01*
X149582057Y-100979815D01*
X149536302Y-100927011D01*
X149526358Y-100857853D01*
X149555383Y-100794297D01*
X149561414Y-100787820D01*
X149618713Y-100730521D01*
X149618716Y-100730520D01*
X149730520Y-100618716D01*
X149780639Y-100531904D01*
X149792198Y-100511883D01*
X149842765Y-100463673D01*
X149843092Y-100463504D01*
X149957816Y-100405051D01*
X150049672Y-100338313D01*
X150129786Y-100280109D01*
X150129788Y-100280106D01*
X150129792Y-100280104D01*
X150280104Y-100129792D01*
X150280106Y-100129788D01*
X150280109Y-100129786D01*
X150405048Y-99957820D01*
X150405047Y-99957820D01*
X150405051Y-99957816D01*
X150501557Y-99768412D01*
X150567246Y-99566243D01*
X150600500Y-99356287D01*
X150600500Y-99143713D01*
X150567246Y-98933757D01*
X150501557Y-98731588D01*
X150405051Y-98542184D01*
X150405049Y-98542181D01*
X150405048Y-98542179D01*
X150280109Y-98370213D01*
X150129786Y-98219890D01*
X149957820Y-98094951D01*
X149957115Y-98094591D01*
X149949054Y-98090485D01*
X149898259Y-98042512D01*
X149881463Y-97974692D01*
X149903999Y-97908556D01*
X149949054Y-97869515D01*
X149957816Y-97865051D01*
X150047554Y-97799853D01*
X150129786Y-97740109D01*
X150129788Y-97740106D01*
X150129792Y-97740104D01*
X150280104Y-97589792D01*
X150280106Y-97589788D01*
X150280109Y-97589786D01*
X150405048Y-97417820D01*
X150405047Y-97417820D01*
X150405051Y-97417816D01*
X150501557Y-97228412D01*
X150567246Y-97026243D01*
X150600500Y-96816287D01*
X150600500Y-96603713D01*
X150567246Y-96393757D01*
X150501557Y-96191588D01*
X150405051Y-96002184D01*
X150405049Y-96002181D01*
X150405048Y-96002179D01*
X150280109Y-95830213D01*
X150129786Y-95679890D01*
X149957820Y-95554951D01*
X149768414Y-95458444D01*
X149768413Y-95458443D01*
X149768412Y-95458443D01*
X149566243Y-95392754D01*
X149566241Y-95392753D01*
X149566240Y-95392753D01*
X149404957Y-95367208D01*
X149356287Y-95359500D01*
X149143713Y-95359500D01*
X149095042Y-95367208D01*
X148933760Y-95392753D01*
X148731585Y-95458444D01*
X148542179Y-95554951D01*
X148370213Y-95679890D01*
X148219890Y-95830213D01*
X148094949Y-96002182D01*
X148090202Y-96011499D01*
X148042227Y-96062293D01*
X147974405Y-96079087D01*
X147908271Y-96056548D01*
X147869234Y-96011495D01*
X147864626Y-96002452D01*
X147825270Y-95948282D01*
X147825269Y-95948282D01*
X147192962Y-96580590D01*
X147175925Y-96517007D01*
X147110099Y-96402993D01*
X147017007Y-96309901D01*
X146902993Y-96244075D01*
X146839409Y-96227037D01*
X147471716Y-95594728D01*
X147417550Y-95555375D01*
X147228217Y-95458904D01*
X147026129Y-95393242D01*
X146816246Y-95360000D01*
X146603754Y-95360000D01*
X146393872Y-95393242D01*
X146393869Y-95393242D01*
X146191782Y-95458904D01*
X146002439Y-95555380D01*
X145948282Y-95594727D01*
X145948282Y-95594728D01*
X146580591Y-96227037D01*
X146517007Y-96244075D01*
X146402993Y-96309901D01*
X146309901Y-96402993D01*
X146244075Y-96517007D01*
X146227037Y-96580591D01*
X145594728Y-95948282D01*
X145594727Y-95948282D01*
X145555380Y-96002440D01*
X145555376Y-96002446D01*
X145550760Y-96011505D01*
X145502781Y-96062297D01*
X145434959Y-96079087D01*
X145368826Y-96056543D01*
X145329794Y-96011493D01*
X145325051Y-96002184D01*
X145325049Y-96002181D01*
X145325048Y-96002179D01*
X145200109Y-95830213D01*
X145049786Y-95679890D01*
X144877820Y-95554951D01*
X144688414Y-95458444D01*
X144688413Y-95458443D01*
X144688412Y-95458443D01*
X144486243Y-95392754D01*
X144486241Y-95392753D01*
X144486240Y-95392753D01*
X144324957Y-95367208D01*
X144276287Y-95359500D01*
X144063713Y-95359500D01*
X144015042Y-95367208D01*
X143853760Y-95392753D01*
X143651585Y-95458444D01*
X143462179Y-95554951D01*
X143290213Y-95679890D01*
X143139890Y-95830213D01*
X143014951Y-96002179D01*
X142918441Y-96191589D01*
X142916582Y-96196081D01*
X142915048Y-96195446D01*
X142879678Y-96247156D01*
X142815315Y-96274343D01*
X142753751Y-96265711D01*
X142726209Y-96254303D01*
X142726197Y-96254300D01*
X142576384Y-96224500D01*
X142576380Y-96224500D01*
X142423620Y-96224500D01*
X142423615Y-96224500D01*
X142273802Y-96254300D01*
X142273794Y-96254302D01*
X142132665Y-96312759D01*
X142132656Y-96312764D01*
X142005648Y-96397629D01*
X142005644Y-96397632D01*
X141897632Y-96505644D01*
X141897629Y-96505648D01*
X141812764Y-96632656D01*
X141812759Y-96632665D01*
X141754302Y-96773794D01*
X141754300Y-96773802D01*
X141746117Y-96814941D01*
X141713732Y-96876852D01*
X141653016Y-96911426D01*
X141583247Y-96907687D01*
X141526575Y-96866820D01*
X141500994Y-96801802D01*
X141500500Y-96790750D01*
X141500500Y-95124500D01*
X141520185Y-95057461D01*
X141572989Y-95011706D01*
X141624500Y-95000500D01*
X151125500Y-95000500D01*
X151192539Y-95020185D01*
G37*
%TD.AperFunction*%
%TA.AperFunction,Conductor*%
G36*
X146244075Y-96902993D02*
G01*
X146309901Y-97017007D01*
X146402993Y-97110099D01*
X146517007Y-97175925D01*
X146580590Y-97192962D01*
X145948282Y-97825269D01*
X145948282Y-97825270D01*
X146002452Y-97864626D01*
X146012048Y-97869516D01*
X146062844Y-97917491D01*
X146079638Y-97985312D01*
X146057100Y-98051447D01*
X146012051Y-98090483D01*
X146002440Y-98095380D01*
X145948282Y-98134727D01*
X145948282Y-98134728D01*
X146580591Y-98767037D01*
X146517007Y-98784075D01*
X146402993Y-98849901D01*
X146309901Y-98942993D01*
X146244075Y-99057007D01*
X146227037Y-99120591D01*
X145556818Y-98450372D01*
X145523333Y-98389049D01*
X145520499Y-98362691D01*
X145520499Y-98352129D01*
X145520498Y-98352123D01*
X145520497Y-98352116D01*
X145514091Y-98292517D01*
X145463796Y-98157669D01*
X145463795Y-98157668D01*
X145463793Y-98157664D01*
X145377547Y-98042455D01*
X145377544Y-98042452D01*
X145262335Y-97956206D01*
X145262328Y-97956202D01*
X145130917Y-97907189D01*
X145074983Y-97865318D01*
X145050566Y-97799853D01*
X145065418Y-97731580D01*
X145086566Y-97703329D01*
X145200104Y-97589792D01*
X145325051Y-97417816D01*
X145329793Y-97408508D01*
X145377763Y-97357711D01*
X145445583Y-97340911D01*
X145511719Y-97363445D01*
X145550763Y-97408500D01*
X145555373Y-97417547D01*
X145594728Y-97471716D01*
X146227037Y-96839408D01*
X146244075Y-96902993D01*
G37*
%TD.AperFunction*%
%TA.AperFunction,Conductor*%
G36*
X147825270Y-97471717D02*
G01*
X147825270Y-97471716D01*
X147864622Y-97417555D01*
X147869232Y-97408507D01*
X147917205Y-97357709D01*
X147985025Y-97340912D01*
X148051161Y-97363447D01*
X148090204Y-97408504D01*
X148094949Y-97417817D01*
X148219890Y-97589786D01*
X148370213Y-97740109D01*
X148542182Y-97865050D01*
X148550946Y-97869516D01*
X148601742Y-97917491D01*
X148618536Y-97985312D01*
X148595998Y-98051447D01*
X148550946Y-98090484D01*
X148542182Y-98094949D01*
X148370213Y-98219890D01*
X148219890Y-98370213D01*
X148094949Y-98542182D01*
X148090202Y-98551499D01*
X148042227Y-98602293D01*
X147974405Y-98619087D01*
X147908271Y-98596548D01*
X147869234Y-98551495D01*
X147864626Y-98542452D01*
X147825270Y-98488282D01*
X147825269Y-98488282D01*
X147192962Y-99120589D01*
X147175925Y-99057007D01*
X147110099Y-98942993D01*
X147017007Y-98849901D01*
X146902993Y-98784075D01*
X146839409Y-98767037D01*
X147471716Y-98134728D01*
X147417550Y-98095375D01*
X147407954Y-98090486D01*
X147357157Y-98042512D01*
X147340361Y-97974692D01*
X147362897Y-97908556D01*
X147407954Y-97869514D01*
X147417554Y-97864622D01*
X147471716Y-97825270D01*
X147471717Y-97825270D01*
X146839408Y-97192962D01*
X146902993Y-97175925D01*
X147017007Y-97110099D01*
X147110099Y-97017007D01*
X147175925Y-96902993D01*
X147192962Y-96839408D01*
X147825270Y-97471717D01*
G37*
%TD.AperFunction*%
%TD*%
%TA.AperFunction,Conductor*%
%TO.N,GND*%
G36*
X136428001Y-121010959D02*
G01*
X136549762Y-121092318D01*
X136549768Y-121092321D01*
X136549769Y-121092322D01*
X136722749Y-121163973D01*
X136880996Y-121195450D01*
X136906379Y-121200499D01*
X136906383Y-121200500D01*
X136906384Y-121200500D01*
X137093617Y-121200500D01*
X137093617Y-121200499D01*
X137150309Y-121189223D01*
X137219899Y-121195450D01*
X137275077Y-121238312D01*
X137298322Y-121304202D01*
X137298500Y-121310840D01*
X137298500Y-131812330D01*
X137298499Y-131812348D01*
X137298499Y-131978054D01*
X137298498Y-131978054D01*
X137339423Y-132130786D01*
X137348869Y-132147145D01*
X137348870Y-132147149D01*
X137348871Y-132147149D01*
X137418477Y-132267712D01*
X137418481Y-132267717D01*
X137537349Y-132386585D01*
X137537355Y-132386590D01*
X141015139Y-135864374D01*
X141015149Y-135864385D01*
X141019479Y-135868715D01*
X141019480Y-135868716D01*
X141131284Y-135980520D01*
X141218095Y-136030639D01*
X141218094Y-136030639D01*
X141223163Y-136033565D01*
X141271381Y-136084130D01*
X141284607Y-136152736D01*
X141258642Y-136217602D01*
X141201730Y-136258133D01*
X141161168Y-136264955D01*
X136359110Y-136264955D01*
X136292071Y-136245270D01*
X136246316Y-136192466D01*
X136235110Y-136140955D01*
X136235110Y-134906379D01*
X136549500Y-134906379D01*
X136549500Y-135093620D01*
X136586025Y-135277243D01*
X136586027Y-135277251D01*
X136657676Y-135450228D01*
X136657681Y-135450237D01*
X136761697Y-135605907D01*
X136761700Y-135605911D01*
X136894088Y-135738299D01*
X136894092Y-135738302D01*
X137049762Y-135842318D01*
X137049768Y-135842321D01*
X137049769Y-135842322D01*
X137222749Y-135913973D01*
X137406379Y-135950499D01*
X137406383Y-135950500D01*
X137406384Y-135950500D01*
X137593617Y-135950500D01*
X137593618Y-135950499D01*
X137777251Y-135913973D01*
X137950231Y-135842322D01*
X138105908Y-135738302D01*
X138238302Y-135605908D01*
X138342322Y-135450231D01*
X138413973Y-135277251D01*
X138450500Y-135093616D01*
X138450500Y-134906384D01*
X138413973Y-134722749D01*
X138342322Y-134549769D01*
X138342321Y-134549768D01*
X138342318Y-134549762D01*
X138238302Y-134394092D01*
X138238299Y-134394088D01*
X138105911Y-134261700D01*
X138105907Y-134261697D01*
X137950237Y-134157681D01*
X137950228Y-134157676D01*
X137777251Y-134086027D01*
X137777243Y-134086025D01*
X137593620Y-134049500D01*
X137593616Y-134049500D01*
X137406384Y-134049500D01*
X137406379Y-134049500D01*
X137222756Y-134086025D01*
X137222748Y-134086027D01*
X137049771Y-134157676D01*
X137049762Y-134157681D01*
X136894092Y-134261697D01*
X136894088Y-134261700D01*
X136761700Y-134394088D01*
X136761697Y-134394092D01*
X136657681Y-134549762D01*
X136657676Y-134549771D01*
X136586027Y-134722748D01*
X136586025Y-134722756D01*
X136549500Y-134906379D01*
X136235110Y-134906379D01*
X136235110Y-121114061D01*
X136254795Y-121047022D01*
X136307599Y-121001267D01*
X136376757Y-120991323D01*
X136428001Y-121010959D01*
G37*
%TD.AperFunction*%
%TA.AperFunction,Conductor*%
G36*
X147118135Y-126007212D02*
G01*
X147162482Y-126035713D01*
X147262982Y-126136213D01*
X147296467Y-126197536D01*
X147299301Y-126223894D01*
X147299301Y-128622918D01*
X147279616Y-128689957D01*
X147226812Y-128735712D01*
X147157654Y-128745656D01*
X147094098Y-128716631D01*
X147087620Y-128710599D01*
X146886620Y-128509599D01*
X146853135Y-128448276D01*
X146850301Y-128421918D01*
X146850301Y-126223894D01*
X146869986Y-126156855D01*
X146886620Y-126136213D01*
X146987120Y-126035713D01*
X147048443Y-126002228D01*
X147118135Y-126007212D01*
G37*
%TD.AperFunction*%
%TA.AperFunction,Conductor*%
G36*
X146143295Y-121194709D02*
G01*
X146199230Y-121236578D01*
X146219741Y-121278798D01*
X146219810Y-121279055D01*
X146219810Y-121279057D01*
X146238715Y-121349612D01*
X146260733Y-121431783D01*
X146282635Y-121469718D01*
X146272884Y-121475347D01*
X146336148Y-121563968D01*
X146339792Y-121568717D01*
X146458660Y-121687585D01*
X146458666Y-121687590D01*
X148276834Y-123505759D01*
X148310319Y-123567082D01*
X148305335Y-123636774D01*
X148292255Y-123662331D01*
X148270833Y-123694391D01*
X148217221Y-123739196D01*
X148167731Y-123749500D01*
X144924850Y-123749500D01*
X144924834Y-123749499D01*
X144917238Y-123749499D01*
X144759123Y-123749499D01*
X144682759Y-123769961D01*
X144606394Y-123790423D01*
X144606389Y-123790426D01*
X144469470Y-123869475D01*
X144469462Y-123869481D01*
X143958726Y-124380217D01*
X143950166Y-124388776D01*
X143888841Y-124422258D01*
X143819150Y-124417269D01*
X143798342Y-124407207D01*
X143768053Y-124388897D01*
X143605643Y-124338289D01*
X143605641Y-124338288D01*
X143605639Y-124338288D01*
X143556225Y-124333798D01*
X143535063Y-124331875D01*
X143021831Y-124331875D01*
X143002592Y-124333623D01*
X142951254Y-124338288D01*
X142788840Y-124388897D01*
X142643258Y-124476905D01*
X142522977Y-124597186D01*
X142434969Y-124742768D01*
X142384360Y-124905182D01*
X142377947Y-124975761D01*
X142377947Y-125638988D01*
X142384360Y-125709567D01*
X142384360Y-125709569D01*
X142384361Y-125709571D01*
X142434969Y-125871981D01*
X142516719Y-126007212D01*
X142522977Y-126017563D01*
X142568448Y-126063034D01*
X142601933Y-126124357D01*
X142596949Y-126194049D01*
X142555077Y-126249982D01*
X142489613Y-126274399D01*
X142480767Y-126274715D01*
X142325000Y-126274715D01*
X142325000Y-126975715D01*
X142305315Y-127042754D01*
X142252511Y-127088509D01*
X142201000Y-127099715D01*
X141949000Y-127099715D01*
X141881961Y-127080030D01*
X141836206Y-127027226D01*
X141825000Y-126975715D01*
X141825000Y-126274715D01*
X141671735Y-126274715D01*
X141604696Y-126255030D01*
X141558941Y-126202226D01*
X141547735Y-126150715D01*
X141547735Y-124292677D01*
X141567420Y-124225638D01*
X141620224Y-124179883D01*
X141647544Y-124171060D01*
X141680144Y-124164575D01*
X141726205Y-124155413D01*
X141867337Y-124096954D01*
X141994352Y-124012085D01*
X142102370Y-123904067D01*
X142187239Y-123777052D01*
X142245698Y-123635920D01*
X142268819Y-123519684D01*
X142301204Y-123457773D01*
X142302700Y-123456249D01*
X143643323Y-122115625D01*
X143704644Y-122082142D01*
X143774336Y-122087126D01*
X143818684Y-122115628D01*
X143869879Y-122166824D01*
X143869883Y-122166827D01*
X143996891Y-122251692D01*
X143996900Y-122251697D01*
X144003933Y-122254610D01*
X144138030Y-122310155D01*
X144287850Y-122339956D01*
X144287854Y-122339957D01*
X144287855Y-122339957D01*
X144440616Y-122339957D01*
X144440617Y-122339956D01*
X144590440Y-122310155D01*
X144731572Y-122251696D01*
X144858587Y-122166827D01*
X144966605Y-122058809D01*
X145051474Y-121931794D01*
X145105217Y-121802046D01*
X145149058Y-121747644D01*
X145215352Y-121725579D01*
X145219778Y-121725500D01*
X145331613Y-121725500D01*
X145331616Y-121725500D01*
X145402196Y-121719086D01*
X145564606Y-121668478D01*
X145710185Y-121580472D01*
X145830472Y-121460185D01*
X145918478Y-121314606D01*
X145918480Y-121314598D01*
X145921555Y-121307767D01*
X145923264Y-121308536D01*
X145924860Y-121299979D01*
X145941946Y-121281838D01*
X145955759Y-121261099D01*
X145972550Y-121249348D01*
X145972766Y-121249119D01*
X145972939Y-121249075D01*
X145973422Y-121248738D01*
X145978686Y-121245699D01*
X146004977Y-121230520D01*
X146012285Y-121223211D01*
X146073603Y-121189727D01*
X146143295Y-121194709D01*
G37*
%TD.AperFunction*%
%TA.AperFunction,Conductor*%
G36*
X156574463Y-105319185D02*
G01*
X156595105Y-105335819D01*
X157763181Y-106503895D01*
X157796666Y-106565218D01*
X157799500Y-106591576D01*
X157799500Y-107240011D01*
X157793558Y-107277935D01*
X157792002Y-107282778D01*
X157754302Y-107373795D01*
X157740538Y-107442985D01*
X157738364Y-107449756D01*
X157737267Y-107451371D01*
X157734867Y-107459284D01*
X157715115Y-107506969D01*
X157715110Y-107506985D01*
X157695014Y-107608019D01*
X157695014Y-107608021D01*
X157688192Y-107642315D01*
X157688192Y-112319698D01*
X157688192Y-112457686D01*
X157688192Y-112457688D01*
X157688191Y-112457688D01*
X157715110Y-112593014D01*
X157715113Y-112593024D01*
X157767914Y-112720499D01*
X157844579Y-112835237D01*
X157844580Y-112835238D01*
X159139384Y-114130041D01*
X159172869Y-114191364D01*
X159167885Y-114261056D01*
X159126013Y-114316989D01*
X159120595Y-114320824D01*
X159101704Y-114333447D01*
X159034124Y-114378602D01*
X158967449Y-114399480D01*
X158965234Y-114399500D01*
X158300098Y-114399500D01*
X158233059Y-114379815D01*
X158212417Y-114363181D01*
X157487590Y-113638355D01*
X157487588Y-113638352D01*
X157368717Y-113519481D01*
X157368716Y-113519480D01*
X157264934Y-113459562D01*
X157264933Y-113459561D01*
X157231783Y-113440422D01*
X157170957Y-113424124D01*
X157079057Y-113399499D01*
X156920943Y-113399499D01*
X156913347Y-113399499D01*
X156913331Y-113399500D01*
X156604059Y-113399500D01*
X156537020Y-113379815D01*
X156491265Y-113327011D01*
X156480656Y-113263351D01*
X156481200Y-113257825D01*
X156481200Y-113105057D01*
X156481199Y-113105053D01*
X156471281Y-113055194D01*
X156451398Y-112955233D01*
X156395339Y-112819895D01*
X156388282Y-112796632D01*
X156384427Y-112777251D01*
X156379280Y-112751371D01*
X156345951Y-112670910D01*
X156326475Y-112623890D01*
X156300804Y-112585470D01*
X156249814Y-112509157D01*
X156249812Y-112509155D01*
X156249810Y-112509152D01*
X154946546Y-111205888D01*
X154946538Y-111205882D01*
X154833888Y-111130612D01*
X154789082Y-111077000D01*
X154780375Y-111007675D01*
X154810529Y-110944648D01*
X154815089Y-110939837D01*
X154855419Y-110899513D01*
X154947413Y-110761848D01*
X155010780Y-110608879D01*
X155043085Y-110446487D01*
X155043085Y-110280913D01*
X155010780Y-110118521D01*
X154947413Y-109965552D01*
X154855419Y-109827887D01*
X154809427Y-109781900D01*
X154771801Y-109744274D01*
X154738316Y-109682951D01*
X154743300Y-109613259D01*
X154771798Y-109568914D01*
X154907656Y-109433058D01*
X156158370Y-108182342D01*
X156219691Y-108148859D01*
X156289382Y-108153843D01*
X156293495Y-108155461D01*
X156321081Y-108166888D01*
X156470901Y-108196689D01*
X156470905Y-108196690D01*
X156470906Y-108196690D01*
X156623667Y-108196690D01*
X156623668Y-108196689D01*
X156773491Y-108166888D01*
X156914623Y-108108429D01*
X157041638Y-108023560D01*
X157149656Y-107915542D01*
X157234525Y-107788527D01*
X157292984Y-107647395D01*
X157322786Y-107497570D01*
X157322786Y-107344810D01*
X157292984Y-107194985D01*
X157234525Y-107053853D01*
X157234524Y-107053852D01*
X157234521Y-107053846D01*
X157149656Y-106926838D01*
X157149653Y-106926834D01*
X157041641Y-106818822D01*
X157041637Y-106818819D01*
X156914629Y-106733954D01*
X156914620Y-106733949D01*
X156773491Y-106675492D01*
X156773483Y-106675490D01*
X156623670Y-106645690D01*
X156623666Y-106645690D01*
X156470906Y-106645690D01*
X156470901Y-106645690D01*
X156321088Y-106675490D01*
X156321080Y-106675492D01*
X156179951Y-106733949D01*
X156179942Y-106733954D01*
X156081412Y-106799791D01*
X156014735Y-106820669D01*
X156012521Y-106820689D01*
X155991232Y-106820689D01*
X155925568Y-106838284D01*
X155838505Y-106861612D01*
X155802043Y-106882664D01*
X155802042Y-106882663D01*
X155701576Y-106940667D01*
X155701571Y-106940671D01*
X155589767Y-107052476D01*
X154058422Y-108583822D01*
X153659215Y-108983026D01*
X153659211Y-108983031D01*
X153524074Y-109118165D01*
X153524053Y-109118200D01*
X153521450Y-109120804D01*
X153521442Y-109120813D01*
X153504102Y-109146765D01*
X153450489Y-109191570D01*
X153381164Y-109200276D01*
X153332110Y-109180975D01*
X153317096Y-109170943D01*
X153278423Y-109145102D01*
X153201941Y-109113421D01*
X153125459Y-109081740D01*
X153125454Y-109081739D01*
X152963077Y-109049440D01*
X152963075Y-109049440D01*
X152797509Y-109049440D01*
X152797507Y-109049440D01*
X152635129Y-109081739D01*
X152635124Y-109081740D01*
X152482159Y-109145103D01*
X152344497Y-109237087D01*
X152344493Y-109237090D01*
X152309008Y-109272577D01*
X152309007Y-109272579D01*
X152205384Y-109376201D01*
X152205383Y-109376200D01*
X152142633Y-109438950D01*
X152050625Y-109576618D01*
X151987250Y-109729581D01*
X151987247Y-109729592D01*
X151954935Y-109891988D01*
X151954932Y-110057573D01*
X151987233Y-110219961D01*
X151987234Y-110219964D01*
X151987235Y-110219967D01*
X151987236Y-110219970D01*
X152050606Y-110372945D01*
X152050608Y-110372949D01*
X152086461Y-110426600D01*
X152107343Y-110493276D01*
X152088862Y-110560657D01*
X152057581Y-110594833D01*
X152054951Y-110596797D01*
X152026306Y-110615938D01*
X152023673Y-110618570D01*
X152023671Y-110618572D01*
X152017361Y-110624881D01*
X152017358Y-110624884D01*
X150681505Y-111960737D01*
X150641283Y-111987614D01*
X150632669Y-111991182D01*
X150632666Y-111991184D01*
X150505647Y-112076054D01*
X150397632Y-112184069D01*
X150397629Y-112184073D01*
X150312764Y-112311081D01*
X150312759Y-112311090D01*
X150254302Y-112452219D01*
X150254300Y-112452227D01*
X150224500Y-112602040D01*
X150224500Y-112754809D01*
X150254300Y-112904622D01*
X150254302Y-112904630D01*
X150312759Y-113045759D01*
X150312764Y-113045768D01*
X150397629Y-113172776D01*
X150397632Y-113172780D01*
X150505644Y-113280792D01*
X150505648Y-113280795D01*
X150632656Y-113365660D01*
X150632662Y-113365663D01*
X150632663Y-113365664D01*
X150773795Y-113424123D01*
X150923615Y-113453924D01*
X150923619Y-113453925D01*
X150923620Y-113453925D01*
X151076381Y-113453925D01*
X151076382Y-113453924D01*
X151226205Y-113424123D01*
X151309235Y-113389730D01*
X151378701Y-113382262D01*
X151441180Y-113413536D01*
X151444367Y-113416612D01*
X151489183Y-113461429D01*
X151489187Y-113461432D01*
X151616195Y-113546297D01*
X151616204Y-113546302D01*
X151624393Y-113549694D01*
X151757334Y-113604760D01*
X151894666Y-113632077D01*
X151907154Y-113634561D01*
X151907158Y-113634562D01*
X151907159Y-113634562D01*
X152059920Y-113634562D01*
X152059921Y-113634561D01*
X152209744Y-113604760D01*
X152350876Y-113546301D01*
X152360909Y-113539596D01*
X152427582Y-113518718D01*
X152494963Y-113537200D01*
X152517481Y-113555017D01*
X152660883Y-113698419D01*
X152694368Y-113759742D01*
X152689384Y-113829434D01*
X152647512Y-113885367D01*
X152620655Y-113900661D01*
X152501222Y-113950132D01*
X152501212Y-113950137D01*
X152374204Y-114035002D01*
X152374200Y-114035005D01*
X152266188Y-114143017D01*
X152266185Y-114143021D01*
X152181320Y-114270029D01*
X152181315Y-114270038D01*
X152122858Y-114411167D01*
X152122856Y-114411173D01*
X152101209Y-114520001D01*
X152068824Y-114581912D01*
X152067273Y-114583490D01*
X151703519Y-114947244D01*
X151642196Y-114980729D01*
X151640030Y-114981180D01*
X151523800Y-115004300D01*
X151523794Y-115004302D01*
X151382665Y-115062759D01*
X151382656Y-115062764D01*
X151255648Y-115147629D01*
X151255644Y-115147632D01*
X151147632Y-115255644D01*
X151147629Y-115255648D01*
X151062764Y-115382656D01*
X151062759Y-115382665D01*
X151004302Y-115523794D01*
X151004300Y-115523802D01*
X150974500Y-115673615D01*
X150974500Y-115826384D01*
X151004300Y-115976197D01*
X151004302Y-115976205D01*
X151062759Y-116117334D01*
X151062764Y-116117343D01*
X151147629Y-116244351D01*
X151147632Y-116244355D01*
X151255644Y-116352367D01*
X151255648Y-116352370D01*
X151382656Y-116437235D01*
X151382662Y-116437238D01*
X151382663Y-116437239D01*
X151523795Y-116495698D01*
X151665084Y-116523802D01*
X151673615Y-116525499D01*
X151673619Y-116525500D01*
X151673620Y-116525500D01*
X151826381Y-116525500D01*
X151826382Y-116525499D01*
X151976205Y-116495698D01*
X152117337Y-116437239D01*
X152244352Y-116352370D01*
X152352370Y-116244352D01*
X152437239Y-116117337D01*
X152495698Y-115976205D01*
X152518819Y-115859969D01*
X152551204Y-115798058D01*
X152552699Y-115796535D01*
X152907636Y-115441598D01*
X152968957Y-115408115D01*
X152971124Y-115407664D01*
X153011372Y-115399658D01*
X153094761Y-115383071D01*
X153235893Y-115324612D01*
X153362908Y-115239743D01*
X153470926Y-115131725D01*
X153555795Y-115004710D01*
X153614254Y-114863578D01*
X153644056Y-114713753D01*
X153644056Y-114713741D01*
X153644193Y-114712356D01*
X153644471Y-114711665D01*
X153645245Y-114707778D01*
X153645982Y-114707924D01*
X153670349Y-114647567D01*
X153727381Y-114607204D01*
X153767596Y-114600501D01*
X153890756Y-114600501D01*
X153890759Y-114600500D01*
X153898367Y-114600500D01*
X156699903Y-114600500D01*
X156766942Y-114620185D01*
X156787584Y-114636819D01*
X157064755Y-114913990D01*
X157098240Y-114975313D01*
X157093256Y-115045005D01*
X157051386Y-115100937D01*
X156936751Y-115186754D01*
X156850505Y-115301963D01*
X156850501Y-115301970D01*
X156800207Y-115436816D01*
X156793800Y-115496415D01*
X156793800Y-115496422D01*
X156793799Y-115496434D01*
X156793799Y-117903569D01*
X156793800Y-117903575D01*
X156800207Y-117963182D01*
X156850501Y-118098027D01*
X156850505Y-118098034D01*
X156936751Y-118213243D01*
X156936754Y-118213246D01*
X157051963Y-118299492D01*
X157051970Y-118299496D01*
X157186816Y-118349790D01*
X157186815Y-118349790D01*
X157193743Y-118350534D01*
X157246426Y-118356199D01*
X159653571Y-118356198D01*
X159713182Y-118349790D01*
X159848030Y-118299495D01*
X159963245Y-118213245D01*
X160049495Y-118098030D01*
X160099790Y-117963182D01*
X160106199Y-117903572D01*
X160106198Y-115526236D01*
X160125883Y-115459198D01*
X160127096Y-115457346D01*
X160156812Y-115412873D01*
X160179175Y-115379404D01*
X160232788Y-115334600D01*
X160302113Y-115325893D01*
X160365140Y-115356048D01*
X160369958Y-115360615D01*
X162763181Y-117753838D01*
X162796666Y-117815161D01*
X162799500Y-117841519D01*
X162799500Y-120140011D01*
X162790061Y-120187463D01*
X162754303Y-120273790D01*
X162754300Y-120273802D01*
X162724500Y-120423615D01*
X162724500Y-120576384D01*
X162754300Y-120726197D01*
X162754302Y-120726205D01*
X162812759Y-120867334D01*
X162812764Y-120867343D01*
X162897629Y-120994351D01*
X162897632Y-120994355D01*
X163005644Y-121102367D01*
X163005648Y-121102370D01*
X163132656Y-121187235D01*
X163132665Y-121187240D01*
X163150697Y-121194709D01*
X163273795Y-121245698D01*
X163410896Y-121272969D01*
X163423615Y-121275499D01*
X163423619Y-121275500D01*
X163423620Y-121275500D01*
X163576381Y-121275500D01*
X163576382Y-121275499D01*
X163726205Y-121245698D01*
X163867337Y-121187239D01*
X163994352Y-121102370D01*
X164102370Y-120994352D01*
X164187239Y-120867337D01*
X164245698Y-120726205D01*
X164275500Y-120576380D01*
X164275500Y-120423620D01*
X164245698Y-120273795D01*
X164234277Y-120246222D01*
X164209939Y-120187463D01*
X164200500Y-120140011D01*
X164200500Y-118478555D01*
X164220185Y-118411516D01*
X164272989Y-118365761D01*
X164337757Y-118355266D01*
X164346428Y-118356199D01*
X166753573Y-118356198D01*
X166813184Y-118349790D01*
X166948032Y-118299495D01*
X167063247Y-118213245D01*
X167149497Y-118098030D01*
X167199792Y-117963182D01*
X167206201Y-117903572D01*
X167206200Y-115496427D01*
X167199792Y-115436816D01*
X167189087Y-115408115D01*
X167149498Y-115301970D01*
X167149494Y-115301963D01*
X167063248Y-115186754D01*
X167063245Y-115186751D01*
X166948036Y-115100505D01*
X166948029Y-115100501D01*
X166813183Y-115050207D01*
X166813184Y-115050207D01*
X166753584Y-115043800D01*
X166753582Y-115043799D01*
X166753574Y-115043799D01*
X166753566Y-115043799D01*
X166475509Y-115043799D01*
X166408470Y-115024114D01*
X166362715Y-114971310D01*
X166352771Y-114902152D01*
X166381796Y-114838596D01*
X166387814Y-114832131D01*
X166468081Y-114751865D01*
X166551744Y-114610398D01*
X166597598Y-114452569D01*
X166600500Y-114415694D01*
X166600500Y-114250096D01*
X166620185Y-114183057D01*
X166636815Y-114162419D01*
X167219755Y-113579478D01*
X167219760Y-113579475D01*
X167229963Y-113569271D01*
X167229965Y-113569271D01*
X167341769Y-113457467D01*
X167420826Y-113320535D01*
X167451075Y-113207643D01*
X167461749Y-113167809D01*
X167461749Y-113060470D01*
X167462201Y-113055194D01*
X167473026Y-113027370D01*
X167481434Y-112998737D01*
X167485556Y-112995165D01*
X167487535Y-112990079D01*
X167511686Y-112972523D01*
X167534238Y-112952982D01*
X167539636Y-112952205D01*
X167544051Y-112948997D01*
X167573852Y-112947285D01*
X167603396Y-112943038D01*
X167608359Y-112945304D01*
X167613806Y-112944992D01*
X167639797Y-112959661D01*
X167666952Y-112972063D01*
X167672092Y-112977889D01*
X167674653Y-112979335D01*
X167676568Y-112982962D01*
X167688851Y-112996885D01*
X167761697Y-113105908D01*
X167894088Y-113238299D01*
X167894092Y-113238302D01*
X168049762Y-113342318D01*
X168049768Y-113342321D01*
X168049769Y-113342322D01*
X168222749Y-113413973D01*
X168395103Y-113448256D01*
X168406379Y-113450499D01*
X168406383Y-113450500D01*
X168406384Y-113450500D01*
X168593617Y-113450500D01*
X168593618Y-113450499D01*
X168777251Y-113413973D01*
X168950231Y-113342322D01*
X169105908Y-113238302D01*
X169238302Y-113105908D01*
X169342322Y-112950231D01*
X169413973Y-112777251D01*
X169450500Y-112593616D01*
X169450500Y-112406384D01*
X169413973Y-112222749D01*
X169342322Y-112049769D01*
X169342321Y-112049768D01*
X169342318Y-112049762D01*
X169238302Y-111894092D01*
X169238299Y-111894088D01*
X169105911Y-111761700D01*
X169105907Y-111761697D01*
X168950237Y-111657681D01*
X168950228Y-111657676D01*
X168777251Y-111586027D01*
X168777243Y-111586025D01*
X168593620Y-111549500D01*
X168593616Y-111549500D01*
X168406384Y-111549500D01*
X168406379Y-111549500D01*
X168222756Y-111586025D01*
X168222748Y-111586027D01*
X168049771Y-111657676D01*
X168049762Y-111657681D01*
X167894092Y-111761697D01*
X167894088Y-111761700D01*
X167761700Y-111894088D01*
X167761697Y-111894092D01*
X167688851Y-112003114D01*
X167635239Y-112047919D01*
X167565914Y-112056626D01*
X167502886Y-112026471D01*
X167466167Y-111967028D01*
X167461749Y-111934223D01*
X167461749Y-111245131D01*
X167481434Y-111178092D01*
X167498069Y-111157449D01*
X167529325Y-111126193D01*
X167529330Y-111126188D01*
X167612993Y-110984721D01*
X167658847Y-110826892D01*
X167661749Y-110790017D01*
X167661749Y-110423323D01*
X167681434Y-110356284D01*
X167734238Y-110310529D01*
X167785749Y-110299323D01*
X167787249Y-110299323D01*
X167854288Y-110319008D01*
X167900043Y-110371812D01*
X167911249Y-110423323D01*
X167911249Y-111371618D01*
X167911250Y-111371618D01*
X167913735Y-111371423D01*
X168071447Y-111325604D01*
X168212799Y-111242009D01*
X168212802Y-111242006D01*
X168239597Y-111215212D01*
X168300920Y-111181726D01*
X168370612Y-111186710D01*
X168374732Y-111188331D01*
X168489557Y-111235892D01*
X168531249Y-111244185D01*
X168531249Y-110441311D01*
X168541189Y-110458528D01*
X168597044Y-110514383D01*
X168665453Y-110553879D01*
X168741753Y-110574323D01*
X168820745Y-110574323D01*
X168897045Y-110553879D01*
X168965454Y-110514383D01*
X169021309Y-110458528D01*
X169031249Y-110441311D01*
X169031249Y-111244185D01*
X169072939Y-111235892D01*
X169072941Y-111235892D01*
X169254920Y-111160515D01*
X169254933Y-111160508D01*
X169418711Y-111051074D01*
X169418715Y-111051071D01*
X169525319Y-110944468D01*
X169586642Y-110910983D01*
X169656334Y-110915967D01*
X169712267Y-110957839D01*
X169736684Y-111023303D01*
X169737000Y-111032149D01*
X169737000Y-118877931D01*
X169717315Y-118944970D01*
X169664511Y-118990725D01*
X169595353Y-119000669D01*
X169588809Y-118999548D01*
X169462884Y-118974500D01*
X169462880Y-118974500D01*
X169310120Y-118974500D01*
X169310115Y-118974500D01*
X169160302Y-119004300D01*
X169160294Y-119004302D01*
X169019165Y-119062759D01*
X169019156Y-119062764D01*
X168892148Y-119147629D01*
X168892144Y-119147632D01*
X168784132Y-119255644D01*
X168784129Y-119255648D01*
X168699264Y-119382656D01*
X168699259Y-119382665D01*
X168640802Y-119523794D01*
X168640800Y-119523802D01*
X168611000Y-119673615D01*
X168611000Y-119826384D01*
X168640800Y-119976197D01*
X168640802Y-119976205D01*
X168699259Y-120117334D01*
X168699264Y-120117343D01*
X168765102Y-120215875D01*
X168785980Y-120282552D01*
X168786000Y-120284766D01*
X168786000Y-125563403D01*
X168766315Y-125630442D01*
X168749681Y-125651084D01*
X167965036Y-126435729D01*
X167903713Y-126469214D01*
X167877355Y-126472048D01*
X167808527Y-126472048D01*
X167658714Y-126501848D01*
X167658706Y-126501850D01*
X167517577Y-126560307D01*
X167517568Y-126560312D01*
X167390560Y-126645177D01*
X167390556Y-126645180D01*
X167282544Y-126753192D01*
X167282541Y-126753196D01*
X167197676Y-126880204D01*
X167197671Y-126880213D01*
X167139214Y-127021342D01*
X167139212Y-127021350D01*
X167109412Y-127171163D01*
X167109412Y-127323932D01*
X167139212Y-127473745D01*
X167139214Y-127473753D01*
X167197671Y-127614882D01*
X167197676Y-127614891D01*
X167282541Y-127741899D01*
X167282544Y-127741903D01*
X167390556Y-127849915D01*
X167390560Y-127849918D01*
X167517568Y-127934783D01*
X167517574Y-127934786D01*
X167517575Y-127934787D01*
X167658707Y-127993246D01*
X167808527Y-128023047D01*
X167808531Y-128023048D01*
X167808532Y-128023048D01*
X167961293Y-128023048D01*
X167961294Y-128023047D01*
X168111117Y-127993246D01*
X168252249Y-127934787D01*
X168379264Y-127849918D01*
X168487282Y-127741900D01*
X168572151Y-127614885D01*
X168578622Y-127599264D01*
X168624798Y-127487784D01*
X168651675Y-127447558D01*
X169525320Y-126573914D01*
X169586642Y-126540430D01*
X169656334Y-126545414D01*
X169712267Y-126587286D01*
X169736684Y-126652750D01*
X169737000Y-126661596D01*
X169737000Y-136140955D01*
X169717315Y-136207994D01*
X169664511Y-136253749D01*
X169613000Y-136264955D01*
X169374000Y-136264955D01*
X169306961Y-136245270D01*
X169261206Y-136192466D01*
X169250000Y-136140955D01*
X169250000Y-134149071D01*
X164980890Y-134149071D01*
X164911089Y-134149071D01*
X164905745Y-134151868D01*
X164881526Y-134154256D01*
X164363914Y-134154256D01*
X164324596Y-136140955D01*
X164324547Y-136143409D01*
X164303540Y-136210045D01*
X164249841Y-136254747D01*
X164200571Y-136264955D01*
X152212529Y-136264955D01*
X152145490Y-136245270D01*
X152099735Y-136192466D01*
X152089791Y-136123308D01*
X152118816Y-136059752D01*
X152150523Y-136033571D01*
X152155602Y-136030639D01*
X152242414Y-135980520D01*
X152354218Y-135868716D01*
X152354218Y-135868714D01*
X152364426Y-135858507D01*
X152364427Y-135858504D01*
X155982443Y-132240490D01*
X156043766Y-132207005D01*
X156070124Y-132204171D01*
X156401640Y-132204171D01*
X156401643Y-132204171D01*
X156472223Y-132197757D01*
X156634633Y-132147149D01*
X156711491Y-132100686D01*
X156779043Y-132082851D01*
X156838866Y-132102215D01*
X156839702Y-132100802D01*
X156872405Y-132120142D01*
X156987884Y-132188436D01*
X157019967Y-132197757D01*
X157145708Y-132234289D01*
X157145711Y-132234289D01*
X157145713Y-132234290D01*
X157182588Y-132237192D01*
X157182596Y-132237192D01*
X158488968Y-132237192D01*
X158488976Y-132237192D01*
X158525851Y-132234290D01*
X158525853Y-132234289D01*
X158525855Y-132234289D01*
X158567473Y-132222197D01*
X158683680Y-132188436D01*
X158825147Y-132104773D01*
X158941363Y-131988557D01*
X159025026Y-131847090D01*
X159070880Y-131689261D01*
X159073782Y-131652386D01*
X159073782Y-131411192D01*
X159093467Y-131344153D01*
X159144441Y-131299984D01*
X162349500Y-131299984D01*
X162349500Y-133200015D01*
X162360000Y-133302795D01*
X162360001Y-133302796D01*
X162415186Y-133469335D01*
X162415187Y-133469337D01*
X162507286Y-133618651D01*
X162507289Y-133618655D01*
X162631344Y-133742710D01*
X162631348Y-133742713D01*
X162780662Y-133834812D01*
X162780664Y-133834813D01*
X162780666Y-133834814D01*
X162947203Y-133889999D01*
X163049992Y-133900500D01*
X163049997Y-133900500D01*
X164950003Y-133900500D01*
X164950008Y-133900500D01*
X165052797Y-133889999D01*
X165219334Y-133834814D01*
X165368655Y-133742711D01*
X165492711Y-133618655D01*
X165584814Y-133469334D01*
X165639999Y-133302797D01*
X165650500Y-133200008D01*
X165650500Y-132680241D01*
X165670185Y-132613202D01*
X165722989Y-132567447D01*
X165792147Y-132557503D01*
X165855703Y-132586528D01*
X165892431Y-132641923D01*
X165970883Y-132883377D01*
X166088796Y-133114791D01*
X166169951Y-133226492D01*
X166169952Y-133226493D01*
X166935387Y-132461058D01*
X166940889Y-132481591D01*
X167019881Y-132618408D01*
X167131592Y-132730119D01*
X167268409Y-132809111D01*
X167288940Y-132814612D01*
X166523505Y-133580046D01*
X166523506Y-133580048D01*
X166635208Y-133661203D01*
X166866622Y-133779116D01*
X167113622Y-133859370D01*
X167370143Y-133900000D01*
X167629857Y-133900000D01*
X167886377Y-133859370D01*
X168133377Y-133779116D01*
X168364788Y-133661205D01*
X168476492Y-133580046D01*
X168476493Y-133580046D01*
X167711058Y-132814612D01*
X167731591Y-132809111D01*
X167868408Y-132730119D01*
X167980119Y-132618408D01*
X168059111Y-132481591D01*
X168064612Y-132461058D01*
X168830046Y-133226493D01*
X168830046Y-133226492D01*
X168911205Y-133114788D01*
X169029116Y-132883377D01*
X169109370Y-132636377D01*
X169150000Y-132379857D01*
X169150000Y-132120142D01*
X169109370Y-131863622D01*
X169029116Y-131616622D01*
X168911203Y-131385208D01*
X168830048Y-131273506D01*
X168830046Y-131273505D01*
X168064612Y-132038940D01*
X168059111Y-132018409D01*
X167980119Y-131881592D01*
X167868408Y-131769881D01*
X167731591Y-131690889D01*
X167711059Y-131685387D01*
X168476493Y-130919952D01*
X168476492Y-130919951D01*
X168364791Y-130838796D01*
X168133377Y-130720883D01*
X167886377Y-130640629D01*
X167629857Y-130600000D01*
X167370143Y-130600000D01*
X167113622Y-130640629D01*
X166866622Y-130720883D01*
X166635215Y-130838792D01*
X166523506Y-130919952D01*
X167288941Y-131685387D01*
X167268409Y-131690889D01*
X167131592Y-131769881D01*
X167019881Y-131881592D01*
X166940889Y-132018409D01*
X166935387Y-132038941D01*
X166169952Y-131273506D01*
X166088792Y-131385215D01*
X165970883Y-131616622D01*
X165892431Y-131858076D01*
X165852994Y-131915751D01*
X165788635Y-131942950D01*
X165719789Y-131931036D01*
X165668313Y-131883791D01*
X165650500Y-131819758D01*
X165650500Y-131299997D01*
X165650499Y-131299984D01*
X165648000Y-131275527D01*
X165639999Y-131197203D01*
X165584814Y-131030666D01*
X165551388Y-130976475D01*
X165492713Y-130881348D01*
X165492710Y-130881344D01*
X165368655Y-130757289D01*
X165368651Y-130757286D01*
X165219337Y-130665187D01*
X165219335Y-130665186D01*
X165131836Y-130636192D01*
X165052797Y-130610001D01*
X165052795Y-130610000D01*
X164950015Y-130599500D01*
X164950008Y-130599500D01*
X163049992Y-130599500D01*
X163049984Y-130599500D01*
X162947204Y-130610000D01*
X162947203Y-130610001D01*
X162780664Y-130665186D01*
X162780662Y-130665187D01*
X162631348Y-130757286D01*
X162631344Y-130757289D01*
X162507289Y-130881344D01*
X162507286Y-130881348D01*
X162415187Y-131030662D01*
X162415186Y-131030664D01*
X162360001Y-131197203D01*
X162360000Y-131197204D01*
X162349500Y-131299984D01*
X159144441Y-131299984D01*
X159146271Y-131298398D01*
X159197782Y-131287192D01*
X160363968Y-131287192D01*
X160363976Y-131287192D01*
X160400851Y-131284290D01*
X160400853Y-131284289D01*
X160400855Y-131284289D01*
X160442473Y-131272197D01*
X160558680Y-131238436D01*
X160700147Y-131154773D01*
X160816363Y-131038557D01*
X160900026Y-130897090D01*
X160945880Y-130739261D01*
X160948782Y-130702386D01*
X160948782Y-130270998D01*
X160945880Y-130234123D01*
X160936331Y-130201255D01*
X160936529Y-130131390D01*
X160967724Y-130078983D01*
X165127010Y-125919699D01*
X166816228Y-125919699D01*
X166921489Y-125963300D01*
X166921493Y-125963301D01*
X167066379Y-125992121D01*
X167066382Y-125992122D01*
X167214124Y-125992122D01*
X167214126Y-125992121D01*
X167359013Y-125963301D01*
X167359028Y-125963297D01*
X167464277Y-125919700D01*
X167464277Y-125919699D01*
X167140254Y-125595676D01*
X167140253Y-125595676D01*
X166816228Y-125919699D01*
X165127010Y-125919699D01*
X165554190Y-125492519D01*
X165615513Y-125459034D01*
X165641871Y-125456200D01*
X166334278Y-125456200D01*
X166401317Y-125475885D01*
X166447072Y-125528689D01*
X166448839Y-125532747D01*
X166462673Y-125566146D01*
X166536303Y-125492518D01*
X166597627Y-125459034D01*
X166623984Y-125456200D01*
X166753572Y-125456200D01*
X166753573Y-125456200D01*
X166813184Y-125449792D01*
X166948032Y-125399497D01*
X167063247Y-125313247D01*
X167063247Y-125313245D01*
X167063249Y-125313245D01*
X167066119Y-125309409D01*
X167083608Y-125326898D01*
X167120362Y-125342122D01*
X167160144Y-125342122D01*
X167196898Y-125326898D01*
X167225029Y-125298767D01*
X167240253Y-125262013D01*
X167240253Y-125222231D01*
X167225029Y-125185477D01*
X167209946Y-125170394D01*
X167233787Y-125148801D01*
X167262582Y-125134877D01*
X167290670Y-125119541D01*
X167293834Y-125119767D01*
X167296689Y-125118387D01*
X167328445Y-125122242D01*
X167360362Y-125124525D01*
X167363416Y-125126488D01*
X167366050Y-125126808D01*
X167373425Y-125132920D01*
X167404710Y-125153026D01*
X167817830Y-125566146D01*
X167817831Y-125566146D01*
X167861428Y-125460897D01*
X167861432Y-125460882D01*
X167890252Y-125315995D01*
X167890253Y-125315993D01*
X167890253Y-125168250D01*
X167890252Y-125168248D01*
X167861432Y-125023362D01*
X167861430Y-125023354D01*
X167816372Y-124914575D01*
X167808903Y-124845106D01*
X167816372Y-124819669D01*
X167861430Y-124710889D01*
X167861432Y-124710881D01*
X167890252Y-124565995D01*
X167890253Y-124565993D01*
X167890253Y-124418250D01*
X167890252Y-124418248D01*
X167861432Y-124273362D01*
X167861430Y-124273354D01*
X167816372Y-124164575D01*
X167808903Y-124095106D01*
X167816372Y-124069669D01*
X167861430Y-123960889D01*
X167861432Y-123960881D01*
X167890252Y-123815995D01*
X167890253Y-123815993D01*
X167890253Y-123668250D01*
X167890252Y-123668248D01*
X167861432Y-123523362D01*
X167861431Y-123523358D01*
X167817830Y-123418097D01*
X167417881Y-123818047D01*
X167356558Y-123851532D01*
X167286867Y-123846548D01*
X167230933Y-123804677D01*
X167226975Y-123794067D01*
X167240253Y-123762013D01*
X167240253Y-123722231D01*
X167225029Y-123685477D01*
X167206200Y-123666648D01*
X167206200Y-123373982D01*
X167225885Y-123306943D01*
X167242519Y-123286301D01*
X167464277Y-123064543D01*
X167359020Y-123020944D01*
X167359015Y-123020942D01*
X167306007Y-123010398D01*
X167244096Y-122978012D01*
X167209523Y-122917296D01*
X167206200Y-122888781D01*
X167206200Y-122596430D01*
X167206199Y-122596424D01*
X167206198Y-122596417D01*
X167199792Y-122536818D01*
X167190813Y-122512745D01*
X167149498Y-122401972D01*
X167149494Y-122401965D01*
X167063248Y-122286756D01*
X167063245Y-122286753D01*
X166948036Y-122200507D01*
X166948029Y-122200503D01*
X166813183Y-122150209D01*
X166813184Y-122150209D01*
X166753584Y-122143802D01*
X166753582Y-122143801D01*
X166753574Y-122143801D01*
X166753565Y-122143801D01*
X164346430Y-122143801D01*
X164346424Y-122143802D01*
X164286817Y-122150209D01*
X164151972Y-122200503D01*
X164151965Y-122200507D01*
X164036756Y-122286753D01*
X164036753Y-122286756D01*
X163950507Y-122401965D01*
X163950503Y-122401972D01*
X163900209Y-122536818D01*
X163893802Y-122596417D01*
X163893802Y-122596424D01*
X163893801Y-122596436D01*
X163893801Y-125003571D01*
X163893802Y-125003577D01*
X163900209Y-125063184D01*
X163950503Y-125198029D01*
X163950505Y-125198032D01*
X163971608Y-125226222D01*
X163996025Y-125291686D01*
X163981173Y-125359959D01*
X163960022Y-125388214D01*
X159698366Y-129649873D01*
X159637043Y-129683358D01*
X159610685Y-129686192D01*
X159057580Y-129686192D01*
X159020714Y-129689093D01*
X159020708Y-129689094D01*
X158862888Y-129734946D01*
X158862885Y-129734947D01*
X158804588Y-129769424D01*
X158741467Y-129786692D01*
X158085782Y-129786692D01*
X158085782Y-130336692D01*
X158348782Y-130336692D01*
X158415821Y-130356377D01*
X158461576Y-130409181D01*
X158472782Y-130460692D01*
X158472782Y-130512192D01*
X158453097Y-130579231D01*
X158400293Y-130624986D01*
X158348782Y-130636192D01*
X157182580Y-130636192D01*
X157145714Y-130639093D01*
X157145708Y-130639094D01*
X157003349Y-130680454D01*
X156933479Y-130680255D01*
X156881073Y-130649059D01*
X156798011Y-130565997D01*
X156764526Y-130504674D01*
X156769510Y-130434982D01*
X156798011Y-130390635D01*
X156868496Y-130320150D01*
X156929819Y-130286665D01*
X156990772Y-130288755D01*
X157145786Y-130333791D01*
X157145792Y-130333792D01*
X157182632Y-130336691D01*
X157182648Y-130336692D01*
X157585782Y-130336692D01*
X157585782Y-129786692D01*
X157175027Y-129786692D01*
X157172108Y-129789610D01*
X157155342Y-129846710D01*
X157102538Y-129892465D01*
X157051027Y-129903671D01*
X155095028Y-129903671D01*
X155095028Y-129910253D01*
X155101435Y-129980773D01*
X155101436Y-129980778D01*
X155152008Y-130143067D01*
X155239954Y-130288548D01*
X155342042Y-130390636D01*
X155375527Y-130451959D01*
X155370543Y-130521651D01*
X155342042Y-130565998D01*
X155239558Y-130668481D01*
X155239557Y-130668482D01*
X155151549Y-130814064D01*
X155100940Y-130976478D01*
X155094527Y-131047057D01*
X155094527Y-131378574D01*
X155074842Y-131445613D01*
X155058208Y-131466255D01*
X151661282Y-134863181D01*
X151599959Y-134896666D01*
X151573601Y-134899500D01*
X141800097Y-134899500D01*
X141733058Y-134879815D01*
X141712416Y-134863181D01*
X138535819Y-131686584D01*
X138502334Y-131625261D01*
X138499500Y-131598903D01*
X138499500Y-130673503D01*
X140346733Y-130673503D01*
X140364352Y-130739259D01*
X140387658Y-130826234D01*
X140404502Y-130855408D01*
X140428564Y-130897085D01*
X140466714Y-130963163D01*
X140466716Y-130963166D01*
X140585584Y-131082034D01*
X140585590Y-131082039D01*
X140777704Y-131274153D01*
X140779076Y-131275527D01*
X140779308Y-131275952D01*
X140809716Y-131326252D01*
X140815968Y-131346314D01*
X140815967Y-131346314D01*
X140839484Y-131385215D01*
X140888474Y-131466255D01*
X140899266Y-131484106D01*
X141013108Y-131597948D01*
X141013110Y-131597949D01*
X141013112Y-131597951D01*
X141150898Y-131681246D01*
X141304613Y-131729145D01*
X141371409Y-131735215D01*
X142778590Y-131735214D01*
X142778597Y-131735214D01*
X142845382Y-131729146D01*
X142845385Y-131729145D01*
X142845387Y-131729145D01*
X142999102Y-131681246D01*
X143136888Y-131597951D01*
X143250736Y-131484103D01*
X143334031Y-131346317D01*
X143381930Y-131192602D01*
X143388000Y-131125806D01*
X143387999Y-130693625D01*
X143387999Y-130693616D01*
X143381931Y-130626832D01*
X143381928Y-130626821D01*
X143334032Y-130473116D01*
X143334031Y-130473115D01*
X143334031Y-130473113D01*
X143252873Y-130338862D01*
X143235038Y-130271311D01*
X143250293Y-130215043D01*
X143251530Y-130212788D01*
X143334031Y-130076317D01*
X143343983Y-130044375D01*
X143349969Y-130033473D01*
X143360058Y-130023428D01*
X143360486Y-130022834D01*
X143370992Y-130005458D01*
X143378220Y-129998230D01*
X143378227Y-129998220D01*
X144685953Y-128690495D01*
X144685958Y-128690491D01*
X144696161Y-128680287D01*
X144696163Y-128680287D01*
X144807967Y-128568483D01*
X144842510Y-128508651D01*
X144886303Y-128432801D01*
X144886312Y-128432786D01*
X144887021Y-128431557D01*
X144887020Y-128431557D01*
X144887024Y-128431552D01*
X144927948Y-128278824D01*
X144927948Y-128120710D01*
X144927948Y-128113115D01*
X144927947Y-128113097D01*
X144927947Y-126406875D01*
X144947632Y-126339836D01*
X145000436Y-126294081D01*
X145051947Y-126282875D01*
X145185060Y-126282875D01*
X145185063Y-126282875D01*
X145255643Y-126276461D01*
X145418053Y-126225853D01*
X145461152Y-126199798D01*
X145528704Y-126181962D01*
X145595178Y-126203479D01*
X145639467Y-126257519D01*
X145649301Y-126305915D01*
X145649301Y-128635345D01*
X145649300Y-128635363D01*
X145649300Y-128801069D01*
X145649299Y-128801069D01*
X145649300Y-128801072D01*
X145690224Y-128953800D01*
X145694069Y-128960460D01*
X145699700Y-128970214D01*
X145699702Y-128970216D01*
X145769278Y-129090727D01*
X145769282Y-129090732D01*
X145888150Y-129209600D01*
X145888156Y-129209605D01*
X147952704Y-131274153D01*
X147954076Y-131275527D01*
X147954308Y-131275952D01*
X147984716Y-131326252D01*
X147990968Y-131346314D01*
X147990967Y-131346314D01*
X148014484Y-131385215D01*
X148063474Y-131466255D01*
X148074266Y-131484106D01*
X148188108Y-131597948D01*
X148188110Y-131597949D01*
X148188112Y-131597951D01*
X148325898Y-131681246D01*
X148479613Y-131729145D01*
X148546409Y-131735215D01*
X149953590Y-131735214D01*
X149953597Y-131735214D01*
X150020382Y-131729146D01*
X150020385Y-131729145D01*
X150020387Y-131729145D01*
X150174102Y-131681246D01*
X150311888Y-131597951D01*
X150425736Y-131484103D01*
X150509031Y-131346317D01*
X150556930Y-131192602D01*
X150563000Y-131125806D01*
X150562999Y-130693625D01*
X150562999Y-130693616D01*
X150556931Y-130626832D01*
X150556928Y-130626821D01*
X150509032Y-130473116D01*
X150509031Y-130473115D01*
X150509031Y-130473113D01*
X150427873Y-130338862D01*
X150410038Y-130271311D01*
X150427873Y-130210567D01*
X150509031Y-130076317D01*
X150556930Y-129922602D01*
X150563000Y-129855806D01*
X150562999Y-129423625D01*
X150562999Y-129423623D01*
X150561353Y-129405503D01*
X150561353Y-129405500D01*
X150560590Y-129397098D01*
X155095027Y-129397098D01*
X155095027Y-129403671D01*
X155820027Y-129403671D01*
X155820027Y-128753671D01*
X155820026Y-128753670D01*
X155738444Y-128753671D01*
X155667924Y-128760079D01*
X155667919Y-128760080D01*
X155505630Y-128810652D01*
X155360149Y-128898598D01*
X155239954Y-129018793D01*
X155152007Y-129164275D01*
X155101436Y-129326564D01*
X155095027Y-129397098D01*
X150560590Y-129397098D01*
X150556931Y-129356831D01*
X150556928Y-129356821D01*
X150509032Y-129203116D01*
X150509031Y-129203115D01*
X150509031Y-129203113D01*
X150427873Y-129068862D01*
X150410038Y-129001311D01*
X150425293Y-128945043D01*
X150426530Y-128942788D01*
X150509031Y-128806317D01*
X150518983Y-128774375D01*
X150524969Y-128763473D01*
X150535058Y-128753428D01*
X150535486Y-128752834D01*
X150545992Y-128735458D01*
X150553220Y-128728230D01*
X150553227Y-128728220D01*
X150791006Y-128490442D01*
X150791011Y-128490438D01*
X150801214Y-128480234D01*
X150801216Y-128480234D01*
X150913020Y-128368430D01*
X150992077Y-128231498D01*
X151033000Y-128078771D01*
X151033000Y-127742584D01*
X153854636Y-127742584D01*
X153959897Y-127786185D01*
X153959901Y-127786186D01*
X154104787Y-127815006D01*
X154104790Y-127815007D01*
X154252532Y-127815007D01*
X154252534Y-127815006D01*
X154397421Y-127786186D01*
X154397436Y-127786182D01*
X154502685Y-127742585D01*
X154502685Y-127742584D01*
X154954636Y-127742584D01*
X155059897Y-127786185D01*
X155059901Y-127786186D01*
X155204787Y-127815006D01*
X155204790Y-127815007D01*
X155352532Y-127815007D01*
X155352534Y-127815006D01*
X155497421Y-127786186D01*
X155497436Y-127786182D01*
X155602685Y-127742585D01*
X155602685Y-127742584D01*
X155278662Y-127418561D01*
X155278661Y-127418561D01*
X154954636Y-127742584D01*
X154502685Y-127742584D01*
X154178662Y-127418561D01*
X154178661Y-127418561D01*
X153854636Y-127742584D01*
X151033000Y-127742584D01*
X151033000Y-126991133D01*
X153428661Y-126991133D01*
X153428661Y-127138880D01*
X153457481Y-127283766D01*
X153457483Y-127283774D01*
X153501082Y-127389031D01*
X153825107Y-127065007D01*
X153825107Y-127065006D01*
X153805217Y-127045116D01*
X154078661Y-127045116D01*
X154078661Y-127084898D01*
X154093885Y-127121652D01*
X154122016Y-127149783D01*
X154158770Y-127165007D01*
X154198552Y-127165007D01*
X154235306Y-127149783D01*
X154263437Y-127121652D01*
X154278661Y-127084898D01*
X154278661Y-127065007D01*
X154532215Y-127065007D01*
X154728661Y-127261453D01*
X154925107Y-127065007D01*
X154905216Y-127045116D01*
X155178661Y-127045116D01*
X155178661Y-127084898D01*
X155193885Y-127121652D01*
X155222016Y-127149783D01*
X155258770Y-127165007D01*
X155298552Y-127165007D01*
X155335306Y-127149783D01*
X155363437Y-127121652D01*
X155378661Y-127084898D01*
X155378661Y-127065007D01*
X155632215Y-127065007D01*
X155828661Y-127261453D01*
X156025107Y-127065007D01*
X156005216Y-127045116D01*
X156278661Y-127045116D01*
X156278661Y-127084898D01*
X156293885Y-127121652D01*
X156322016Y-127149783D01*
X156358770Y-127165007D01*
X156398552Y-127165007D01*
X156435306Y-127149783D01*
X156463437Y-127121652D01*
X156478661Y-127084898D01*
X156478661Y-127045116D01*
X156463437Y-127008362D01*
X156435306Y-126980231D01*
X156398552Y-126965007D01*
X156358770Y-126965007D01*
X156322016Y-126980231D01*
X156293885Y-127008362D01*
X156278661Y-127045116D01*
X156005216Y-127045116D01*
X155828661Y-126868561D01*
X155632215Y-127065007D01*
X155378661Y-127065007D01*
X155378661Y-127045116D01*
X155363437Y-127008362D01*
X155335306Y-126980231D01*
X155298552Y-126965007D01*
X155258770Y-126965007D01*
X155222016Y-126980231D01*
X155193885Y-127008362D01*
X155178661Y-127045116D01*
X154905216Y-127045116D01*
X154728661Y-126868561D01*
X154532215Y-127065007D01*
X154278661Y-127065007D01*
X154278661Y-127045116D01*
X154263437Y-127008362D01*
X154235306Y-126980231D01*
X154198552Y-126965007D01*
X154158770Y-126965007D01*
X154122016Y-126980231D01*
X154093885Y-127008362D01*
X154078661Y-127045116D01*
X153805217Y-127045116D01*
X153501082Y-126740981D01*
X153501081Y-126740981D01*
X153457484Y-126846235D01*
X153457481Y-126846247D01*
X153428661Y-126991133D01*
X151033000Y-126991133D01*
X151033000Y-126515007D01*
X153982215Y-126515007D01*
X154178661Y-126711453D01*
X154375107Y-126515007D01*
X155082215Y-126515007D01*
X155278661Y-126711453D01*
X155475107Y-126515007D01*
X156182215Y-126515007D01*
X156378661Y-126711453D01*
X156575107Y-126515007D01*
X156378661Y-126318561D01*
X156182215Y-126515007D01*
X155475107Y-126515007D01*
X155278661Y-126318561D01*
X155082215Y-126515007D01*
X154375107Y-126515007D01*
X154178661Y-126318561D01*
X153982215Y-126515007D01*
X151033000Y-126515007D01*
X151033000Y-125891133D01*
X153428661Y-125891133D01*
X153428661Y-126038880D01*
X153457481Y-126183766D01*
X153457483Y-126183774D01*
X153501082Y-126289031D01*
X153825107Y-125965007D01*
X153825107Y-125965006D01*
X153805217Y-125945116D01*
X154078661Y-125945116D01*
X154078661Y-125984898D01*
X154093885Y-126021652D01*
X154122016Y-126049783D01*
X154158770Y-126065007D01*
X154198552Y-126065007D01*
X154235306Y-126049783D01*
X154263437Y-126021652D01*
X154278661Y-125984898D01*
X154278661Y-125965007D01*
X154532215Y-125965007D01*
X154728661Y-126161453D01*
X154925107Y-125965007D01*
X154905216Y-125945116D01*
X155178661Y-125945116D01*
X155178661Y-125984898D01*
X155193885Y-126021652D01*
X155222016Y-126049783D01*
X155258770Y-126065007D01*
X155298552Y-126065007D01*
X155335306Y-126049783D01*
X155363437Y-126021652D01*
X155378661Y-125984898D01*
X155378661Y-125965007D01*
X155632215Y-125965007D01*
X155828661Y-126161453D01*
X156025107Y-125965007D01*
X156005216Y-125945116D01*
X156278661Y-125945116D01*
X156278661Y-125984898D01*
X156293885Y-126021652D01*
X156322016Y-126049783D01*
X156358770Y-126065007D01*
X156398552Y-126065007D01*
X156435306Y-126049783D01*
X156463437Y-126021652D01*
X156478661Y-125984898D01*
X156478661Y-125975958D01*
X156743165Y-125975958D01*
X157056238Y-126289031D01*
X157056239Y-126289031D01*
X157099836Y-126183782D01*
X157099840Y-126183767D01*
X157128660Y-126038880D01*
X157128661Y-126038878D01*
X157128661Y-125891135D01*
X157128660Y-125891133D01*
X157101436Y-125754267D01*
X156743165Y-125975958D01*
X156478661Y-125975958D01*
X156478661Y-125945116D01*
X156463437Y-125908362D01*
X156435306Y-125880231D01*
X156398552Y-125865007D01*
X156358770Y-125865007D01*
X156322016Y-125880231D01*
X156293885Y-125908362D01*
X156278661Y-125945116D01*
X156005216Y-125945116D01*
X155828661Y-125768561D01*
X155632215Y-125965007D01*
X155378661Y-125965007D01*
X155378661Y-125945116D01*
X155363437Y-125908362D01*
X155335306Y-125880231D01*
X155298552Y-125865007D01*
X155258770Y-125865007D01*
X155222016Y-125880231D01*
X155193885Y-125908362D01*
X155178661Y-125945116D01*
X154905216Y-125945116D01*
X154728661Y-125768561D01*
X154532215Y-125965007D01*
X154278661Y-125965007D01*
X154278661Y-125945116D01*
X154263437Y-125908362D01*
X154235306Y-125880231D01*
X154198552Y-125865007D01*
X154158770Y-125865007D01*
X154122016Y-125880231D01*
X154093885Y-125908362D01*
X154078661Y-125945116D01*
X153805217Y-125945116D01*
X153501082Y-125640981D01*
X153501081Y-125640981D01*
X153457484Y-125746235D01*
X153457481Y-125746247D01*
X153428661Y-125891133D01*
X151033000Y-125891133D01*
X151033000Y-125415007D01*
X153982215Y-125415007D01*
X154178661Y-125611453D01*
X154375107Y-125415007D01*
X155082215Y-125415007D01*
X155278661Y-125611453D01*
X155475107Y-125415007D01*
X156182215Y-125415007D01*
X156378661Y-125611453D01*
X156575107Y-125415007D01*
X156378661Y-125218561D01*
X156182215Y-125415007D01*
X155475107Y-125415007D01*
X155278661Y-125218561D01*
X155082215Y-125415007D01*
X154375107Y-125415007D01*
X154178661Y-125218561D01*
X153982215Y-125415007D01*
X151033000Y-125415007D01*
X151033000Y-124791133D01*
X153428661Y-124791133D01*
X153428661Y-124938880D01*
X153457481Y-125083766D01*
X153457483Y-125083774D01*
X153501082Y-125189031D01*
X153825107Y-124865007D01*
X153825107Y-124865006D01*
X153805217Y-124845116D01*
X154078661Y-124845116D01*
X154078661Y-124884898D01*
X154093885Y-124921652D01*
X154122016Y-124949783D01*
X154158770Y-124965007D01*
X154198552Y-124965007D01*
X154235306Y-124949783D01*
X154263437Y-124921652D01*
X154278661Y-124884898D01*
X154278661Y-124865007D01*
X154532215Y-124865007D01*
X154728661Y-125061453D01*
X154925107Y-124865007D01*
X154905216Y-124845116D01*
X155178661Y-124845116D01*
X155178661Y-124884898D01*
X155193885Y-124921652D01*
X155222016Y-124949783D01*
X155258770Y-124965007D01*
X155298552Y-124965007D01*
X155335306Y-124949783D01*
X155363437Y-124921652D01*
X155378661Y-124884898D01*
X155378661Y-124865007D01*
X155632215Y-124865007D01*
X155828661Y-125061453D01*
X156025107Y-124865007D01*
X156005216Y-124845116D01*
X156278661Y-124845116D01*
X156278661Y-124884898D01*
X156293885Y-124921652D01*
X156322016Y-124949783D01*
X156358770Y-124965007D01*
X156398552Y-124965007D01*
X156435306Y-124949783D01*
X156463437Y-124921652D01*
X156478661Y-124884898D01*
X156478661Y-124845116D01*
X156463437Y-124808362D01*
X156435306Y-124780231D01*
X156398552Y-124765007D01*
X156358770Y-124765007D01*
X156322016Y-124780231D01*
X156293885Y-124808362D01*
X156278661Y-124845116D01*
X156005216Y-124845116D01*
X155828661Y-124668561D01*
X155632215Y-124865007D01*
X155378661Y-124865007D01*
X155378661Y-124845116D01*
X155363437Y-124808362D01*
X155335306Y-124780231D01*
X155298552Y-124765007D01*
X155258770Y-124765007D01*
X155222016Y-124780231D01*
X155193885Y-124808362D01*
X155178661Y-124845116D01*
X154905216Y-124845116D01*
X154728661Y-124668561D01*
X154532215Y-124865007D01*
X154278661Y-124865007D01*
X154278661Y-124845116D01*
X154263437Y-124808362D01*
X154235306Y-124780231D01*
X154198552Y-124765007D01*
X154158770Y-124765007D01*
X154122016Y-124780231D01*
X154093885Y-124808362D01*
X154078661Y-124845116D01*
X153805217Y-124845116D01*
X153501082Y-124540981D01*
X153501081Y-124540981D01*
X153457484Y-124646235D01*
X153457481Y-124646247D01*
X153428661Y-124791133D01*
X151033000Y-124791133D01*
X151033000Y-124189060D01*
X151033001Y-124189047D01*
X151033001Y-124187427D01*
X153854635Y-124187427D01*
X153854635Y-124187428D01*
X154178661Y-124511453D01*
X154178662Y-124511453D01*
X154502685Y-124187428D01*
X154502683Y-124187427D01*
X154954635Y-124187427D01*
X154954635Y-124187428D01*
X155278661Y-124511453D01*
X155278662Y-124511453D01*
X155602685Y-124187428D01*
X155497428Y-124143829D01*
X155497420Y-124143827D01*
X155352533Y-124115007D01*
X155204789Y-124115007D01*
X155059901Y-124143827D01*
X155059889Y-124143830D01*
X154954635Y-124187427D01*
X154502683Y-124187427D01*
X154397428Y-124143829D01*
X154397420Y-124143827D01*
X154252533Y-124115007D01*
X154104789Y-124115007D01*
X153959901Y-124143827D01*
X153959889Y-124143830D01*
X153854635Y-124187427D01*
X151033001Y-124187427D01*
X151033001Y-124020944D01*
X151030627Y-124012085D01*
X150992077Y-123868216D01*
X150963112Y-123818047D01*
X150913024Y-123731290D01*
X150913018Y-123731282D01*
X148235254Y-121053518D01*
X148201769Y-120992195D01*
X148201341Y-120990146D01*
X148178198Y-120873795D01*
X148119739Y-120732663D01*
X148119738Y-120732662D01*
X148119735Y-120732656D01*
X148034870Y-120605648D01*
X148034867Y-120605644D01*
X147926852Y-120497629D01*
X147799834Y-120412759D01*
X147799830Y-120412757D01*
X147771577Y-120401054D01*
X147717174Y-120357213D01*
X147697414Y-120310685D01*
X147678199Y-120214087D01*
X147678198Y-120214080D01*
X147619739Y-120072948D01*
X147619738Y-120072947D01*
X147619735Y-120072941D01*
X147534870Y-119945933D01*
X147534867Y-119945929D01*
X147426855Y-119837917D01*
X147426851Y-119837914D01*
X147299843Y-119753049D01*
X147299834Y-119753044D01*
X147158705Y-119694587D01*
X147158697Y-119694585D01*
X147008884Y-119664785D01*
X147008880Y-119664785D01*
X146856120Y-119664785D01*
X146856115Y-119664785D01*
X146706302Y-119694585D01*
X146706294Y-119694587D01*
X146565160Y-119753046D01*
X146559793Y-119755916D01*
X146558953Y-119754345D01*
X146500291Y-119772702D01*
X146432914Y-119754204D01*
X146429211Y-119751823D01*
X146360479Y-119705898D01*
X146360465Y-119705890D01*
X146219336Y-119647433D01*
X146219328Y-119647431D01*
X146069515Y-119617631D01*
X146069511Y-119617631D01*
X145916751Y-119617631D01*
X145916746Y-119617631D01*
X145766933Y-119647431D01*
X145766925Y-119647433D01*
X145625796Y-119705890D01*
X145625787Y-119705895D01*
X145527353Y-119771668D01*
X145460676Y-119792546D01*
X145421575Y-119786952D01*
X145402197Y-119780914D01*
X145402198Y-119780914D01*
X145373964Y-119778348D01*
X145331616Y-119774500D01*
X144818384Y-119774500D01*
X144799145Y-119776248D01*
X144747807Y-119780913D01*
X144585393Y-119831522D01*
X144439811Y-119919530D01*
X144439810Y-119919531D01*
X144337681Y-120021661D01*
X144276358Y-120055146D01*
X144206666Y-120050162D01*
X144162319Y-120021661D01*
X144060188Y-119919530D01*
X143914606Y-119831522D01*
X143812705Y-119799769D01*
X143752196Y-119780914D01*
X143752194Y-119780913D01*
X143752192Y-119780913D01*
X143702778Y-119776423D01*
X143681616Y-119774500D01*
X143168384Y-119774500D01*
X143149145Y-119776248D01*
X143097807Y-119780913D01*
X142935393Y-119831522D01*
X142789813Y-119919529D01*
X142667280Y-120042062D01*
X142605957Y-120075546D01*
X142539698Y-120070807D01*
X142539532Y-120071355D01*
X142537119Y-120070623D01*
X142536265Y-120070562D01*
X142534069Y-120069697D01*
X142533708Y-120069588D01*
X142533705Y-120069587D01*
X142533701Y-120069586D01*
X142533697Y-120069585D01*
X142383884Y-120039785D01*
X142383880Y-120039785D01*
X142231120Y-120039785D01*
X142231115Y-120039785D01*
X142081302Y-120069585D01*
X142081294Y-120069587D01*
X141940165Y-120128044D01*
X141940156Y-120128049D01*
X141813148Y-120212914D01*
X141813144Y-120212917D01*
X141705132Y-120320929D01*
X141705129Y-120320933D01*
X141620264Y-120447941D01*
X141620259Y-120447950D01*
X141561802Y-120589079D01*
X141561800Y-120589085D01*
X141538680Y-120705316D01*
X141506295Y-120767227D01*
X141504744Y-120768805D01*
X140466716Y-121806832D01*
X140466714Y-121806835D01*
X140428756Y-121872582D01*
X140428755Y-121872584D01*
X140387658Y-121943764D01*
X140387658Y-121943765D01*
X140346734Y-122096493D01*
X140346734Y-122254607D01*
X140346734Y-122254609D01*
X140346735Y-122264608D01*
X140346735Y-130507779D01*
X140346734Y-130507797D01*
X140346734Y-130673503D01*
X140346733Y-130673503D01*
X138499500Y-130673503D01*
X138499500Y-121401096D01*
X138519185Y-121334057D01*
X138535814Y-121313420D01*
X140608506Y-119240727D01*
X140608511Y-119240724D01*
X140618714Y-119230520D01*
X140618716Y-119230520D01*
X140730520Y-119118716D01*
X140734127Y-119112468D01*
X140784338Y-119025501D01*
X140784339Y-119025499D01*
X140809574Y-118981790D01*
X140809573Y-118981790D01*
X140809577Y-118981785D01*
X140850500Y-118829057D01*
X140850500Y-118670943D01*
X140850500Y-118284766D01*
X140870185Y-118217727D01*
X140871398Y-118215875D01*
X140937235Y-118117343D01*
X140937235Y-118117342D01*
X140937239Y-118117337D01*
X140995698Y-117976205D01*
X141020802Y-117850000D01*
X143141210Y-117850000D01*
X143142854Y-117870910D01*
X143187968Y-118026195D01*
X143270278Y-118165374D01*
X143270285Y-118165383D01*
X143384616Y-118279714D01*
X143384625Y-118279721D01*
X143523804Y-118362031D01*
X143670000Y-118404504D01*
X143670000Y-117850000D01*
X143141210Y-117850000D01*
X141020802Y-117850000D01*
X141025500Y-117826380D01*
X141025500Y-117673620D01*
X140995698Y-117523795D01*
X140937239Y-117382663D01*
X140925639Y-117365302D01*
X144099500Y-117365302D01*
X144099500Y-117834697D01*
X144102356Y-117870991D01*
X144102357Y-117870997D01*
X144147504Y-118026390D01*
X144150603Y-118033551D01*
X144148135Y-118034618D01*
X144162128Y-118089816D01*
X144159833Y-118109372D01*
X144157000Y-118123618D01*
X144157000Y-118276381D01*
X144158668Y-118284766D01*
X144186802Y-118426205D01*
X144197947Y-118453113D01*
X144197948Y-118453114D01*
X144245257Y-118567330D01*
X144245264Y-118567343D01*
X144330129Y-118694351D01*
X144330132Y-118694355D01*
X144438144Y-118802367D01*
X144438148Y-118802370D01*
X144565156Y-118887235D01*
X144565162Y-118887238D01*
X144565163Y-118887239D01*
X144706295Y-118945698D01*
X144851093Y-118974500D01*
X144856115Y-118975499D01*
X144856119Y-118975500D01*
X144856120Y-118975500D01*
X145008881Y-118975500D01*
X145008882Y-118975499D01*
X145158705Y-118945698D01*
X145299837Y-118887239D01*
X145426852Y-118802370D01*
X145534870Y-118694352D01*
X145619739Y-118567337D01*
X145678198Y-118426205D01*
X145708000Y-118276380D01*
X145708000Y-118173615D01*
X150285207Y-118173615D01*
X150285207Y-118326384D01*
X150315007Y-118476197D01*
X150315009Y-118476205D01*
X150373466Y-118617334D01*
X150373471Y-118617343D01*
X150458336Y-118744351D01*
X150458339Y-118744355D01*
X150566351Y-118852367D01*
X150566355Y-118852370D01*
X150693363Y-118937235D01*
X150693369Y-118937238D01*
X150693370Y-118937239D01*
X150834502Y-118995698D01*
X150893940Y-119007521D01*
X150984324Y-119025500D01*
X150989342Y-119025994D01*
X151039191Y-119042009D01*
X151091629Y-119072284D01*
X151244357Y-119113208D01*
X151244360Y-119113208D01*
X151410068Y-119113208D01*
X151410084Y-119113207D01*
X152463610Y-119113207D01*
X152530649Y-119132892D01*
X152551291Y-119149526D01*
X156757480Y-123355715D01*
X156790965Y-123417038D01*
X156793799Y-123443396D01*
X156793799Y-124039589D01*
X156774114Y-124106628D01*
X156721310Y-124152383D01*
X156652152Y-124162327D01*
X156622348Y-124154151D01*
X156597427Y-124143829D01*
X156597420Y-124143827D01*
X156452533Y-124115007D01*
X156304789Y-124115007D01*
X156159901Y-124143827D01*
X156159889Y-124143830D01*
X156054635Y-124187427D01*
X156054635Y-124187428D01*
X156555438Y-124688230D01*
X156757480Y-124890272D01*
X156790965Y-124951595D01*
X156793799Y-124977949D01*
X156793799Y-125003568D01*
X156793800Y-125003578D01*
X156800207Y-125063184D01*
X156850501Y-125198029D01*
X156850505Y-125198036D01*
X156936751Y-125313245D01*
X156936754Y-125313248D01*
X157051910Y-125399454D01*
X157051911Y-125399454D01*
X157051968Y-125399497D01*
X157186816Y-125449792D01*
X157246426Y-125456201D01*
X157350500Y-125456200D01*
X157417538Y-125475884D01*
X157463294Y-125528687D01*
X157474500Y-125580200D01*
X157474500Y-125632479D01*
X157504300Y-125782292D01*
X157504302Y-125782300D01*
X157562759Y-125923429D01*
X157562764Y-125923438D01*
X157647629Y-126050446D01*
X157647632Y-126050450D01*
X157755644Y-126158462D01*
X157755648Y-126158465D01*
X157882656Y-126243330D01*
X157882665Y-126243335D01*
X157914636Y-126256577D01*
X158023795Y-126301793D01*
X158058394Y-126308675D01*
X158120303Y-126341059D01*
X158121883Y-126342611D01*
X158763181Y-126983909D01*
X158796666Y-127045232D01*
X158799500Y-127071590D01*
X158799500Y-127103007D01*
X158779815Y-127170046D01*
X158727011Y-127215801D01*
X158675500Y-127227007D01*
X157359987Y-127227007D01*
X157312534Y-127217568D01*
X157293884Y-127209843D01*
X157226205Y-127181809D01*
X157220373Y-127180040D01*
X157220900Y-127178300D01*
X157166558Y-127149874D01*
X157131984Y-127089157D01*
X157128661Y-127060642D01*
X157128661Y-126991135D01*
X157128660Y-126991133D01*
X157099840Y-126846247D01*
X157099839Y-126846243D01*
X157056238Y-126740982D01*
X156555438Y-127241784D01*
X156054635Y-127742584D01*
X156147953Y-127781238D01*
X156202357Y-127825079D01*
X156224421Y-127891374D01*
X156224500Y-127895799D01*
X156224500Y-128003891D01*
X156254300Y-128153704D01*
X156254302Y-128153712D01*
X156312759Y-128294841D01*
X156312764Y-128294850D01*
X156397629Y-128421858D01*
X156397632Y-128421862D01*
X156505644Y-128529874D01*
X156510356Y-128533741D01*
X156509385Y-128534923D01*
X156549368Y-128582759D01*
X156558080Y-128652083D01*
X156527929Y-128715113D01*
X156468488Y-128751836D01*
X156424457Y-128755748D01*
X156401592Y-128753671D01*
X156320027Y-128753671D01*
X156320027Y-129403671D01*
X156468282Y-129403671D01*
X156471200Y-129400752D01*
X156487967Y-129343653D01*
X156540771Y-129297898D01*
X156592282Y-129286692D01*
X159070577Y-129286692D01*
X159070577Y-129286690D01*
X159070382Y-129284205D01*
X159024563Y-129126493D01*
X158940967Y-128985139D01*
X158940960Y-128985130D01*
X158824843Y-128869013D01*
X158824837Y-128869009D01*
X158807472Y-128858739D01*
X158759789Y-128807669D01*
X158747286Y-128738928D01*
X158773932Y-128674338D01*
X158831267Y-128634408D01*
X158870594Y-128628007D01*
X159141489Y-128628007D01*
X159232533Y-128609896D01*
X159276821Y-128601087D01*
X159355544Y-128568479D01*
X159404300Y-128548284D01*
X159404301Y-128548283D01*
X159404304Y-128548282D01*
X159519036Y-128471621D01*
X160044114Y-127946543D01*
X160120775Y-127831811D01*
X160173580Y-127704329D01*
X160194478Y-127599266D01*
X160200500Y-127568993D01*
X160200500Y-126661078D01*
X160200500Y-126661075D01*
X160173581Y-126525748D01*
X160173580Y-126525747D01*
X160173580Y-126525743D01*
X160136295Y-126435729D01*
X160120776Y-126398262D01*
X160083591Y-126342611D01*
X160056318Y-126301793D01*
X160044114Y-126283528D01*
X160044112Y-126283525D01*
X160044109Y-126283522D01*
X159428467Y-125667881D01*
X159394982Y-125606558D01*
X159399966Y-125536867D01*
X159441837Y-125480933D01*
X159507302Y-125456516D01*
X159516148Y-125456200D01*
X159653570Y-125456200D01*
X159653571Y-125456200D01*
X159713182Y-125449792D01*
X159848030Y-125399497D01*
X159963245Y-125313247D01*
X160049495Y-125198032D01*
X160099790Y-125063184D01*
X160106199Y-125003574D01*
X160106198Y-122596429D01*
X160099790Y-122536818D01*
X160090811Y-122512745D01*
X160049496Y-122401972D01*
X160049492Y-122401965D01*
X159963246Y-122286756D01*
X159963243Y-122286753D01*
X159848034Y-122200507D01*
X159848027Y-122200503D01*
X159713181Y-122150209D01*
X159713182Y-122150209D01*
X159653582Y-122143802D01*
X159653580Y-122143801D01*
X159653572Y-122143801D01*
X159653564Y-122143801D01*
X157295398Y-122143801D01*
X157228359Y-122124116D01*
X157207717Y-122107482D01*
X153251297Y-118151062D01*
X153251295Y-118151059D01*
X153132424Y-118032188D01*
X153132423Y-118032187D01*
X153045611Y-117982067D01*
X153045611Y-117982066D01*
X153045607Y-117982065D01*
X152995492Y-117953130D01*
X152842764Y-117912206D01*
X152684650Y-117912206D01*
X152677054Y-117912206D01*
X152677038Y-117912207D01*
X151833966Y-117912207D01*
X151766927Y-117892522D01*
X151730864Y-117857098D01*
X151663077Y-117755648D01*
X151663074Y-117755644D01*
X151555062Y-117647632D01*
X151555058Y-117647629D01*
X151428050Y-117562764D01*
X151428041Y-117562759D01*
X151286912Y-117504302D01*
X151286904Y-117504300D01*
X151137091Y-117474500D01*
X151137087Y-117474500D01*
X150984327Y-117474500D01*
X150984322Y-117474500D01*
X150834509Y-117504300D01*
X150834501Y-117504302D01*
X150693372Y-117562759D01*
X150693363Y-117562764D01*
X150566355Y-117647629D01*
X150566351Y-117647632D01*
X150458339Y-117755644D01*
X150458336Y-117755648D01*
X150373471Y-117882656D01*
X150373466Y-117882665D01*
X150315009Y-118023794D01*
X150315007Y-118023802D01*
X150285207Y-118173615D01*
X145708000Y-118173615D01*
X145708000Y-118123620D01*
X145678198Y-117973795D01*
X145673801Y-117963181D01*
X145664892Y-117941672D01*
X145657978Y-117877375D01*
X145657146Y-117877310D01*
X145657494Y-117872879D01*
X145657422Y-117872203D01*
X145657472Y-117871929D01*
X145657643Y-117870992D01*
X145657643Y-117870991D01*
X145660500Y-117834690D01*
X145660500Y-117365310D01*
X145657643Y-117329007D01*
X145651911Y-117309279D01*
X145612495Y-117173609D01*
X145612494Y-117173606D01*
X145612494Y-117173605D01*
X145530117Y-117034313D01*
X145530115Y-117034311D01*
X145530112Y-117034307D01*
X145415692Y-116919887D01*
X145415684Y-116919881D01*
X145297371Y-116849911D01*
X145276395Y-116837506D01*
X145276394Y-116837505D01*
X145276393Y-116837505D01*
X145276390Y-116837504D01*
X145120997Y-116792357D01*
X145120991Y-116792356D01*
X145084697Y-116789500D01*
X145084690Y-116789500D01*
X144675310Y-116789500D01*
X144675302Y-116789500D01*
X144639008Y-116792356D01*
X144639002Y-116792357D01*
X144483609Y-116837504D01*
X144483604Y-116837506D01*
X144462628Y-116849911D01*
X144394903Y-116867092D01*
X144336389Y-116849911D01*
X144316191Y-116837966D01*
X144316190Y-116837965D01*
X144170001Y-116795493D01*
X144170000Y-116795494D01*
X144170000Y-117101645D01*
X144152734Y-117164763D01*
X144147507Y-117173600D01*
X144147504Y-117173608D01*
X144102357Y-117329002D01*
X144102356Y-117329008D01*
X144099500Y-117365302D01*
X140925639Y-117365302D01*
X140915414Y-117349999D01*
X143141209Y-117349999D01*
X143141210Y-117350000D01*
X143670000Y-117350000D01*
X143670000Y-116795494D01*
X143669998Y-116795493D01*
X143523809Y-116837965D01*
X143523806Y-116837967D01*
X143384625Y-116920278D01*
X143384616Y-116920285D01*
X143270285Y-117034616D01*
X143270278Y-117034625D01*
X143187968Y-117173804D01*
X143187966Y-117173809D01*
X143142855Y-117329081D01*
X143142854Y-117329087D01*
X143141209Y-117349999D01*
X140915414Y-117349999D01*
X140891504Y-117314216D01*
X140888817Y-117309279D01*
X140882576Y-117280402D01*
X140873750Y-117252214D01*
X140875279Y-117246638D01*
X140874058Y-117240986D01*
X140884418Y-117213322D01*
X140892234Y-117184834D01*
X140894628Y-117181109D01*
X140905786Y-117164409D01*
X140937239Y-117117337D01*
X140995698Y-116976205D01*
X141025500Y-116826380D01*
X141025500Y-116673620D01*
X140995698Y-116523795D01*
X140937239Y-116382663D01*
X140937238Y-116382662D01*
X140937235Y-116382656D01*
X140852370Y-116255648D01*
X140852367Y-116255644D01*
X140744355Y-116147632D01*
X140744351Y-116147629D01*
X140617343Y-116062764D01*
X140617334Y-116062759D01*
X140476205Y-116004302D01*
X140476197Y-116004300D01*
X140326384Y-115974500D01*
X140326380Y-115974500D01*
X140173620Y-115974500D01*
X140173615Y-115974500D01*
X140023802Y-116004300D01*
X140023794Y-116004302D01*
X139882665Y-116062759D01*
X139882656Y-116062764D01*
X139755648Y-116147629D01*
X139755644Y-116147632D01*
X139647629Y-116255647D01*
X139562760Y-116382663D01*
X139527001Y-116468993D01*
X139500121Y-116509220D01*
X138921162Y-117088181D01*
X138859839Y-117121666D01*
X138833481Y-117124500D01*
X137566520Y-117124500D01*
X137499481Y-117104815D01*
X137478926Y-117088269D01*
X137478838Y-117088181D01*
X137478423Y-117087766D01*
X137444879Y-117026479D01*
X137449794Y-116956783D01*
X137478336Y-116912320D01*
X137580472Y-116810185D01*
X137668478Y-116664606D01*
X137719086Y-116502196D01*
X137725500Y-116431616D01*
X137725500Y-115918384D01*
X137719086Y-115847804D01*
X137668478Y-115685394D01*
X137668476Y-115685391D01*
X137666246Y-115678233D01*
X137668142Y-115677642D01*
X137659968Y-115618548D01*
X137689333Y-115555149D01*
X137748012Y-115517776D01*
X137866610Y-115483321D01*
X138008077Y-115399658D01*
X138124293Y-115283442D01*
X138207956Y-115141975D01*
X138247836Y-115004710D01*
X138253809Y-114984150D01*
X138253810Y-114984144D01*
X138254820Y-114971310D01*
X138256712Y-114947271D01*
X138256712Y-114706077D01*
X138276397Y-114639038D01*
X138329201Y-114593283D01*
X138380712Y-114582077D01*
X139546898Y-114582077D01*
X139546906Y-114582077D01*
X139583781Y-114579175D01*
X139583783Y-114579174D01*
X139583785Y-114579174D01*
X139660475Y-114556893D01*
X139741610Y-114533321D01*
X139883077Y-114449658D01*
X139999293Y-114333442D01*
X140082956Y-114191975D01*
X140125227Y-114046479D01*
X140128809Y-114034150D01*
X140128810Y-114034144D01*
X140131711Y-113997278D01*
X140131712Y-113997271D01*
X140131712Y-113565883D01*
X140128810Y-113529008D01*
X140126042Y-113519481D01*
X140090641Y-113397630D01*
X140082956Y-113371179D01*
X139999293Y-113229712D01*
X139999291Y-113229710D01*
X139999288Y-113229706D01*
X139883082Y-113113500D01*
X139883074Y-113113494D01*
X139768555Y-113045768D01*
X139741610Y-113029833D01*
X139741609Y-113029832D01*
X139741608Y-113029832D01*
X139741606Y-113029831D01*
X139683616Y-113012983D01*
X139624730Y-112975376D01*
X139595525Y-112911903D01*
X139594212Y-112893907D01*
X139594212Y-112650000D01*
X145941210Y-112650000D01*
X145942854Y-112670910D01*
X145987968Y-112826195D01*
X146070278Y-112965374D01*
X146070285Y-112965383D01*
X146184616Y-113079714D01*
X146184625Y-113079721D01*
X146323804Y-113162031D01*
X146470000Y-113204504D01*
X146470000Y-112650000D01*
X145941210Y-112650000D01*
X139594212Y-112650000D01*
X139594212Y-112398595D01*
X139613897Y-112331556D01*
X139666701Y-112285801D01*
X139718212Y-112274595D01*
X140110487Y-112274595D01*
X140110490Y-112274595D01*
X140181070Y-112268181D01*
X140343480Y-112217573D01*
X140477275Y-112136690D01*
X140544827Y-112118855D01*
X140606520Y-112137269D01*
X140734081Y-112215950D01*
X140734086Y-112215952D01*
X140893575Y-112268801D01*
X140992014Y-112278858D01*
X141546159Y-112278858D01*
X141600295Y-112278858D01*
X141600311Y-112278857D01*
X141698742Y-112268802D01*
X141858231Y-112215952D01*
X141858236Y-112215950D01*
X141940348Y-112165302D01*
X146899500Y-112165302D01*
X146899500Y-112634697D01*
X146902356Y-112670991D01*
X146902357Y-112670997D01*
X146947503Y-112826389D01*
X146947505Y-112826393D01*
X146947506Y-112826395D01*
X146952732Y-112835233D01*
X146970000Y-112898352D01*
X146970000Y-113204503D01*
X147116194Y-113162032D01*
X147136384Y-113150091D01*
X147204108Y-113132906D01*
X147262629Y-113150089D01*
X147283605Y-113162494D01*
X147318999Y-113172777D01*
X147439002Y-113207642D01*
X147439005Y-113207642D01*
X147439007Y-113207643D01*
X147475310Y-113210500D01*
X147475318Y-113210500D01*
X147884682Y-113210500D01*
X147884690Y-113210500D01*
X147920993Y-113207643D01*
X147990906Y-113187331D01*
X148060773Y-113187530D01*
X148119443Y-113225471D01*
X148148288Y-113289109D01*
X148149500Y-113306407D01*
X148149500Y-114780081D01*
X148129815Y-114847120D01*
X148128602Y-114848972D01*
X148062764Y-114947504D01*
X148062759Y-114947513D01*
X148004302Y-115088642D01*
X148004300Y-115088650D01*
X147974500Y-115238463D01*
X147974500Y-115391232D01*
X148004300Y-115541045D01*
X148004302Y-115541053D01*
X148062759Y-115682182D01*
X148062764Y-115682191D01*
X148147629Y-115809199D01*
X148147632Y-115809203D01*
X148255644Y-115917215D01*
X148255648Y-115917218D01*
X148382656Y-116002083D01*
X148382665Y-116002088D01*
X148388010Y-116004302D01*
X148523795Y-116060546D01*
X148673615Y-116090347D01*
X148673619Y-116090348D01*
X148673620Y-116090348D01*
X148826381Y-116090348D01*
X148826382Y-116090347D01*
X148976205Y-116060546D01*
X149117337Y-116002087D01*
X149244352Y-115917218D01*
X149352370Y-115809200D01*
X149437239Y-115682185D01*
X149495698Y-115541053D01*
X149525500Y-115391228D01*
X149525500Y-115238468D01*
X149495698Y-115088643D01*
X149443710Y-114963133D01*
X149437240Y-114947513D01*
X149437235Y-114947504D01*
X149371398Y-114848972D01*
X149350520Y-114782294D01*
X149350500Y-114780081D01*
X149350500Y-112264768D01*
X149370185Y-112197729D01*
X149405610Y-112161666D01*
X149454376Y-112129081D01*
X149494352Y-112102370D01*
X149602370Y-111994352D01*
X149687239Y-111867337D01*
X149745698Y-111726205D01*
X149775500Y-111576380D01*
X149775500Y-111423620D01*
X149745698Y-111273795D01*
X149687239Y-111132663D01*
X149687238Y-111132662D01*
X149687235Y-111132656D01*
X149602370Y-111005648D01*
X149602367Y-111005644D01*
X149494355Y-110897632D01*
X149494351Y-110897629D01*
X149367343Y-110812764D01*
X149367334Y-110812759D01*
X149226205Y-110754302D01*
X149226197Y-110754300D01*
X149076384Y-110724500D01*
X149076380Y-110724500D01*
X148923620Y-110724500D01*
X148923615Y-110724500D01*
X148773802Y-110754300D01*
X148773794Y-110754302D01*
X148632665Y-110812759D01*
X148632656Y-110812764D01*
X148505648Y-110897629D01*
X148505644Y-110897632D01*
X148397632Y-111005644D01*
X148397629Y-111005648D01*
X148312764Y-111132656D01*
X148312759Y-111132665D01*
X148254302Y-111273794D01*
X148254300Y-111273802D01*
X148224500Y-111423615D01*
X148223904Y-111429671D01*
X148197743Y-111494458D01*
X148140709Y-111534817D01*
X148129525Y-111538072D01*
X148124225Y-111539348D01*
X148123620Y-111539348D01*
X147973795Y-111569150D01*
X147936811Y-111584468D01*
X147927356Y-111586745D01*
X147912558Y-111586014D01*
X147888607Y-111589808D01*
X147884703Y-111589500D01*
X147884690Y-111589500D01*
X147475310Y-111589500D01*
X147475302Y-111589500D01*
X147439008Y-111592356D01*
X147439002Y-111592357D01*
X147283609Y-111637504D01*
X147283604Y-111637506D01*
X147262628Y-111649911D01*
X147194903Y-111667092D01*
X147136389Y-111649911D01*
X147116191Y-111637966D01*
X147116190Y-111637965D01*
X146970001Y-111595493D01*
X146970000Y-111595494D01*
X146970000Y-111901645D01*
X146952734Y-111964763D01*
X146947507Y-111973600D01*
X146947504Y-111973608D01*
X146902357Y-112129002D01*
X146902356Y-112129008D01*
X146899500Y-112165302D01*
X141940348Y-112165302D01*
X141965158Y-112149999D01*
X145941209Y-112149999D01*
X145941210Y-112150000D01*
X146470000Y-112150000D01*
X146470000Y-111595494D01*
X146469998Y-111595493D01*
X146323809Y-111637965D01*
X146323806Y-111637967D01*
X146184625Y-111720278D01*
X146184616Y-111720285D01*
X146070285Y-111834616D01*
X146070278Y-111834625D01*
X145987968Y-111973804D01*
X145987966Y-111973809D01*
X145942855Y-112129081D01*
X145942854Y-112129087D01*
X145941209Y-112149999D01*
X141965158Y-112149999D01*
X142001239Y-112127744D01*
X142022323Y-112106661D01*
X142120044Y-112008939D01*
X142208250Y-111865936D01*
X142208252Y-111865931D01*
X142261101Y-111706442D01*
X142271158Y-111608009D01*
X142271159Y-111607996D01*
X142271159Y-111591359D01*
X141546159Y-111591359D01*
X141546159Y-112278858D01*
X140992014Y-112278858D01*
X141046158Y-112278857D01*
X141046159Y-112278857D01*
X141046159Y-111465359D01*
X141065844Y-111398320D01*
X141118648Y-111352565D01*
X141170159Y-111341359D01*
X141296159Y-111341359D01*
X141296159Y-111329359D01*
X141315844Y-111262320D01*
X141368648Y-111216565D01*
X141420159Y-111205359D01*
X142314137Y-111205359D01*
X142432944Y-111181726D01*
X142449469Y-111178439D01*
X142559978Y-111132665D01*
X142576948Y-111125636D01*
X142576949Y-111125635D01*
X142576952Y-111125634D01*
X142691684Y-111048973D01*
X143044114Y-110696543D01*
X143120775Y-110581811D01*
X143134327Y-110549095D01*
X143157447Y-110493276D01*
X143173580Y-110454328D01*
X143189768Y-110372946D01*
X143192749Y-110357962D01*
X143225134Y-110296051D01*
X143285850Y-110261477D01*
X143355619Y-110265217D01*
X143377176Y-110276982D01*
X143377907Y-110275748D01*
X143523804Y-110362031D01*
X143670000Y-110404504D01*
X143670000Y-109724000D01*
X143689685Y-109656961D01*
X143742489Y-109611206D01*
X143794000Y-109600000D01*
X143975500Y-109600000D01*
X144042539Y-109619685D01*
X144088294Y-109672489D01*
X144099500Y-109724000D01*
X144099500Y-109834697D01*
X144102356Y-109870991D01*
X144102357Y-109870997D01*
X144147503Y-110026389D01*
X144147505Y-110026393D01*
X144147506Y-110026395D01*
X144152732Y-110035233D01*
X144170000Y-110098352D01*
X144170000Y-110404503D01*
X144316194Y-110362032D01*
X144336384Y-110350091D01*
X144404108Y-110332906D01*
X144462629Y-110350089D01*
X144483605Y-110362494D01*
X144519577Y-110372945D01*
X144639002Y-110407642D01*
X144639005Y-110407642D01*
X144639007Y-110407643D01*
X144675310Y-110410500D01*
X144675318Y-110410500D01*
X145084682Y-110410500D01*
X145084690Y-110410500D01*
X145120993Y-110407643D01*
X145120995Y-110407642D01*
X145120997Y-110407642D01*
X145181310Y-110390119D01*
X145276395Y-110362494D01*
X145415687Y-110280117D01*
X145530117Y-110165687D01*
X145612494Y-110026395D01*
X145657643Y-109870993D01*
X145660500Y-109834690D01*
X145660500Y-109365310D01*
X145657643Y-109329007D01*
X145649241Y-109300089D01*
X145612495Y-109173609D01*
X145612494Y-109173606D01*
X145612494Y-109173605D01*
X145530117Y-109034313D01*
X145530115Y-109034311D01*
X145530112Y-109034307D01*
X145415692Y-108919887D01*
X145415684Y-108919881D01*
X145276393Y-108837505D01*
X145276390Y-108837503D01*
X145132973Y-108795837D01*
X145074087Y-108758231D01*
X145045951Y-108700953D01*
X145033193Y-108636813D01*
X144974734Y-108495681D01*
X144974733Y-108495680D01*
X144974730Y-108495674D01*
X144889865Y-108368666D01*
X144889862Y-108368662D01*
X144781850Y-108260650D01*
X144781846Y-108260647D01*
X144654838Y-108175782D01*
X144654829Y-108175777D01*
X144513700Y-108117320D01*
X144513692Y-108117318D01*
X144363879Y-108087518D01*
X144363875Y-108087518D01*
X144211115Y-108087518D01*
X144131266Y-108103400D01*
X144061243Y-108117329D01*
X143991651Y-108111101D01*
X143936474Y-108068237D01*
X143913230Y-108002347D01*
X143929298Y-107934350D01*
X143949365Y-107908036D01*
X144926097Y-106931304D01*
X144987420Y-106897820D01*
X145013778Y-106894986D01*
X146120130Y-106894986D01*
X146120131Y-106894986D01*
X146179742Y-106888578D01*
X146314590Y-106838283D01*
X146429805Y-106752033D01*
X146503755Y-106653248D01*
X146559686Y-106611378D01*
X146629378Y-106606394D01*
X146690701Y-106639879D01*
X147638927Y-107588104D01*
X147672412Y-107649427D01*
X147675246Y-107675785D01*
X147675246Y-108044343D01*
X147655561Y-108111382D01*
X147638927Y-108132024D01*
X147520277Y-108250673D01*
X147520276Y-108250674D01*
X147432268Y-108396256D01*
X147381659Y-108558670D01*
X147375246Y-108629249D01*
X147375246Y-108865313D01*
X147355561Y-108932352D01*
X147302757Y-108978107D01*
X147284056Y-108984146D01*
X147284188Y-108984581D01*
X147278355Y-108986350D01*
X147137226Y-109044807D01*
X147137217Y-109044812D01*
X147010209Y-109129677D01*
X147010205Y-109129680D01*
X146902193Y-109237692D01*
X146902190Y-109237696D01*
X146817325Y-109364704D01*
X146817320Y-109364713D01*
X146758863Y-109505842D01*
X146758861Y-109505850D01*
X146729061Y-109655663D01*
X146729061Y-109808432D01*
X146758861Y-109958245D01*
X146758863Y-109958253D01*
X146817320Y-110099382D01*
X146817325Y-110099391D01*
X146902190Y-110226399D01*
X146902193Y-110226403D01*
X147010205Y-110334415D01*
X147010209Y-110334418D01*
X147137217Y-110419283D01*
X147137226Y-110419288D01*
X147154879Y-110426600D01*
X147278356Y-110477746D01*
X147428176Y-110507547D01*
X147428180Y-110507548D01*
X147428181Y-110507548D01*
X147580942Y-110507548D01*
X147580943Y-110507547D01*
X147730766Y-110477746D01*
X147871898Y-110419287D01*
X147998913Y-110334418D01*
X148106931Y-110226400D01*
X148191800Y-110099385D01*
X148209119Y-110057573D01*
X148227619Y-110012911D01*
X148271460Y-109958507D01*
X148337754Y-109936442D01*
X148342180Y-109936363D01*
X148532359Y-109936363D01*
X148532362Y-109936363D01*
X148602942Y-109929949D01*
X148765352Y-109879341D01*
X148910931Y-109791335D01*
X149013066Y-109689199D01*
X149074387Y-109655716D01*
X149144079Y-109660700D01*
X149188427Y-109689201D01*
X149192066Y-109692840D01*
X149225551Y-109754163D01*
X149226002Y-109756329D01*
X149252164Y-109887853D01*
X149252167Y-109887863D01*
X149304968Y-110015338D01*
X149381633Y-110130076D01*
X149381634Y-110130077D01*
X149432620Y-110181062D01*
X149459501Y-110221291D01*
X149495259Y-110307618D01*
X149495264Y-110307628D01*
X149580129Y-110434636D01*
X149580132Y-110434640D01*
X149688144Y-110542652D01*
X149688148Y-110542655D01*
X149815156Y-110627520D01*
X149815162Y-110627523D01*
X149815163Y-110627524D01*
X149956295Y-110685983D01*
X150106115Y-110715784D01*
X150106119Y-110715785D01*
X150106120Y-110715785D01*
X150258881Y-110715785D01*
X150258882Y-110715784D01*
X150408705Y-110685983D01*
X150549837Y-110627524D01*
X150676852Y-110542655D01*
X150784870Y-110434637D01*
X150869739Y-110307622D01*
X150928198Y-110166490D01*
X150958000Y-110016665D01*
X150958000Y-109863905D01*
X150928198Y-109714080D01*
X150878167Y-109593294D01*
X150869740Y-109572950D01*
X150867041Y-109568911D01*
X150824002Y-109504499D01*
X150803125Y-109437822D01*
X150808720Y-109398718D01*
X150819832Y-109363059D01*
X150826246Y-109292479D01*
X150826246Y-108629247D01*
X150819832Y-108558667D01*
X150769224Y-108396257D01*
X150681218Y-108250678D01*
X150681216Y-108250676D01*
X150681215Y-108250674D01*
X150560934Y-108130393D01*
X150559397Y-108129464D01*
X150415352Y-108042385D01*
X150252942Y-107991777D01*
X150252940Y-107991776D01*
X150252938Y-107991776D01*
X150203524Y-107987286D01*
X150182362Y-107985363D01*
X149669130Y-107985363D01*
X149649891Y-107987111D01*
X149598553Y-107991776D01*
X149436139Y-108042385D01*
X149290557Y-108130393D01*
X149290556Y-108130394D01*
X149188427Y-108232524D01*
X149127104Y-108266009D01*
X149057412Y-108261025D01*
X149013065Y-108232524D01*
X148912565Y-108132024D01*
X148879080Y-108070701D01*
X148876246Y-108044343D01*
X148876246Y-107464748D01*
X148876247Y-107464735D01*
X148876247Y-107296632D01*
X148871237Y-107277935D01*
X148835323Y-107143904D01*
X148783333Y-107053853D01*
X148756270Y-107006978D01*
X148756264Y-107006970D01*
X147260475Y-105511181D01*
X147226990Y-105449858D01*
X147231974Y-105380166D01*
X147273846Y-105324233D01*
X147339310Y-105299816D01*
X147348156Y-105299500D01*
X156507424Y-105299500D01*
X156574463Y-105319185D01*
G37*
%TD.AperFunction*%
%TA.AperFunction,Conductor*%
G36*
X139388607Y-118516804D02*
G01*
X139443785Y-118559666D01*
X139467030Y-118625556D01*
X139450963Y-118693553D01*
X139430889Y-118719875D01*
X138121714Y-120029050D01*
X138060391Y-120062535D01*
X137990699Y-120057551D01*
X137934766Y-120015679D01*
X137915371Y-119977360D01*
X137913974Y-119972756D01*
X137913973Y-119972749D01*
X137866205Y-119857429D01*
X137842323Y-119799771D01*
X137842318Y-119799762D01*
X137738302Y-119644092D01*
X137738299Y-119644088D01*
X137605911Y-119511700D01*
X137605907Y-119511697D01*
X137450237Y-119407681D01*
X137450228Y-119407676D01*
X137277251Y-119336027D01*
X137277243Y-119336025D01*
X137093620Y-119299500D01*
X137093616Y-119299500D01*
X136906384Y-119299500D01*
X136906379Y-119299500D01*
X136722756Y-119336025D01*
X136722748Y-119336027D01*
X136549771Y-119407676D01*
X136549762Y-119407681D01*
X136428001Y-119489040D01*
X136361323Y-119509918D01*
X136293943Y-119491433D01*
X136247253Y-119439454D01*
X136235110Y-119385938D01*
X136235110Y-118844624D01*
X136254795Y-118777585D01*
X136307599Y-118731830D01*
X136370331Y-118721133D01*
X136418384Y-118725500D01*
X136418387Y-118725500D01*
X137081613Y-118725500D01*
X137081616Y-118725500D01*
X137152196Y-118719086D01*
X137314606Y-118668478D01*
X137460185Y-118580472D01*
X137460189Y-118580468D01*
X137478839Y-118561819D01*
X137540162Y-118528334D01*
X137566520Y-118525500D01*
X139243996Y-118525500D01*
X139319016Y-118510577D01*
X139388607Y-118516804D01*
G37*
%TD.AperFunction*%
%TA.AperFunction,Conductor*%
G36*
X165046230Y-113421185D02*
G01*
X165091985Y-113473989D01*
X165101929Y-113543147D01*
X165072904Y-113606703D01*
X165066872Y-113613181D01*
X165031923Y-113648129D01*
X165031917Y-113648137D01*
X164948255Y-113789603D01*
X164948254Y-113789606D01*
X164902402Y-113947426D01*
X164902401Y-113947432D01*
X164899500Y-113984298D01*
X164899500Y-114415701D01*
X164902401Y-114452567D01*
X164902402Y-114452573D01*
X164948254Y-114610393D01*
X164948255Y-114610396D01*
X165031917Y-114751862D01*
X165031923Y-114751870D01*
X165112171Y-114832118D01*
X165145656Y-114893441D01*
X165140672Y-114963133D01*
X165098800Y-115019066D01*
X165033336Y-115043483D01*
X165024490Y-115043799D01*
X164460157Y-115043799D01*
X164393118Y-115024114D01*
X164347363Y-114971310D01*
X164337419Y-114902152D01*
X164366444Y-114838596D01*
X164372476Y-114832117D01*
X164460256Y-114744337D01*
X164545052Y-114604065D01*
X164593820Y-114447562D01*
X164600000Y-114379556D01*
X164600000Y-114250000D01*
X164000000Y-114250000D01*
X164000000Y-114998140D01*
X164022648Y-115018824D01*
X164058875Y-115078568D01*
X164057052Y-115148414D01*
X164038294Y-115184697D01*
X163950505Y-115301968D01*
X163950503Y-115301970D01*
X163900209Y-115436816D01*
X163893802Y-115496415D01*
X163893802Y-115496422D01*
X163893801Y-115496434D01*
X163893801Y-116603782D01*
X163874116Y-116670821D01*
X163821312Y-116716576D01*
X163752154Y-116726520D01*
X163688598Y-116697495D01*
X163682120Y-116691463D01*
X161860615Y-114869958D01*
X161827130Y-114808635D01*
X161832114Y-114738943D01*
X161873986Y-114683010D01*
X161879406Y-114679175D01*
X161982340Y-114610396D01*
X161994352Y-114602370D01*
X162102370Y-114494352D01*
X162179068Y-114379566D01*
X162900001Y-114379566D01*
X162906178Y-114447561D01*
X162906181Y-114447572D01*
X162954944Y-114604060D01*
X162954946Y-114604064D01*
X163039743Y-114744337D01*
X163039747Y-114744342D01*
X163155657Y-114860252D01*
X163155662Y-114860256D01*
X163295934Y-114945052D01*
X163452442Y-114993821D01*
X163452440Y-114993821D01*
X163499999Y-114998142D01*
X163500000Y-114998142D01*
X163500000Y-114250000D01*
X162900001Y-114250000D01*
X162900001Y-114379566D01*
X162179068Y-114379566D01*
X162187239Y-114367337D01*
X162245698Y-114226205D01*
X162268818Y-114109968D01*
X162301203Y-114048058D01*
X162302697Y-114046537D01*
X162688319Y-113660916D01*
X162749642Y-113627431D01*
X162819334Y-113632415D01*
X162875267Y-113674287D01*
X162899684Y-113739751D01*
X162900000Y-113748597D01*
X162900000Y-113750000D01*
X164599999Y-113750000D01*
X164599999Y-113620433D01*
X164593821Y-113552440D01*
X164593275Y-113549694D01*
X164593422Y-113548048D01*
X164593227Y-113545899D01*
X164593617Y-113545863D01*
X164599501Y-113480102D01*
X164642363Y-113424924D01*
X164708253Y-113401678D01*
X164714892Y-113401500D01*
X164979191Y-113401500D01*
X165046230Y-113421185D01*
G37*
%TD.AperFunction*%
%TA.AperFunction,Conductor*%
G36*
X136365507Y-113632076D02*
G01*
X136365518Y-113632077D01*
X137531712Y-113632077D01*
X137598751Y-113651762D01*
X137644506Y-113704566D01*
X137655712Y-113756077D01*
X137655712Y-113807077D01*
X137636027Y-113874116D01*
X137583223Y-113919871D01*
X137531712Y-113931077D01*
X136365508Y-113931077D01*
X136363944Y-113931138D01*
X136363702Y-113931077D01*
X136363083Y-113931077D01*
X136363083Y-113930921D01*
X136296188Y-113914082D01*
X136248409Y-113863101D01*
X136235110Y-113807232D01*
X136235110Y-113755921D01*
X136254795Y-113688882D01*
X136307599Y-113643127D01*
X136363083Y-113632191D01*
X136363083Y-113632077D01*
X136363665Y-113632077D01*
X136363975Y-113632016D01*
X136365507Y-113632076D01*
G37*
%TD.AperFunction*%
%TA.AperFunction,Conductor*%
G36*
X159217506Y-111241405D02*
G01*
X159230839Y-111239489D01*
X159250982Y-111248688D01*
X159272619Y-111253395D01*
X159290345Y-111266664D01*
X159294395Y-111268514D01*
X159300868Y-111274542D01*
X159300871Y-111274544D01*
X159334436Y-111308109D01*
X159345220Y-111318893D01*
X159466024Y-111439697D01*
X159466025Y-111439699D01*
X159466034Y-111439708D01*
X159470364Y-111444038D01*
X159470365Y-111444039D01*
X159582169Y-111555843D01*
X159582171Y-111555844D01*
X159582175Y-111555847D01*
X159650845Y-111595493D01*
X159719101Y-111634900D01*
X159804110Y-111657678D01*
X159871827Y-111675823D01*
X159871828Y-111675823D01*
X162815985Y-111675823D01*
X162823590Y-111675823D01*
X162823594Y-111675824D01*
X162857291Y-111675824D01*
X162924330Y-111695510D01*
X162970084Y-111748315D01*
X162974272Y-111777452D01*
X162980026Y-111817471D01*
X162964021Y-111862943D01*
X162948255Y-111889602D01*
X162902402Y-112047426D01*
X162902401Y-112047433D01*
X162899349Y-112086227D01*
X162874466Y-112151516D01*
X162818235Y-112192988D01*
X162775731Y-112200500D01*
X162619943Y-112200500D01*
X162467214Y-112241423D01*
X162437530Y-112258562D01*
X162437529Y-112258562D01*
X162330287Y-112320477D01*
X162330282Y-112320481D01*
X161453520Y-113197244D01*
X161392197Y-113230729D01*
X161390031Y-113231180D01*
X161273800Y-113254300D01*
X161273794Y-113254302D01*
X161132665Y-113312759D01*
X161132656Y-113312764D01*
X161005648Y-113397629D01*
X161005644Y-113397632D01*
X160897632Y-113505644D01*
X160897629Y-113505648D01*
X160820824Y-113620594D01*
X160767211Y-113665399D01*
X160697886Y-113674106D01*
X160634859Y-113643951D01*
X160630041Y-113639384D01*
X159125511Y-112134854D01*
X159092026Y-112073531D01*
X159089192Y-112047173D01*
X159089192Y-111362227D01*
X159095430Y-111340981D01*
X159097010Y-111318893D01*
X159105082Y-111308109D01*
X159108877Y-111295188D01*
X159125610Y-111280688D01*
X159138882Y-111262960D01*
X159151502Y-111258252D01*
X159161681Y-111249433D01*
X159183598Y-111246281D01*
X159204346Y-111238543D01*
X159217506Y-111241405D01*
G37*
%TD.AperFunction*%
%TA.AperFunction,Conductor*%
G36*
X154225520Y-112470185D02*
G01*
X154246162Y-112486819D01*
X154893881Y-113134538D01*
X154927366Y-113195861D01*
X154930200Y-113222219D01*
X154930200Y-113257825D01*
X154930744Y-113263351D01*
X154917723Y-113331997D01*
X154869655Y-113382705D01*
X154807341Y-113399500D01*
X154111796Y-113399500D01*
X154044757Y-113379815D01*
X154024115Y-113363181D01*
X153323115Y-112662181D01*
X153289630Y-112600858D01*
X153294614Y-112531166D01*
X153336486Y-112475233D01*
X153401950Y-112450816D01*
X153410796Y-112450500D01*
X154158481Y-112450500D01*
X154225520Y-112470185D01*
G37*
%TD.AperFunction*%
%TA.AperFunction,Conductor*%
G36*
X161203788Y-110069008D02*
G01*
X161249543Y-110121812D01*
X161260749Y-110173323D01*
X161260749Y-110350823D01*
X161241064Y-110417862D01*
X161188260Y-110463617D01*
X161136749Y-110474823D01*
X160455249Y-110474823D01*
X160388210Y-110455138D01*
X160385243Y-110451713D01*
X160420805Y-110390119D01*
X160441249Y-110313819D01*
X160441249Y-110052368D01*
X160455249Y-110049323D01*
X161136749Y-110049323D01*
X161203788Y-110069008D01*
G37*
%TD.AperFunction*%
%TA.AperFunction,Conductor*%
G36*
X151249500Y-102500067D02*
G01*
X151249500Y-102549837D01*
X151249575Y-102550212D01*
X151268582Y-102595898D01*
X151268654Y-102596073D01*
X151287636Y-102641898D01*
X151287777Y-102642109D01*
X151287851Y-102642221D01*
X151287856Y-102642226D01*
X151287857Y-102642227D01*
X151322983Y-102677244D01*
X151323119Y-102677380D01*
X151358104Y-102712365D01*
X151358432Y-102712583D01*
X151358433Y-102712584D01*
X151404272Y-102731487D01*
X151450172Y-102750500D01*
X151450374Y-102750500D01*
X151450561Y-102750577D01*
X151450573Y-102750576D01*
X151450574Y-102750577D01*
X151500132Y-102750500D01*
X151561438Y-102750500D01*
X151562402Y-102750402D01*
X169612810Y-102722364D01*
X169679877Y-102741945D01*
X169725714Y-102794677D01*
X169737000Y-102846364D01*
X169737000Y-104386497D01*
X169717315Y-104453536D01*
X169664511Y-104499291D01*
X169595353Y-104509235D01*
X169531797Y-104480210D01*
X169525319Y-104474178D01*
X169418715Y-104367574D01*
X169418711Y-104367571D01*
X169254933Y-104258137D01*
X169254920Y-104258130D01*
X169072940Y-104182752D01*
X169072932Y-104182750D01*
X169031249Y-104174458D01*
X169031249Y-104977334D01*
X169021309Y-104960118D01*
X168965454Y-104904263D01*
X168897045Y-104864767D01*
X168820745Y-104844323D01*
X168741753Y-104844323D01*
X168665453Y-104864767D01*
X168597044Y-104904263D01*
X168541189Y-104960118D01*
X168531249Y-104977334D01*
X168531249Y-104174459D01*
X168531248Y-104174458D01*
X168489565Y-104182750D01*
X168489557Y-104182752D01*
X168307577Y-104258130D01*
X168307564Y-104258137D01*
X168143786Y-104367571D01*
X168143782Y-104367574D01*
X168004500Y-104506856D01*
X168004497Y-104506860D01*
X167895063Y-104670638D01*
X167895056Y-104670651D01*
X167819679Y-104852629D01*
X167819676Y-104852641D01*
X167781249Y-105045827D01*
X167781249Y-105294323D01*
X168481249Y-105294323D01*
X168481249Y-105794323D01*
X167781249Y-105794323D01*
X167781249Y-106042818D01*
X167819676Y-106236004D01*
X167819679Y-106236016D01*
X167895056Y-106417994D01*
X167895063Y-106418007D01*
X168004497Y-106581785D01*
X168004500Y-106581789D01*
X168143782Y-106721071D01*
X168143786Y-106721074D01*
X168307564Y-106830508D01*
X168307577Y-106830515D01*
X168489557Y-106905892D01*
X168531249Y-106914185D01*
X168531249Y-106111311D01*
X168541189Y-106128528D01*
X168597044Y-106184383D01*
X168665453Y-106223879D01*
X168741753Y-106244323D01*
X168820745Y-106244323D01*
X168897045Y-106223879D01*
X168965454Y-106184383D01*
X169021309Y-106128528D01*
X169031249Y-106111311D01*
X169031249Y-106914185D01*
X169072939Y-106905892D01*
X169072941Y-106905892D01*
X169254920Y-106830515D01*
X169254933Y-106830508D01*
X169418711Y-106721074D01*
X169418715Y-106721071D01*
X169525319Y-106614468D01*
X169586642Y-106580983D01*
X169656334Y-106585967D01*
X169712267Y-106627839D01*
X169736684Y-106693303D01*
X169737000Y-106702149D01*
X169737000Y-108416497D01*
X169717315Y-108483536D01*
X169664511Y-108529291D01*
X169595353Y-108539235D01*
X169531797Y-108510210D01*
X169525319Y-108504178D01*
X169418715Y-108397574D01*
X169418711Y-108397571D01*
X169254933Y-108288137D01*
X169254920Y-108288130D01*
X169072940Y-108212752D01*
X169072932Y-108212750D01*
X169031249Y-108204458D01*
X169031249Y-109007334D01*
X169021309Y-108990118D01*
X168965454Y-108934263D01*
X168897045Y-108894767D01*
X168820745Y-108874323D01*
X168741753Y-108874323D01*
X168665453Y-108894767D01*
X168597044Y-108934263D01*
X168541189Y-108990118D01*
X168531249Y-109007334D01*
X168531249Y-108204459D01*
X168531248Y-108204458D01*
X168489565Y-108212750D01*
X168489557Y-108212752D01*
X168307577Y-108288130D01*
X168307564Y-108288137D01*
X168143786Y-108397571D01*
X168143782Y-108397574D01*
X168004500Y-108536856D01*
X168004497Y-108536860D01*
X167895063Y-108700638D01*
X167895058Y-108700647D01*
X167891115Y-108710168D01*
X167847272Y-108764570D01*
X167780977Y-108786633D01*
X167713279Y-108769352D01*
X167707846Y-108765674D01*
X167573385Y-108688042D01*
X167457170Y-108656903D01*
X167427015Y-108648823D01*
X167275483Y-108648823D01*
X167129112Y-108688042D01*
X166997884Y-108763808D01*
X166997880Y-108763811D01*
X166961606Y-108800085D01*
X166900283Y-108833570D01*
X166830591Y-108828584D01*
X166799908Y-108811889D01*
X166792649Y-108806488D01*
X166727964Y-108741803D01*
X166634846Y-108688042D01*
X166628607Y-108684440D01*
X166628602Y-108684436D01*
X166605269Y-108670965D01*
X166591033Y-108662746D01*
X166438305Y-108621822D01*
X166280191Y-108621822D01*
X166272595Y-108621822D01*
X166272579Y-108621823D01*
X163134766Y-108621823D01*
X163067727Y-108602138D01*
X163065875Y-108600925D01*
X162967343Y-108535087D01*
X162967334Y-108535082D01*
X162826205Y-108476625D01*
X162826197Y-108476623D01*
X162676384Y-108446823D01*
X162676380Y-108446823D01*
X162523620Y-108446823D01*
X162523615Y-108446823D01*
X162373802Y-108476623D01*
X162373794Y-108476625D01*
X162232665Y-108535082D01*
X162232656Y-108535087D01*
X162105648Y-108619952D01*
X162015464Y-108710136D01*
X161954140Y-108743620D01*
X161884449Y-108738636D01*
X161865783Y-108729841D01*
X161793387Y-108688043D01*
X161793384Y-108688042D01*
X161647015Y-108648823D01*
X161495483Y-108648823D01*
X161349112Y-108688042D01*
X161279955Y-108727971D01*
X161217884Y-108763808D01*
X161217882Y-108763809D01*
X161210846Y-108767872D01*
X161209576Y-108765672D01*
X161156244Y-108786283D01*
X161087801Y-108772237D01*
X161037817Y-108723417D01*
X161031380Y-108710161D01*
X161027441Y-108700651D01*
X161027434Y-108700638D01*
X160918000Y-108536860D01*
X160917997Y-108536856D01*
X160778715Y-108397574D01*
X160778711Y-108397571D01*
X160614933Y-108288137D01*
X160614920Y-108288130D01*
X160427311Y-108210421D01*
X160428384Y-108207829D01*
X160380005Y-108176071D01*
X160351597Y-108112237D01*
X160350500Y-108095780D01*
X160350500Y-107784766D01*
X160370185Y-107717727D01*
X160371398Y-107715875D01*
X160437235Y-107617343D01*
X160437235Y-107617342D01*
X160437239Y-107617337D01*
X160495698Y-107476205D01*
X160525500Y-107326380D01*
X160525500Y-107173620D01*
X160495698Y-107023795D01*
X160492274Y-107015530D01*
X160484806Y-106946064D01*
X160516080Y-106883584D01*
X160559385Y-106853517D01*
X160614931Y-106830509D01*
X160778711Y-106721074D01*
X160778715Y-106721071D01*
X160917997Y-106581789D01*
X160918000Y-106581785D01*
X161027434Y-106418007D01*
X161027441Y-106417994D01*
X161102818Y-106236016D01*
X161102821Y-106236004D01*
X161141248Y-106042818D01*
X161141249Y-106042815D01*
X161141249Y-105794323D01*
X160441249Y-105794323D01*
X160441249Y-105294323D01*
X161141249Y-105294323D01*
X161141249Y-105045831D01*
X161141248Y-105045827D01*
X161102821Y-104852641D01*
X161102818Y-104852629D01*
X161027441Y-104670651D01*
X161027434Y-104670638D01*
X160918000Y-104506860D01*
X160917997Y-104506856D01*
X160778715Y-104367574D01*
X160778711Y-104367571D01*
X160614933Y-104258137D01*
X160614920Y-104258130D01*
X160432940Y-104182752D01*
X160432932Y-104182750D01*
X160391249Y-104174458D01*
X160391249Y-104977334D01*
X160381309Y-104960118D01*
X160325454Y-104904263D01*
X160257045Y-104864767D01*
X160180745Y-104844323D01*
X160101753Y-104844323D01*
X160025453Y-104864767D01*
X159957044Y-104904263D01*
X159901189Y-104960118D01*
X159891249Y-104977334D01*
X159891249Y-104174459D01*
X159891248Y-104174458D01*
X159849565Y-104182750D01*
X159849557Y-104182752D01*
X159667577Y-104258130D01*
X159667564Y-104258137D01*
X159503786Y-104367571D01*
X159503782Y-104367574D01*
X159364500Y-104506856D01*
X159364497Y-104506860D01*
X159255063Y-104670638D01*
X159255056Y-104670651D01*
X159179679Y-104852629D01*
X159179676Y-104852641D01*
X159141249Y-105045827D01*
X159141249Y-105294323D01*
X159841249Y-105294323D01*
X159841249Y-105794323D01*
X159089887Y-105794323D01*
X159089887Y-105791536D01*
X159044720Y-105788293D01*
X159000405Y-105759804D01*
X157295488Y-104054887D01*
X157180750Y-103978222D01*
X157053275Y-103925421D01*
X157053265Y-103925418D01*
X156917939Y-103898500D01*
X156917937Y-103898500D01*
X156917936Y-103898500D01*
X149046758Y-103898500D01*
X148979719Y-103878815D01*
X148933964Y-103826011D01*
X148922758Y-103774500D01*
X148922758Y-103496616D01*
X148922757Y-103496610D01*
X148922756Y-103496603D01*
X148916350Y-103437004D01*
X148880010Y-103339572D01*
X148866056Y-103302158D01*
X148866052Y-103302151D01*
X148779806Y-103186942D01*
X148779803Y-103186939D01*
X148664594Y-103100693D01*
X148664587Y-103100689D01*
X148529741Y-103050395D01*
X148529742Y-103050395D01*
X148470142Y-103043988D01*
X148470140Y-103043987D01*
X148470132Y-103043987D01*
X148470123Y-103043987D01*
X146024388Y-103043987D01*
X146024382Y-103043988D01*
X145964775Y-103050395D01*
X145829930Y-103100689D01*
X145829923Y-103100693D01*
X145714714Y-103186939D01*
X145714711Y-103186942D01*
X145628465Y-103302151D01*
X145628461Y-103302158D01*
X145578167Y-103437004D01*
X145571760Y-103496603D01*
X145571760Y-103496610D01*
X145571759Y-103496622D01*
X145571759Y-103523103D01*
X145552074Y-103590142D01*
X145499270Y-103635897D01*
X145430112Y-103645841D01*
X145366556Y-103616816D01*
X145360078Y-103610784D01*
X144461474Y-102712181D01*
X144427989Y-102650858D01*
X144432973Y-102581167D01*
X144474845Y-102525233D01*
X144540309Y-102500816D01*
X144549155Y-102500500D01*
X150799826Y-102500500D01*
X150799828Y-102500500D01*
X150801035Y-102500000D01*
X151249500Y-102500000D01*
X151249500Y-102500067D01*
G37*
%TD.AperFunction*%
%TA.AperFunction,Conductor*%
G36*
X142736791Y-102596437D02*
G01*
X142748380Y-102639684D01*
X142773314Y-102682870D01*
X142814289Y-102753842D01*
X142827436Y-102776613D01*
X142827438Y-102776616D01*
X142946306Y-102895484D01*
X142946312Y-102895489D01*
X144883128Y-104832306D01*
X144916613Y-104893629D01*
X144911629Y-104963321D01*
X144869757Y-105019254D01*
X144804293Y-105043671D01*
X144795447Y-105043987D01*
X143674388Y-105043987D01*
X143674382Y-105043988D01*
X143614775Y-105050395D01*
X143479930Y-105100689D01*
X143479923Y-105100693D01*
X143364714Y-105186939D01*
X143364711Y-105186942D01*
X143278465Y-105302151D01*
X143278461Y-105302158D01*
X143228167Y-105437004D01*
X143221760Y-105496603D01*
X143221759Y-105496615D01*
X143221759Y-106442357D01*
X143221760Y-106442363D01*
X143228167Y-106501969D01*
X143239968Y-106533609D01*
X143244951Y-106603300D01*
X143211466Y-106664621D01*
X141955887Y-107920200D01*
X141879222Y-108034939D01*
X141855324Y-108092633D01*
X141811483Y-108147036D01*
X141745188Y-108169100D01*
X141677489Y-108151820D01*
X141653083Y-108132860D01*
X141145313Y-107625090D01*
X141111828Y-107563767D01*
X141115062Y-107499094D01*
X141139563Y-107423692D01*
X141178973Y-107174869D01*
X141178973Y-106922945D01*
X141139563Y-106674122D01*
X141061714Y-106434528D01*
X141061712Y-106434525D01*
X141061712Y-106434523D01*
X141001378Y-106316113D01*
X140947343Y-106210062D01*
X140879706Y-106116967D01*
X140856227Y-106051164D01*
X140872052Y-105983110D01*
X140892344Y-105956402D01*
X140897123Y-105951622D01*
X140897129Y-105951619D01*
X141021185Y-105827563D01*
X141113287Y-105678242D01*
X141168472Y-105511705D01*
X141178973Y-105408917D01*
X141178973Y-103608897D01*
X141168472Y-103506109D01*
X141113287Y-103339572D01*
X141021185Y-103190251D01*
X140897129Y-103066195D01*
X140897125Y-103066192D01*
X140753642Y-102977690D01*
X140706917Y-102925742D01*
X140695696Y-102856780D01*
X140723539Y-102792698D01*
X140781608Y-102753842D01*
X140819409Y-102748154D01*
X141199516Y-102750228D01*
X141200172Y-102750500D01*
X141249321Y-102750500D01*
X141298461Y-102750768D01*
X141298461Y-102750767D01*
X141298476Y-102750768D01*
X141298725Y-102750719D01*
X141299388Y-102750589D01*
X141299806Y-102750508D01*
X141299825Y-102750500D01*
X141299828Y-102750500D01*
X141345235Y-102731691D01*
X141390736Y-102713135D01*
X141390740Y-102713130D01*
X141391443Y-102712666D01*
X141391534Y-102712606D01*
X141391892Y-102712368D01*
X141391895Y-102712364D01*
X141391897Y-102712364D01*
X141426668Y-102677592D01*
X141461587Y-102643053D01*
X141461852Y-102642420D01*
X141462347Y-102641926D01*
X141462356Y-102641913D01*
X141462361Y-102641899D01*
X141462364Y-102641897D01*
X141481193Y-102596437D01*
X141500224Y-102551193D01*
X141500226Y-102550525D01*
X141500485Y-102549903D01*
X141500500Y-102549832D01*
X141500500Y-102500633D01*
X141500503Y-102500000D01*
X142710951Y-102500000D01*
X142736791Y-102596437D01*
G37*
%TD.AperFunction*%
%TD*%
M02*
